<?xml version="1.0" encoding="UTF-8" standalone="no"?>
<!DOCTYPE svg PUBLIC "-//W3C//DTD SVG 1.1//EN" "http://www.w3.org/Graphics/SVG/1.1/DTD/svg11.dtd">
<svg xmlns:xl="http://www.w3.org/1999/xlink" xmlns="http://www.w3.org/2000/svg" xmlns:dc="http://purl.org/dc/elements/1.1/" version="1.1" viewBox="0 0 480 600" width="480" height="600">
  <defs/>
  <metadata> Produced by OmniGraffle 7.18.5\n2021-05-31 11:20:41 +0000</metadata>
  <g id="Canvas_1" fill="none" fill-opacity="1" stroke-dasharray="none" stroke-opacity="1" stroke="none">
    <title>Canvas 1</title>
    <g id="Canvas_1_book-base4">
      <title>book-base4</title>
      <g id="Graphic_453">
        <path d="M 12 0 L 468 0 C 474.6274 40581225e-23 480 5.372583 480 12 L 480 588 C 480 594.6274 474.6274 600 468 600 L 12 600 C 5.372583 600 8116245e-22 594.6274 0 588 L 35527137e-21 12 C 3633876e-20 5.372583 5.372583 -40581225e-23 12 0 Z" fill="white"/>
      </g>
    </g>
    <g id="Canvas_1_1a-CAL-nofont">
      <title>1a-CAL-nofont</title>
      <g id="Graphic_237">
        <rect x="0" y="188" width="480" height="10" fill="#ff85ff"/>
      </g>
      <g id="Group_246">
        <title>CALCULUS</title>
        <g id="Graphic_238">
          <path d="M 65.277 546.329 C 65.461 546.329 65.645 546.3635 65.829 546.4325 C 66.013 546.5015 66.18933 546.6203 66.358 546.789 L 69.44 550.032 C 68.09066 551.79534 66.40018 553.1255 64.3685 554.0225 C 62.33682 554.9195 59.93335 555.368 57.158 555.368 C 54.612654 555.368 52.331843 554.93484 50.3155 554.0685 C 48.299157 553.20216 46.589507 552.0062 45.1865 550.4805 C 43.783493 548.9548 42.706337 547.1455 41.955 545.0525 C 41.203663 542.9595 40.828 540.68635 40.828 538.233 C 40.828 535.73365 41.25733 533.4375 42.116 531.3445 C 42.97467 529.2515 44.17449 527.446 45.7155 525.928 C 47.25651 524.41 49.10032 523.22934 51.247 522.386 C 53.39368 521.54266 55.762654 521.121 58.354 521.121 C 59.61134 521.121 60.79583 521.23217 61.9075 521.4545 C 63.01917 521.67683 64.057995 521.9835 65.024 522.3745 C 65.990005 522.7655 66.87933 523.23316 67.692 523.7775 C 68.50467 524.32184 69.22533 524.92366 69.854 525.583 L 67.232 529.102 C 67.06333 529.31667 66.864 529.51217 66.634 529.6885 C 66.404 529.86483 66.082 529.953 65.668 529.953 C 65.392 529.953 65.131335 529.89167 64.886 529.769 C 64.640665 529.64633 64.38 529.49683 64.104 529.3205 C 63.828 529.14417 63.52517 528.9525 63.1955 528.7455 C 62.86583 528.5385 62.474836 528.34683 62.0225 528.1705 C 61.570164 527.99417 61.04117 527.84467 60.4355 527.722 C 59.82983 527.59933 59.12067 527.538 58.308 527.538 C 56.897326 527.538 55.60934 527.78716 54.444 528.2855 C 53.27866 528.78384 52.27817 529.4968 51.4425 530.4245 C 50.60683 531.3522 49.95517 532.4753 49.4875 533.794 C 49.01983 535.1127 48.786 536.5923 48.786 538.233 C 48.786 539.95034 49.01983 541.476 49.4875 542.81 C 49.95517 544.144 50.591496 545.26716 51.3965 546.1795 C 52.201504 547.09184 53.14066 547.78566 54.214 548.261 C 55.28734 548.73634 56.43733 548.974 57.664 548.974 C 58.36934 548.974 59.01333 548.9395 59.596 548.8705 C 60.17867 548.8015 60.719164 548.6827 61.2175 548.514 C 61.715836 548.3453 62.191164 548.12683 62.6435 547.8585 C 63.095836 547.59017 63.552 547.2567 64.012 546.858 C 64.196 546.70467 64.39533 546.57817 64.61 546.4785 C 64.82467 546.37883 65.047 546.329 65.277 546.329 Z" fill="#ff85ff"/>
        </g>
        <g id="Graphic_239">
          <path d="M 107.17 555 L 101.144 555 C 100.46933 555 99.9135 554.84283 99.4765 554.5285 C 99.0395 554.21417 98.73667 553.8117 98.568 553.321 L 96.59 547.479 L 83.848 547.479 L 81.87 553.321 C 81.71667 553.75034 81.41767 554.1375 80.973 554.4825 C 80.52833 554.8275 79.984 555 79.34 555 L 73.268 555 L 86.24 521.489 L 94.198 521.489 Z M 85.642 542.189 L 94.796 542.189 L 91.714 533.012 C 91.51467 532.4293 91.28083 531.7432 91.0125 530.9535 C 90.74417 530.1638 90.47967 529.309 90.219 528.389 C 89.97367 529.32434 89.72067 530.19066 89.46 530.988 C 89.19933 531.78534 88.954 532.4753 88.724 533.058 Z" fill="#ff85ff"/>
        </g>
        <g id="Graphic_240">
          <path d="M 120.658 548.79 L 133.078 548.79 L 133.078 555 L 112.884 555 L 112.884 521.489 L 120.658 521.489 Z" fill="#ff85ff"/>
        </g>
        <g id="Graphic_241">
          <path d="M 160.435 546.329 C 160.619 546.329 160.803 546.3635 160.987 546.4325 C 161.171 546.5015 161.34733 546.6203 161.516 546.789 L 164.598 550.032 C 163.24866 551.79534 161.55818 553.1255 159.5265 554.0225 C 157.49482 554.9195 155.09135 555.368 152.316 555.368 C 149.77065 555.368 147.48984 554.93484 145.4735 554.0685 C 143.45716 553.20216 141.7475 552.0062 140.3445 550.4805 C 138.9415 548.9548 137.86434 547.1455 137.113 545.0525 C 136.36166 542.9595 135.986 540.68635 135.986 538.233 C 135.986 535.73365 136.41533 533.4375 137.274 531.3445 C 138.13267 529.2515 139.3325 527.446 140.8735 525.928 C 142.4145 524.41 144.25832 523.22934 146.405 522.386 C 148.55168 521.54266 150.92065 521.121 153.512 521.121 C 154.76934 521.121 155.95383 521.23217 157.0655 521.4545 C 158.17717 521.67683 159.216 521.9835 160.182 522.3745 C 161.148 522.7655 162.03733 523.23316 162.85 523.7775 C 163.66267 524.32184 164.38333 524.92366 165.012 525.583 L 162.39 529.102 C 162.22133 529.31667 162.022 529.51217 161.792 529.6885 C 161.562 529.86483 161.24 529.953 160.826 529.953 C 160.55 529.953 160.28933 529.89167 160.044 529.769 C 159.79867 529.64633 159.538 529.49683 159.262 529.3205 C 158.986 529.14417 158.68317 528.9525 158.3535 528.7455 C 158.02383 528.5385 157.63284 528.34683 157.1805 528.1705 C 156.72816 527.99417 156.19917 527.84467 155.5935 527.722 C 154.98783 527.59933 154.27867 527.538 153.466 527.538 C 152.05533 527.538 150.76734 527.78716 149.602 528.2855 C 148.43666 528.78384 147.43617 529.4968 146.6005 530.4245 C 145.76483 531.3522 145.11317 532.4753 144.6455 533.794 C 144.17783 535.1127 143.944 536.5923 143.944 538.233 C 143.944 539.95034 144.17783 541.476 144.6455 542.81 C 145.11317 544.144 145.7495 545.26716 146.5545 546.1795 C 147.3595 547.09184 148.29866 547.78566 149.372 548.261 C 150.44534 548.73634 151.59533 548.974 152.822 548.974 C 153.52734 548.974 154.17133 548.9395 154.754 548.8705 C 155.33667 548.8015 155.87716 548.6827 156.3755 548.514 C 156.87384 548.3453 157.34916 548.12683 157.8015 547.8585 C 158.25384 547.59017 158.71 547.2567 159.17 546.858 C 159.354 546.70467 159.55333 546.57817 159.768 546.4785 C 159.98267 546.37883 160.205 546.329 160.435 546.329 Z" fill="#ff85ff"/>
        </g>
        <g id="Graphic_242">
          <path d="M 185.078 548.859 C 186.12067 548.859 187.05216 548.6865 187.8725 548.3415 C 188.69284 547.9965 189.38666 547.502 189.954 546.858 C 190.52134 546.214 190.9545 545.4282 191.2535 544.5005 C 191.5525 543.5728 191.702 542.5187 191.702 541.338 L 191.702 521.489 L 199.476 521.489 L 199.476 541.338 C 199.476 543.3927 199.1425 545.27866 198.4755 546.996 C 197.8085 548.71334 196.854 550.193 195.612 551.435 C 194.37 552.677 192.85968 553.643 191.081 554.333 C 189.30232 555.023 187.30134 555.368 185.078 555.368 C 182.83932 555.368 180.83068 555.023 179.052 554.333 C 177.27332 553.643 175.763 552.677 174.521 551.435 C 173.279 550.193 172.32834 548.71334 171.669 546.996 C 171.00966 545.27866 170.68 543.3927 170.68 541.338 L 170.68 521.489 L 178.454 521.489 L 178.454 541.315 C 178.454 542.4957 178.6035 543.5498 178.9025 544.4775 C 179.2015 545.4052 179.63466 546.1948 180.202 546.8465 C 180.76934 547.4982 181.46316 547.9965 182.2835 548.3415 C 183.10384 548.6865 184.03533 548.859 185.078 548.859 Z" fill="#ff85ff"/>
        </g>
        <g id="Graphic_243">
          <path d="M 215.31 548.79 L 227.73 548.79 L 227.73 555 L 207.536 555 L 207.536 521.489 L 215.31 521.489 Z" fill="#ff85ff"/>
        </g>
        <g id="Graphic_244">
          <path d="M 248.348 548.859 C 249.39067 548.859 250.32216 548.6865 251.1425 548.3415 C 251.96284 547.9965 252.65666 547.502 253.224 546.858 C 253.79134 546.214 254.2245 545.4282 254.5235 544.5005 C 254.8225 543.5728 254.972 542.5187 254.972 541.338 L 254.972 521.489 L 262.746 521.489 L 262.746 541.338 C 262.746 543.3927 262.4125 545.27866 261.7455 546.996 C 261.0785 548.71334 260.124 550.193 258.882 551.435 C 257.64 552.677 256.12968 553.643 254.351 554.333 C 252.57232 555.023 250.57134 555.368 248.348 555.368 C 246.10932 555.368 244.10068 555.023 242.322 554.333 C 240.54332 553.643 239.033 552.677 237.791 551.435 C 236.549 550.193 235.59834 548.71334 234.939 546.996 C 234.27966 545.27866 233.95 543.3927 233.95 541.338 L 233.95 521.489 L 241.724 521.489 L 241.724 541.315 C 241.724 542.4957 241.8735 543.5498 242.1725 544.4775 C 242.4715 545.4052 242.90466 546.1948 243.472 546.8465 C 244.03934 547.4982 244.73316 547.9965 245.5535 548.3415 C 246.37384 548.6865 247.30533 548.859 248.348 548.859 Z" fill="#ff85ff"/>
        </g>
        <g id="Graphic_245">
          <path d="M 289.482 528.297 C 289.252 528.665 289.0105 528.941 288.7575 529.125 C 288.5045 529.309 288.17867 529.401 287.78 529.401 C 287.42733 529.401 287.04784 529.28983 286.6415 529.0675 C 286.23516 528.84517 285.77517 528.596 285.2615 528.32 C 284.74783 528.044 284.16134 527.79483 283.502 527.5725 C 282.84266 527.35017 282.09134 527.239 281.248 527.239 C 279.79133 527.239 278.7065 527.5495 277.9935 528.1705 C 277.2805 528.7915 276.924 529.631 276.924 530.689 C 276.924 531.3637 277.13866 531.9233 277.568 532.368 C 277.99734 532.8127 278.56083 533.196 279.2585 533.518 C 279.95617 533.84 280.7535 534.13517 281.6505 534.4035 C 282.5475 534.67183 283.46366 534.9708 284.399 535.3005 C 285.33434 535.6302 286.2505 536.0173 287.1475 536.462 C 288.0445 536.9067 288.84183 537.474 289.5395 538.164 C 290.23717 538.854 290.80066 539.6935 291.23 540.6825 C 291.65934 541.6715 291.874 542.86366 291.874 544.259 C 291.874 545.8077 291.60567 547.25666 291.069 548.606 C 290.53233 549.95534 289.75417 551.13216 288.7345 552.1365 C 287.71483 553.14084 286.4575 553.9305 284.9625 554.5055 C 283.4675 555.0805 281.76934 555.368 279.868 555.368 C 278.82533 555.368 277.7635 555.2607 276.6825 555.046 C 275.6015 554.8313 274.555 554.5285 273.543 554.1375 C 272.531 553.7465 271.58034 553.2827 270.691 552.746 C 269.80166 552.2093 269.02734 551.61134 268.368 550.952 L 270.668 547.318 C 270.83667 547.042 271.07433 546.8197 271.381 546.651 C 271.68767 546.4823 272.01733 546.398 272.37 546.398 C 272.83 546.398 273.29383 546.54367 273.7615 546.835 C 274.22917 547.12633 274.75816 547.4483 275.3485 547.801 C 275.93884 548.1537 276.61733 548.47567 277.384 548.767 C 278.15067 549.05833 279.05533 549.204 280.098 549.204 C 281.50867 549.204 282.605 548.8935 283.387 548.2725 C 284.169 547.6515 284.56 546.66634 284.56 545.317 C 284.56 544.535 284.34534 543.8987 283.916 543.408 C 283.48666 542.9173 282.92317 542.511 282.2255 542.189 C 281.52783 541.867 280.73434 541.58333 279.845 541.338 C 278.95566 541.09267 278.04334 540.8205 277.108 540.5215 C 276.17266 540.2225 275.26034 539.8545 274.371 539.4175 C 273.48166 538.9805 272.68817 538.4055 271.9905 537.6925 C 271.29283 536.9795 270.72934 536.0902 270.3 535.0245 C 269.87066 533.9588 269.656 532.644 269.656 531.08 C 269.656 529.82266 269.909 528.596 270.415 527.4 C 270.921 526.204 271.66466 525.13834 272.646 524.203 C 273.62734 523.26766 274.831 522.5202 276.257 521.9605 C 277.683 521.4008 279.316 521.121 281.156 521.121 C 282.18334 521.121 283.18383 521.2015 284.1575 521.3625 C 285.13117 521.5235 286.055 521.76117 286.929 522.0755 C 287.803 522.38983 288.6195 522.7655 289.3785 523.2025 C 290.1375 523.6395 290.816 524.134 291.414 524.686 Z" fill="#ff85ff"/>
        </g>
      </g>
    </g>
    <g id="Canvas_1_1a-ftc1-nofont">
      <title>1a-ftc1-nofont</title>
      <g id="Group_333">
        <title>Fundamental Theorem of Calculus</title>
        <g id="Graphic_305">
          <path d="M 73.856 234.728 L 73.856 241.576 L 53.344 241.576 L 53.344 255.272 L 70.656 255.272 L 70.656 262.152 L 53.344 262.152 L 53.344 281 L 44.672 281 L 44.672 234.728 Z" fill="#424242"/>
        </g>
        <g id="Graphic_306">
          <path d="M 85.472 248.168 L 85.472 269.032 C 85.472 271.03734 85.936 272.58933 86.864 273.688 C 87.792 274.78667 89.18399 275.336 91.04 275.336 C 92.40534 275.336 93.68533 275.032 94.88 274.424 C 96.07467 273.816 97.20533 272.97867 98.272 271.912 L 98.272 248.168 L 106.176 248.168 L 106.176 281 L 101.344 281 C 100.32 281 99.648 280.52 99.328 279.56 L 98.784 276.936 C 98.10133 277.61867 97.39734 278.24266 96.672 278.808 C 95.94666 279.37334 95.17334 279.85333 94.352 280.248 C 93.53066 280.64267 92.64534 280.952 91.696 281.176 C 90.74666 281.4 89.72801 281.512 88.64 281.512 C 86.84799 281.512 85.26401 281.208 83.888 280.6 C 82.51199 279.992 81.35467 279.13334 80.416 278.024 C 79.47733 276.91466 78.768 275.59734 78.288 274.072 C 77.808 272.54666 77.568 270.86668 77.568 269.032 L 77.568 248.168 Z" fill="#424242"/>
        </g>
        <g id="Graphic_307">
          <path d="M 114.624 281 L 114.624 248.168 L 119.456 248.168 C 120.48 248.168 121.152 248.648 121.472 249.608 L 122.016 252.2 C 122.67734 251.51733 123.376 250.89867 124.112 250.344 C 124.848 249.78933 125.62666 249.30934 126.448 248.904 C 127.26934 248.49866 128.14933 248.18933 129.088 247.976 C 130.02667 247.76267 131.05066 247.656 132.16 247.656 C 133.95201 247.656 135.54133 247.96 136.928 248.568 C 138.31467 249.176 139.472 250.02933 140.4 251.128 C 141.328 252.22667 142.032 253.53866 142.512 255.064 C 142.992 256.58934 143.232 258.26932 143.232 260.104 L 143.232 281 L 135.328 281 L 135.328 260.104 C 135.328 258.09866 134.864 256.54667 133.936 255.448 C 133.008 254.34933 131.61601 253.8 129.76 253.8 C 128.39466 253.8 127.11467 254.10933 125.92 254.728 C 124.72533 255.34667 123.59467 256.18933 122.528 257.256 L 122.528 281 Z" fill="#424242"/>
        </g>
        <g id="Graphic_308">
          <path d="M 174.112 281 C 173.088 281 172.416 280.52 172.096 279.56 L 171.456 276.392 C 170.77333 277.16 170.05867 277.85333 169.312 278.472 C 168.56533 279.09067 167.76 279.624 166.896 280.072 C 166.032 280.52 165.104 280.86667 164.112 281.112 C 163.12 281.35733 162.048 281.48 160.896 281.48 C 159.104 281.48 157.46134 281.10667 155.968 280.36 C 154.47466 279.61333 153.18934 278.53067 152.112 277.112 C 151.03466 275.69333 150.20267 273.93868 149.616 271.848 C 149.02933 269.75732 148.736 267.368 148.736 264.68 C 148.736 262.248 149.06666 259.98668 149.728 257.896 C 150.38934 255.80532 151.33866 253.992 152.576 252.456 C 153.81334 250.92 155.296 249.72 157.024 248.856 C 158.752 247.992 160.69332 247.56 162.848 247.56 C 164.68268 247.56 166.25066 247.85333 167.552 248.44 C 168.85334 249.02667 170.016 249.81066 171.04 250.792 L 171.04 233.448 L 178.944 233.448 L 178.944 281 Z M 163.584 275.208 C 165.22667 275.208 166.624 274.86667 167.776 274.184 C 168.928 273.50133 170.016 272.53067 171.04 271.272 L 171.04 256.552 C 170.144 255.464 169.168 254.696 168.112 254.248 C 167.056 253.8 165.92 253.576 164.704 253.576 C 163.50933 253.576 162.42667 253.8 161.456 254.248 C 160.48533 254.696 159.664 255.37333 158.992 256.28 C 158.32 257.18667 157.80267 258.33866 157.44 259.736 C 157.07733 261.13334 156.896 262.78132 156.896 264.68 C 156.896 266.6 157.05067 268.22666 157.36 269.56 C 157.66933 270.89334 158.112 271.98133 158.688 272.824 C 159.264 273.66667 159.968 274.27466 160.8 274.648 C 161.632 275.02134 162.56 275.208 163.584 275.208 Z" fill="#424242"/>
        </g>
        <g id="Graphic_309">
          <path d="M 213.216 281 L 209.664 281 C 208.91733 281 208.33067 280.888 207.904 280.664 C 207.47733 280.44 207.15733 279.98667 206.944 279.304 L 206.24 276.968 C 205.408 277.71467 204.592 278.37066 203.792 278.936 C 202.992 279.50134 202.16534 279.976 201.312 280.36 C 200.45866 280.744 199.552 281.032 198.592 281.224 C 197.632 281.416 196.56534 281.512 195.392 281.512 C 194.00533 281.512 192.72534 281.32534 191.552 280.952 C 190.37866 280.57866 189.37067 280.01867 188.528 279.272 C 187.68533 278.52533 187.02934 277.59734 186.56 276.488 C 186.09066 275.37866 185.856 274.088 185.856 272.616 C 185.856 271.37866 186.18133 270.15734 186.832 268.952 C 187.48267 267.74666 188.56533 266.65867 190.08 265.688 C 191.59467 264.71733 193.61065 263.912 196.128 263.272 C 198.64535 262.632 201.77065 262.26933 205.504 262.184 L 205.504 260.264 C 205.504 258.06666 205.04 256.44 204.112 255.384 C 203.184 254.328 201.83468 253.8 200.064 253.8 C 198.784 253.8 197.71734 253.94933 196.864 254.248 C 196.01066 254.54667 195.26934 254.88266 194.64 255.256 C 194.01066 255.62934 193.42934 255.96533 192.896 256.264 C 192.36266 256.56267 191.776 256.712 191.136 256.712 C 190.60266 256.712 190.144 256.57333 189.76 256.296 C 189.376 256.01867 189.06667 255.67734 188.832 255.272 L 187.392 252.744 C 191.16802 249.28798 195.72264 247.56 201.056 247.56 C 202.976 247.56 204.688 247.87466 206.192 248.504 C 207.696 249.13334 208.97066 250.008 210.016 251.128 C 211.06134 252.248 211.856 253.58666 212.4 255.144 C 212.944 256.70134 213.216 258.408 213.216 260.264 Z M 197.856 276.072 C 198.66667 276.072 199.41333 275.99733 200.096 275.848 C 200.77867 275.69867 201.424 275.47467 202.032 275.176 C 202.64 274.87733 203.22666 274.50934 203.792 274.072 C 204.35734 273.63466 204.928 273.11734 205.504 272.52 L 205.504 266.984 C 203.2 267.09067 201.27467 267.288 199.728 267.576 C 198.18133 267.864 196.93867 268.232 196 268.68 C 195.06133 269.128 194.39467 269.65066 194 270.248 C 193.60533 270.84534 193.408 271.496 193.408 272.2 C 193.408 273.58667 193.81866 274.57866 194.64 275.176 C 195.46134 275.77334 196.53333 276.072 197.856 276.072 Z" fill="#424242"/>
        </g>
        <g id="Graphic_310">
          <path d="M 220.992 281 L 220.992 248.168 L 225.824 248.168 C 226.848 248.168 227.52 248.648 227.84 249.608 L 228.352 252.04 C 228.928 251.4 229.53066 250.81334 230.16 250.28 C 230.78934 249.74666 231.46133 249.288 232.176 248.904 C 232.89067 248.52 233.65866 248.216 234.48 247.992 C 235.30134 247.768 236.20266 247.656 237.184 247.656 C 239.25334 247.656 240.95466 248.216 242.288 249.336 C 243.62134 250.456 244.61866 251.944 245.28 253.8 C 245.792 252.712 246.432 251.77867 247.2 251 C 247.968 250.22133 248.81066 249.58667 249.728 249.096 C 250.64534 248.60533 251.62133 248.24267 252.656 248.008 C 253.69067 247.77333 254.73066 247.656 255.776 247.656 C 257.58934 247.656 259.2 247.93333 260.608 248.488 C 262.016 249.04267 263.2 249.85333 264.16 250.92 C 265.12 251.98667 265.85066 253.288 266.352 254.824 C 266.85334 256.36 267.104 258.12 267.104 260.104 L 267.104 281 L 259.2 281 L 259.2 260.104 C 259.2 258.01332 258.74134 256.44 257.824 255.384 C 256.90666 254.328 255.56268 253.8 253.792 253.8 C 252.98133 253.8 252.22934 253.93867 251.536 254.216 C 250.84266 254.49333 250.23467 254.89333 249.712 255.416 C 249.18933 255.93867 248.77867 256.59466 248.48 257.384 C 248.18133 258.17334 248.032 259.08 248.032 260.104 L 248.032 281 L 240.096 281 L 240.096 260.104 C 240.096 257.90666 239.65334 256.30667 238.768 255.304 C 237.88266 254.30133 236.576 253.8 234.848 253.8 C 233.71733 253.8 232.656 254.08266 231.664 254.648 C 230.672 255.21334 229.74934 255.98666 228.896 256.968 L 228.896 281 Z" fill="#424242"/>
        </g>
        <g id="Graphic_311">
          <path d="M 288.448 247.656 C 290.51734 247.656 292.42132 247.98666 294.16 248.648 C 295.89868 249.30934 297.39733 250.27466 298.656 251.544 C 299.91467 252.81334 300.896 254.37066 301.6 256.216 C 302.304 258.06134 302.656 260.168 302.656 262.536 C 302.656 263.13334 302.62933 263.62933 302.576 264.024 C 302.52267 264.41867 302.42667 264.728 302.288 264.952 C 302.14933 265.176 301.96267 265.336 301.728 265.432 C 301.49333 265.528 301.19467 265.576 300.832 265.576 L 280.544 265.576 C 280.77867 268.94668 281.68533 271.42133 283.264 273 C 284.84267 274.57867 286.93332 275.368 289.536 275.368 C 290.816 275.368 291.92 275.21867 292.848 274.92 C 293.776 274.62133 294.58666 274.29067 295.28 273.928 C 295.97334 273.56533 296.58133 273.23467 297.104 272.936 C 297.62667 272.63733 298.13333 272.488 298.624 272.488 C 298.944 272.488 299.22133 272.552 299.456 272.68 C 299.69067 272.808 299.89333 272.98933 300.064 273.224 L 302.368 276.104 C 301.49333 277.128 300.512 277.98666 299.424 278.68 C 298.336 279.37334 297.2 279.928 296.016 280.344 C 294.832 280.76 293.62667 281.05333 292.4 281.224 C 291.17333 281.39467 289.984 281.48 288.832 281.48 C 286.54932 281.48 284.42668 281.10134 282.464 280.344 C 280.50132 279.58666 278.79467 278.46667 277.344 276.984 C 275.89333 275.50133 274.752 273.66668 273.92 271.48 C 273.088 269.29332 272.672 266.76 272.672 263.88 C 272.672 261.64 273.03466 259.53334 273.76 257.56 C 274.48534 255.58666 275.52533 253.86934 276.88 252.408 C 278.23467 250.94666 279.888 249.78934 281.84 248.936 C 283.792 248.08266 285.99465 247.656 288.448 247.656 Z M 288.608 253.32 C 286.304 253.32 284.50134 253.97066 283.2 255.272 C 281.89866 256.57334 281.06667 258.41865 280.704 260.808 L 295.552 260.808 C 295.552 259.784 295.41333 258.81867 295.136 257.912 C 294.85867 257.00533 294.432 256.21067 293.856 255.528 C 293.28 254.84533 292.55467 254.30667 291.68 253.912 C 290.80533 253.51733 289.78134 253.32 288.608 253.32 Z" fill="#424242"/>
        </g>
        <g id="Graphic_312">
          <path d="M 309.088 281 L 309.088 248.168 L 313.92 248.168 C 314.944 248.168 315.616 248.648 315.936 249.608 L 316.48 252.2 C 317.14134 251.51733 317.84 250.89867 318.576 250.344 C 319.312 249.78933 320.09066 249.30934 320.912 248.904 C 321.73334 248.49866 322.61333 248.18933 323.552 247.976 C 324.49067 247.76267 325.51466 247.656 326.624 247.656 C 328.416 247.656 330.00533 247.96 331.392 248.568 C 332.77867 249.176 333.936 250.02933 334.864 251.128 C 335.792 252.22667 336.496 253.53866 336.976 255.064 C 337.456 256.58934 337.696 258.26932 337.696 260.104 L 337.696 281 L 329.792 281 L 329.792 260.104 C 329.792 258.09866 329.328 256.54667 328.4 255.448 C 327.472 254.34933 326.08 253.8 324.224 253.8 C 322.85866 253.8 321.57867 254.10933 320.384 254.728 C 319.18933 255.34667 318.05867 256.18933 316.992 257.256 L 316.992 281 Z" fill="#424242"/>
        </g>
        <g id="Graphic_313">
          <path d="M 356.256 281.512 C 353.41865 281.512 351.232 280.70667 349.696 279.096 C 348.16 277.48533 347.392 275.26135 347.392 272.424 L 347.392 254.088 L 344.064 254.088 C 343.63733 254.088 343.26933 253.94933 342.96 253.672 C 342.65067 253.39467 342.496 252.97867 342.496 252.424 L 342.496 249.288 L 347.776 248.424 L 349.44 239.464 C 349.52533 239.03733 349.72267 238.70667 350.032 238.472 C 350.34133 238.23733 350.73066 238.12 351.2 238.12 L 355.296 238.12 L 355.296 248.456 L 363.936 248.456 L 363.936 254.088 L 355.296 254.088 L 355.296 271.88 C 355.296 272.904 355.552 273.704 356.064 274.28 C 356.576 274.856 357.25866 275.144 358.112 275.144 C 358.60267 275.144 359.01333 275.08533 359.344 274.968 C 359.67467 274.85067 359.96267 274.728 360.208 274.6 C 360.45333 274.472 360.672 274.34933 360.864 274.232 C 361.056 274.11467 361.248 274.056 361.44 274.056 C 361.67467 274.056 361.86667 274.11467 362.016 274.232 C 362.16533 274.34933 362.32533 274.52533 362.496 274.76 L 364.864 278.6 C 363.712 279.56 362.38934 280.28533 360.896 280.776 C 359.40266 281.26667 357.856 281.512 356.256 281.512 Z" fill="#424242"/>
        </g>
        <g id="Graphic_314">
          <path d="M 395.968 281 L 392.416 281 C 391.66933 281 391.08267 280.888 390.656 280.664 C 390.22933 280.44 389.90933 279.98667 389.696 279.304 L 388.992 276.968 C 388.16 277.71467 387.344 278.37066 386.544 278.936 C 385.744 279.50134 384.91734 279.976 384.064 280.36 C 383.21066 280.744 382.304 281.032 381.344 281.224 C 380.384 281.416 379.31734 281.512 378.144 281.512 C 376.75733 281.512 375.47734 281.32534 374.304 280.952 C 373.13066 280.57866 372.12267 280.01867 371.28 279.272 C 370.43733 278.52533 369.78134 277.59734 369.312 276.488 C 368.84266 275.37866 368.608 274.088 368.608 272.616 C 368.608 271.37866 368.93333 270.15734 369.584 268.952 C 370.23467 267.74666 371.31733 266.65867 372.832 265.688 C 374.34667 264.71733 376.36265 263.912 378.88 263.272 C 381.39735 262.632 384.52265 262.26933 388.256 262.184 L 388.256 260.264 C 388.256 258.06666 387.792 256.44 386.864 255.384 C 385.936 254.328 384.58668 253.8 382.816 253.8 C 381.536 253.8 380.46934 253.94933 379.616 254.248 C 378.76266 254.54667 378.02134 254.88266 377.392 255.256 C 376.76266 255.62934 376.18134 255.96533 375.648 256.264 C 375.11466 256.56267 374.528 256.712 373.888 256.712 C 373.35466 256.712 372.896 256.57333 372.512 256.296 C 372.128 256.01867 371.81867 255.67734 371.584 255.272 L 370.144 252.744 C 373.92 249.28798 378.47464 247.56 383.808 247.56 C 385.728 247.56 387.44 247.87466 388.944 248.504 C 390.448 249.13334 391.72266 250.008 392.768 251.128 C 393.81334 252.248 394.608 253.58666 395.152 255.144 C 395.696 256.70134 395.968 258.408 395.968 260.264 Z M 380.608 276.072 C 381.41867 276.072 382.16533 275.99733 382.848 275.848 C 383.53067 275.69867 384.176 275.47467 384.784 275.176 C 385.392 274.87733 385.97866 274.50934 386.544 274.072 C 387.10934 273.63466 387.68 273.11734 388.256 272.52 L 388.256 266.984 C 385.952 267.09067 384.02667 267.288 382.48 267.576 C 380.93333 267.864 379.69067 268.232 378.752 268.68 C 377.81333 269.128 377.14667 269.65066 376.752 270.248 C 376.35733 270.84534 376.16 271.496 376.16 272.2 C 376.16 273.58667 376.57066 274.57866 377.392 275.176 C 378.21334 275.77334 379.28533 276.072 380.608 276.072 Z" fill="#424242"/>
        </g>
        <g id="Graphic_315">
          <rect x="404.256" y="233.448" width="7.904" height="47.552" fill="#424242"/>
        </g>
        <g id="Graphic_316">
          <path d="M 77.28 311.728 L 77.28 318.8 L 63.36 318.8 L 63.36 358 L 54.752 358 L 54.752 318.8 L 40.768 318.8 L 40.768 311.728 Z" fill="#424242"/>
        </g>
        <g id="Graphic_317">
          <path d="M 82.304 358 L 82.304 310.448 L 90.208 310.448 L 90.208 328.72 C 91.48801 327.504 92.89599 326.52267 94.432 325.776 C 95.96801 325.02933 97.77066 324.656 99.84 324.656 C 101.63201 324.656 103.22133 324.96 104.608 325.568 C 105.99467 326.176 107.152 327.02933 108.08 328.128 C 109.008 329.22667 109.712 330.53866 110.192 332.064 C 110.672 333.58934 110.912 335.26932 110.912 337.104 L 110.912 358 L 103.008 358 L 103.008 337.104 C 103.008 335.09866 102.544 333.54667 101.616 332.448 C 100.688 331.34933 99.29601 330.8 97.44 330.8 C 96.07466 330.8 94.79467 331.10933 93.6 331.728 C 92.40533 332.34667 91.27467 333.18933 90.208 334.256 L 90.208 358 Z" fill="#424242"/>
        </g>
        <g id="Graphic_318">
          <path d="M 132.256 324.656 C 134.32534 324.656 136.22932 324.98666 137.968 325.648 C 139.70668 326.30934 141.20533 327.27466 142.464 328.544 C 143.72267 329.81334 144.704 331.37066 145.408 333.216 C 146.112 335.06134 146.464 337.168 146.464 339.536 C 146.464 340.13334 146.43733 340.62933 146.384 341.024 C 146.33067 341.41867 146.23467 341.728 146.096 341.952 C 145.95733 342.176 145.77067 342.336 145.536 342.432 C 145.30133 342.528 145.00267 342.576 144.64 342.576 L 124.352 342.576 C 124.58667 345.9467 125.49333 348.42133 127.072 350 C 128.65067 351.57867 130.74132 352.368 133.344 352.368 C 134.624 352.368 135.728 352.21867 136.656 351.92 C 137.584 351.62133 138.39466 351.29067 139.088 350.928 C 139.78134 350.56533 140.38933 350.23467 140.912 349.936 C 141.43467 349.63733 141.94133 349.488 142.432 349.488 C 142.752 349.488 143.02933 349.552 143.264 349.68 C 143.49867 349.808 143.70133 349.98933 143.872 350.224 L 146.176 353.104 C 145.30133 354.128 144.32 354.98666 143.232 355.68 C 142.144 356.37334 141.008 356.928 139.824 357.344 C 138.64 357.76 137.43467 358.05333 136.208 358.224 C 134.98133 358.39467 133.792 358.48 132.64 358.48 C 130.35732 358.48 128.23468 358.10134 126.272 357.344 C 124.30932 356.58666 122.60267 355.46667 121.152 353.984 C 119.70133 352.50133 118.56 350.66668 117.728 348.48 C 116.896 346.29332 116.48 343.76 116.48 340.88 C 116.48 338.64 116.84266 336.53334 117.568 334.56 C 118.29334 332.58666 119.33333 330.86934 120.688 329.408 C 122.04267 327.94666 123.69599 326.78934 125.648 325.936 C 127.60001 325.08266 129.80265 324.656 132.256 324.656 Z M 132.416 330.32 C 130.11199 330.32 128.30934 330.97066 127.008 332.272 C 125.70666 333.57334 124.87467 335.41865 124.512 337.808 L 139.36 337.808 C 139.36 336.784 139.22133 335.81867 138.944 334.912 C 138.66667 334.00533 138.24 333.21067 137.664 332.528 C 137.088 331.84533 136.36267 331.30667 135.488 330.912 C 134.61333 330.51733 133.58934 330.32 132.416 330.32 Z" fill="#424242"/>
        </g>
        <g id="Graphic_319">
          <path d="M 166.912 324.656 C 169.36535 324.656 171.58932 325.05066 173.584 325.84 C 175.57868 326.62934 177.28 327.74933 178.688 329.2 C 180.096 330.65067 181.184 332.42132 181.952 334.512 C 182.72 336.60268 183.104 338.93865 183.104 341.52 C 183.104 344.1227 182.72 346.46932 181.952 348.56 C 181.184 350.65068 180.096 352.432 178.688 353.904 C 177.28 355.376 175.57868 356.50666 173.584 357.296 C 171.58932 358.08534 169.36535 358.48 166.912 358.48 C 164.45865 358.48 162.22934 358.08534 160.224 357.296 C 158.21866 356.50666 156.50667 355.376 155.088 353.904 C 153.66933 352.432 152.57067 350.65068 151.792 348.56 C 151.01333 346.46932 150.624 344.1227 150.624 341.52 C 150.624 338.93865 151.01333 336.60268 151.792 334.512 C 152.57067 332.42132 153.66933 330.65067 155.088 329.2 C 156.50667 327.74933 158.21866 326.62934 160.224 325.84 C 162.22934 325.05066 164.45865 324.656 166.912 324.656 Z M 166.912 352.4 C 169.64268 352.4 171.664 351.48268 172.976 349.648 C 174.288 347.81332 174.944 345.12535 174.944 341.584 C 174.944 338.04265 174.288 335.344 172.976 333.488 C 171.664 331.632 169.64268 330.704 166.912 330.704 C 164.13865 330.704 162.09067 331.63732 160.768 333.504 C 159.44533 335.37068 158.784 338.064 158.784 341.584 C 158.784 345.104 159.44533 347.78666 160.768 349.632 C 162.09067 351.47734 164.13865 352.4 166.912 352.4 Z" fill="#424242"/>
        </g>
        <g id="Graphic_320">
          <path d="M 189.28 358 L 189.28 325.168 L 193.92 325.168 C 194.73067 325.168 195.296 325.31733 195.616 325.616 C 195.936 325.91467 196.14933 326.42666 196.256 327.152 L 196.736 331.12 C 197.90934 329.09332 199.28533 327.49334 200.864 326.32 C 202.44267 325.14666 204.21332 324.56 206.176 324.56 C 207.79734 324.56 209.14133 324.93333 210.208 325.68 L 209.184 331.6 C 209.12 331.984 208.98133 332.256 208.768 332.416 C 208.55467 332.576 208.26667 332.656 207.904 332.656 C 207.584 332.656 207.14667 332.58133 206.592 332.432 C 206.03733 332.28267 205.30134 332.208 204.384 332.208 C 202.74133 332.208 201.33334 332.66133 200.16 333.568 C 198.98666 334.47467 197.99467 335.80266 197.184 337.552 L 197.184 358 Z" fill="#424242"/>
        </g>
        <g id="Graphic_321">
          <path d="M 228.992 324.656 C 231.06134 324.656 232.96532 324.98666 234.704 325.648 C 236.44268 326.30934 237.94133 327.27466 239.2 328.544 C 240.45867 329.81334 241.44 331.37066 242.144 333.216 C 242.848 335.06134 243.2 337.168 243.2 339.536 C 243.2 340.13334 243.17333 340.62933 243.12 341.024 C 243.06667 341.41867 242.97067 341.728 242.832 341.952 C 242.69333 342.176 242.50667 342.336 242.272 342.432 C 242.03733 342.528 241.73867 342.576 241.376 342.576 L 221.088 342.576 C 221.32267 345.9467 222.22933 348.42133 223.808 350 C 225.38667 351.57867 227.47732 352.368 230.08 352.368 C 231.36 352.368 232.464 352.21867 233.392 351.92 C 234.32 351.62133 235.13066 351.29067 235.824 350.928 C 236.51734 350.56533 237.12533 350.23467 237.648 349.936 C 238.17067 349.63733 238.67733 349.488 239.168 349.488 C 239.488 349.488 239.76533 349.552 240 349.68 C 240.23467 349.808 240.43733 349.98933 240.608 350.224 L 242.912 353.104 C 242.03733 354.128 241.056 354.98666 239.968 355.68 C 238.88 356.37334 237.744 356.928 236.56 357.344 C 235.376 357.76 234.17067 358.05333 232.944 358.224 C 231.71733 358.39467 230.528 358.48 229.376 358.48 C 227.09332 358.48 224.97068 358.10134 223.008 357.344 C 221.04532 356.58666 219.33867 355.46667 217.888 353.984 C 216.43733 352.50133 215.296 350.66668 214.464 348.48 C 213.632 346.29332 213.216 343.76 213.216 340.88 C 213.216 338.64 213.57866 336.53334 214.304 334.56 C 215.02934 332.58666 216.06933 330.86934 217.424 329.408 C 218.77867 327.94666 220.432 326.78934 222.384 325.936 C 224.336 325.08266 226.53865 324.656 228.992 324.656 Z M 229.152 330.32 C 226.848 330.32 225.04534 330.97066 223.744 332.272 C 222.44266 333.57334 221.61067 335.41865 221.248 337.808 L 236.096 337.808 C 236.096 336.784 235.95733 335.81867 235.68 334.912 C 235.40267 334.00533 234.976 333.21067 234.4 332.528 C 233.824 331.84533 233.09867 331.30667 232.224 330.912 C 231.34933 330.51733 230.32534 330.32 229.152 330.32 Z" fill="#424242"/>
        </g>
        <g id="Graphic_322">
          <path d="M 249.632 358 L 249.632 325.168 L 254.464 325.168 C 255.488 325.168 256.16 325.648 256.48 326.608 L 256.992 329.04 C 257.568 328.4 258.17066 327.81334 258.8 327.28 C 259.42934 326.74666 260.10133 326.288 260.816 325.904 C 261.53067 325.52 262.29866 325.216 263.12 324.992 C 263.94134 324.768 264.84266 324.656 265.824 324.656 C 267.89334 324.656 269.59466 325.216 270.928 326.336 C 272.26134 327.456 273.25866 328.944 273.92 330.8 C 274.432 329.712 275.072 328.77867 275.84 328 C 276.608 327.22133 277.45066 326.58667 278.368 326.096 C 279.28534 325.60533 280.26133 325.24267 281.296 325.008 C 282.33067 324.77333 283.37066 324.656 284.416 324.656 C 286.22934 324.656 287.84 324.93333 289.248 325.488 C 290.656 326.04267 291.84 326.85333 292.8 327.92 C 293.76 328.98667 294.49066 330.288 294.992 331.824 C 295.49334 333.36 295.744 335.12 295.744 337.104 L 295.744 358 L 287.84 358 L 287.84 337.104 C 287.84 335.01332 287.38134 333.44 286.464 332.384 C 285.54666 331.328 284.20268 330.8 282.432 330.8 C 281.62133 330.8 280.86934 330.93867 280.176 331.216 C 279.48266 331.49333 278.87467 331.89333 278.352 332.416 C 277.82933 332.93867 277.41867 333.59466 277.12 334.384 C 276.82133 335.17334 276.672 336.08 276.672 337.104 L 276.672 358 L 268.736 358 L 268.736 337.104 C 268.736 334.90666 268.29334 333.30667 267.408 332.304 C 266.52266 331.30133 265.216 330.8 263.488 330.8 C 262.35733 330.8 261.296 331.08266 260.304 331.648 C 259.312 332.21334 258.38934 332.98666 257.536 333.968 L 257.536 358 Z" fill="#424242"/>
        </g>
        <g id="Graphic_323">
          <path d="M 329.888 324.656 C 332.34135 324.656 334.56532 325.05066 336.56 325.84 C 338.55468 326.62934 340.256 327.74933 341.664 329.2 C 343.072 330.65067 344.16 332.42132 344.928 334.512 C 345.696 336.60268 346.08 338.93865 346.08 341.52 C 346.08 344.1227 345.696 346.46932 344.928 348.56 C 344.16 350.65068 343.072 352.432 341.664 353.904 C 340.256 355.376 338.55468 356.50666 336.56 357.296 C 334.56532 358.08534 332.34135 358.48 329.888 358.48 C 327.43465 358.48 325.20534 358.08534 323.2 357.296 C 321.19466 356.50666 319.48267 355.376 318.064 353.904 C 316.64533 352.432 315.54667 350.65068 314.768 348.56 C 313.98933 346.46932 313.6 344.1227 313.6 341.52 C 313.6 338.93865 313.98933 336.60268 314.768 334.512 C 315.54667 332.42132 316.64533 330.65067 318.064 329.2 C 319.48267 327.74933 321.19466 326.62934 323.2 325.84 C 325.20534 325.05066 327.43465 324.656 329.888 324.656 Z M 329.888 352.4 C 332.6187 352.4 334.64 351.48268 335.952 349.648 C 337.264 347.81332 337.92 345.12535 337.92 341.584 C 337.92 338.04265 337.264 335.344 335.952 333.488 C 334.64 331.632 332.6187 330.704 329.888 330.704 C 327.11465 330.704 325.06667 331.63732 323.744 333.504 C 322.42133 335.37068 321.76 338.064 321.76 341.584 C 321.76 345.104 322.42133 347.78666 323.744 349.632 C 325.06667 351.47734 327.11465 352.4 329.888 352.4 Z" fill="#424242"/>
        </g>
        <g id="Graphic_324">
          <path d="M 353.664 358 L 353.664 331.12 L 350.816 330.672 C 350.19733 330.56533 349.70134 330.352 349.328 330.032 C 348.95466 329.712 348.768 329.264 348.768 328.688 L 348.768 325.456 L 353.664 325.456 L 353.664 323.024 C 353.664 321.14666 353.94666 319.46134 354.512 317.968 C 355.07734 316.47466 355.888 315.20534 356.944 314.16 C 358 313.11466 359.28533 312.31467 360.8 311.76 C 362.31467 311.20533 364.02132 310.928 365.92 310.928 C 367.43467 310.928 368.84266 311.13066 370.144 311.536 L 369.984 315.504 C 369.94133 316.12267 369.65334 316.50667 369.12 316.656 C 368.58666 316.80533 367.968 316.88 367.264 316.88 C 366.32533 316.88 365.488 316.98133 364.752 317.184 C 364.016 317.38667 363.392 317.73866 362.88 318.24 C 362.368 318.74134 361.97867 319.40266 361.712 320.224 C 361.44533 321.04534 361.312 322.064 361.312 323.28 L 361.312 325.456 L 369.856 325.456 L 369.856 331.088 L 361.568 331.088 L 361.568 358 Z" fill="#424242"/>
        </g>
        <g id="Graphic_325">
          <path d="M 76.48 424.088 C 76.94934 424.088 77.354665 424.26933 77.696 424.632 L 81.088 428.312 C 79.21066 430.63734 76.90135 432.41866 74.16 433.656 C 71.41865 434.89334 68.12802 435.512 64.288 435.512 C 60.853316 435.512 57.76535 434.92534 55.024 433.752 C 52.28265 432.57866 49.941343 430.9467 48 428.856 C 46.058657 426.7653 44.57067 424.26935 43.536 421.368 C 42.50133 418.46665 41.984 415.2987 41.984 411.864 C 41.984 408.38665 42.559994 405.2027 43.712 402.312 C 44.864006 399.4213 46.485323 396.9307 48.576 394.84 C 50.66668 392.7493 53.167985 391.12267 56.08 389.96 C 58.992015 388.79733 62.20798 388.216 65.728 388.216 C 69.16268 388.216 72.16532 388.76533 74.736 389.864 C 77.30668 390.96267 79.50932 392.41866 81.344 394.232 L 78.464 398.232 C 78.29333 398.488 78.07467 398.712 77.808 398.904 C 77.54133 399.096 77.17334 399.192 76.704 399.192 C 76.21333 399.192 75.712 399 75.2 398.616 C 74.688 398.232 74.03734 397.816 73.248 397.368 C 72.45866 396.92 71.46134 396.504 70.256 396.12 C 69.05066 395.736 67.52001 395.544 65.664 395.544 C 63.48799 395.544 61.48801 395.92266 59.664 396.68 C 57.83999 397.43734 56.272007 398.52 54.96 399.928 C 53.647993 401.336 52.624004 403.048 51.888 405.064 C 51.151996 407.08 50.784 409.34665 50.784 411.864 C 50.784 414.4667 51.151996 416.7813 51.888 418.808 C 52.624004 420.8347 53.62133 422.54133 54.88 423.928 C 56.13867 425.31467 57.621325 426.376 59.328 427.112 C 61.034675 427.848 62.86932 428.216 64.832 428.216 C 66.00534 428.216 67.06666 428.152 68.016 428.024 C 68.96534 427.896 69.84 427.69333 70.64 427.416 C 71.44 427.13867 72.19733 426.78134 72.912 426.344 C 73.62667 425.90666 74.336 425.368 75.04 424.728 C 75.25333 424.536 75.47733 424.38133 75.712 424.264 C 75.94667 424.14667 76.202665 424.088 76.48 424.088 Z" fill="#424242"/>
        </g>
        <g id="Graphic_326">
          <path d="M 112.864 435 L 109.312 435 C 108.56533 435 107.97867 434.888 107.552 434.664 C 107.12533 434.44 106.80533 433.98667 106.592 433.304 L 105.888 430.968 C 105.056 431.71467 104.24 432.37066 103.44 432.936 C 102.64 433.50134 101.81334 433.976 100.96 434.36 C 100.10666 434.744 99.2 435.032 98.24 435.224 C 97.28 435.416 96.21334 435.512 95.04 435.512 C 93.65333 435.512 92.37334 435.32534 91.2 434.952 C 90.02666 434.57866 89.01867 434.01867 88.176 433.272 C 87.33333 432.52533 86.67734 431.59734 86.208 430.488 C 85.73866 429.37866 85.504 428.088 85.504 426.616 C 85.504 425.37866 85.82933 424.15734 86.48 422.952 C 87.13067 421.74666 88.21333 420.65867 89.728 419.688 C 91.24267 418.71733 93.25865 417.912 95.776 417.272 C 98.29335 416.632 101.41865 416.26933 105.152 416.184 L 105.152 414.264 C 105.152 412.06666 104.688 410.44 103.76 409.384 C 102.832 408.328 101.48268 407.8 99.712 407.8 C 98.43199 407.8 97.36534 407.94933 96.512 408.248 C 95.65866 408.54667 94.91734 408.88266 94.288 409.256 C 93.65866 409.62934 93.07734 409.96533 92.544 410.264 C 92.01066 410.56267 91.424 410.712 90.784 410.712 C 90.25066 410.712 89.792 410.57333 89.408 410.296 C 89.024 410.01867 88.71467 409.67734 88.48 409.272 L 87.04 406.744 C 90.81602 403.288 95.37064 401.56 100.704 401.56 C 102.62401 401.56 104.33599 401.87466 105.84 402.504 C 107.34401 403.13334 108.61866 404.008 109.664 405.128 C 110.70934 406.248 111.504 407.58666 112.048 409.144 C 112.592 410.70134 112.864 412.408 112.864 414.264 Z M 97.504 430.072 C 98.31467 430.072 99.06133 429.99733 99.744 429.848 C 100.42667 429.69867 101.072 429.47467 101.68 429.176 C 102.288 428.87733 102.87466 428.50934 103.44 428.072 C 104.00534 427.63466 104.576 427.11734 105.152 426.52 L 105.152 420.984 C 102.84799 421.09067 100.92267 421.288 99.376 421.576 C 97.82933 421.864 96.58667 422.232 95.648 422.68 C 94.70933 423.128 94.04267 423.65066 93.648 424.248 C 93.25333 424.84534 93.056 425.496 93.056 426.2 C 93.056 427.58667 93.46666 428.57866 94.288 429.176 C 95.10934 429.77334 96.18133 430.072 97.504 430.072 Z" fill="#424242"/>
        </g>
        <g id="Graphic_327">
          <rect x="121.152" y="387.448" width="7.904" height="47.552" fill="#424242"/>
        </g>
        <g id="Graphic_328">
          <path d="M 161.056 409.112 C 160.82133 409.41067 160.592 409.64533 160.368 409.816 C 160.144 409.98667 159.81867 410.072 159.392 410.072 C 158.98666 410.072 158.592 409.94933 158.208 409.704 C 157.824 409.45867 157.36534 409.18133 156.832 408.872 C 156.29866 408.56267 155.664 408.28533 154.928 408.04 C 154.192 407.79467 153.28 407.672 152.192 407.672 C 150.80533 407.672 149.58934 407.92266 148.544 408.424 C 147.49866 408.92534 146.62934 409.64533 145.936 410.584 C 145.24266 411.52267 144.72534 412.65866 144.384 413.992 C 144.04266 415.32534 143.872 416.83466 143.872 418.52 C 143.872 420.26934 144.05866 421.82666 144.432 423.192 C 144.80534 424.55734 145.344 425.704 146.048 426.632 C 146.752 427.56 147.60533 428.264 148.608 428.744 C 149.61067 429.224 150.74133 429.464 152 429.464 C 153.25867 429.464 154.27733 429.30933 155.056 429 C 155.83467 428.69067 156.49066 428.34934 157.024 427.976 C 157.55734 427.60266 158.02133 427.26133 158.416 426.952 C 158.81067 426.64267 159.25333 426.488 159.744 426.488 C 160.384 426.488 160.864 426.73333 161.184 427.224 L 163.456 430.104 C 162.58133 431.128 161.632 431.98666 160.608 432.68 C 159.584 433.37334 158.52267 433.928 157.424 434.344 C 156.32533 434.76 155.18934 435.05333 154.016 435.224 C 152.84266 435.39467 151.68 435.48 150.528 435.48 C 148.50132 435.48 146.59201 435.10134 144.8 434.344 C 143.00799 433.58666 141.44534 432.48267 140.112 431.032 C 138.77866 429.58133 137.72267 427.80534 136.944 425.704 C 136.16533 423.60266 135.776 421.208 135.776 418.52 C 135.776 416.1093 136.12266 413.8747 136.816 411.816 C 137.50934 409.7573 138.528 407.976 139.872 406.472 C 141.216 404.968 142.87999 403.78934 144.864 402.936 C 146.84801 402.08266 149.13065 401.656 151.712 401.656 C 154.16535 401.656 156.31466 402.05066 158.16 402.84 C 160.00534 403.62934 161.664 404.76 163.136 406.232 Z" fill="#424242"/>
        </g>
        <g id="Graphic_329">
          <path d="M 175.744 402.168 L 175.744 423.032 C 175.744 425.03734 176.208 426.58933 177.136 427.688 C 178.064 428.78667 179.456 429.336 181.312 429.336 C 182.67734 429.336 183.95733 429.032 185.152 428.424 C 186.34667 427.816 187.47733 426.97867 188.544 425.912 L 188.544 402.168 L 196.448 402.168 L 196.448 435 L 191.616 435 C 190.592 435 189.92 434.52 189.6 433.56 L 189.056 430.936 C 188.37333 431.61867 187.66934 432.24266 186.944 432.808 C 186.21866 433.37334 185.44534 433.85333 184.624 434.248 C 183.80266 434.64267 182.91734 434.952 181.968 435.176 C 181.01866 435.4 180 435.512 178.912 435.512 C 177.12 435.512 175.536 435.208 174.16 434.6 C 172.784 433.992 171.62667 433.13334 170.688 432.024 C 169.74933 430.91466 169.04 429.59734 168.56 428.072 C 168.08 426.54666 167.84 424.8667 167.84 423.032 L 167.84 402.168 Z" fill="#424242"/>
        </g>
        <g id="Graphic_330">
          <rect x="205.408" y="387.448" width="7.904" height="47.552" fill="#424242"/>
        </g>
        <g id="Graphic_331">
          <path d="M 229.472 402.168 L 229.472 423.032 C 229.472 425.03734 229.936 426.58933 230.864 427.688 C 231.792 428.78667 233.184 429.336 235.04 429.336 C 236.40534 429.336 237.68533 429.032 238.88 428.424 C 240.07467 427.816 241.20533 426.97867 242.272 425.912 L 242.272 402.168 L 250.176 402.168 L 250.176 435 L 245.344 435 C 244.32 435 243.648 434.52 243.328 433.56 L 242.784 430.936 C 242.10133 431.61867 241.39734 432.24266 240.672 432.808 C 239.94666 433.37334 239.17334 433.85333 238.352 434.248 C 237.53066 434.64267 236.64534 434.952 235.696 435.176 C 234.74666 435.4 233.728 435.512 232.64 435.512 C 230.848 435.512 229.264 435.208 227.888 434.6 C 226.512 433.992 225.35467 433.13334 224.416 432.024 C 223.47733 430.91466 222.768 429.59734 222.288 428.072 C 221.808 426.54666 221.568 424.8667 221.568 423.032 L 221.568 402.168 Z" fill="#424242"/>
        </g>
        <g id="Graphic_332">
          <path d="M 278.112 408.568 C 277.89867 408.90934 277.67467 409.14933 277.44 409.288 C 277.20533 409.42667 276.90667 409.496 276.544 409.496 C 276.16 409.496 275.74934 409.38933 275.312 409.176 C 274.87466 408.96267 274.368 408.72267 273.792 408.456 C 273.216 408.18933 272.56 407.94933 271.824 407.736 C 271.088 407.52267 270.21867 407.416 269.216 407.416 C 267.65866 407.416 266.432 407.74666 265.536 408.408 C 264.64 409.06934 264.192 409.93333 264.192 411 C 264.192 411.704 264.42133 412.296 264.88 412.776 C 265.33867 413.256 265.94666 413.67733 266.704 414.04 C 267.46134 414.40267 268.32 414.728 269.28 415.016 C 270.24 415.304 271.22133 415.61866 272.224 415.96 C 273.22667 416.30134 274.208 416.69066 275.168 417.128 C 276.128 417.56534 276.98666 418.12 277.744 418.792 C 278.50134 419.464 279.10933 420.26933 279.568 421.208 C 280.02667 422.14667 280.256 423.27733 280.256 424.6 C 280.256 426.17867 279.968 427.63466 279.392 428.968 C 278.816 430.30134 277.97334 431.45333 276.864 432.424 C 275.75466 433.39467 274.384 434.152 272.752 434.696 C 271.12 435.24 269.248 435.512 267.136 435.512 C 266.00533 435.512 264.90134 435.41067 263.824 435.208 C 262.74666 435.00533 261.712 434.72267 260.72 434.36 C 259.728 433.99733 258.81067 433.57067 257.968 433.08 C 257.12533 432.58933 256.384 432.056 255.744 431.48 L 257.568 428.472 C 257.80267 428.10933 258.08 427.832 258.4 427.64 C 258.72 427.448 259.12533 427.352 259.616 427.352 C 260.10667 427.352 260.57066 427.49067 261.008 427.768 C 261.44534 428.04533 261.952 428.344 262.528 428.664 C 263.104 428.984 263.78133 429.28267 264.56 429.56 C 265.33867 429.83733 266.32533 429.976 267.52 429.976 C 268.45867 429.976 269.264 429.864 269.936 429.64 C 270.608 429.416 271.16266 429.12267 271.6 428.76 C 272.03734 428.39733 272.35733 427.976 272.56 427.496 C 272.76267 427.016 272.864 426.52 272.864 426.008 C 272.864 425.24 272.63467 424.61067 272.176 424.12 C 271.71733 423.62933 271.10934 423.20267 270.352 422.84 C 269.59466 422.47733 268.73067 422.152 267.76 421.864 C 266.78933 421.576 265.79734 421.26134 264.784 420.92 C 263.77066 420.57866 262.77867 420.17867 261.808 419.72 C 260.83733 419.26133 259.97334 418.68 259.216 417.976 C 258.45866 417.272 257.85067 416.408 257.392 415.384 C 256.93333 414.36 256.704 413.12267 256.704 411.672 C 256.704 410.328 256.97066 409.048 257.504 407.832 C 258.03734 406.616 258.82133 405.55467 259.856 404.648 C 260.89067 403.74133 262.18133 403.016 263.728 402.472 C 265.27467 401.928 267.06132 401.656 269.088 401.656 C 271.34934 401.656 273.408 402.02933 275.264 402.776 C 277.12 403.52267 278.66666 404.504 279.904 405.72 Z" fill="#424242"/>
        </g>
      </g>
    </g>
  </g>
</svg>
