<?xml version="1.0" encoding="UTF-8" standalone="no"?>
<!DOCTYPE svg PUBLIC "-//W3C//DTD SVG 1.1//EN" "http://www.w3.org/Graphics/SVG/1.1/DTD/svg11.dtd">
<svg xmlns:xl="http://www.w3.org/1999/xlink" xmlns="http://www.w3.org/2000/svg" xmlns:dc="http://purl.org/dc/elements/1.1/" version="1.1" viewBox="0 0 480 600" width="480" height="600">
  <defs/>
  <metadata> Produced by OmniGraffle 7.18.5\n2021-05-31 10:10:12 +0000</metadata>
  <g id="Canvas_1" fill="none" fill-opacity="1" stroke-dasharray="none" stroke-opacity="1" stroke="none">
    <title>Canvas 1</title>
    <g id="Canvas_1_book-base4">
      <title>book-base4</title>
      <g id="Graphic_453">
        <path d="M 12 0 L 468 0 C 474.6274 40581225e-23 480 5.372583 480 12 L 480 588 C 480 594.6274 474.6274 600 468 600 L 12 600 C 5.372583 600 8116245e-22 594.6274 0 588 L 35527137e-21 12 C 3633876e-20 5.372583 5.372583 -40581225e-23 12 0 Z" fill="white"/>
      </g>
    </g>
    <g id="Canvas_1_1a-GEO-nofont">
      <title>1a-GEO-nofont</title>
      <g id="Graphic_248">
        <rect x="0" y="188" width="480" height="10" fill="#71cdf6"/>
      </g>
      <g id="Group_257">
        <title>GEOMETRY</title>
        <g id="Graphic_249">
          <path d="M 58.538 549.388 C 59.61134 549.388 60.561996 549.296 61.39 549.112 C 62.218004 548.928 63 548.6827 63.736 548.376 L 63.736 543.293 L 60.424 543.293 C 59.93333 543.293 59.55 543.1627 59.274 542.902 C 58.998 542.6413 58.86 542.3117 58.86 541.913 L 58.86 537.635 L 70.774 537.635 L 70.774 551.78 C 69.91533 552.4087 69.02217 552.94916 68.0945 553.4015 C 67.16683 553.85384 66.17784 554.22567 65.1275 554.517 C 64.07716 554.80833 62.95784 555.023 61.7695 555.161 C 60.58116 555.299 59.30467 555.368 57.94 555.368 C 55.486654 555.368 53.217344 554.93484 51.132 554.0685 C 49.046656 553.20216 47.241174 552.0062 45.7155 550.4805 C 44.189826 548.9548 42.99384 547.1455 42.1275 545.0525 C 41.26116 542.9595 40.828 540.68635 40.828 538.233 C 40.828 535.73365 41.241996 533.4375 42.07 531.3445 C 42.898004 529.2515 44.08249 527.446 45.6235 525.928 C 47.16451 524.41 49.02749 523.22934 51.2125 522.386 C 53.39751 521.54266 55.83932 521.121 58.538 521.121 C 59.93334 521.121 61.24433 521.236 62.471 521.466 C 63.69767 521.696 64.828495 522.01033 65.8635 522.409 C 66.898505 522.80767 67.84533 523.283 68.704 523.835 C 69.56267 524.387 70.32933 524.985 71.004 525.629 L 68.75 529.056 C 68.53533 529.378 68.2785 529.631 67.9795 529.815 C 67.6805 529.999 67.35467 530.091 67.002 530.091 C 66.542 530.091 66.06667 529.93767 65.576 529.631 C 64.96266 529.263 64.383836 528.94483 63.8395 528.6765 C 63.295164 528.40817 62.739336 528.18967 62.172 528.021 C 61.604664 527.85233 61.00667 527.72967 60.378 527.653 C 59.74933 527.57633 59.044004 527.538 58.262 527.538 C 56.805326 527.538 55.49434 527.7948 54.329 528.3085 C 53.16366 528.8222 52.17084 529.54666 51.3505 530.482 C 50.53016 531.41734 49.89767 532.5405 49.453 533.8515 C 49.00833 535.1625 48.786 536.623 48.786 538.233 C 48.786 540.0117 49.03133 541.591 49.522 542.971 C 50.01267 544.351 50.69116 545.5163 51.5575 546.467 C 52.42384 547.4177 53.45116 548.14216 54.6395 548.6405 C 55.82784 549.13884 57.127326 549.388 58.538 549.388 Z" fill="#71cdf6"/>
        </g>
        <g id="Graphic_250">
          <path d="M 100.086 521.489 L 100.086 527.469 L 86.332 527.469 L 86.332 535.289 L 96.866 535.289 L 96.866 541.039 L 86.332 541.039 L 86.332 549.02 L 100.086 549.02 L 100.086 555 L 78.512 555 L 78.512 521.489 Z" fill="#71cdf6"/>
        </g>
        <g id="Graphic_251">
          <path d="M 140.576 538.233 C 140.576 540.6557 140.15817 542.90966 139.3225 544.995 C 138.48683 547.08034 137.31 548.8935 135.792 550.4345 C 134.274 551.9755 132.44551 553.183 130.3065 554.057 C 128.16749 554.931 125.79468 555.368 123.188 555.368 C 120.58132 555.368 118.20468 554.931 116.058 554.057 C 113.91132 553.183 112.07517 551.9755 110.5495 550.4345 C 109.02383 548.8935 107.84317 547.08034 107.0075 544.995 C 106.17183 542.90966 105.754 540.6557 105.754 538.233 C 105.754 535.8103 106.17183 533.55634 107.0075 531.471 C 107.84317 529.38566 109.02383 527.57634 110.5495 526.043 C 112.07517 524.50966 113.91132 523.306 116.058 522.432 C 118.20468 521.558 120.58132 521.121 123.188 521.121 C 125.79468 521.121 128.16749 521.5618 130.3065 522.4435 C 132.44551 523.3252 134.274 524.53266 135.792 526.066 C 137.31 527.59934 138.48683 529.40866 139.3225 531.494 C 140.15817 533.57934 140.576 535.82565 140.576 538.233 Z M 132.618 538.233 C 132.618 536.577 132.40334 535.08584 131.974 533.7595 C 131.54466 532.43316 130.9275 531.31 130.1225 530.39 C 129.3175 529.47 128.33234 528.7647 127.167 528.274 C 126.00166 527.7833 124.67534 527.538 123.188 527.538 C 121.68533 527.538 120.3475 527.7833 119.1745 528.274 C 118.0015 528.7647 117.0125 529.47 116.2075 530.39 C 115.4025 531.31 114.78534 532.43316 114.356 533.7595 C 113.92666 535.08584 113.712 536.577 113.712 538.233 C 113.712 539.90434 113.92666 541.40316 114.356 542.7295 C 114.78534 544.05584 115.4025 545.179 116.2075 546.099 C 117.0125 547.019 118.0015 547.7205 119.1745 548.2035 C 120.3475 548.6865 121.68533 548.928 123.188 548.928 C 124.67534 548.928 126.00166 548.6865 127.167 548.2035 C 128.33234 547.7205 129.3175 547.019 130.1225 546.099 C 130.9275 545.179 131.54466 544.05584 131.974 542.7295 C 132.40334 541.40316 132.618 539.90434 132.618 538.233 Z" fill="#71cdf6"/>
        </g>
        <g id="Graphic_252">
          <path d="M 164.437 539.682 C 164.74367 540.2647 165.03883 540.8703 165.3225 541.499 C 165.60617 542.1277 165.87833 542.77166 166.139 543.431 C 166.39967 542.7563 166.67567 542.10084 166.967 541.4645 C 167.25833 540.82816 167.55733 540.211 167.864 539.613 L 176.466 522.685 C 176.61933 522.39367 176.7765 522.1675 176.9375 522.0065 C 177.0985 521.8455 177.27867 521.72667 177.478 521.65 C 177.67733 521.57333 177.9035 521.52733 178.1565 521.512 C 178.4095 521.49667 178.70466 521.489 179.042 521.489 L 184.976 521.489 L 184.976 555 L 178.122 555 L 178.122 535.726 C 178.122 534.79066 178.168 533.7787 178.26 532.69 L 169.382 549.917 C 169.106 550.4537 168.73417 550.86 168.2665 551.136 C 167.79883 551.412 167.266 551.55 166.668 551.55 L 165.61 551.55 C 165.012 551.55 164.47917 551.412 164.0115 551.136 C 163.54383 550.86 163.172 550.4537 162.896 549.917 L 153.972 532.667 C 154.03333 533.2037 154.07933 533.7365 154.11 534.2655 C 154.14067 534.7945 154.156 535.2813 154.156 535.726 L 154.156 555 L 147.302 555 L 147.302 521.489 L 153.236 521.489 C 153.57334 521.489 153.8685 521.49667 154.1215 521.512 C 154.3745 521.52733 154.60067 521.57333 154.8 521.65 C 154.99933 521.72667 155.1795 521.8455 155.3405 522.0065 C 155.5015 522.1675 155.65867 522.39367 155.812 522.685 Z" fill="#71cdf6"/>
        </g>
        <g id="Graphic_253">
          <path d="M 215.07 521.489 L 215.07 527.469 L 201.316 527.469 L 201.316 535.289 L 211.85 535.289 L 211.85 541.039 L 201.316 541.039 L 201.316 549.02 L 215.07 549.02 L 215.07 555 L 193.496 555 L 193.496 521.489 Z" fill="#71cdf6"/>
        </g>
        <g id="Graphic_254">
          <path d="M 246.82 521.489 L 246.82 527.653 L 237.39 527.653 L 237.39 555 L 229.616 555 L 229.616 527.653 L 220.186 527.653 L 220.186 521.489 Z" fill="#71cdf6"/>
        </g>
        <g id="Graphic_255">
          <path d="M 260.814 542.603 L 260.814 555 L 253.04 555 L 253.04 521.489 L 263.942 521.489 C 266.36468 521.489 268.43082 521.73816 270.1405 522.2365 C 271.85018 522.73484 273.2455 523.42866 274.3265 524.318 C 275.4075 525.20734 276.19333 526.25766 276.684 527.469 C 277.17467 528.68034 277.42 529.999 277.42 531.425 C 277.42 532.5137 277.27433 533.541 276.983 534.507 C 276.69167 535.473 276.2585 536.36616 275.6835 537.1865 C 275.1085 538.00684 274.40317 538.739 273.5675 539.383 C 272.73183 540.027 271.76967 540.556 270.681 540.97 C 271.20234 541.2307 271.68916 541.55266 272.1415 541.936 C 272.59384 542.31934 272.98866 542.787 273.326 543.339 L 280.456 555 L 273.418 555 C 272.11466 555 271.17934 554.50934 270.612 553.528 L 265.046 543.799 C 264.80067 543.36966 264.51317 543.063 264.1835 542.879 C 263.85383 542.695 263.39 542.603 262.792 542.603 Z M 260.814 537.244 L 263.942 537.244 C 265 537.244 265.90083 537.10983 266.6445 536.8415 C 267.38817 536.57317 267.99766 536.20134 268.473 535.726 C 268.94834 535.25066 269.29333 534.69484 269.508 534.0585 C 269.72267 533.42216 269.83 532.736 269.83 532 C 269.83 530.528 269.35084 529.378 268.3925 528.55 C 267.43416 527.722 265.95068 527.308 263.942 527.308 L 260.814 527.308 Z" fill="#71cdf6"/>
        </g>
        <g id="Graphic_256">
          <path d="M 303.328 542.258 L 303.328 555 L 295.554 555 L 295.554 542.258 L 283.41 521.489 L 290.264 521.489 C 290.93867 521.489 291.47533 521.64617 291.874 521.9605 C 292.27267 522.27483 292.59467 522.6773 292.84 523.168 L 297.578 532.92 C 297.96134 533.702 298.314 534.42266 298.636 535.082 C 298.958 535.74134 299.24167 536.393 299.487 537.037 C 299.717 536.37766 299.993 535.71834 300.315 535.059 C 300.637 534.39966 300.982 533.6867 301.35 532.92 L 306.042 523.168 C 306.134 522.96867 306.2605 522.76933 306.4215 522.57 C 306.5825 522.37067 306.7665 522.1905 306.9735 522.0295 C 307.1805 521.8685 307.41817 521.73817 307.6865 521.6385 C 307.95483 521.53883 308.25 521.489 308.572 521.489 L 315.472 521.489 Z" fill="#71cdf6"/>
        </g>
      </g>
    </g>
    <g id="Canvas_1_1a-hyp1-nofont">
      <title>1a-hyp1-nofont</title>
      <g id="Group_372">
        <title>Hyperbola</title>
        <g id="Graphic_363">
          <path d="M 83.712 281 L 75.04 281 L 75.04 260.776 L 53.344 260.776 L 53.344 281 L 44.672 281 L 44.672 234.728 L 53.344 234.728 L 53.344 254.632 L 75.04 254.632 L 75.04 234.728 L 83.712 234.728 Z" fill="#424242"/>
        </g>
        <g id="Graphic_364">
          <path d="M 104.256 290.024 C 104.02133 290.57867 103.71734 291 103.344 291.288 C 102.97066 291.576 102.4 291.72 101.632 291.72 L 95.744 291.72 L 101.888 278.568 L 88.608 248.168 L 95.52 248.168 C 96.16 248.168 96.65066 248.31733 96.992 248.616 C 97.33334 248.91467 97.58933 249.256 97.76 249.64 L 104.768 266.664 C 105.00267 267.21867 105.20533 267.79466 105.376 268.392 C 105.54667 268.98934 105.696 269.58666 105.824 270.184 C 105.99467 269.56533 106.18133 268.968 106.384 268.392 C 106.58667 267.816 106.80533 267.22934 107.04 266.632 L 113.632 249.64 C 113.80267 249.21333 114.08533 248.86133 114.48 248.584 C 114.87467 248.30667 115.31733 248.168 115.808 248.168 L 122.144 248.168 Z" fill="#424242"/>
        </g>
        <g id="Graphic_365">
          <path d="M 126.752 291.72 L 126.752 248.168 L 131.584 248.168 C 132.096 248.168 132.53333 248.28533 132.896 248.52 C 133.25867 248.75467 133.49333 249.11733 133.6 249.608 L 134.24 252.648 C 135.56267 251.13333 137.08266 249.90667 138.8 248.968 C 140.51734 248.02933 142.52799 247.56 144.832 247.56 C 146.62401 247.56 148.26133 247.93333 149.744 248.68 C 151.22667 249.42667 152.50666 250.50933 153.584 251.928 C 154.66134 253.34667 155.49333 255.096 156.08 257.176 C 156.66667 259.256 156.96 261.64 156.96 264.328 C 156.96 266.78135 156.62934 269.05332 155.968 271.144 C 155.30666 273.23468 154.36267 275.048 153.136 276.584 C 151.90933 278.12 150.42668 279.32 148.688 280.184 C 146.94932 281.048 145.00268 281.48 142.848 281.48 C 140.99199 281.48 139.41867 281.19734 138.128 280.632 C 136.83733 280.06666 135.68 279.28267 134.656 278.28 L 134.656 291.72 Z M 142.112 253.8 C 140.46933 253.8 139.06667 254.14666 137.904 254.84 C 136.74133 255.53334 135.65867 256.50933 134.656 257.768 L 134.656 272.488 C 135.552 273.59734 136.528 274.37066 137.584 274.808 C 138.64 275.24534 139.776 275.464 140.992 275.464 C 142.18667 275.464 143.26933 275.24 144.24 274.792 C 145.21067 274.344 146.032 273.66134 146.704 272.744 C 147.376 271.82666 147.89333 270.66934 148.256 269.272 C 148.61867 267.87466 148.8 266.22668 148.8 264.328 C 148.8 262.408 148.64533 260.78134 148.336 259.448 C 148.02667 258.11466 147.584 257.032 147.008 256.2 C 146.432 255.368 145.73334 254.76 144.912 254.376 C 144.09066 253.992 143.15734 253.8 142.112 253.8 Z" fill="#424242"/>
        </g>
        <g id="Graphic_366">
          <path d="M 176.512 247.656 C 178.58134 247.656 180.48532 247.98666 182.224 248.648 C 183.96268 249.30934 185.46133 250.27466 186.72 251.544 C 187.97867 252.81334 188.96 254.37066 189.664 256.216 C 190.368 258.06134 190.72 260.168 190.72 262.536 C 190.72 263.13334 190.69333 263.62933 190.64 264.024 C 190.58667 264.41867 190.49067 264.728 190.352 264.952 C 190.21333 265.176 190.02667 265.336 189.792 265.432 C 189.55733 265.528 189.25867 265.576 188.896 265.576 L 168.608 265.576 C 168.84267 268.94668 169.74933 271.42133 171.328 273 C 172.90667 274.57867 174.99732 275.368 177.6 275.368 C 178.88 275.368 179.984 275.21867 180.912 274.92 C 181.84 274.62133 182.65066 274.29067 183.344 273.928 C 184.03734 273.56533 184.64533 273.23467 185.168 272.936 C 185.69067 272.63733 186.19733 272.488 186.688 272.488 C 187.008 272.488 187.28533 272.552 187.52 272.68 C 187.75467 272.808 187.95733 272.98933 188.128 273.224 L 190.432 276.104 C 189.55733 277.128 188.576 277.98666 187.488 278.68 C 186.4 279.37334 185.264 279.928 184.08 280.344 C 182.896 280.76 181.69067 281.05333 180.464 281.224 C 179.23733 281.39467 178.048 281.48 176.896 281.48 C 174.61332 281.48 172.49068 281.10134 170.528 280.344 C 168.56532 279.58666 166.85867 278.46667 165.408 276.984 C 163.95733 275.50133 162.816 273.66668 161.984 271.48 C 161.152 269.29332 160.736 266.76 160.736 263.88 C 160.736 261.64 161.09866 259.53334 161.824 257.56 C 162.54934 255.58666 163.58933 253.86934 164.944 252.408 C 166.29867 250.94666 167.952 249.78934 169.904 248.936 C 171.856 248.08266 174.05865 247.656 176.512 247.656 Z M 176.672 253.32 C 174.36799 253.32 172.56534 253.97066 171.264 255.272 C 169.96266 256.57334 169.13067 258.41865 168.768 260.808 L 183.616 260.808 C 183.616 259.784 183.47733 258.81867 183.2 257.912 C 182.92267 257.00533 182.496 256.21067 181.92 255.528 C 181.344 254.84533 180.61867 254.30667 179.744 253.912 C 178.86933 253.51733 177.84534 253.32 176.672 253.32 Z" fill="#424242"/>
        </g>
        <g id="Graphic_367">
          <path d="M 197.152 281 L 197.152 248.168 L 201.792 248.168 C 202.60267 248.168 203.168 248.31733 203.488 248.616 C 203.808 248.91467 204.02133 249.42666 204.128 250.152 L 204.608 254.12 C 205.78134 252.09332 207.15733 250.49334 208.736 249.32 C 210.31467 248.14666 212.08532 247.56 214.048 247.56 C 215.66934 247.56 217.01333 247.93333 218.08 248.68 L 217.056 254.6 C 216.992 254.984 216.85333 255.256 216.64 255.416 C 216.42667 255.576 216.13867 255.656 215.776 255.656 C 215.456 255.656 215.01867 255.58133 214.464 255.432 C 213.90933 255.28267 213.17334 255.208 212.256 255.208 C 210.61333 255.208 209.20534 255.66133 208.032 256.568 C 206.85866 257.47467 205.86667 258.80266 205.056 260.552 L 205.056 281 Z" fill="#424242"/>
        </g>
        <g id="Graphic_368">
          <path d="M 223.392 281 L 223.392 233.448 L 231.296 233.448 L 231.296 252.2 C 232.59734 250.81333 234.06933 249.70934 235.712 248.888 C 237.35467 248.06666 239.27466 247.656 241.472 247.656 C 243.264 247.656 244.90133 248.024 246.384 248.76 C 247.86667 249.496 249.14666 250.568 250.224 251.976 C 251.30134 253.384 252.13333 255.12266 252.72 257.192 C 253.30667 259.26134 253.6 261.64 253.6 264.328 C 253.6 266.78135 253.26934 269.05332 252.608 271.144 C 251.94666 273.23468 251.00267 275.048 249.776 276.584 C 248.54933 278.12 247.06668 279.32 245.328 280.184 C 243.58932 281.048 241.64268 281.48 239.488 281.48 C 238.48533 281.48 237.568 281.37867 236.736 281.176 C 235.904 280.97333 235.14667 280.69067 234.464 280.328 C 233.78133 279.96533 233.14667 279.52267 232.56 279 C 231.97333 278.47733 231.41334 277.896 230.88 277.256 L 230.528 279.464 C 230.4 280.01867 230.18133 280.41333 229.872 280.648 C 229.56267 280.88267 229.14134 281 228.608 281 Z M 238.752 253.8 C 237.10933 253.8 235.70667 254.14666 234.544 254.84 C 233.38133 255.53334 232.29867 256.50933 231.296 257.768 L 231.296 272.488 C 232.192 273.59734 233.168 274.37066 234.224 274.808 C 235.28 275.24534 236.42666 275.464 237.664 275.464 C 238.85867 275.464 239.936 275.24 240.896 274.792 C 241.856 274.344 242.672 273.66134 243.344 272.744 C 244.016 271.82666 244.53333 270.66934 244.896 269.272 C 245.25867 267.87466 245.44 266.22668 245.44 264.328 C 245.44 262.408 245.28533 260.78134 244.976 259.448 C 244.66667 258.11466 244.224 257.032 243.648 256.2 C 243.072 255.368 242.37334 254.76 241.552 254.376 C 240.73066 253.992 239.79734 253.8 238.752 253.8 Z" fill="#424242"/>
        </g>
        <g id="Graphic_369">
          <path d="M 273.792 247.656 C 276.24535 247.656 278.46932 248.05066 280.464 248.84 C 282.45868 249.62934 284.16 250.74933 285.568 252.2 C 286.976 253.65067 288.064 255.42132 288.832 257.512 C 289.6 259.60268 289.984 261.93865 289.984 264.52 C 289.984 267.12268 289.6 269.46932 288.832 271.56 C 288.064 273.65068 286.976 275.432 285.568 276.904 C 284.16 278.376 282.45868 279.50666 280.464 280.296 C 278.46932 281.08534 276.24535 281.48 273.792 281.48 C 271.33865 281.48 269.10934 281.08534 267.104 280.296 C 265.09866 279.50666 263.38667 278.376 261.968 276.904 C 260.54933 275.432 259.45067 273.65068 258.672 271.56 C 257.89333 269.46932 257.504 267.12268 257.504 264.52 C 257.504 261.93865 257.89333 259.60268 258.672 257.512 C 259.45067 255.42132 260.54933 253.65067 261.968 252.2 C 263.38667 250.74933 265.09866 249.62934 267.104 248.84 C 269.10934 248.05066 271.33865 247.656 273.792 247.656 Z M 273.792 275.4 C 276.52268 275.4 278.544 274.48268 279.856 272.648 C 281.168 270.81332 281.824 268.12535 281.824 264.584 C 281.824 261.04265 281.168 258.344 279.856 256.488 C 278.544 254.632 276.52268 253.704 273.792 253.704 C 271.01865 253.704 268.97067 254.63732 267.648 256.504 C 266.32533 258.37068 265.664 261.06398 265.664 264.584 C 265.664 268.10402 266.32533 270.78666 267.648 272.632 C 268.97067 274.47734 271.01865 275.4 273.792 275.4 Z" fill="#424242"/>
        </g>
        <g id="Graphic_370">
          <rect x="296.672" y="233.448" width="7.904" height="47.552" fill="#424242"/>
        </g>
        <g id="Graphic_371">
          <path d="M 339.232 281 L 335.68 281 C 334.93333 281 334.34667 280.888 333.92 280.664 C 333.49333 280.44 333.17333 279.98667 332.96 279.304 L 332.256 276.968 C 331.424 277.71467 330.608 278.37066 329.808 278.936 C 329.008 279.50134 328.18134 279.976 327.328 280.36 C 326.47466 280.744 325.568 281.032 324.608 281.224 C 323.648 281.416 322.58134 281.512 321.408 281.512 C 320.02133 281.512 318.74134 281.32534 317.568 280.952 C 316.39466 280.57866 315.38667 280.01867 314.544 279.272 C 313.70133 278.52533 313.04534 277.59734 312.576 276.488 C 312.10666 275.37866 311.872 274.088 311.872 272.616 C 311.872 271.37866 312.19733 270.15734 312.848 268.952 C 313.49867 267.74666 314.58133 266.65867 316.096 265.688 C 317.61067 264.71733 319.62665 263.912 322.144 263.272 C 324.66135 262.632 327.78665 262.26933 331.52 262.184 L 331.52 260.264 C 331.52 258.06666 331.056 256.44 330.128 255.384 C 329.2 254.328 327.85068 253.8 326.08 253.8 C 324.8 253.8 323.73334 253.94933 322.88 254.248 C 322.02666 254.54667 321.28534 254.88266 320.656 255.256 C 320.02666 255.62934 319.44534 255.96533 318.912 256.264 C 318.37866 256.56267 317.792 256.712 317.152 256.712 C 316.61866 256.712 316.16 256.57333 315.776 256.296 C 315.392 256.01867 315.08267 255.67734 314.848 255.272 L 313.408 252.744 C 317.184 249.28798 321.73864 247.56 327.072 247.56 C 328.992 247.56 330.704 247.87466 332.208 248.504 C 333.712 249.13334 334.98666 250.008 336.032 251.128 C 337.07734 252.248 337.872 253.58666 338.416 255.144 C 338.96 256.70134 339.232 258.408 339.232 260.264 Z M 323.872 276.072 C 324.68267 276.072 325.42933 275.99733 326.112 275.848 C 326.79467 275.69867 327.44 275.47467 328.048 275.176 C 328.656 274.87733 329.24266 274.50934 329.808 274.072 C 330.37334 273.63466 330.944 273.11734 331.52 272.52 L 331.52 266.984 C 329.216 267.09067 327.29067 267.288 325.744 267.576 C 324.19733 267.864 322.95467 268.232 322.016 268.68 C 321.07733 269.128 320.41067 269.65066 320.016 270.248 C 319.62133 270.84534 319.424 271.496 319.424 272.2 C 319.424 273.58667 319.83466 274.57866 320.656 275.176 C 321.47734 275.77334 322.54933 276.072 323.872 276.072 Z" fill="#424242"/>
        </g>
      </g>
    </g>
  </g>
</svg>
