<?xml version="1.0" encoding="UTF-8" standalone="no"?>
<!DOCTYPE svg PUBLIC "-//W3C//DTD SVG 1.1//EN" "http://www.w3.org/Graphics/SVG/1.1/DTD/svg11.dtd">
<svg xmlns="http://www.w3.org/2000/svg" xmlns:dc="http://purl.org/dc/elements/1.1/" xmlns:xl="http://www.w3.org/1999/xlink" version="1.1" viewBox="0 0 480 600" width="480" height="600">
  <defs/>
  <metadata> Produced by OmniGraffle 7.18.5\n2021-06-10 09:51:27 +0000</metadata>
  <g id="Canvas_1" stroke="none" stroke-opacity="1" stroke-dasharray="none" fill-opacity="1" fill="none">
    <title>Canvas 1</title>
    <g id="Canvas_1_book-base4">
      <title>book-base4</title>
      <g id="Graphic_453">
        <path d="M 12 0 L 468 0 C 474.6274 40581225e-23 480 5.372583 480 12 L 480 588 C 480 594.6274 474.6274 600 468 600 L 12 600 C 5.372583 600 8116245e-22 594.6274 0 588 L 35527137e-21 12 C 3633876e-20 5.372583 5.372583 -40581225e-23 12 0 Z" fill="white"/>
      </g>
    </g>
    <g id="Canvas_1_1a-CAL-nofont">
      <title>1a-CAL-nofont</title>
      <g id="Graphic_237">
        <rect x="0" y="188" width="480" height="10" fill="#ff85ff"/>
      </g>
      <g id="Group_246">
        <title>CALCULUS</title>
        <g id="Graphic_238">
          <path d="M 65.277 546.329 C 65.461 546.329 65.645 546.3635 65.829 546.4325 C 66.013 546.5015 66.18933 546.6203 66.358 546.789 L 69.44 550.032 C 68.09066 551.79534 66.40018 553.1255 64.3685 554.0225 C 62.33682 554.9195 59.93335 555.368 57.158 555.368 C 54.612654 555.368 52.331843 554.93484 50.3155 554.0685 C 48.299157 553.20216 46.589507 552.0062 45.1865 550.4805 C 43.783493 548.9548 42.706337 547.1455 41.955 545.0525 C 41.203663 542.9595 40.828 540.68635 40.828 538.233 C 40.828 535.73365 41.25733 533.4375 42.116 531.3445 C 42.97467 529.2515 44.17449 527.446 45.7155 525.928 C 47.25651 524.41 49.10032 523.22934 51.247 522.386 C 53.39368 521.54266 55.762654 521.121 58.354 521.121 C 59.61134 521.121 60.79583 521.23217 61.9075 521.4545 C 63.01917 521.67683 64.057995 521.9835 65.024 522.3745 C 65.990005 522.7655 66.87933 523.23316 67.692 523.7775 C 68.50467 524.32184 69.22533 524.92366 69.854 525.583 L 67.232 529.102 C 67.06333 529.31667 66.864 529.51217 66.634 529.6885 C 66.404 529.86483 66.082 529.953 65.668 529.953 C 65.392 529.953 65.131335 529.89167 64.886 529.769 C 64.640665 529.64633 64.38 529.49683 64.104 529.3205 C 63.828 529.14417 63.52517 528.9525 63.1955 528.7455 C 62.86583 528.5385 62.474836 528.34683 62.0225 528.1705 C 61.570164 527.99417 61.04117 527.84467 60.4355 527.722 C 59.82983 527.59933 59.12067 527.538 58.308 527.538 C 56.897326 527.538 55.60934 527.78716 54.444 528.2855 C 53.27866 528.78384 52.27817 529.4968 51.4425 530.4245 C 50.60683 531.3522 49.95517 532.4753 49.4875 533.794 C 49.01983 535.1127 48.786 536.5923 48.786 538.233 C 48.786 539.95034 49.01983 541.476 49.4875 542.81 C 49.95517 544.144 50.591496 545.26716 51.3965 546.1795 C 52.201504 547.09184 53.14066 547.78566 54.214 548.261 C 55.28734 548.73634 56.43733 548.974 57.664 548.974 C 58.36934 548.974 59.01333 548.9395 59.596 548.8705 C 60.17867 548.8015 60.719164 548.6827 61.2175 548.514 C 61.715836 548.3453 62.191164 548.12683 62.6435 547.8585 C 63.095836 547.59017 63.552 547.2567 64.012 546.858 C 64.196 546.70467 64.39533 546.57817 64.61 546.4785 C 64.82467 546.37883 65.047 546.329 65.277 546.329 Z" fill="#ff85ff"/>
        </g>
        <g id="Graphic_239">
          <path d="M 107.17 555 L 101.144 555 C 100.46933 555 99.9135 554.84283 99.4765 554.5285 C 99.0395 554.21417 98.73667 553.8117 98.568 553.321 L 96.59 547.479 L 83.848 547.479 L 81.87 553.321 C 81.71667 553.75034 81.41767 554.1375 80.973 554.4825 C 80.52833 554.8275 79.984 555 79.34 555 L 73.268 555 L 86.24 521.489 L 94.198 521.489 Z M 85.642 542.189 L 94.796 542.189 L 91.714 533.012 C 91.51467 532.4293 91.28083 531.7432 91.0125 530.9535 C 90.74417 530.1638 90.47967 529.309 90.219 528.389 C 89.97367 529.32434 89.72067 530.19066 89.46 530.988 C 89.19933 531.78534 88.954 532.4753 88.724 533.058 Z" fill="#ff85ff"/>
        </g>
        <g id="Graphic_240">
          <path d="M 120.658 548.79 L 133.078 548.79 L 133.078 555 L 112.884 555 L 112.884 521.489 L 120.658 521.489 Z" fill="#ff85ff"/>
        </g>
        <g id="Graphic_241">
          <path d="M 160.435 546.329 C 160.619 546.329 160.803 546.3635 160.987 546.4325 C 161.171 546.5015 161.34733 546.6203 161.516 546.789 L 164.598 550.032 C 163.24866 551.79534 161.55818 553.1255 159.5265 554.0225 C 157.49482 554.9195 155.09135 555.368 152.316 555.368 C 149.77065 555.368 147.48984 554.93484 145.4735 554.0685 C 143.45716 553.20216 141.7475 552.0062 140.3445 550.4805 C 138.9415 548.9548 137.86434 547.1455 137.113 545.0525 C 136.36166 542.9595 135.986 540.68635 135.986 538.233 C 135.986 535.73365 136.41533 533.4375 137.274 531.3445 C 138.13267 529.2515 139.3325 527.446 140.8735 525.928 C 142.4145 524.41 144.25832 523.22934 146.405 522.386 C 148.55168 521.54266 150.92065 521.121 153.512 521.121 C 154.76934 521.121 155.95383 521.23217 157.0655 521.4545 C 158.17717 521.67683 159.216 521.9835 160.182 522.3745 C 161.148 522.7655 162.03733 523.23316 162.85 523.7775 C 163.66267 524.32184 164.38333 524.92366 165.012 525.583 L 162.39 529.102 C 162.22133 529.31667 162.022 529.51217 161.792 529.6885 C 161.562 529.86483 161.24 529.953 160.826 529.953 C 160.55 529.953 160.28933 529.89167 160.044 529.769 C 159.79867 529.64633 159.538 529.49683 159.262 529.3205 C 158.986 529.14417 158.68317 528.9525 158.3535 528.7455 C 158.02383 528.5385 157.63284 528.34683 157.1805 528.1705 C 156.72816 527.99417 156.19917 527.84467 155.5935 527.722 C 154.98783 527.59933 154.27867 527.538 153.466 527.538 C 152.05533 527.538 150.76734 527.78716 149.602 528.2855 C 148.43666 528.78384 147.43617 529.4968 146.6005 530.4245 C 145.76483 531.3522 145.11317 532.4753 144.6455 533.794 C 144.17783 535.1127 143.944 536.5923 143.944 538.233 C 143.944 539.95034 144.17783 541.476 144.6455 542.81 C 145.11317 544.144 145.7495 545.26716 146.5545 546.1795 C 147.3595 547.09184 148.29866 547.78566 149.372 548.261 C 150.44534 548.73634 151.59533 548.974 152.822 548.974 C 153.52734 548.974 154.17133 548.9395 154.754 548.8705 C 155.33667 548.8015 155.87716 548.6827 156.3755 548.514 C 156.87384 548.3453 157.34916 548.12683 157.8015 547.8585 C 158.25384 547.59017 158.71 547.2567 159.17 546.858 C 159.354 546.70467 159.55333 546.57817 159.768 546.4785 C 159.98267 546.37883 160.205 546.329 160.435 546.329 Z" fill="#ff85ff"/>
        </g>
        <g id="Graphic_242">
          <path d="M 185.078 548.859 C 186.12067 548.859 187.05216 548.6865 187.8725 548.3415 C 188.69284 547.9965 189.38666 547.502 189.954 546.858 C 190.52134 546.214 190.9545 545.4282 191.2535 544.5005 C 191.5525 543.5728 191.702 542.5187 191.702 541.338 L 191.702 521.489 L 199.476 521.489 L 199.476 541.338 C 199.476 543.3927 199.1425 545.27866 198.4755 546.996 C 197.8085 548.71334 196.854 550.193 195.612 551.435 C 194.37 552.677 192.85968 553.643 191.081 554.333 C 189.30232 555.023 187.30134 555.368 185.078 555.368 C 182.83932 555.368 180.83068 555.023 179.052 554.333 C 177.27332 553.643 175.763 552.677 174.521 551.435 C 173.279 550.193 172.32834 548.71334 171.669 546.996 C 171.00966 545.27866 170.68 543.3927 170.68 541.338 L 170.68 521.489 L 178.454 521.489 L 178.454 541.315 C 178.454 542.4957 178.6035 543.5498 178.9025 544.4775 C 179.2015 545.4052 179.63466 546.1948 180.202 546.8465 C 180.76934 547.4982 181.46316 547.9965 182.2835 548.3415 C 183.10384 548.6865 184.03533 548.859 185.078 548.859 Z" fill="#ff85ff"/>
        </g>
        <g id="Graphic_243">
          <path d="M 215.31 548.79 L 227.73 548.79 L 227.73 555 L 207.536 555 L 207.536 521.489 L 215.31 521.489 Z" fill="#ff85ff"/>
        </g>
        <g id="Graphic_244">
          <path d="M 248.348 548.859 C 249.39067 548.859 250.32216 548.6865 251.1425 548.3415 C 251.96284 547.9965 252.65666 547.502 253.224 546.858 C 253.79134 546.214 254.2245 545.4282 254.5235 544.5005 C 254.8225 543.5728 254.972 542.5187 254.972 541.338 L 254.972 521.489 L 262.746 521.489 L 262.746 541.338 C 262.746 543.3927 262.4125 545.27866 261.7455 546.996 C 261.0785 548.71334 260.124 550.193 258.882 551.435 C 257.64 552.677 256.12968 553.643 254.351 554.333 C 252.57232 555.023 250.57134 555.368 248.348 555.368 C 246.10932 555.368 244.10068 555.023 242.322 554.333 C 240.54332 553.643 239.033 552.677 237.791 551.435 C 236.549 550.193 235.59834 548.71334 234.939 546.996 C 234.27966 545.27866 233.95 543.3927 233.95 541.338 L 233.95 521.489 L 241.724 521.489 L 241.724 541.315 C 241.724 542.4957 241.8735 543.5498 242.1725 544.4775 C 242.4715 545.4052 242.90466 546.1948 243.472 546.8465 C 244.03934 547.4982 244.73316 547.9965 245.5535 548.3415 C 246.37384 548.6865 247.30533 548.859 248.348 548.859 Z" fill="#ff85ff"/>
        </g>
        <g id="Graphic_245">
          <path d="M 289.482 528.297 C 289.252 528.665 289.0105 528.941 288.7575 529.125 C 288.5045 529.309 288.17867 529.401 287.78 529.401 C 287.42733 529.401 287.04784 529.28983 286.6415 529.0675 C 286.23516 528.84517 285.77517 528.596 285.2615 528.32 C 284.74783 528.044 284.16134 527.79483 283.502 527.5725 C 282.84266 527.35017 282.09134 527.239 281.248 527.239 C 279.79133 527.239 278.7065 527.5495 277.9935 528.1705 C 277.2805 528.7915 276.924 529.631 276.924 530.689 C 276.924 531.3637 277.13866 531.9233 277.568 532.368 C 277.99734 532.8127 278.56083 533.196 279.2585 533.518 C 279.95617 533.84 280.7535 534.13517 281.6505 534.4035 C 282.5475 534.67183 283.46366 534.9708 284.399 535.3005 C 285.33434 535.6302 286.2505 536.0173 287.1475 536.462 C 288.0445 536.9067 288.84183 537.474 289.5395 538.164 C 290.23717 538.854 290.80066 539.6935 291.23 540.6825 C 291.65934 541.6715 291.874 542.86366 291.874 544.259 C 291.874 545.8077 291.60567 547.25666 291.069 548.606 C 290.53233 549.95534 289.75417 551.13216 288.7345 552.1365 C 287.71483 553.14084 286.4575 553.9305 284.9625 554.5055 C 283.4675 555.0805 281.76934 555.368 279.868 555.368 C 278.82533 555.368 277.7635 555.2607 276.6825 555.046 C 275.6015 554.8313 274.555 554.5285 273.543 554.1375 C 272.531 553.7465 271.58034 553.2827 270.691 552.746 C 269.80166 552.2093 269.02734 551.61134 268.368 550.952 L 270.668 547.318 C 270.83667 547.042 271.07433 546.8197 271.381 546.651 C 271.68767 546.4823 272.01733 546.398 272.37 546.398 C 272.83 546.398 273.29383 546.54367 273.7615 546.835 C 274.22917 547.12633 274.75816 547.4483 275.3485 547.801 C 275.93884 548.1537 276.61733 548.47567 277.384 548.767 C 278.15067 549.05833 279.05533 549.204 280.098 549.204 C 281.50867 549.204 282.605 548.8935 283.387 548.2725 C 284.169 547.6515 284.56 546.66634 284.56 545.317 C 284.56 544.535 284.34534 543.8987 283.916 543.408 C 283.48666 542.9173 282.92317 542.511 282.2255 542.189 C 281.52783 541.867 280.73434 541.58333 279.845 541.338 C 278.95566 541.09267 278.04334 540.8205 277.108 540.5215 C 276.17266 540.2225 275.26034 539.8545 274.371 539.4175 C 273.48166 538.9805 272.68817 538.4055 271.9905 537.6925 C 271.29283 536.9795 270.72934 536.0902 270.3 535.0245 C 269.87066 533.9588 269.656 532.644 269.656 531.08 C 269.656 529.82266 269.909 528.596 270.415 527.4 C 270.921 526.204 271.66466 525.13834 272.646 524.203 C 273.62734 523.26766 274.831 522.5202 276.257 521.9605 C 277.683 521.4008 279.316 521.121 281.156 521.121 C 282.18334 521.121 283.18383 521.2015 284.1575 521.3625 C 285.13117 521.5235 286.055 521.76117 286.929 522.0755 C 287.803 522.38983 288.6195 522.7655 289.3785 523.2025 C 290.1375 523.6395 290.816 524.134 291.414 524.686 Z" fill="#ff85ff"/>
        </g>
      </g>
    </g>
    <g id="Canvas_1_1a-deriv-nofont">
      <title>1a-deriv-nofont</title>
      <g id="Group_482">
        <title>Derivatives: Rules &amp; Formulas</title>
        <g id="Graphic_456">
          <path d="M 85.76 257.864 C 85.76 261.25602 85.19467 264.37065 84.064 267.208 C 82.93333 270.04535 81.34401 272.488 79.296 274.536 C 77.24799 276.584 74.78401 278.17333 71.904 279.304 C 69.023986 280.43467 65.834684 281 62.336 281 L 44.672 281 L 44.672 234.728 L 62.336 234.728 C 65.834684 234.728 69.023986 235.29866 71.904 236.44 C 74.78401 237.58134 77.24799 239.17066 79.296 241.208 C 81.34401 243.24534 82.93333 245.68265 84.064 248.52 C 85.19467 251.35735 85.76 254.47198 85.76 257.864 Z M 76.96 257.864 C 76.96 255.32532 76.61867 253.048 75.936 251.032 C 75.25333 249.016 74.28267 247.30934 73.024 245.912 C 71.76533 244.51466 70.234676 243.44267 68.432 242.696 C 66.629324 241.94933 64.597345 241.576 62.336 241.576 L 53.344 241.576 L 53.344 274.152 L 62.336 274.152 C 64.597345 274.152 66.629324 273.77867 68.432 273.032 C 70.234676 272.28533 71.76533 271.21334 73.024 269.816 C 74.28267 268.41866 75.25333 266.712 75.936 264.696 C 76.61867 262.68 76.96 260.40268 76.96 257.864 Z" fill="#424242"/>
        </g>
        <g id="Graphic_457">
          <path d="M 105.632 247.656 C 107.70134 247.656 109.60532 247.98666 111.344 248.648 C 113.08268 249.30934 114.58133 250.27466 115.84 251.544 C 117.09867 252.81334 118.08 254.37066 118.784 256.216 C 119.488 258.06134 119.84 260.168 119.84 262.536 C 119.84 263.13334 119.81333 263.62933 119.76 264.024 C 119.70667 264.41867 119.61067 264.728 119.472 264.952 C 119.33333 265.176 119.14667 265.336 118.912 265.432 C 118.67733 265.528 118.37867 265.576 118.016 265.576 L 97.728 265.576 C 97.96267 268.94668 98.86933 271.42133 100.448 273 C 102.02667 274.57867 104.11732 275.368 106.72 275.368 C 108 275.368 109.104 275.21867 110.032 274.92 C 110.96 274.62133 111.77066 274.29067 112.464 273.928 C 113.15734 273.56533 113.76533 273.23467 114.288 272.936 C 114.81067 272.63733 115.31733 272.488 115.808 272.488 C 116.128 272.488 116.40533 272.552 116.64 272.68 C 116.87467 272.808 117.07733 272.98933 117.248 273.224 L 119.552 276.104 C 118.67733 277.128 117.696 277.98666 116.608 278.68 C 115.52 279.37334 114.384 279.928 113.2 280.344 C 112.016 280.76 110.81067 281.05333 109.584 281.224 C 108.35733 281.39467 107.168 281.48 106.016 281.48 C 103.73332 281.48 101.61068 281.10134 99.648 280.344 C 97.68532 279.58666 95.97867 278.46667 94.528 276.984 C 93.07733 275.50133 91.936 273.66668 91.104 271.48 C 90.272 269.29332 89.856 266.76 89.856 263.88 C 89.856 261.64 90.21866 259.53334 90.944 257.56 C 91.66934 255.58666 92.70933 253.86934 94.064 252.408 C 95.41867 250.94666 97.07199 249.78934 99.024 248.936 C 100.97601 248.08266 103.17865 247.656 105.632 247.656 Z M 105.792 253.32 C 103.48799 253.32 101.68534 253.97066 100.384 255.272 C 99.08266 256.57334 98.25067 258.41865 97.888 260.808 L 112.736 260.808 C 112.736 259.784 112.59733 258.81867 112.32 257.912 C 112.04267 257.00533 111.616 256.21067 111.04 255.528 C 110.464 254.84533 109.73867 254.30667 108.864 253.912 C 107.98933 253.51733 106.96534 253.32 105.792 253.32 Z" fill="#424242"/>
        </g>
        <g id="Graphic_458">
          <path d="M 126.272 281 L 126.272 248.168 L 130.912 248.168 C 131.72267 248.168 132.288 248.31733 132.608 248.616 C 132.928 248.91467 133.14133 249.42666 133.248 250.152 L 133.728 254.12 C 134.90134 252.09332 136.27733 250.49334 137.856 249.32 C 139.43467 248.14666 141.20532 247.56 143.168 247.56 C 144.78934 247.56 146.13333 247.93333 147.2 248.68 L 146.176 254.6 C 146.112 254.984 145.97333 255.256 145.76 255.416 C 145.54667 255.576 145.25867 255.656 144.896 255.656 C 144.576 255.656 144.13867 255.58133 143.584 255.432 C 143.02933 255.28267 142.29334 255.208 141.376 255.208 C 139.73333 255.208 138.32534 255.66133 137.152 256.568 C 135.97866 257.47467 134.98667 258.80266 134.176 260.552 L 134.176 281 Z" fill="#424242"/>
        </g>
        <g id="Graphic_459">
          <path d="M 160.832 248.168 L 160.832 281 L 152.928 281 L 152.928 248.168 Z M 162.016 238.6 C 162.016 239.28267 161.87733 239.92266 161.6 240.52 C 161.32267 241.11734 160.95467 241.64 160.496 242.088 C 160.03733 242.536 159.49867 242.89333 158.88 243.16 C 158.26133 243.42667 157.6 243.56 156.896 243.56 C 156.21333 243.56 155.568 243.42667 154.96 243.16 C 154.352 242.89333 153.824 242.536 153.376 242.088 C 152.928 241.64 152.57067 241.11734 152.304 240.52 C 152.03733 239.92266 151.904 239.28267 151.904 238.6 C 151.904 237.896 152.03733 237.23467 152.304 236.616 C 152.57067 235.99733 152.928 235.464 153.376 235.016 C 153.824 234.568 154.352 234.21067 154.96 233.944 C 155.568 233.67733 156.21333 233.544 156.896 233.544 C 157.6 233.544 158.26133 233.67733 158.88 233.944 C 159.49867 234.21067 160.03733 234.568 160.496 235.016 C 160.95467 235.464 161.32267 235.99733 161.6 236.616 C 161.87733 237.23467 162.016 237.896 162.016 238.6 Z" fill="#424242"/>
        </g>
        <g id="Graphic_460">
          <path d="M 186.208 281 L 179.04 281 L 165.984 248.168 L 172.544 248.168 C 173.12 248.168 173.60533 248.30667 174 248.584 C 174.39467 248.86133 174.66667 249.21333 174.816 249.64 L 181.152 267.176 C 181.51467 268.2 181.81867 269.20266 182.064 270.184 C 182.30933 271.16534 182.528 272.14666 182.72 273.128 C 182.912 272.14666 183.13067 271.16534 183.376 270.184 C 183.62133 269.20266 183.936 268.2 184.32 267.176 L 190.816 249.64 C 190.96533 249.21333 191.232 248.86133 191.616 248.584 C 192 248.30667 192.45866 248.168 192.992 248.168 L 199.232 248.168 Z" fill="#424242"/>
        </g>
        <g id="Graphic_461">
          <path d="M 229.632 281 L 226.08 281 C 225.33333 281 224.74667 280.888 224.32 280.664 C 223.89333 280.44 223.57333 279.98667 223.36 279.304 L 222.656 276.968 C 221.824 277.71467 221.008 278.37066 220.208 278.936 C 219.408 279.50134 218.58134 279.976 217.728 280.36 C 216.87466 280.744 215.968 281.032 215.008 281.224 C 214.048 281.416 212.98134 281.512 211.808 281.512 C 210.42133 281.512 209.14134 281.32534 207.968 280.952 C 206.79466 280.57866 205.78667 280.01867 204.944 279.272 C 204.10133 278.52533 203.44534 277.59734 202.976 276.488 C 202.50666 275.37866 202.272 274.088 202.272 272.616 C 202.272 271.37866 202.59733 270.15734 203.248 268.952 C 203.89867 267.74666 204.98133 266.65867 206.496 265.688 C 208.01067 264.71733 210.02665 263.912 212.544 263.272 C 215.06135 262.632 218.18665 262.26933 221.92 262.184 L 221.92 260.264 C 221.92 258.06666 221.456 256.44 220.528 255.384 C 219.6 254.328 218.25068 253.8 216.48 253.8 C 215.2 253.8 214.13334 253.94933 213.28 254.248 C 212.42666 254.54667 211.68534 254.88266 211.056 255.256 C 210.42666 255.62934 209.84534 255.96533 209.312 256.264 C 208.77866 256.56267 208.192 256.712 207.552 256.712 C 207.01866 256.712 206.56 256.57333 206.176 256.296 C 205.792 256.01867 205.48267 255.67734 205.248 255.272 L 203.808 252.744 C 207.58402 249.28798 212.13864 247.56 217.472 247.56 C 219.392 247.56 221.104 247.87466 222.608 248.504 C 224.112 249.13334 225.38666 250.008 226.432 251.128 C 227.47734 252.248 228.272 253.58666 228.816 255.144 C 229.36 256.70134 229.632 258.408 229.632 260.264 Z M 214.272 276.072 C 215.08267 276.072 215.82933 275.99733 216.512 275.848 C 217.19467 275.69867 217.84 275.47467 218.448 275.176 C 219.056 274.87733 219.64266 274.50934 220.208 274.072 C 220.77334 273.63466 221.344 273.11734 221.92 272.52 L 221.92 266.984 C 219.616 267.09067 217.69067 267.288 216.144 267.576 C 214.59733 267.864 213.35467 268.232 212.416 268.68 C 211.47733 269.128 210.81067 269.65066 210.416 270.248 C 210.02133 270.84534 209.824 271.496 209.824 272.2 C 209.824 273.58667 210.23466 274.57866 211.056 275.176 C 211.87734 275.77334 212.94933 276.072 214.272 276.072 Z" fill="#424242"/>
        </g>
        <g id="Graphic_462">
          <path d="M 248.192 281.512 C 245.35465 281.512 243.168 280.70667 241.632 279.096 C 240.096 277.48533 239.328 275.26135 239.328 272.424 L 239.328 254.088 L 236 254.088 C 235.57333 254.088 235.20533 253.94933 234.896 253.672 C 234.58667 253.39467 234.432 252.97867 234.432 252.424 L 234.432 249.288 L 239.712 248.424 L 241.376 239.464 C 241.46133 239.03733 241.65867 238.70667 241.968 238.472 C 242.27733 238.23733 242.66666 238.12 243.136 238.12 L 247.232 238.12 L 247.232 248.456 L 255.872 248.456 L 255.872 254.088 L 247.232 254.088 L 247.232 271.88 C 247.232 272.904 247.488 273.704 248 274.28 C 248.512 274.856 249.19466 275.144 250.048 275.144 C 250.53867 275.144 250.94933 275.08533 251.28 274.968 C 251.61067 274.85067 251.89867 274.728 252.144 274.6 C 252.38933 274.472 252.608 274.34933 252.8 274.232 C 252.992 274.11467 253.184 274.056 253.376 274.056 C 253.61067 274.056 253.80267 274.11467 253.952 274.232 C 254.10133 274.34933 254.26133 274.52533 254.432 274.76 L 256.8 278.6 C 255.648 279.56 254.32534 280.28533 252.832 280.776 C 251.33866 281.26667 249.792 281.512 248.192 281.512 Z" fill="#424242"/>
        </g>
        <g id="Graphic_463">
          <path d="M 270.592 248.168 L 270.592 281 L 262.688 281 L 262.688 248.168 Z M 271.776 238.6 C 271.776 239.28267 271.63733 239.92266 271.36 240.52 C 271.08267 241.11734 270.71467 241.64 270.256 242.088 C 269.79733 242.536 269.25867 242.89333 268.64 243.16 C 268.02133 243.42667 267.36 243.56 266.656 243.56 C 265.97333 243.56 265.328 243.42667 264.72 243.16 C 264.112 242.89333 263.584 242.536 263.136 242.088 C 262.688 241.64 262.33067 241.11734 262.064 240.52 C 261.79733 239.92266 261.664 239.28267 261.664 238.6 C 261.664 237.896 261.79733 237.23467 262.064 236.616 C 262.33067 235.99733 262.688 235.464 263.136 235.016 C 263.584 234.568 264.112 234.21067 264.72 233.944 C 265.328 233.67733 265.97333 233.544 266.656 233.544 C 267.36 233.544 268.02133 233.67733 268.64 233.944 C 269.25867 234.21067 269.79733 234.568 270.256 235.016 C 270.71467 235.464 271.08267 235.99733 271.36 236.616 C 271.63733 237.23467 271.776 237.896 271.776 238.6 Z" fill="#424242"/>
        </g>
        <g id="Graphic_464">
          <path d="M 295.968 281 L 288.8 281 L 275.744 248.168 L 282.304 248.168 C 282.88 248.168 283.36533 248.30667 283.76 248.584 C 284.15467 248.86133 284.42667 249.21333 284.576 249.64 L 290.912 267.176 C 291.27467 268.2 291.57867 269.20266 291.824 270.184 C 292.06933 271.16534 292.288 272.14666 292.48 273.128 C 292.672 272.14666 292.89067 271.16534 293.136 270.184 C 293.38133 269.20266 293.696 268.2 294.08 267.176 L 300.576 249.64 C 300.72533 249.21333 300.992 248.86133 301.376 248.584 C 301.76 248.30667 302.21866 248.168 302.752 248.168 L 308.992 248.168 Z" fill="#424242"/>
        </g>
        <g id="Graphic_465">
          <path d="M 326.176 247.656 C 328.24534 247.656 330.14932 247.98666 331.888 248.648 C 333.62668 249.30934 335.12533 250.27466 336.384 251.544 C 337.64267 252.81334 338.624 254.37066 339.328 256.216 C 340.032 258.06134 340.384 260.168 340.384 262.536 C 340.384 263.13334 340.35733 263.62933 340.304 264.024 C 340.25067 264.41867 340.15467 264.728 340.016 264.952 C 339.87733 265.176 339.69067 265.336 339.456 265.432 C 339.22133 265.528 338.92267 265.576 338.56 265.576 L 318.272 265.576 C 318.50667 268.94668 319.41333 271.42133 320.992 273 C 322.57067 274.57867 324.66132 275.368 327.264 275.368 C 328.544 275.368 329.648 275.21867 330.576 274.92 C 331.504 274.62133 332.31466 274.29067 333.008 273.928 C 333.70134 273.56533 334.30933 273.23467 334.832 272.936 C 335.35467 272.63733 335.86133 272.488 336.352 272.488 C 336.672 272.488 336.94933 272.552 337.184 272.68 C 337.41867 272.808 337.62133 272.98933 337.792 273.224 L 340.096 276.104 C 339.22133 277.128 338.24 277.98666 337.152 278.68 C 336.064 279.37334 334.928 279.928 333.744 280.344 C 332.56 280.76 331.35467 281.05333 330.128 281.224 C 328.90133 281.39467 327.712 281.48 326.56 281.48 C 324.27732 281.48 322.15468 281.10134 320.192 280.344 C 318.22932 279.58666 316.52267 278.46667 315.072 276.984 C 313.62133 275.50133 312.48 273.66668 311.648 271.48 C 310.816 269.29332 310.4 266.76 310.4 263.88 C 310.4 261.64 310.76266 259.53334 311.488 257.56 C 312.21334 255.58666 313.25333 253.86934 314.608 252.408 C 315.96267 250.94666 317.616 249.78934 319.568 248.936 C 321.52 248.08266 323.72265 247.656 326.176 247.656 Z M 326.336 253.32 C 324.032 253.32 322.22934 253.97066 320.928 255.272 C 319.62666 256.57334 318.79467 258.41865 318.432 260.808 L 333.28 260.808 C 333.28 259.784 333.14133 258.81867 332.864 257.912 C 332.58667 257.00533 332.16 256.21067 331.584 255.528 C 331.008 254.84533 330.28267 254.30667 329.408 253.912 C 328.53333 253.51733 327.50934 253.32 326.336 253.32 Z" fill="#424242"/>
        </g>
        <g id="Graphic_466">
          <path d="M 366.304 254.568 C 366.09067 254.90934 365.86667 255.14933 365.632 255.288 C 365.39733 255.42667 365.09867 255.496 364.736 255.496 C 364.352 255.496 363.94134 255.38933 363.504 255.176 C 363.06666 254.96267 362.56 254.72267 361.984 254.456 C 361.408 254.18933 360.752 253.94933 360.016 253.736 C 359.28 253.52267 358.41067 253.416 357.408 253.416 C 355.85066 253.416 354.624 253.74666 353.728 254.408 C 352.832 255.06934 352.384 255.93333 352.384 257 C 352.384 257.704 352.61333 258.296 353.072 258.776 C 353.53067 259.256 354.13866 259.67733 354.896 260.04 C 355.65334 260.40267 356.512 260.728 357.472 261.016 C 358.432 261.304 359.41333 261.61866 360.416 261.96 C 361.41867 262.30134 362.4 262.69066 363.36 263.128 C 364.32 263.56534 365.17866 264.12 365.936 264.792 C 366.69334 265.464 367.30133 266.26933 367.76 267.208 C 368.21867 268.14667 368.448 269.27733 368.448 270.6 C 368.448 272.17867 368.16 273.63466 367.584 274.968 C 367.008 276.30134 366.16534 277.45333 365.056 278.424 C 363.94666 279.39467 362.576 280.152 360.944 280.696 C 359.312 281.24 357.44 281.512 355.328 281.512 C 354.19733 281.512 353.09334 281.41067 352.016 281.208 C 350.93866 281.00533 349.904 280.72267 348.912 280.36 C 347.92 279.99733 347.00267 279.57067 346.16 279.08 C 345.31733 278.58933 344.576 278.056 343.936 277.48 L 345.76 274.472 C 345.99467 274.10933 346.272 273.832 346.592 273.64 C 346.912 273.448 347.31733 273.352 347.808 273.352 C 348.29867 273.352 348.76266 273.49067 349.2 273.768 C 349.63734 274.04533 350.144 274.344 350.72 274.664 C 351.296 274.984 351.97333 275.28267 352.752 275.56 C 353.53067 275.83733 354.51733 275.976 355.712 275.976 C 356.65067 275.976 357.456 275.864 358.128 275.64 C 358.8 275.416 359.35466 275.12267 359.792 274.76 C 360.22934 274.39733 360.54933 273.976 360.752 273.496 C 360.95467 273.016 361.056 272.52 361.056 272.008 C 361.056 271.24 360.82667 270.61067 360.368 270.12 C 359.90933 269.62933 359.30134 269.20267 358.544 268.84 C 357.78666 268.47733 356.92267 268.152 355.952 267.864 C 354.98133 267.576 353.98934 267.26134 352.976 266.92 C 351.96266 266.57866 350.97067 266.17867 350 265.72 C 349.02933 265.26133 348.16534 264.68 347.408 263.976 C 346.65066 263.272 346.04267 262.408 345.584 261.384 C 345.12533 260.36 344.896 259.12267 344.896 257.672 C 344.896 256.328 345.16266 255.048 345.696 253.832 C 346.22934 252.616 347.01333 251.55467 348.048 250.648 C 349.08267 249.74133 350.37333 249.016 351.92 248.472 C 353.46667 247.928 355.25332 247.656 357.28 247.656 C 359.54134 247.656 361.6 248.02933 363.456 248.776 C 365.312 249.52267 366.85866 250.504 368.096 251.72 Z" fill="#424242"/>
        </g>
        <g id="Graphic_467">
          <path d="M 374.176 276.648 C 374.176 275.98666 374.29867 275.35734 374.544 274.76 C 374.78933 274.16266 375.13066 273.65067 375.568 273.224 C 376.00534 272.79733 376.52266 272.456 377.12 272.2 C 377.71734 271.944 378.35733 271.816 379.04 271.816 C 379.70134 271.816 380.33066 271.944 380.928 272.2 C 381.52534 272.456 382.03733 272.79733 382.464 273.224 C 382.89067 273.65067 383.232 274.16266 383.488 274.76 C 383.744 275.35734 383.872 275.98666 383.872 276.648 C 383.872 277.33067 383.744 277.96533 383.488 278.552 C 383.232 279.13867 382.89067 279.64533 382.464 280.072 C 382.03733 280.49867 381.52534 280.83467 380.928 281.08 C 380.33066 281.32533 379.70134 281.448 379.04 281.448 C 378.35733 281.448 377.71734 281.32533 377.12 281.08 C 376.52266 280.83467 376.00534 280.49867 375.568 280.072 C 375.13066 279.64533 374.78933 279.13867 374.544 278.552 C 374.29867 277.96533 374.176 277.33067 374.176 276.648 Z M 374.176 253.832 C 374.176 253.17066 374.29867 252.54134 374.544 251.944 C 374.78933 251.34666 375.13066 250.83467 375.568 250.408 C 376.00534 249.98133 376.52266 249.64 377.12 249.384 C 377.71734 249.128 378.35733 249 379.04 249 C 379.70134 249 380.33066 249.128 380.928 249.384 C 381.52534 249.64 382.03733 249.98133 382.464 250.408 C 382.89067 250.83467 383.232 251.34666 383.488 251.944 C 383.744 252.54134 383.872 253.17066 383.872 253.832 C 383.872 254.51467 383.744 255.14933 383.488 255.736 C 383.232 256.32267 382.89067 256.82933 382.464 257.256 C 382.03733 257.68267 381.52534 258.01867 380.928 258.264 C 380.33066 258.50933 379.70134 258.632 379.04 258.632 C 378.35733 258.632 377.71734 258.50933 377.12 258.264 C 376.52266 258.01867 376.00534 257.68267 375.568 257.256 C 375.13066 256.82933 374.78933 256.32267 374.544 255.736 C 374.29867 255.14933 374.176 254.51467 374.176 253.832 Z" fill="#424242"/>
        </g>
        <g id="Graphic_468">
          <path d="M 53.568 339.92 L 53.568 358 L 44.96 358 L 44.96 311.728 L 59.072 311.728 C 62.22935 311.728 64.93332 312.05333 67.184 312.704 C 69.43468 313.35467 71.27999 314.26666 72.72 315.44 C 74.16001 316.61334 75.216 318.016 75.888 319.648 C 76.56 321.28 76.896 323.07732 76.896 325.04 C 76.896 326.59734 76.66667 328.06933 76.208 329.456 C 75.74933 330.84267 75.088 332.10133 74.224 333.232 C 73.36 334.36267 72.29334 335.35466 71.024 336.208 C 69.75466 337.06134 68.30934 337.744 66.688 338.256 C 67.776005 338.87467 68.71466 339.76 69.504 340.912 L 81.088 358 L 73.344 358 C 72.59733 358 71.96267 357.85067 71.44 357.552 C 70.91733 357.25333 70.47467 356.82667 70.112 356.272 L 60.384 341.456 C 60.02133 340.90133 59.621336 340.50667 59.184 340.272 C 58.746664 340.03733 58.10134 339.92 57.248 339.92 Z M 53.568 333.744 L 58.944 333.744 C 60.56534 333.744 61.97866 333.54134 63.184 333.136 C 64.38934 332.73066 65.38133 332.17067 66.16 331.456 C 66.93867 330.74133 67.52 329.89334 67.904 328.912 C 68.288 327.93066 68.48 326.85334 68.48 325.68 C 68.48 323.33332 67.706674 321.53067 66.16 320.272 C 64.613326 319.01333 62.25068 318.384 59.072 318.384 L 53.568 318.384 Z" fill="#424242"/>
        </g>
        <g id="Graphic_469">
          <path d="M 93.376 325.168 L 93.376 346.032 C 93.376 348.03734 93.84 349.58933 94.768 350.688 C 95.696 351.78667 97.08799 352.336 98.944 352.336 C 100.30934 352.336 101.58933 352.032 102.784 351.424 C 103.97867 350.816 105.10933 349.97867 106.176 348.912 L 106.176 325.168 L 114.08 325.168 L 114.08 358 L 109.248 358 C 108.224 358 107.552 357.52 107.232 356.56 L 106.688 353.936 C 106.00533 354.61867 105.30134 355.24266 104.576 355.808 C 103.85066 356.37334 103.07734 356.85333 102.256 357.248 C 101.43466 357.64267 100.54934 357.952 99.6 358.176 C 98.65066 358.4 97.632 358.512 96.544 358.512 C 94.75199 358.512 93.16801 358.208 91.792 357.6 C 90.41599 356.992 89.25867 356.13334 88.32 355.024 C 87.38133 353.91466 86.672 352.59734 86.192 351.072 C 85.712 349.54666 85.472 347.86668 85.472 346.032 L 85.472 325.168 Z" fill="#424242"/>
        </g>
        <g id="Graphic_470">
          <rect x="123.04" y="310.448" width="7.904" height="47.552" fill="#424242"/>
        </g>
        <g id="Graphic_471">
          <path d="M 153.44 324.656 C 155.50934 324.656 157.41332 324.98666 159.152 325.648 C 160.89068 326.30934 162.38933 327.27466 163.648 328.544 C 164.90667 329.81334 165.888 331.37066 166.592 333.216 C 167.296 335.06134 167.648 337.168 167.648 339.536 C 167.648 340.13334 167.62133 340.62933 167.568 341.024 C 167.51467 341.41867 167.41867 341.728 167.28 341.952 C 167.14133 342.176 166.95467 342.336 166.72 342.432 C 166.48533 342.528 166.18667 342.576 165.824 342.576 L 145.536 342.576 C 145.77067 345.9467 146.67733 348.42133 148.256 350 C 149.83467 351.57867 151.92532 352.368 154.528 352.368 C 155.808 352.368 156.912 352.21867 157.84 351.92 C 158.768 351.62133 159.57866 351.29067 160.272 350.928 C 160.96534 350.56533 161.57333 350.23467 162.096 349.936 C 162.61867 349.63733 163.12533 349.488 163.616 349.488 C 163.936 349.488 164.21333 349.552 164.448 349.68 C 164.68267 349.808 164.88533 349.98933 165.056 350.224 L 167.36 353.104 C 166.48533 354.128 165.504 354.98666 164.416 355.68 C 163.328 356.37334 162.192 356.928 161.008 357.344 C 159.824 357.76 158.61867 358.05333 157.392 358.224 C 156.16533 358.39467 154.976 358.48 153.824 358.48 C 151.54132 358.48 149.41868 358.10134 147.456 357.344 C 145.49332 356.58666 143.78667 355.46667 142.336 353.984 C 140.88533 352.50133 139.744 350.66668 138.912 348.48 C 138.08 346.29332 137.664 343.76 137.664 340.88 C 137.664 338.64 138.02666 336.53334 138.752 334.56 C 139.47734 332.58666 140.51733 330.86934 141.872 329.408 C 143.22667 327.94666 144.87999 326.78934 146.832 325.936 C 148.78401 325.08266 150.98665 324.656 153.44 324.656 Z M 153.6 330.32 C 151.29599 330.32 149.49334 330.97066 148.192 332.272 C 146.89066 333.57334 146.05867 335.41865 145.696 337.808 L 160.544 337.808 C 160.544 336.784 160.40533 335.81867 160.128 334.912 C 159.85067 334.00533 159.424 333.21067 158.848 332.528 C 158.272 331.84533 157.54667 331.30667 156.672 330.912 C 155.79733 330.51733 154.77334 330.32 153.6 330.32 Z" fill="#424242"/>
        </g>
        <g id="Graphic_472">
          <path d="M 193.568 331.568 C 193.35467 331.90934 193.13067 332.14933 192.896 332.288 C 192.66133 332.42667 192.36267 332.496 192 332.496 C 191.616 332.496 191.20534 332.38933 190.768 332.176 C 190.33066 331.96267 189.824 331.72267 189.248 331.456 C 188.672 331.18933 188.016 330.94933 187.28 330.736 C 186.544 330.52267 185.67467 330.416 184.672 330.416 C 183.11466 330.416 181.888 330.74666 180.992 331.408 C 180.096 332.06934 179.648 332.93333 179.648 334 C 179.648 334.704 179.87733 335.296 180.336 335.776 C 180.79467 336.256 181.40266 336.67733 182.16 337.04 C 182.91734 337.40267 183.776 337.728 184.736 338.016 C 185.696 338.304 186.67733 338.61866 187.68 338.96 C 188.68267 339.30134 189.664 339.69066 190.624 340.128 C 191.584 340.56534 192.44266 341.12 193.2 341.792 C 193.95734 342.464 194.56533 343.26933 195.024 344.208 C 195.48267 345.14667 195.712 346.27733 195.712 347.6 C 195.712 349.17867 195.424 350.63466 194.848 351.968 C 194.272 353.30134 193.42934 354.45333 192.32 355.424 C 191.21066 356.39467 189.84 357.152 188.208 357.696 C 186.576 358.24 184.704 358.512 182.592 358.512 C 181.46133 358.512 180.35734 358.41067 179.28 358.208 C 178.20266 358.00533 177.168 357.72267 176.176 357.36 C 175.184 356.99733 174.26667 356.57067 173.424 356.08 C 172.58133 355.58933 171.84 355.056 171.2 354.48 L 173.024 351.472 C 173.25867 351.10933 173.536 350.832 173.856 350.64 C 174.176 350.448 174.58133 350.352 175.072 350.352 C 175.56267 350.352 176.02666 350.49067 176.464 350.768 C 176.90134 351.04533 177.408 351.344 177.984 351.664 C 178.56 351.984 179.23733 352.28267 180.016 352.56 C 180.79467 352.83733 181.78133 352.976 182.976 352.976 C 183.91467 352.976 184.72 352.864 185.392 352.64 C 186.064 352.416 186.61866 352.12267 187.056 351.76 C 187.49334 351.39733 187.81333 350.976 188.016 350.496 C 188.21867 350.016 188.32 349.52 188.32 349.008 C 188.32 348.24 188.09067 347.61067 187.632 347.12 C 187.17333 346.62933 186.56534 346.20267 185.808 345.84 C 185.05066 345.47733 184.18667 345.152 183.216 344.864 C 182.24533 344.576 181.25334 344.26134 180.24 343.92 C 179.22666 343.57866 178.23467 343.17867 177.264 342.72 C 176.29333 342.26133 175.42934 341.68 174.672 340.976 C 173.91466 340.272 173.30667 339.408 172.848 338.384 C 172.38933 337.36 172.16 336.12267 172.16 334.672 C 172.16 333.328 172.42666 332.048 172.96 330.832 C 173.49334 329.616 174.27733 328.55467 175.312 327.648 C 176.34667 326.74133 177.63733 326.016 179.184 325.472 C 180.73067 324.928 182.51732 324.656 184.544 324.656 C 186.80534 324.656 188.864 325.02933 190.72 325.776 C 192.576 326.52267 194.12266 327.504 195.36 328.72 Z" fill="#424242"/>
        </g>
        <g id="Graphic_473">
          <path d="M 231.392 311.216 C 233.26934 311.216 234.94933 311.504 236.432 312.08 C 237.91467 312.656 239.184 313.424 240.24 314.384 C 241.296 315.344 242.128 316.44266 242.736 317.68 C 243.344 318.91734 243.70133 320.19733 243.808 321.52 L 238.784 322.576 C 238.72 322.59733 238.65067 322.608 238.576 322.608 C 238.50133 322.608 238.432 322.608 238.368 322.608 C 238.00533 322.608 237.68 322.50667 237.392 322.304 C 237.104 322.10133 236.87467 321.78667 236.704 321.36 C 236.512 320.80533 236.26667 320.27734 235.968 319.776 C 235.66933 319.27466 235.30667 318.83734 234.88 318.464 C 234.45333 318.09066 233.952 317.792 233.376 317.568 C 232.8 317.344 232.13867 317.232 231.392 317.232 C 230.496 317.232 229.696 317.38667 228.992 317.696 C 228.288 318.00533 227.69067 318.42133 227.2 318.944 C 226.70933 319.46667 226.336 320.07466 226.08 320.768 C 225.824 321.46134 225.696 322.192 225.696 322.96 C 225.696 323.6 225.76533 324.21866 225.904 324.816 C 226.04267 325.41334 226.26133 326.01066 226.56 326.608 C 226.85867 327.20534 227.248 327.81866 227.728 328.448 C 228.208 329.07734 228.8 329.75466 229.504 330.48 L 241.792 343.248 C 242.496 341.904 243.06133 340.48534 243.488 338.992 C 243.91467 337.49866 244.192 335.984 244.32 334.448 C 244.36267 333.95733 244.52267 333.56267 244.8 333.264 C 245.07733 332.96533 245.46133 332.816 245.952 332.816 L 250.912 332.816 C 250.89067 335.632 250.48534 338.32 249.696 340.88 C 248.90666 343.44 247.776 345.79732 246.304 347.952 L 256 358 L 248.256 358 C 247.85066 358 247.49333 357.97867 247.184 357.936 C 246.87467 357.89333 246.58133 357.81333 246.304 357.696 C 246.02667 357.57867 245.76 357.424 245.504 357.232 C 245.248 357.04 244.98133 356.79467 244.704 356.496 L 241.504 353.2 C 239.456 354.864 237.17868 356.16533 234.672 357.104 C 232.16532 358.04267 229.45068 358.512 226.528 358.512 C 224.736 358.512 222.98668 358.208 221.28 357.6 C 219.57332 356.992 218.048 356.112 216.704 354.96 C 215.36 353.808 214.27734 352.416 213.456 350.784 C 212.63466 349.152 212.224 347.312 212.224 345.264 C 212.224 343.83466 212.45866 342.47467 212.928 341.184 C 213.39734 339.89333 214.048 338.69334 214.88 337.584 C 215.712 336.47466 216.69866 335.472 217.84 334.576 C 218.98134 333.68 220.23466 332.912 221.6 332.272 C 220.46933 330.672 219.64267 329.10934 219.12 327.584 C 218.59733 326.05866 218.336 324.53867 218.336 323.024 C 218.336 321.424 218.62933 319.904 219.216 318.464 C 219.80267 317.024 220.656 315.77067 221.776 314.704 C 222.896 313.63733 224.26666 312.78934 225.888 312.16 C 227.50934 311.53066 229.344 311.216 231.392 311.216 Z M 220.256 344.624 C 220.256 345.79734 220.45866 346.85333 220.864 347.792 C 221.26934 348.73067 221.824 349.52533 222.528 350.176 C 223.232 350.82667 224.048 351.328 224.976 351.68 C 225.904 352.032 226.89066 352.208 227.936 352.208 C 229.81334 352.208 231.52533 351.91467 233.072 351.328 C 234.61867 350.74133 236.032 349.92534 237.312 348.88 L 225.152 336.4 C 223.44532 337.50934 222.20267 338.75733 221.424 340.144 C 220.64533 341.53067 220.256 343.024 220.256 344.624 Z" fill="#424242"/>
        </g>
        <g id="Graphic_474">
          <path d="M 73.856 388.728 L 73.856 395.576 L 53.344 395.576 L 53.344 409.272 L 70.656 409.272 L 70.656 416.152 L 53.344 416.152 L 53.344 435 L 44.672 435 L 44.672 388.728 Z" fill="#424242"/>
        </g>
        <g id="Graphic_475">
          <path d="M 92.128 401.656 C 94.58135 401.656 96.80532 402.05066 98.8 402.84 C 100.79468 403.62934 102.49599 404.74933 103.904 406.2 C 105.31201 407.65067 106.4 409.4213 107.168 411.512 C 107.936 413.6027 108.32 415.93865 108.32 418.52 C 108.32 421.1227 107.936 423.4693 107.168 425.56 C 106.4 427.6507 105.31201 429.432 103.904 430.904 C 102.49599 432.376 100.79468 433.50666 98.8 434.296 C 96.80532 435.08534 94.58135 435.48 92.128 435.48 C 89.67465 435.48 87.44534 435.08534 85.44 434.296 C 83.43466 433.50666 81.72267 432.376 80.304 430.904 C 78.88533 429.432 77.78667 427.6507 77.008 425.56 C 76.22933 423.4693 75.84 421.1227 75.84 418.52 C 75.84 415.93865 76.22933 413.6027 77.008 411.512 C 77.78667 409.4213 78.88533 407.65067 80.304 406.2 C 81.72267 404.74933 83.43466 403.62934 85.44 402.84 C 87.44534 402.05066 89.67465 401.656 92.128 401.656 Z M 92.128 429.4 C 94.85868 429.4 96.87999 428.4827 98.192 426.648 C 99.50401 424.8133 100.16 422.12535 100.16 418.584 C 100.16 415.04265 99.50401 412.344 98.192 410.488 C 96.87999 408.632 94.85868 407.704 92.128 407.704 C 89.35465 407.704 87.30667 408.6373 85.984 410.504 C 84.66133 412.3707 84 415.064 84 418.584 C 84 422.104 84.66133 424.78666 85.984 426.632 C 87.30667 428.47734 89.35465 429.4 92.128 429.4 Z" fill="#424242"/>
        </g>
        <g id="Graphic_476">
          <path d="M 114.496 435 L 114.496 402.168 L 119.136 402.168 C 119.94667 402.168 120.512 402.31733 120.832 402.616 C 121.152 402.91467 121.36533 403.42666 121.472 404.152 L 121.952 408.12 C 123.12534 406.0933 124.50133 404.49334 126.08 403.32 C 127.65867 402.14666 129.42932 401.56 131.392 401.56 C 133.01334 401.56 134.35733 401.93333 135.424 402.68 L 134.4 408.6 C 134.336 408.984 134.19733 409.256 133.984 409.416 C 133.77067 409.576 133.48267 409.656 133.12 409.656 C 132.8 409.656 132.36267 409.58133 131.808 409.432 C 131.25333 409.28267 130.51734 409.208 129.6 409.208 C 127.95733 409.208 126.54934 409.66133 125.376 410.568 C 124.20266 411.47467 123.21067 412.80266 122.4 414.552 L 122.4 435 Z" fill="#424242"/>
        </g>
        <g id="Graphic_477">
          <path d="M 140.64 435 L 140.64 402.168 L 145.472 402.168 C 146.496 402.168 147.168 402.648 147.488 403.608 L 148 406.04 C 148.576 405.4 149.17866 404.81334 149.808 404.28 C 150.43734 403.74666 151.10933 403.288 151.824 402.904 C 152.53867 402.52 153.30666 402.216 154.128 401.992 C 154.94934 401.768 155.85066 401.656 156.832 401.656 C 158.90134 401.656 160.60266 402.216 161.936 403.336 C 163.26934 404.456 164.26666 405.944 164.928 407.8 C 165.44 406.712 166.08 405.77867 166.848 405 C 167.616 404.22133 168.45866 403.58667 169.376 403.096 C 170.29334 402.60533 171.26933 402.24267 172.304 402.008 C 173.33867 401.77333 174.37866 401.656 175.424 401.656 C 177.23734 401.656 178.848 401.93333 180.256 402.488 C 181.664 403.04267 182.848 403.85333 183.808 404.92 C 184.768 405.98667 185.49866 407.288 186 408.824 C 186.50134 410.36 186.752 412.12 186.752 414.104 L 186.752 435 L 178.848 435 L 178.848 414.104 C 178.848 412.0133 178.38934 410.44 177.472 409.384 C 176.55466 408.328 175.21068 407.8 173.44 407.8 C 172.62933 407.8 171.87734 407.93867 171.184 408.216 C 170.49066 408.49333 169.88267 408.89333 169.36 409.416 C 168.83733 409.93867 168.42667 410.59466 168.128 411.384 C 167.82933 412.17334 167.68 413.08 167.68 414.104 L 167.68 435 L 159.744 435 L 159.744 414.104 C 159.744 411.90666 159.30134 410.30667 158.416 409.304 C 157.53066 408.30133 156.224 407.8 154.496 407.8 C 153.36533 407.8 152.304 408.08266 151.312 408.648 C 150.32 409.21334 149.39734 409.98666 148.544 410.968 L 148.544 435 Z" fill="#424242"/>
        </g>
        <g id="Graphic_478">
          <path d="M 201.76 402.168 L 201.76 423.032 C 201.76 425.03734 202.224 426.58933 203.152 427.688 C 204.08 428.78667 205.472 429.336 207.328 429.336 C 208.69334 429.336 209.97333 429.032 211.168 428.424 C 212.36267 427.816 213.49333 426.97867 214.56 425.912 L 214.56 402.168 L 222.464 402.168 L 222.464 435 L 217.632 435 C 216.608 435 215.936 434.52 215.616 433.56 L 215.072 430.936 C 214.38933 431.61867 213.68534 432.24266 212.96 432.808 C 212.23466 433.37334 211.46134 433.85333 210.64 434.248 C 209.81866 434.64267 208.93334 434.952 207.984 435.176 C 207.03466 435.4 206.016 435.512 204.928 435.512 C 203.136 435.512 201.552 435.208 200.176 434.6 C 198.8 433.992 197.64267 433.13334 196.704 432.024 C 195.76533 430.91466 195.056 429.59734 194.576 428.072 C 194.096 426.54666 193.856 424.8667 193.856 423.032 L 193.856 402.168 Z" fill="#424242"/>
        </g>
        <g id="Graphic_479">
          <rect x="231.424" y="387.448" width="7.904" height="47.552" fill="#424242"/>
        </g>
        <g id="Graphic_480">
          <path d="M 273.984 435 L 270.432 435 C 269.68533 435 269.09867 434.888 268.672 434.664 C 268.24533 434.44 267.92533 433.98667 267.712 433.304 L 267.008 430.968 C 266.176 431.71467 265.36 432.37066 264.56 432.936 C 263.76 433.50134 262.93334 433.976 262.08 434.36 C 261.22666 434.744 260.32 435.032 259.36 435.224 C 258.4 435.416 257.33334 435.512 256.16 435.512 C 254.77333 435.512 253.49334 435.32534 252.32 434.952 C 251.14666 434.57866 250.13867 434.01867 249.296 433.272 C 248.45333 432.52533 247.79734 431.59734 247.328 430.488 C 246.85866 429.37866 246.624 428.088 246.624 426.616 C 246.624 425.37866 246.94933 424.15734 247.6 422.952 C 248.25067 421.74666 249.33333 420.65867 250.848 419.688 C 252.36267 418.71733 254.37865 417.912 256.896 417.272 C 259.41335 416.632 262.53865 416.26933 266.272 416.184 L 266.272 414.264 C 266.272 412.06666 265.808 410.44 264.88 409.384 C 263.952 408.328 262.60268 407.8 260.832 407.8 C 259.552 407.8 258.48534 407.94933 257.632 408.248 C 256.77866 408.54667 256.03734 408.88266 255.408 409.256 C 254.77866 409.62934 254.19734 409.96533 253.664 410.264 C 253.13066 410.56267 252.544 410.712 251.904 410.712 C 251.37066 410.712 250.912 410.57333 250.528 410.296 C 250.144 410.01867 249.83467 409.67734 249.6 409.272 L 248.16 406.744 C 251.93602 403.288 256.49064 401.56 261.824 401.56 C 263.744 401.56 265.456 401.87466 266.96 402.504 C 268.464 403.13334 269.73866 404.008 270.784 405.128 C 271.82934 406.248 272.624 407.58666 273.168 409.144 C 273.712 410.70134 273.984 412.408 273.984 414.264 Z M 258.624 430.072 C 259.43467 430.072 260.18133 429.99733 260.864 429.848 C 261.54667 429.69867 262.192 429.47467 262.8 429.176 C 263.408 428.87733 263.99466 428.50934 264.56 428.072 C 265.12534 427.63466 265.696 427.11734 266.272 426.52 L 266.272 420.984 C 263.968 421.09067 262.04267 421.288 260.496 421.576 C 258.94933 421.864 257.70667 422.232 256.768 422.68 C 255.82933 423.128 255.16267 423.65066 254.768 424.248 C 254.37333 424.84534 254.176 425.496 254.176 426.2 C 254.176 427.58667 254.58666 428.57866 255.408 429.176 C 256.22934 429.77334 257.30133 430.072 258.624 430.072 Z" fill="#424242"/>
        </g>
        <g id="Graphic_481">
          <path d="M 301.248 408.568 C 301.03467 408.90934 300.81067 409.14933 300.576 409.288 C 300.34133 409.42667 300.04267 409.496 299.68 409.496 C 299.296 409.496 298.88534 409.38933 298.448 409.176 C 298.01066 408.96267 297.504 408.72267 296.928 408.456 C 296.352 408.18933 295.696 407.94933 294.96 407.736 C 294.224 407.52267 293.35467 407.416 292.352 407.416 C 290.79466 407.416 289.568 407.74666 288.672 408.408 C 287.776 409.06934 287.328 409.93333 287.328 411 C 287.328 411.704 287.55733 412.296 288.016 412.776 C 288.47467 413.256 289.08266 413.67733 289.84 414.04 C 290.59734 414.40267 291.456 414.728 292.416 415.016 C 293.376 415.304 294.35733 415.61866 295.36 415.96 C 296.36267 416.30134 297.344 416.69066 298.304 417.128 C 299.264 417.56534 300.12266 418.12 300.88 418.792 C 301.63734 419.464 302.24533 420.26933 302.704 421.208 C 303.16267 422.14667 303.392 423.27733 303.392 424.6 C 303.392 426.17867 303.104 427.63466 302.528 428.968 C 301.952 430.30134 301.10934 431.45333 300 432.424 C 298.89066 433.39467 297.52 434.152 295.888 434.696 C 294.256 435.24 292.384 435.512 290.272 435.512 C 289.14133 435.512 288.03734 435.41067 286.96 435.208 C 285.88266 435.00533 284.848 434.72267 283.856 434.36 C 282.864 433.99733 281.94667 433.57067 281.104 433.08 C 280.26133 432.58933 279.52 432.056 278.88 431.48 L 280.704 428.472 C 280.93867 428.10933 281.216 427.832 281.536 427.64 C 281.856 427.448 282.26133 427.352 282.752 427.352 C 283.24267 427.352 283.70666 427.49067 284.144 427.768 C 284.58134 428.04533 285.088 428.344 285.664 428.664 C 286.24 428.984 286.91733 429.28267 287.696 429.56 C 288.47467 429.83733 289.46133 429.976 290.656 429.976 C 291.59467 429.976 292.4 429.864 293.072 429.64 C 293.744 429.416 294.29866 429.12267 294.736 428.76 C 295.17334 428.39733 295.49333 427.976 295.696 427.496 C 295.89867 427.016 296 426.52 296 426.008 C 296 425.24 295.77067 424.61067 295.312 424.12 C 294.85333 423.62933 294.24534 423.20267 293.488 422.84 C 292.73066 422.47733 291.86667 422.152 290.896 421.864 C 289.92533 421.576 288.93334 421.26134 287.92 420.92 C 286.90666 420.57866 285.91467 420.17867 284.944 419.72 C 283.97333 419.26133 283.10934 418.68 282.352 417.976 C 281.59466 417.272 280.98667 416.408 280.528 415.384 C 280.06933 414.36 279.84 413.12267 279.84 411.672 C 279.84 410.328 280.10666 409.048 280.64 407.832 C 281.17334 406.616 281.95733 405.55467 282.992 404.648 C 284.02667 403.74133 285.31733 403.016 286.864 402.472 C 288.41067 401.928 290.19732 401.656 292.224 401.656 C 294.48534 401.656 296.544 402.02933 298.4 402.776 C 300.256 403.52267 301.80266 404.504 303.04 405.72 Z" fill="#424242"/>
        </g>
      </g>
    </g>
  </g>
</svg>
