<?xml version="1.0" encoding="UTF-8" standalone="no"?>
<!DOCTYPE svg PUBLIC "-//W3C//DTD SVG 1.1//EN" "http://www.w3.org/Graphics/SVG/1.1/DTD/svg11.dtd">
<svg xmlns:xl="http://www.w3.org/1999/xlink" xmlns="http://www.w3.org/2000/svg" xmlns:dc="http://purl.org/dc/elements/1.1/" version="1.1" viewBox="0 0 480 600" width="480" height="600">
  <defs/>
  <metadata> Produced by OmniGraffle 7.18.5\n2021-05-31 10:09:46 +0000</metadata>
  <g id="Canvas_1" fill="none" fill-opacity="1" stroke-dasharray="none" stroke-opacity="1" stroke="none">
    <title>Canvas 1</title>
    <g id="Canvas_1_book-base4">
      <title>book-base4</title>
      <g id="Graphic_453">
        <path d="M 12 0 L 468 0 C 474.6274 40581225e-23 480 5.372583 480 12 L 480 588 C 480 594.6274 474.6274 600 468 600 L 12 600 C 5.372583 600 8116245e-22 594.6274 0 588 L 35527137e-21 12 C 3633876e-20 5.372583 5.372583 -40581225e-23 12 0 Z" fill="white"/>
      </g>
    </g>
    <g id="Canvas_1_1a-GEO-nofont">
      <title>1a-GEO-nofont</title>
      <g id="Graphic_248">
        <rect x="0" y="188" width="480" height="10" fill="#71cdf6"/>
      </g>
      <g id="Group_257">
        <title>GEOMETRY</title>
        <g id="Graphic_249">
          <path d="M 58.538 549.388 C 59.61134 549.388 60.561996 549.296 61.39 549.112 C 62.218004 548.928 63 548.6827 63.736 548.376 L 63.736 543.293 L 60.424 543.293 C 59.93333 543.293 59.55 543.1627 59.274 542.902 C 58.998 542.6413 58.86 542.3117 58.86 541.913 L 58.86 537.635 L 70.774 537.635 L 70.774 551.78 C 69.91533 552.4087 69.02217 552.94916 68.0945 553.4015 C 67.16683 553.85384 66.17784 554.22567 65.1275 554.517 C 64.07716 554.80833 62.95784 555.023 61.7695 555.161 C 60.58116 555.299 59.30467 555.368 57.94 555.368 C 55.486654 555.368 53.217344 554.93484 51.132 554.0685 C 49.046656 553.20216 47.241174 552.0062 45.7155 550.4805 C 44.189826 548.9548 42.99384 547.1455 42.1275 545.0525 C 41.26116 542.9595 40.828 540.68635 40.828 538.233 C 40.828 535.73365 41.241996 533.4375 42.07 531.3445 C 42.898004 529.2515 44.08249 527.446 45.6235 525.928 C 47.16451 524.41 49.02749 523.22934 51.2125 522.386 C 53.39751 521.54266 55.83932 521.121 58.538 521.121 C 59.93334 521.121 61.24433 521.236 62.471 521.466 C 63.69767 521.696 64.828495 522.01033 65.8635 522.409 C 66.898505 522.80767 67.84533 523.283 68.704 523.835 C 69.56267 524.387 70.32933 524.985 71.004 525.629 L 68.75 529.056 C 68.53533 529.378 68.2785 529.631 67.9795 529.815 C 67.6805 529.999 67.35467 530.091 67.002 530.091 C 66.542 530.091 66.06667 529.93767 65.576 529.631 C 64.96266 529.263 64.383836 528.94483 63.8395 528.6765 C 63.295164 528.40817 62.739336 528.18967 62.172 528.021 C 61.604664 527.85233 61.00667 527.72967 60.378 527.653 C 59.74933 527.57633 59.044004 527.538 58.262 527.538 C 56.805326 527.538 55.49434 527.7948 54.329 528.3085 C 53.16366 528.8222 52.17084 529.54666 51.3505 530.482 C 50.53016 531.41734 49.89767 532.5405 49.453 533.8515 C 49.00833 535.1625 48.786 536.623 48.786 538.233 C 48.786 540.0117 49.03133 541.591 49.522 542.971 C 50.01267 544.351 50.69116 545.5163 51.5575 546.467 C 52.42384 547.4177 53.45116 548.14216 54.6395 548.6405 C 55.82784 549.13884 57.127326 549.388 58.538 549.388 Z" fill="#71cdf6"/>
        </g>
        <g id="Graphic_250">
          <path d="M 100.086 521.489 L 100.086 527.469 L 86.332 527.469 L 86.332 535.289 L 96.866 535.289 L 96.866 541.039 L 86.332 541.039 L 86.332 549.02 L 100.086 549.02 L 100.086 555 L 78.512 555 L 78.512 521.489 Z" fill="#71cdf6"/>
        </g>
        <g id="Graphic_251">
          <path d="M 140.576 538.233 C 140.576 540.6557 140.15817 542.90966 139.3225 544.995 C 138.48683 547.08034 137.31 548.8935 135.792 550.4345 C 134.274 551.9755 132.44551 553.183 130.3065 554.057 C 128.16749 554.931 125.79468 555.368 123.188 555.368 C 120.58132 555.368 118.20468 554.931 116.058 554.057 C 113.91132 553.183 112.07517 551.9755 110.5495 550.4345 C 109.02383 548.8935 107.84317 547.08034 107.0075 544.995 C 106.17183 542.90966 105.754 540.6557 105.754 538.233 C 105.754 535.8103 106.17183 533.55634 107.0075 531.471 C 107.84317 529.38566 109.02383 527.57634 110.5495 526.043 C 112.07517 524.50966 113.91132 523.306 116.058 522.432 C 118.20468 521.558 120.58132 521.121 123.188 521.121 C 125.79468 521.121 128.16749 521.5618 130.3065 522.4435 C 132.44551 523.3252 134.274 524.53266 135.792 526.066 C 137.31 527.59934 138.48683 529.40866 139.3225 531.494 C 140.15817 533.57934 140.576 535.82565 140.576 538.233 Z M 132.618 538.233 C 132.618 536.577 132.40334 535.08584 131.974 533.7595 C 131.54466 532.43316 130.9275 531.31 130.1225 530.39 C 129.3175 529.47 128.33234 528.7647 127.167 528.274 C 126.00166 527.7833 124.67534 527.538 123.188 527.538 C 121.68533 527.538 120.3475 527.7833 119.1745 528.274 C 118.0015 528.7647 117.0125 529.47 116.2075 530.39 C 115.4025 531.31 114.78534 532.43316 114.356 533.7595 C 113.92666 535.08584 113.712 536.577 113.712 538.233 C 113.712 539.90434 113.92666 541.40316 114.356 542.7295 C 114.78534 544.05584 115.4025 545.179 116.2075 546.099 C 117.0125 547.019 118.0015 547.7205 119.1745 548.2035 C 120.3475 548.6865 121.68533 548.928 123.188 548.928 C 124.67534 548.928 126.00166 548.6865 127.167 548.2035 C 128.33234 547.7205 129.3175 547.019 130.1225 546.099 C 130.9275 545.179 131.54466 544.05584 131.974 542.7295 C 132.40334 541.40316 132.618 539.90434 132.618 538.233 Z" fill="#71cdf6"/>
        </g>
        <g id="Graphic_252">
          <path d="M 164.437 539.682 C 164.74367 540.2647 165.03883 540.8703 165.3225 541.499 C 165.60617 542.1277 165.87833 542.77166 166.139 543.431 C 166.39967 542.7563 166.67567 542.10084 166.967 541.4645 C 167.25833 540.82816 167.55733 540.211 167.864 539.613 L 176.466 522.685 C 176.61933 522.39367 176.7765 522.1675 176.9375 522.0065 C 177.0985 521.8455 177.27867 521.72667 177.478 521.65 C 177.67733 521.57333 177.9035 521.52733 178.1565 521.512 C 178.4095 521.49667 178.70466 521.489 179.042 521.489 L 184.976 521.489 L 184.976 555 L 178.122 555 L 178.122 535.726 C 178.122 534.79066 178.168 533.7787 178.26 532.69 L 169.382 549.917 C 169.106 550.4537 168.73417 550.86 168.2665 551.136 C 167.79883 551.412 167.266 551.55 166.668 551.55 L 165.61 551.55 C 165.012 551.55 164.47917 551.412 164.0115 551.136 C 163.54383 550.86 163.172 550.4537 162.896 549.917 L 153.972 532.667 C 154.03333 533.2037 154.07933 533.7365 154.11 534.2655 C 154.14067 534.7945 154.156 535.2813 154.156 535.726 L 154.156 555 L 147.302 555 L 147.302 521.489 L 153.236 521.489 C 153.57334 521.489 153.8685 521.49667 154.1215 521.512 C 154.3745 521.52733 154.60067 521.57333 154.8 521.65 C 154.99933 521.72667 155.1795 521.8455 155.3405 522.0065 C 155.5015 522.1675 155.65867 522.39367 155.812 522.685 Z" fill="#71cdf6"/>
        </g>
        <g id="Graphic_253">
          <path d="M 215.07 521.489 L 215.07 527.469 L 201.316 527.469 L 201.316 535.289 L 211.85 535.289 L 211.85 541.039 L 201.316 541.039 L 201.316 549.02 L 215.07 549.02 L 215.07 555 L 193.496 555 L 193.496 521.489 Z" fill="#71cdf6"/>
        </g>
        <g id="Graphic_254">
          <path d="M 246.82 521.489 L 246.82 527.653 L 237.39 527.653 L 237.39 555 L 229.616 555 L 229.616 527.653 L 220.186 527.653 L 220.186 521.489 Z" fill="#71cdf6"/>
        </g>
        <g id="Graphic_255">
          <path d="M 260.814 542.603 L 260.814 555 L 253.04 555 L 253.04 521.489 L 263.942 521.489 C 266.36468 521.489 268.43082 521.73816 270.1405 522.2365 C 271.85018 522.73484 273.2455 523.42866 274.3265 524.318 C 275.4075 525.20734 276.19333 526.25766 276.684 527.469 C 277.17467 528.68034 277.42 529.999 277.42 531.425 C 277.42 532.5137 277.27433 533.541 276.983 534.507 C 276.69167 535.473 276.2585 536.36616 275.6835 537.1865 C 275.1085 538.00684 274.40317 538.739 273.5675 539.383 C 272.73183 540.027 271.76967 540.556 270.681 540.97 C 271.20234 541.2307 271.68916 541.55266 272.1415 541.936 C 272.59384 542.31934 272.98866 542.787 273.326 543.339 L 280.456 555 L 273.418 555 C 272.11466 555 271.17934 554.50934 270.612 553.528 L 265.046 543.799 C 264.80067 543.36966 264.51317 543.063 264.1835 542.879 C 263.85383 542.695 263.39 542.603 262.792 542.603 Z M 260.814 537.244 L 263.942 537.244 C 265 537.244 265.90083 537.10983 266.6445 536.8415 C 267.38817 536.57317 267.99766 536.20134 268.473 535.726 C 268.94834 535.25066 269.29333 534.69484 269.508 534.0585 C 269.72267 533.42216 269.83 532.736 269.83 532 C 269.83 530.528 269.35084 529.378 268.3925 528.55 C 267.43416 527.722 265.95068 527.308 263.942 527.308 L 260.814 527.308 Z" fill="#71cdf6"/>
        </g>
        <g id="Graphic_256">
          <path d="M 303.328 542.258 L 303.328 555 L 295.554 555 L 295.554 542.258 L 283.41 521.489 L 290.264 521.489 C 290.93867 521.489 291.47533 521.64617 291.874 521.9605 C 292.27267 522.27483 292.59467 522.6773 292.84 523.168 L 297.578 532.92 C 297.96134 533.702 298.314 534.42266 298.636 535.082 C 298.958 535.74134 299.24167 536.393 299.487 537.037 C 299.717 536.37766 299.993 535.71834 300.315 535.059 C 300.637 534.39966 300.982 533.6867 301.35 532.92 L 306.042 523.168 C 306.134 522.96867 306.2605 522.76933 306.4215 522.57 C 306.5825 522.37067 306.7665 522.1905 306.9735 522.0295 C 307.1805 521.8685 307.41817 521.73817 307.6865 521.6385 C 307.95483 521.53883 308.25 521.489 308.572 521.489 L 315.472 521.489 Z" fill="#71cdf6"/>
        </g>
      </g>
    </g>
    <g id="Canvas_1_1a-ell1-nofont">
      <title>1a-ell1-nofont</title>
      <g id="Group_341">
        <title>Ellipse</title>
        <g id="Graphic_334">
          <path d="M 73.856 234.728 L 73.856 241.576 L 53.344 241.576 L 53.344 254.408 L 69.504 254.408 L 69.504 261.032 L 53.344 261.032 L 53.344 274.12 L 73.856 274.12 L 73.856 281 L 44.672 281 L 44.672 234.728 Z" fill="#424242"/>
        </g>
        <g id="Graphic_335">
          <rect x="81.376" y="233.448" width="7.904" height="47.552" fill="#424242"/>
        </g>
        <g id="Graphic_336">
          <rect x="98.72" y="233.448" width="7.904" height="47.552" fill="#424242"/>
        </g>
        <g id="Graphic_337">
          <path d="M 123.968 248.168 L 123.968 281 L 116.064 281 L 116.064 248.168 Z M 125.152 238.6 C 125.152 239.28267 125.01333 239.92266 124.736 240.52 C 124.45867 241.11734 124.09067 241.64 123.632 242.088 C 123.17333 242.536 122.63467 242.89333 122.016 243.16 C 121.39733 243.42667 120.736 243.56 120.032 243.56 C 119.34933 243.56 118.704 243.42667 118.096 243.16 C 117.488 242.89333 116.96 242.536 116.512 242.088 C 116.064 241.64 115.70667 241.11734 115.44 240.52 C 115.17333 239.92266 115.04 239.28267 115.04 238.6 C 115.04 237.896 115.17333 237.23467 115.44 236.616 C 115.70667 235.99733 116.064 235.464 116.512 235.016 C 116.96 234.568 117.488 234.21067 118.096 233.944 C 118.704 233.67733 119.34933 233.544 120.032 233.544 C 120.736 233.544 121.39733 233.67733 122.016 233.944 C 122.63467 234.21067 123.17333 234.568 123.632 235.016 C 124.09067 235.464 124.45867 235.99733 124.736 236.616 C 125.01333 237.23467 125.152 237.896 125.152 238.6 Z" fill="#424242"/>
        </g>
        <g id="Graphic_338">
          <path d="M 132.896 291.72 L 132.896 248.168 L 137.728 248.168 C 138.24 248.168 138.67733 248.28533 139.04 248.52 C 139.40267 248.75467 139.63733 249.11733 139.744 249.608 L 140.384 252.648 C 141.70667 251.13333 143.22666 249.90667 144.944 248.968 C 146.66134 248.02933 148.67199 247.56 150.976 247.56 C 152.768 247.56 154.40533 247.93333 155.888 248.68 C 157.37067 249.42667 158.65066 250.50933 159.728 251.928 C 160.80534 253.34667 161.63733 255.096 162.224 257.176 C 162.81067 259.256 163.104 261.64 163.104 264.328 C 163.104 266.78135 162.77334 269.05332 162.112 271.144 C 161.45066 273.23468 160.50667 275.048 159.28 276.584 C 158.05333 278.12 156.57068 279.32 154.832 280.184 C 153.09332 281.048 151.14668 281.48 148.992 281.48 C 147.13599 281.48 145.56267 281.19734 144.272 280.632 C 142.98133 280.06666 141.824 279.28267 140.8 278.28 L 140.8 291.72 Z M 148.256 253.8 C 146.61333 253.8 145.21067 254.14666 144.048 254.84 C 142.88533 255.53334 141.80267 256.50933 140.8 257.768 L 140.8 272.488 C 141.696 273.59734 142.672 274.37066 143.728 274.808 C 144.784 275.24534 145.92 275.464 147.136 275.464 C 148.33067 275.464 149.41333 275.24 150.384 274.792 C 151.35467 274.344 152.176 273.66134 152.848 272.744 C 153.52 271.82666 154.03733 270.66934 154.4 269.272 C 154.76267 267.87466 154.944 266.22668 154.944 264.328 C 154.944 262.408 154.78933 260.78134 154.48 259.448 C 154.17067 258.11466 153.728 257.032 153.152 256.2 C 152.576 255.368 151.87734 254.76 151.056 254.376 C 150.23466 253.992 149.30134 253.8 148.256 253.8 Z" fill="#424242"/>
        </g>
        <g id="Graphic_339">
          <path d="M 188.576 254.568 C 188.36267 254.90934 188.13867 255.14933 187.904 255.288 C 187.66933 255.42667 187.37067 255.496 187.008 255.496 C 186.624 255.496 186.21334 255.38933 185.776 255.176 C 185.33866 254.96267 184.832 254.72267 184.256 254.456 C 183.68 254.18933 183.024 253.94933 182.288 253.736 C 181.552 253.52267 180.68267 253.416 179.68 253.416 C 178.12266 253.416 176.896 253.74666 176 254.408 C 175.104 255.06934 174.656 255.93333 174.656 257 C 174.656 257.704 174.88533 258.296 175.344 258.776 C 175.80267 259.256 176.41066 259.67733 177.168 260.04 C 177.92534 260.40267 178.784 260.728 179.744 261.016 C 180.704 261.304 181.68533 261.61866 182.688 261.96 C 183.69067 262.30134 184.672 262.69066 185.632 263.128 C 186.592 263.56534 187.45066 264.12 188.208 264.792 C 188.96534 265.464 189.57333 266.26933 190.032 267.208 C 190.49067 268.14667 190.72 269.27733 190.72 270.6 C 190.72 272.17867 190.432 273.63466 189.856 274.968 C 189.28 276.30134 188.43734 277.45333 187.328 278.424 C 186.21866 279.39467 184.848 280.152 183.216 280.696 C 181.584 281.24 179.712 281.512 177.6 281.512 C 176.46933 281.512 175.36534 281.41067 174.288 281.208 C 173.21066 281.00533 172.176 280.72267 171.184 280.36 C 170.192 279.99733 169.27467 279.57067 168.432 279.08 C 167.58933 278.58933 166.848 278.056 166.208 277.48 L 168.032 274.472 C 168.26667 274.10933 168.544 273.832 168.864 273.64 C 169.184 273.448 169.58933 273.352 170.08 273.352 C 170.57067 273.352 171.03466 273.49067 171.472 273.768 C 171.90934 274.04533 172.416 274.344 172.992 274.664 C 173.568 274.984 174.24533 275.28267 175.024 275.56 C 175.80267 275.83733 176.78933 275.976 177.984 275.976 C 178.92267 275.976 179.728 275.864 180.4 275.64 C 181.072 275.416 181.62666 275.12267 182.064 274.76 C 182.50134 274.39733 182.82133 273.976 183.024 273.496 C 183.22667 273.016 183.328 272.52 183.328 272.008 C 183.328 271.24 183.09867 270.61067 182.64 270.12 C 182.18133 269.62933 181.57334 269.20267 180.816 268.84 C 180.05866 268.47733 179.19467 268.152 178.224 267.864 C 177.25333 267.576 176.26134 267.26134 175.248 266.92 C 174.23466 266.57866 173.24267 266.17867 172.272 265.72 C 171.30133 265.26133 170.43734 264.68 169.68 263.976 C 168.92266 263.272 168.31467 262.408 167.856 261.384 C 167.39733 260.36 167.168 259.12267 167.168 257.672 C 167.168 256.328 167.43466 255.048 167.968 253.832 C 168.50134 252.616 169.28533 251.55467 170.32 250.648 C 171.35467 249.74133 172.64533 249.016 174.192 248.472 C 175.73867 247.928 177.52532 247.656 179.552 247.656 C 181.81334 247.656 183.872 248.02933 185.728 248.776 C 187.584 249.52267 189.13066 250.504 190.368 251.72 Z" fill="#424242"/>
        </g>
        <g id="Graphic_340">
          <path d="M 210.624 247.656 C 212.69334 247.656 214.59732 247.98666 216.336 248.648 C 218.07468 249.30934 219.57333 250.27466 220.832 251.544 C 222.09067 252.81334 223.072 254.37066 223.776 256.216 C 224.48 258.06134 224.832 260.168 224.832 262.536 C 224.832 263.13334 224.80533 263.62933 224.752 264.024 C 224.69867 264.41867 224.60267 264.728 224.464 264.952 C 224.32533 265.176 224.13867 265.336 223.904 265.432 C 223.66933 265.528 223.37067 265.576 223.008 265.576 L 202.72 265.576 C 202.95467 268.94668 203.86133 271.42133 205.44 273 C 207.01867 274.57867 209.10932 275.368 211.712 275.368 C 212.992 275.368 214.096 275.21867 215.024 274.92 C 215.952 274.62133 216.76266 274.29067 217.456 273.928 C 218.14934 273.56533 218.75733 273.23467 219.28 272.936 C 219.80267 272.63733 220.30933 272.488 220.8 272.488 C 221.12 272.488 221.39733 272.552 221.632 272.68 C 221.86667 272.808 222.06933 272.98933 222.24 273.224 L 224.544 276.104 C 223.66933 277.128 222.688 277.98666 221.6 278.68 C 220.512 279.37334 219.376 279.928 218.192 280.344 C 217.008 280.76 215.80267 281.05333 214.576 281.224 C 213.34933 281.39467 212.16 281.48 211.008 281.48 C 208.72532 281.48 206.60268 281.10134 204.64 280.344 C 202.67732 279.58666 200.97067 278.46667 199.52 276.984 C 198.06933 275.50133 196.928 273.66668 196.096 271.48 C 195.264 269.29332 194.848 266.76 194.848 263.88 C 194.848 261.64 195.21066 259.53334 195.936 257.56 C 196.66134 255.58666 197.70133 253.86934 199.056 252.408 C 200.41067 250.94666 202.064 249.78934 204.016 248.936 C 205.968 248.08266 208.17065 247.656 210.624 247.656 Z M 210.784 253.32 C 208.48 253.32 206.67734 253.97066 205.376 255.272 C 204.07466 256.57334 203.24267 258.41865 202.88 260.808 L 217.728 260.808 C 217.728 259.784 217.58933 258.81867 217.312 257.912 C 217.03467 257.00533 216.608 256.21067 216.032 255.528 C 215.456 254.84533 214.73067 254.30667 213.856 253.912 C 212.98133 253.51733 211.95734 253.32 210.784 253.32 Z" fill="#424242"/>
        </g>
      </g>
    </g>
  </g>
</svg>
