<?xml version="1.0" encoding="UTF-8" standalone="no"?>
<!DOCTYPE svg PUBLIC "-//W3C//DTD SVG 1.1//EN" "http://www.w3.org/Graphics/SVG/1.1/DTD/svg11.dtd">
<svg xmlns="http://www.w3.org/2000/svg" xmlns:dc="http://purl.org/dc/elements/1.1/" xmlns:xl="http://www.w3.org/1999/xlink" version="1.1" viewBox="0 0 480 600" width="480" height="600">
  <defs/>
  <metadata> Produced by OmniGraffle 7.18.5\n2021-06-10 09:50:54 +0000</metadata>
  <g id="Canvas_1" stroke="none" stroke-opacity="1" stroke-dasharray="none" fill-opacity="1" fill="none">
    <title>Canvas 1</title>
    <g id="Canvas_1_book-base4">
      <title>book-base4</title>
      <g id="Graphic_453">
        <path d="M 12 0 L 468 0 C 474.6274 40581225e-23 480 5.372583 480 12 L 480 588 C 480 594.6274 474.6274 600 468 600 L 12 600 C 5.372583 600 8116245e-22 594.6274 0 588 L 35527137e-21 12 C 3633876e-20 5.372583 5.372583 -40581225e-23 12 0 Z" fill="white"/>
      </g>
    </g>
    <g id="Canvas_1_1a-CAL-nofont">
      <title>1a-CAL-nofont</title>
      <g id="Graphic_237">
        <rect x="0" y="188" width="480" height="10" fill="#ff85ff"/>
      </g>
      <g id="Group_246">
        <title>CALCULUS</title>
        <g id="Graphic_238">
          <path d="M 65.277 546.329 C 65.461 546.329 65.645 546.3635 65.829 546.4325 C 66.013 546.5015 66.18933 546.6203 66.358 546.789 L 69.44 550.032 C 68.09066 551.79534 66.40018 553.1255 64.3685 554.0225 C 62.33682 554.9195 59.93335 555.368 57.158 555.368 C 54.612654 555.368 52.331843 554.93484 50.3155 554.0685 C 48.299157 553.20216 46.589507 552.0062 45.1865 550.4805 C 43.783493 548.9548 42.706337 547.1455 41.955 545.0525 C 41.203663 542.9595 40.828 540.68635 40.828 538.233 C 40.828 535.73365 41.25733 533.4375 42.116 531.3445 C 42.97467 529.2515 44.17449 527.446 45.7155 525.928 C 47.25651 524.41 49.10032 523.22934 51.247 522.386 C 53.39368 521.54266 55.762654 521.121 58.354 521.121 C 59.61134 521.121 60.79583 521.23217 61.9075 521.4545 C 63.01917 521.67683 64.057995 521.9835 65.024 522.3745 C 65.990005 522.7655 66.87933 523.23316 67.692 523.7775 C 68.50467 524.32184 69.22533 524.92366 69.854 525.583 L 67.232 529.102 C 67.06333 529.31667 66.864 529.51217 66.634 529.6885 C 66.404 529.86483 66.082 529.953 65.668 529.953 C 65.392 529.953 65.131335 529.89167 64.886 529.769 C 64.640665 529.64633 64.38 529.49683 64.104 529.3205 C 63.828 529.14417 63.52517 528.9525 63.1955 528.7455 C 62.86583 528.5385 62.474836 528.34683 62.0225 528.1705 C 61.570164 527.99417 61.04117 527.84467 60.4355 527.722 C 59.82983 527.59933 59.12067 527.538 58.308 527.538 C 56.897326 527.538 55.60934 527.78716 54.444 528.2855 C 53.27866 528.78384 52.27817 529.4968 51.4425 530.4245 C 50.60683 531.3522 49.95517 532.4753 49.4875 533.794 C 49.01983 535.1127 48.786 536.5923 48.786 538.233 C 48.786 539.95034 49.01983 541.476 49.4875 542.81 C 49.95517 544.144 50.591496 545.26716 51.3965 546.1795 C 52.201504 547.09184 53.14066 547.78566 54.214 548.261 C 55.28734 548.73634 56.43733 548.974 57.664 548.974 C 58.36934 548.974 59.01333 548.9395 59.596 548.8705 C 60.17867 548.8015 60.719164 548.6827 61.2175 548.514 C 61.715836 548.3453 62.191164 548.12683 62.6435 547.8585 C 63.095836 547.59017 63.552 547.2567 64.012 546.858 C 64.196 546.70467 64.39533 546.57817 64.61 546.4785 C 64.82467 546.37883 65.047 546.329 65.277 546.329 Z" fill="#ff85ff"/>
        </g>
        <g id="Graphic_239">
          <path d="M 107.17 555 L 101.144 555 C 100.46933 555 99.9135 554.84283 99.4765 554.5285 C 99.0395 554.21417 98.73667 553.8117 98.568 553.321 L 96.59 547.479 L 83.848 547.479 L 81.87 553.321 C 81.71667 553.75034 81.41767 554.1375 80.973 554.4825 C 80.52833 554.8275 79.984 555 79.34 555 L 73.268 555 L 86.24 521.489 L 94.198 521.489 Z M 85.642 542.189 L 94.796 542.189 L 91.714 533.012 C 91.51467 532.4293 91.28083 531.7432 91.0125 530.9535 C 90.74417 530.1638 90.47967 529.309 90.219 528.389 C 89.97367 529.32434 89.72067 530.19066 89.46 530.988 C 89.19933 531.78534 88.954 532.4753 88.724 533.058 Z" fill="#ff85ff"/>
        </g>
        <g id="Graphic_240">
          <path d="M 120.658 548.79 L 133.078 548.79 L 133.078 555 L 112.884 555 L 112.884 521.489 L 120.658 521.489 Z" fill="#ff85ff"/>
        </g>
        <g id="Graphic_241">
          <path d="M 160.435 546.329 C 160.619 546.329 160.803 546.3635 160.987 546.4325 C 161.171 546.5015 161.34733 546.6203 161.516 546.789 L 164.598 550.032 C 163.24866 551.79534 161.55818 553.1255 159.5265 554.0225 C 157.49482 554.9195 155.09135 555.368 152.316 555.368 C 149.77065 555.368 147.48984 554.93484 145.4735 554.0685 C 143.45716 553.20216 141.7475 552.0062 140.3445 550.4805 C 138.9415 548.9548 137.86434 547.1455 137.113 545.0525 C 136.36166 542.9595 135.986 540.68635 135.986 538.233 C 135.986 535.73365 136.41533 533.4375 137.274 531.3445 C 138.13267 529.2515 139.3325 527.446 140.8735 525.928 C 142.4145 524.41 144.25832 523.22934 146.405 522.386 C 148.55168 521.54266 150.92065 521.121 153.512 521.121 C 154.76934 521.121 155.95383 521.23217 157.0655 521.4545 C 158.17717 521.67683 159.216 521.9835 160.182 522.3745 C 161.148 522.7655 162.03733 523.23316 162.85 523.7775 C 163.66267 524.32184 164.38333 524.92366 165.012 525.583 L 162.39 529.102 C 162.22133 529.31667 162.022 529.51217 161.792 529.6885 C 161.562 529.86483 161.24 529.953 160.826 529.953 C 160.55 529.953 160.28933 529.89167 160.044 529.769 C 159.79867 529.64633 159.538 529.49683 159.262 529.3205 C 158.986 529.14417 158.68317 528.9525 158.3535 528.7455 C 158.02383 528.5385 157.63284 528.34683 157.1805 528.1705 C 156.72816 527.99417 156.19917 527.84467 155.5935 527.722 C 154.98783 527.59933 154.27867 527.538 153.466 527.538 C 152.05533 527.538 150.76734 527.78716 149.602 528.2855 C 148.43666 528.78384 147.43617 529.4968 146.6005 530.4245 C 145.76483 531.3522 145.11317 532.4753 144.6455 533.794 C 144.17783 535.1127 143.944 536.5923 143.944 538.233 C 143.944 539.95034 144.17783 541.476 144.6455 542.81 C 145.11317 544.144 145.7495 545.26716 146.5545 546.1795 C 147.3595 547.09184 148.29866 547.78566 149.372 548.261 C 150.44534 548.73634 151.59533 548.974 152.822 548.974 C 153.52734 548.974 154.17133 548.9395 154.754 548.8705 C 155.33667 548.8015 155.87716 548.6827 156.3755 548.514 C 156.87384 548.3453 157.34916 548.12683 157.8015 547.8585 C 158.25384 547.59017 158.71 547.2567 159.17 546.858 C 159.354 546.70467 159.55333 546.57817 159.768 546.4785 C 159.98267 546.37883 160.205 546.329 160.435 546.329 Z" fill="#ff85ff"/>
        </g>
        <g id="Graphic_242">
          <path d="M 185.078 548.859 C 186.12067 548.859 187.05216 548.6865 187.8725 548.3415 C 188.69284 547.9965 189.38666 547.502 189.954 546.858 C 190.52134 546.214 190.9545 545.4282 191.2535 544.5005 C 191.5525 543.5728 191.702 542.5187 191.702 541.338 L 191.702 521.489 L 199.476 521.489 L 199.476 541.338 C 199.476 543.3927 199.1425 545.27866 198.4755 546.996 C 197.8085 548.71334 196.854 550.193 195.612 551.435 C 194.37 552.677 192.85968 553.643 191.081 554.333 C 189.30232 555.023 187.30134 555.368 185.078 555.368 C 182.83932 555.368 180.83068 555.023 179.052 554.333 C 177.27332 553.643 175.763 552.677 174.521 551.435 C 173.279 550.193 172.32834 548.71334 171.669 546.996 C 171.00966 545.27866 170.68 543.3927 170.68 541.338 L 170.68 521.489 L 178.454 521.489 L 178.454 541.315 C 178.454 542.4957 178.6035 543.5498 178.9025 544.4775 C 179.2015 545.4052 179.63466 546.1948 180.202 546.8465 C 180.76934 547.4982 181.46316 547.9965 182.2835 548.3415 C 183.10384 548.6865 184.03533 548.859 185.078 548.859 Z" fill="#ff85ff"/>
        </g>
        <g id="Graphic_243">
          <path d="M 215.31 548.79 L 227.73 548.79 L 227.73 555 L 207.536 555 L 207.536 521.489 L 215.31 521.489 Z" fill="#ff85ff"/>
        </g>
        <g id="Graphic_244">
          <path d="M 248.348 548.859 C 249.39067 548.859 250.32216 548.6865 251.1425 548.3415 C 251.96284 547.9965 252.65666 547.502 253.224 546.858 C 253.79134 546.214 254.2245 545.4282 254.5235 544.5005 C 254.8225 543.5728 254.972 542.5187 254.972 541.338 L 254.972 521.489 L 262.746 521.489 L 262.746 541.338 C 262.746 543.3927 262.4125 545.27866 261.7455 546.996 C 261.0785 548.71334 260.124 550.193 258.882 551.435 C 257.64 552.677 256.12968 553.643 254.351 554.333 C 252.57232 555.023 250.57134 555.368 248.348 555.368 C 246.10932 555.368 244.10068 555.023 242.322 554.333 C 240.54332 553.643 239.033 552.677 237.791 551.435 C 236.549 550.193 235.59834 548.71334 234.939 546.996 C 234.27966 545.27866 233.95 543.3927 233.95 541.338 L 233.95 521.489 L 241.724 521.489 L 241.724 541.315 C 241.724 542.4957 241.8735 543.5498 242.1725 544.4775 C 242.4715 545.4052 242.90466 546.1948 243.472 546.8465 C 244.03934 547.4982 244.73316 547.9965 245.5535 548.3415 C 246.37384 548.6865 247.30533 548.859 248.348 548.859 Z" fill="#ff85ff"/>
        </g>
        <g id="Graphic_245">
          <path d="M 289.482 528.297 C 289.252 528.665 289.0105 528.941 288.7575 529.125 C 288.5045 529.309 288.17867 529.401 287.78 529.401 C 287.42733 529.401 287.04784 529.28983 286.6415 529.0675 C 286.23516 528.84517 285.77517 528.596 285.2615 528.32 C 284.74783 528.044 284.16134 527.79483 283.502 527.5725 C 282.84266 527.35017 282.09134 527.239 281.248 527.239 C 279.79133 527.239 278.7065 527.5495 277.9935 528.1705 C 277.2805 528.7915 276.924 529.631 276.924 530.689 C 276.924 531.3637 277.13866 531.9233 277.568 532.368 C 277.99734 532.8127 278.56083 533.196 279.2585 533.518 C 279.95617 533.84 280.7535 534.13517 281.6505 534.4035 C 282.5475 534.67183 283.46366 534.9708 284.399 535.3005 C 285.33434 535.6302 286.2505 536.0173 287.1475 536.462 C 288.0445 536.9067 288.84183 537.474 289.5395 538.164 C 290.23717 538.854 290.80066 539.6935 291.23 540.6825 C 291.65934 541.6715 291.874 542.86366 291.874 544.259 C 291.874 545.8077 291.60567 547.25666 291.069 548.606 C 290.53233 549.95534 289.75417 551.13216 288.7345 552.1365 C 287.71483 553.14084 286.4575 553.9305 284.9625 554.5055 C 283.4675 555.0805 281.76934 555.368 279.868 555.368 C 278.82533 555.368 277.7635 555.2607 276.6825 555.046 C 275.6015 554.8313 274.555 554.5285 273.543 554.1375 C 272.531 553.7465 271.58034 553.2827 270.691 552.746 C 269.80166 552.2093 269.02734 551.61134 268.368 550.952 L 270.668 547.318 C 270.83667 547.042 271.07433 546.8197 271.381 546.651 C 271.68767 546.4823 272.01733 546.398 272.37 546.398 C 272.83 546.398 273.29383 546.54367 273.7615 546.835 C 274.22917 547.12633 274.75816 547.4483 275.3485 547.801 C 275.93884 548.1537 276.61733 548.47567 277.384 548.767 C 278.15067 549.05833 279.05533 549.204 280.098 549.204 C 281.50867 549.204 282.605 548.8935 283.387 548.2725 C 284.169 547.6515 284.56 546.66634 284.56 545.317 C 284.56 544.535 284.34534 543.8987 283.916 543.408 C 283.48666 542.9173 282.92317 542.511 282.2255 542.189 C 281.52783 541.867 280.73434 541.58333 279.845 541.338 C 278.95566 541.09267 278.04334 540.8205 277.108 540.5215 C 276.17266 540.2225 275.26034 539.8545 274.371 539.4175 C 273.48166 538.9805 272.68817 538.4055 271.9905 537.6925 C 271.29283 536.9795 270.72934 536.0902 270.3 535.0245 C 269.87066 533.9588 269.656 532.644 269.656 531.08 C 269.656 529.82266 269.909 528.596 270.415 527.4 C 270.921 526.204 271.66466 525.13834 272.646 524.203 C 273.62734 523.26766 274.831 522.5202 276.257 521.9605 C 277.683 521.4008 279.316 521.121 281.156 521.121 C 282.18334 521.121 283.18383 521.2015 284.1575 521.3625 C 285.13117 521.5235 286.055 521.76117 286.929 522.0755 C 287.803 522.38983 288.6195 522.7655 289.3785 523.2025 C 290.1375 523.6395 290.816 524.134 291.414 524.686 Z" fill="#ff85ff"/>
        </g>
      </g>
    </g>
    <g id="Canvas_1_1a-indef-nofont">
      <title>1a-indef-nofont</title>
      <g id="Group_511">
        <title>Indefinite Integral: Formulas</title>
        <g id="Graphic_485">
          <rect x="45.728" y="234.728" width="8.64" height="46.272" fill="#424242"/>
        </g>
        <g id="Graphic_486">
          <path d="M 64.32 281 L 64.32 248.168 L 69.152 248.168 C 70.176005 248.168 70.848 248.648 71.168 249.608 L 71.712 252.2 C 72.37334 251.51733 73.072 250.89867 73.808 250.344 C 74.544 249.78933 75.32266 249.30934 76.144 248.904 C 76.96534 248.49866 77.84533 248.18933 78.784 247.976 C 79.72267 247.76267 80.74666 247.656 81.856 247.656 C 83.64801 247.656 85.23733 247.96 86.624 248.568 C 88.01067 249.176 89.168 250.02933 90.096 251.128 C 91.024 252.22667 91.728 253.53866 92.208 255.064 C 92.688 256.58934 92.928 258.26932 92.928 260.104 L 92.928 281 L 85.024 281 L 85.024 260.104 C 85.024 258.09866 84.56 256.54667 83.632 255.448 C 82.704 254.34933 81.31201 253.8 79.456 253.8 C 78.09066 253.8 76.81067 254.10933 75.616 254.728 C 74.42133 255.34667 73.29067 256.18933 72.224 257.256 L 72.224 281 Z" fill="#424242"/>
        </g>
        <g id="Graphic_487">
          <path d="M 123.808 281 C 122.784 281 122.112 280.52 121.792 279.56 L 121.152 276.392 C 120.46933 277.16 119.75467 277.85333 119.008 278.472 C 118.26133 279.09067 117.456 279.624 116.592 280.072 C 115.728 280.52 114.8 280.86667 113.808 281.112 C 112.816 281.35733 111.744 281.48 110.592 281.48 C 108.79999 281.48 107.15734 281.10667 105.664 280.36 C 104.17066 279.61333 102.88534 278.53067 101.808 277.112 C 100.73066 275.69333 99.89867 273.93868 99.312 271.848 C 98.72533 269.75732 98.432 267.368 98.432 264.68 C 98.432 262.248 98.76266 259.98668 99.424 257.896 C 100.08534 255.80532 101.03466 253.992 102.272 252.456 C 103.50934 250.92 104.99199 249.72 106.72 248.856 C 108.44801 247.992 110.38932 247.56 112.544 247.56 C 114.37868 247.56 115.94666 247.85333 117.248 248.44 C 118.54934 249.02667 119.712 249.81066 120.736 250.792 L 120.736 233.448 L 128.64 233.448 L 128.64 281 Z M 113.28 275.208 C 114.92267 275.208 116.32 274.86667 117.472 274.184 C 118.624 273.50133 119.712 272.53067 120.736 271.272 L 120.736 256.552 C 119.84 255.464 118.864 254.696 117.808 254.248 C 116.752 253.8 115.616 253.576 114.4 253.576 C 113.20533 253.576 112.12267 253.8 111.152 254.248 C 110.18133 254.696 109.36 255.37333 108.688 256.28 C 108.016 257.18667 107.49867 258.33866 107.136 259.736 C 106.77333 261.13334 106.592 262.78132 106.592 264.68 C 106.592 266.6 106.74667 268.22666 107.056 269.56 C 107.36533 270.89334 107.808 271.98133 108.384 272.824 C 108.96 273.66667 109.664 274.27466 110.496 274.648 C 111.328 275.02134 112.256 275.208 113.28 275.208 Z" fill="#424242"/>
        </g>
        <g id="Graphic_488">
          <path d="M 150.752 247.656 C 152.82134 247.656 154.72532 247.98666 156.464 248.648 C 158.20268 249.30934 159.70133 250.27466 160.96 251.544 C 162.21867 252.81334 163.2 254.37066 163.904 256.216 C 164.608 258.06134 164.96 260.168 164.96 262.536 C 164.96 263.13334 164.93333 263.62933 164.88 264.024 C 164.82667 264.41867 164.73067 264.728 164.592 264.952 C 164.45333 265.176 164.26667 265.336 164.032 265.432 C 163.79733 265.528 163.49867 265.576 163.136 265.576 L 142.848 265.576 C 143.08267 268.94668 143.98933 271.42133 145.568 273 C 147.14667 274.57867 149.23732 275.368 151.84 275.368 C 153.12 275.368 154.224 275.21867 155.152 274.92 C 156.08 274.62133 156.89066 274.29067 157.584 273.928 C 158.27734 273.56533 158.88533 273.23467 159.408 272.936 C 159.93067 272.63733 160.43733 272.488 160.928 272.488 C 161.248 272.488 161.52533 272.552 161.76 272.68 C 161.99467 272.808 162.19733 272.98933 162.368 273.224 L 164.672 276.104 C 163.79733 277.128 162.816 277.98666 161.728 278.68 C 160.64 279.37334 159.504 279.928 158.32 280.344 C 157.136 280.76 155.93067 281.05333 154.704 281.224 C 153.47733 281.39467 152.288 281.48 151.136 281.48 C 148.85332 281.48 146.73068 281.10134 144.768 280.344 C 142.80532 279.58666 141.09867 278.46667 139.648 276.984 C 138.19733 275.50133 137.056 273.66668 136.224 271.48 C 135.392 269.29332 134.976 266.76 134.976 263.88 C 134.976 261.64 135.33866 259.53334 136.064 257.56 C 136.78934 255.58666 137.82933 253.86934 139.184 252.408 C 140.53867 250.94666 142.19199 249.78934 144.144 248.936 C 146.09601 248.08266 148.29865 247.656 150.752 247.656 Z M 150.912 253.32 C 148.60799 253.32 146.80534 253.97066 145.504 255.272 C 144.20266 256.57334 143.37067 258.41865 143.008 260.808 L 157.856 260.808 C 157.856 259.784 157.71733 258.81867 157.44 257.912 C 157.16267 257.00533 156.736 256.21067 156.16 255.528 C 155.584 254.84533 154.85867 254.30667 153.984 253.912 C 153.10933 253.51733 152.08534 253.32 150.912 253.32 Z" fill="#424242"/>
        </g>
        <g id="Graphic_489">
          <path d="M 172.8 281 L 172.8 254.12 L 169.952 253.672 C 169.33333 253.56533 168.83734 253.352 168.464 253.032 C 168.09066 252.712 167.904 252.264 167.904 251.688 L 167.904 248.456 L 172.8 248.456 L 172.8 247.4 C 172.8 245.39466 173.13066 243.53334 173.792 241.816 C 174.45334 240.09866 175.456 238.61067 176.8 237.352 C 178.144 236.09333 179.84 235.10667 181.888 234.392 C 183.936 233.67733 186.35732 233.32 189.152 233.32 C 190.048 233.32 190.96533 233.368 191.904 233.464 C 192.84267 233.56 193.65333 233.71467 194.336 233.928 L 194.08 238.024 C 194.03733 238.51467 193.77067 238.808 193.28 238.904 C 192.78933 239 192.18134 239.048 191.456 239.048 C 189.38666 239.048 187.65334 239.22933 186.256 239.592 C 184.85866 239.95467 183.728 240.49333 182.864 241.208 C 182 241.92267 181.38134 242.81866 181.008 243.896 C 180.63466 244.97334 180.448 246.22666 180.448 247.656 L 180.448 248.456 L 200.8 248.456 L 200.8 281 L 192.896 281 L 192.896 254.088 L 180.704 254.088 L 180.704 281 Z" fill="#424242"/>
        </g>
        <g id="Graphic_490">
          <path d="M 209.856 281 L 209.856 248.168 L 214.688 248.168 C 215.712 248.168 216.384 248.648 216.704 249.608 L 217.248 252.2 C 217.90934 251.51733 218.608 250.89867 219.344 250.344 C 220.08 249.78933 220.85866 249.30934 221.68 248.904 C 222.50134 248.49866 223.38133 248.18933 224.32 247.976 C 225.25867 247.76267 226.28266 247.656 227.392 247.656 C 229.184 247.656 230.77333 247.96 232.16 248.568 C 233.54667 249.176 234.704 250.02933 235.632 251.128 C 236.56 252.22667 237.264 253.53866 237.744 255.064 C 238.224 256.58934 238.464 258.26932 238.464 260.104 L 238.464 281 L 230.56 281 L 230.56 260.104 C 230.56 258.09866 230.096 256.54667 229.168 255.448 C 228.24 254.34933 226.848 253.8 224.992 253.8 C 223.62666 253.8 222.34667 254.10933 221.152 254.728 C 219.95733 255.34667 218.82667 256.18933 217.76 257.256 L 217.76 281 Z" fill="#424242"/>
        </g>
        <g id="Graphic_491">
          <path d="M 254.656 248.168 L 254.656 281 L 246.752 281 L 246.752 248.168 Z M 255.84 238.6 C 255.84 239.28267 255.70133 239.92266 255.424 240.52 C 255.14667 241.11734 254.77867 241.64 254.32 242.088 C 253.86133 242.536 253.32267 242.89333 252.704 243.16 C 252.08533 243.42667 251.424 243.56 250.72 243.56 C 250.03733 243.56 249.392 243.42667 248.784 243.16 C 248.176 242.89333 247.648 242.536 247.2 242.088 C 246.752 241.64 246.39467 241.11734 246.128 240.52 C 245.86133 239.92266 245.728 239.28267 245.728 238.6 C 245.728 237.896 245.86133 237.23467 246.128 236.616 C 246.39467 235.99733 246.752 235.464 247.2 235.016 C 247.648 234.568 248.176 234.21067 248.784 233.944 C 249.392 233.67733 250.03733 233.544 250.72 233.544 C 251.424 233.544 252.08533 233.67733 252.704 233.944 C 253.32267 234.21067 253.86133 234.568 254.32 235.016 C 254.77867 235.464 255.14667 235.99733 255.424 236.616 C 255.70133 237.23467 255.84 237.896 255.84 238.6 Z" fill="#424242"/>
        </g>
        <g id="Graphic_492">
          <path d="M 274.368 281.512 C 271.53065 281.512 269.344 280.70667 267.808 279.096 C 266.272 277.48533 265.504 275.26135 265.504 272.424 L 265.504 254.088 L 262.176 254.088 C 261.74933 254.088 261.38133 253.94933 261.072 253.672 C 260.76267 253.39467 260.608 252.97867 260.608 252.424 L 260.608 249.288 L 265.888 248.424 L 267.552 239.464 C 267.63733 239.03733 267.83467 238.70667 268.144 238.472 C 268.45333 238.23733 268.84266 238.12 269.312 238.12 L 273.408 238.12 L 273.408 248.456 L 282.048 248.456 L 282.048 254.088 L 273.408 254.088 L 273.408 271.88 C 273.408 272.904 273.664 273.704 274.176 274.28 C 274.688 274.856 275.37066 275.144 276.224 275.144 C 276.71467 275.144 277.12533 275.08533 277.456 274.968 C 277.78667 274.85067 278.07467 274.728 278.32 274.6 C 278.56533 274.472 278.784 274.34933 278.976 274.232 C 279.168 274.11467 279.36 274.056 279.552 274.056 C 279.78667 274.056 279.97867 274.11467 280.128 274.232 C 280.27733 274.34933 280.43733 274.52533 280.608 274.76 L 282.976 278.6 C 281.824 279.56 280.50134 280.28533 279.008 280.776 C 277.51466 281.26667 275.968 281.512 274.368 281.512 Z" fill="#424242"/>
        </g>
        <g id="Graphic_493">
          <path d="M 301.92 247.656 C 303.98934 247.656 305.89332 247.98666 307.632 248.648 C 309.37068 249.30934 310.86933 250.27466 312.128 251.544 C 313.38667 252.81334 314.368 254.37066 315.072 256.216 C 315.776 258.06134 316.128 260.168 316.128 262.536 C 316.128 263.13334 316.10133 263.62933 316.048 264.024 C 315.99467 264.41867 315.89867 264.728 315.76 264.952 C 315.62133 265.176 315.43467 265.336 315.2 265.432 C 314.96533 265.528 314.66667 265.576 314.304 265.576 L 294.016 265.576 C 294.25067 268.94668 295.15733 271.42133 296.736 273 C 298.31467 274.57867 300.40532 275.368 303.008 275.368 C 304.288 275.368 305.392 275.21867 306.32 274.92 C 307.248 274.62133 308.05866 274.29067 308.752 273.928 C 309.44534 273.56533 310.05333 273.23467 310.576 272.936 C 311.09867 272.63733 311.60533 272.488 312.096 272.488 C 312.416 272.488 312.69333 272.552 312.928 272.68 C 313.16267 272.808 313.36533 272.98933 313.536 273.224 L 315.84 276.104 C 314.96533 277.128 313.984 277.98666 312.896 278.68 C 311.808 279.37334 310.672 279.928 309.488 280.344 C 308.304 280.76 307.09867 281.05333 305.872 281.224 C 304.64533 281.39467 303.456 281.48 302.304 281.48 C 300.02132 281.48 297.89868 281.10134 295.936 280.344 C 293.97332 279.58666 292.26667 278.46667 290.816 276.984 C 289.36533 275.50133 288.224 273.66668 287.392 271.48 C 286.56 269.29332 286.144 266.76 286.144 263.88 C 286.144 261.64 286.50666 259.53334 287.232 257.56 C 287.95734 255.58666 288.99733 253.86934 290.352 252.408 C 291.70667 250.94666 293.36 249.78934 295.312 248.936 C 297.264 248.08266 299.46665 247.656 301.92 247.656 Z M 302.08 253.32 C 299.776 253.32 297.97334 253.97066 296.672 255.272 C 295.37066 256.57334 294.53867 258.41865 294.176 260.808 L 309.024 260.808 C 309.024 259.784 308.88533 258.81867 308.608 257.912 C 308.33067 257.00533 307.904 256.21067 307.328 255.528 C 306.752 254.84533 306.02667 254.30667 305.152 253.912 C 304.27733 253.51733 303.25334 253.32 302.08 253.32 Z" fill="#424242"/>
        </g>
        <g id="Graphic_494">
          <rect x="45.728" y="311.728" width="8.64" height="46.272" fill="#424242"/>
        </g>
        <g id="Graphic_495">
          <path d="M 64.32 358 L 64.32 325.168 L 69.152 325.168 C 70.176005 325.168 70.848 325.648 71.168 326.608 L 71.712 329.2 C 72.37334 328.51733 73.072 327.89867 73.808 327.344 C 74.544 326.78933 75.32266 326.30934 76.144 325.904 C 76.96534 325.49866 77.84533 325.18933 78.784 324.976 C 79.72267 324.76267 80.74666 324.656 81.856 324.656 C 83.64801 324.656 85.23733 324.96 86.624 325.568 C 88.01067 326.176 89.168 327.02933 90.096 328.128 C 91.024 329.22667 91.728 330.53866 92.208 332.064 C 92.688 333.58934 92.928 335.26932 92.928 337.104 L 92.928 358 L 85.024 358 L 85.024 337.104 C 85.024 335.09866 84.56 333.54667 83.632 332.448 C 82.704 331.34933 81.31201 330.8 79.456 330.8 C 78.09066 330.8 76.81067 331.10933 75.616 331.728 C 74.42133 332.34667 73.29067 333.18933 72.224 334.256 L 72.224 358 Z" fill="#424242"/>
        </g>
        <g id="Graphic_496">
          <path d="M 111.488 358.512 C 108.65065 358.512 106.46401 357.70667 104.928 356.096 C 103.39199 354.48533 102.624 352.26135 102.624 349.424 L 102.624 331.088 L 99.296 331.088 C 98.86933 331.088 98.50133 330.94933 98.192 330.672 C 97.88267 330.39467 97.728 329.97867 97.728 329.424 L 97.728 326.288 L 103.008 325.424 L 104.672 316.464 C 104.75733 316.03733 104.95467 315.70667 105.264 315.472 C 105.57333 315.23733 105.96266 315.12 106.432 315.12 L 110.528 315.12 L 110.528 325.456 L 119.168 325.456 L 119.168 331.088 L 110.528 331.088 L 110.528 348.88 C 110.528 349.904 110.784 350.704 111.296 351.28 C 111.808 351.856 112.49066 352.144 113.344 352.144 C 113.83467 352.144 114.24533 352.08533 114.576 351.968 C 114.90667 351.85067 115.19467 351.728 115.44 351.6 C 115.68533 351.472 115.904 351.34933 116.096 351.232 C 116.288 351.11467 116.48 351.056 116.672 351.056 C 116.90667 351.056 117.09867 351.11467 117.248 351.232 C 117.39733 351.34933 117.55733 351.52533 117.728 351.76 L 120.096 355.6 C 118.944 356.56 117.62134 357.28533 116.128 357.776 C 114.63466 358.26667 113.08801 358.512 111.488 358.512 Z" fill="#424242"/>
        </g>
        <g id="Graphic_497">
          <path d="M 139.04 324.656 C 141.10934 324.656 143.01332 324.98666 144.752 325.648 C 146.49068 326.30934 147.98933 327.27466 149.248 328.544 C 150.50667 329.81334 151.488 331.37066 152.192 333.216 C 152.896 335.06134 153.248 337.168 153.248 339.536 C 153.248 340.13334 153.22133 340.62933 153.168 341.024 C 153.11467 341.41867 153.01867 341.728 152.88 341.952 C 152.74133 342.176 152.55467 342.336 152.32 342.432 C 152.08533 342.528 151.78667 342.576 151.424 342.576 L 131.136 342.576 C 131.37067 345.9467 132.27733 348.42133 133.856 350 C 135.43467 351.57867 137.52532 352.368 140.128 352.368 C 141.408 352.368 142.512 352.21867 143.44 351.92 C 144.368 351.62133 145.17866 351.29067 145.872 350.928 C 146.56534 350.56533 147.17333 350.23467 147.696 349.936 C 148.21867 349.63733 148.72533 349.488 149.216 349.488 C 149.536 349.488 149.81333 349.552 150.048 349.68 C 150.28267 349.808 150.48533 349.98933 150.656 350.224 L 152.96 353.104 C 152.08533 354.128 151.104 354.98666 150.016 355.68 C 148.928 356.37334 147.792 356.928 146.608 357.344 C 145.424 357.76 144.21867 358.05333 142.992 358.224 C 141.76533 358.39467 140.576 358.48 139.424 358.48 C 137.14132 358.48 135.01868 358.10134 133.056 357.344 C 131.09332 356.58666 129.38667 355.46667 127.936 353.984 C 126.48533 352.50133 125.344 350.66668 124.512 348.48 C 123.68 346.29332 123.264 343.76 123.264 340.88 C 123.264 338.64 123.62666 336.53334 124.352 334.56 C 125.07734 332.58666 126.11733 330.86934 127.472 329.408 C 128.82667 327.94666 130.47999 326.78934 132.432 325.936 C 134.38401 325.08266 136.58665 324.656 139.04 324.656 Z M 139.2 330.32 C 136.89599 330.32 135.09334 330.97066 133.792 332.272 C 132.49066 333.57334 131.65867 335.41865 131.296 337.808 L 146.144 337.808 C 146.144 336.784 146.00533 335.81867 145.728 334.912 C 145.45067 334.00533 145.024 333.21067 144.448 332.528 C 143.872 331.84533 143.14667 331.30667 142.272 330.912 C 141.39733 330.51733 140.37334 330.32 139.2 330.32 Z" fill="#424242"/>
        </g>
        <g id="Graphic_498">
          <path d="M 171.04 324.592 C 172.448 324.592 173.77066 324.736 175.008 325.024 C 176.24534 325.312 177.376 325.73333 178.4 326.288 L 187.84 326.288 L 187.84 329.232 C 187.84 329.72267 187.712 330.10667 187.456 330.384 C 187.2 330.66133 186.76267 330.85333 186.144 330.96 L 183.2 331.504 C 183.41333 332.05867 183.57867 332.64533 183.696 333.264 C 183.81333 333.88267 183.872 334.53333 183.872 335.216 C 183.872 336.83734 183.54667 338.304 182.896 339.616 C 182.24533 340.928 181.34934 342.04266 180.208 342.96 C 179.06666 343.87734 177.712 344.58666 176.144 345.088 C 174.576 345.58934 172.87468 345.84 171.04 345.84 C 169.80266 345.84 168.59734 345.72267 167.424 345.488 C 166.4 346.10667 165.888 346.8 165.888 347.568 C 165.888 348.22934 166.192 348.71467 166.8 349.024 C 167.408 349.33333 168.208 349.552 169.2 349.68 C 170.192 349.808 171.31733 349.888 172.576 349.92 C 173.83467 349.952 175.12533 350.02133 176.448 350.128 C 177.77067 350.23467 179.06133 350.42133 180.32 350.688 C 181.57867 350.95467 182.704 351.376 183.696 351.952 C 184.688 352.528 185.488 353.312 186.096 354.304 C 186.704 355.296 187.008 356.57066 187.008 358.128 C 187.008 359.57867 186.65067 360.98666 185.936 362.352 C 185.22133 363.71734 184.18667 364.93333 182.832 366 C 181.47733 367.06667 179.81868 367.92533 177.856 368.576 C 175.89332 369.22667 173.65335 369.552 171.136 369.552 C 168.63999 369.552 166.47468 369.312 164.64 368.832 C 162.80532 368.352 161.28534 367.712 160.08 366.912 C 158.87466 366.112 157.97334 365.18934 157.376 364.144 C 156.77866 363.09866 156.48 362.01067 156.48 360.88 C 156.48 359.344 156.94933 358.05334 157.888 357.008 C 158.82667 355.96266 160.128 355.13067 161.792 354.512 C 160.98133 354.064 160.33067 353.46667 159.84 352.72 C 159.34933 351.97333 159.104 351.00267 159.104 349.808 C 159.104 349.31733 159.18933 348.81067 159.36 348.288 C 159.53067 347.76533 159.792 347.248 160.144 346.736 C 160.496 346.224 160.93866 345.73867 161.472 345.28 C 162.00534 344.82133 162.63466 344.41067 163.36 344.048 C 161.696 343.152 160.38934 341.95734 159.44 340.464 C 158.49066 338.97066 158.016 337.22134 158.016 335.216 C 158.016 333.59466 158.34133 332.128 158.992 330.816 C 159.64267 329.504 160.54933 328.384 161.712 327.456 C 162.87467 326.528 164.25066 325.81867 165.84 325.328 C 167.42934 324.83733 169.16266 324.592 171.04 324.592 Z M 179.712 359.472 C 179.712 358.832 179.52 358.30934 179.136 357.904 C 178.752 357.49866 178.22934 357.184 177.568 356.96 C 176.90666 356.736 176.13334 356.57067 175.248 356.464 C 174.36266 356.35733 173.424 356.27733 172.432 356.224 C 171.44 356.17067 170.416 356.11733 169.36 356.064 C 168.304 356.01067 167.28534 355.92 166.304 355.792 C 165.408 356.28267 164.688 356.864 164.144 357.536 C 163.6 358.208 163.328 358.98133 163.328 359.856 C 163.328 360.432 163.472 360.97066 163.76 361.472 C 164.048 361.97334 164.50666 362.40533 165.136 362.768 C 165.76534 363.13067 166.58133 363.41333 167.584 363.616 C 168.58667 363.81867 169.81333 363.92 171.264 363.92 C 172.736 363.92 174.00533 363.808 175.072 363.584 C 176.13867 363.36 177.01866 363.05067 177.712 362.656 C 178.40534 362.26133 178.912 361.792 179.232 361.248 C 179.552 360.704 179.712 360.112 179.712 359.472 Z M 171.04 340.784 C 172.02134 340.784 172.87466 340.65067 173.6 340.384 C 174.32534 340.11733 174.928 339.74934 175.408 339.28 C 175.888 338.81066 176.25067 338.24534 176.496 337.584 C 176.74133 336.92266 176.864 336.19734 176.864 335.408 C 176.864 333.78666 176.37867 332.50134 175.408 331.552 C 174.43733 330.60266 172.98134 330.128 171.04 330.128 C 169.09866 330.128 167.64267 330.60266 166.672 331.552 C 165.70133 332.50134 165.216 333.78666 165.216 335.408 C 165.216 336.176 165.33867 336.89066 165.584 337.552 C 165.82933 338.21334 166.192 338.784 166.672 339.264 C 167.152 339.744 167.76 340.11733 168.496 340.384 C 169.232 340.65067 170.08 340.784 171.04 340.784 Z" fill="#424242"/>
        </g>
        <g id="Graphic_499">
          <path d="M 192.8 358 L 192.8 325.168 L 197.44 325.168 C 198.25067 325.168 198.816 325.31733 199.136 325.616 C 199.456 325.91467 199.66933 326.42666 199.776 327.152 L 200.256 331.12 C 201.42934 329.09332 202.80533 327.49334 204.384 326.32 C 205.96267 325.14666 207.73332 324.56 209.696 324.56 C 211.31734 324.56 212.66133 324.93333 213.728 325.68 L 212.704 331.6 C 212.64 331.984 212.50133 332.256 212.288 332.416 C 212.07467 332.576 211.78667 332.656 211.424 332.656 C 211.104 332.656 210.66667 332.58133 210.112 332.432 C 209.55733 332.28267 208.82134 332.208 207.904 332.208 C 206.26133 332.208 204.85334 332.66133 203.68 333.568 C 202.50666 334.47467 201.51467 335.80266 200.704 337.552 L 200.704 358 Z" fill="#424242"/>
        </g>
        <g id="Graphic_500">
          <path d="M 243.744 358 L 240.192 358 C 239.44533 358 238.85867 357.888 238.432 357.664 C 238.00533 357.44 237.68533 356.98667 237.472 356.304 L 236.768 353.968 C 235.936 354.71467 235.12 355.37066 234.32 355.936 C 233.52 356.50134 232.69334 356.976 231.84 357.36 C 230.98666 357.744 230.08 358.032 229.12 358.224 C 228.16 358.416 227.09334 358.512 225.92 358.512 C 224.53333 358.512 223.25334 358.32534 222.08 357.952 C 220.90666 357.57866 219.89867 357.01867 219.056 356.272 C 218.21333 355.52533 217.55734 354.59734 217.088 353.488 C 216.61866 352.37866 216.384 351.088 216.384 349.616 C 216.384 348.37866 216.70933 347.15734 217.36 345.952 C 218.01067 344.74666 219.09333 343.65867 220.608 342.688 C 222.12267 341.71733 224.13865 340.912 226.656 340.272 C 229.17335 339.632 232.29865 339.26933 236.032 339.184 L 236.032 337.264 C 236.032 335.06666 235.568 333.44 234.64 332.384 C 233.712 331.328 232.36268 330.8 230.592 330.8 C 229.312 330.8 228.24534 330.94933 227.392 331.248 C 226.53866 331.54667 225.79734 331.88266 225.168 332.256 C 224.53866 332.62934 223.95734 332.96533 223.424 333.264 C 222.89066 333.56267 222.304 333.712 221.664 333.712 C 221.13066 333.712 220.672 333.57333 220.288 333.296 C 219.904 333.01867 219.59467 332.67734 219.36 332.272 L 217.92 329.744 C 221.69602 326.288 226.25064 324.56 231.584 324.56 C 233.504 324.56 235.216 324.87466 236.72 325.504 C 238.224 326.13334 239.49866 327.008 240.544 328.128 C 241.58934 329.248 242.384 330.58666 242.928 332.144 C 243.472 333.70134 243.744 335.408 243.744 337.264 Z M 228.384 353.072 C 229.19467 353.072 229.94133 352.99733 230.624 352.848 C 231.30667 352.69867 231.952 352.47467 232.56 352.176 C 233.168 351.87733 233.75466 351.50934 234.32 351.072 C 234.88534 350.63466 235.456 350.11734 236.032 349.52 L 236.032 343.984 C 233.728 344.09067 231.80267 344.288 230.256 344.576 C 228.70933 344.864 227.46667 345.232 226.528 345.68 C 225.58933 346.128 224.92267 346.65066 224.528 347.248 C 224.13333 347.84534 223.936 348.496 223.936 349.2 C 223.936 350.58667 224.34666 351.57866 225.168 352.176 C 225.98934 352.77334 227.06133 353.072 228.384 353.072 Z" fill="#424242"/>
        </g>
        <g id="Graphic_501">
          <rect x="252.032" y="310.448" width="7.904" height="47.552" fill="#424242"/>
        </g>
        <g id="Graphic_502">
          <path d="M 268.256 353.648 C 268.256 352.98666 268.37867 352.35734 268.624 351.76 C 268.86933 351.16266 269.21066 350.65067 269.648 350.224 C 270.08534 349.79733 270.60266 349.456 271.2 349.2 C 271.79734 348.944 272.43733 348.816 273.12 348.816 C 273.78134 348.816 274.41066 348.944 275.008 349.2 C 275.60534 349.456 276.11733 349.79733 276.544 350.224 C 276.97067 350.65067 277.312 351.16266 277.568 351.76 C 277.824 352.35734 277.952 352.98666 277.952 353.648 C 277.952 354.33067 277.824 354.96533 277.568 355.552 C 277.312 356.13867 276.97067 356.64533 276.544 357.072 C 276.11733 357.49867 275.60534 357.83467 275.008 358.08 C 274.41066 358.32533 273.78134 358.448 273.12 358.448 C 272.43733 358.448 271.79734 358.32533 271.2 358.08 C 270.60266 357.83467 270.08534 357.49867 269.648 357.072 C 269.21066 356.64533 268.86933 356.13867 268.624 355.552 C 268.37867 354.96533 268.256 354.33067 268.256 353.648 Z M 268.256 330.832 C 268.256 330.17066 268.37867 329.54134 268.624 328.944 C 268.86933 328.34666 269.21066 327.83467 269.648 327.408 C 270.08534 326.98133 270.60266 326.64 271.2 326.384 C 271.79734 326.128 272.43733 326 273.12 326 C 273.78134 326 274.41066 326.128 275.008 326.384 C 275.60534 326.64 276.11733 326.98133 276.544 327.408 C 276.97067 327.83467 277.312 328.34666 277.568 328.944 C 277.824 329.54134 277.952 330.17066 277.952 330.832 C 277.952 331.51467 277.824 332.14933 277.568 332.736 C 277.312 333.32267 276.97067 333.82933 276.544 334.256 C 276.11733 334.68267 275.60534 335.01867 275.008 335.264 C 274.41066 335.50933 273.78134 335.632 273.12 335.632 C 272.43733 335.632 271.79734 335.50933 271.2 335.264 C 270.60266 335.01867 270.08534 334.68267 269.648 334.256 C 269.21066 333.82933 268.86933 333.32267 268.624 332.736 C 268.37867 332.14933 268.256 331.51467 268.256 330.832 Z" fill="#424242"/>
        </g>
        <g id="Graphic_503">
          <path d="M 73.856 388.728 L 73.856 395.576 L 53.344 395.576 L 53.344 409.272 L 70.656 409.272 L 70.656 416.152 L 53.344 416.152 L 53.344 435 L 44.672 435 L 44.672 388.728 Z" fill="#424242"/>
        </g>
        <g id="Graphic_504">
          <path d="M 92.128 401.656 C 94.58135 401.656 96.80532 402.05066 98.8 402.84 C 100.79468 403.62934 102.49599 404.74933 103.904 406.2 C 105.31201 407.65067 106.4 409.4213 107.168 411.512 C 107.936 413.6027 108.32 415.93865 108.32 418.52 C 108.32 421.1227 107.936 423.4693 107.168 425.56 C 106.4 427.6507 105.31201 429.432 103.904 430.904 C 102.49599 432.376 100.79468 433.50666 98.8 434.296 C 96.80532 435.08534 94.58135 435.48 92.128 435.48 C 89.67465 435.48 87.44534 435.08534 85.44 434.296 C 83.43466 433.50666 81.72267 432.376 80.304 430.904 C 78.88533 429.432 77.78667 427.6507 77.008 425.56 C 76.22933 423.4693 75.84 421.1227 75.84 418.52 C 75.84 415.93865 76.22933 413.6027 77.008 411.512 C 77.78667 409.4213 78.88533 407.65067 80.304 406.2 C 81.72267 404.74933 83.43466 403.62934 85.44 402.84 C 87.44534 402.05066 89.67465 401.656 92.128 401.656 Z M 92.128 429.4 C 94.85868 429.4 96.87999 428.4827 98.192 426.648 C 99.50401 424.8133 100.16 422.12535 100.16 418.584 C 100.16 415.04265 99.50401 412.344 98.192 410.488 C 96.87999 408.632 94.85868 407.704 92.128 407.704 C 89.35465 407.704 87.30667 408.6373 85.984 410.504 C 84.66133 412.3707 84 415.064 84 418.584 C 84 422.104 84.66133 424.78666 85.984 426.632 C 87.30667 428.47734 89.35465 429.4 92.128 429.4 Z" fill="#424242"/>
        </g>
        <g id="Graphic_505">
          <path d="M 114.496 435 L 114.496 402.168 L 119.136 402.168 C 119.94667 402.168 120.512 402.31733 120.832 402.616 C 121.152 402.91467 121.36533 403.42666 121.472 404.152 L 121.952 408.12 C 123.12534 406.0933 124.50133 404.49334 126.08 403.32 C 127.65867 402.14666 129.42932 401.56 131.392 401.56 C 133.01334 401.56 134.35733 401.93333 135.424 402.68 L 134.4 408.6 C 134.336 408.984 134.19733 409.256 133.984 409.416 C 133.77067 409.576 133.48267 409.656 133.12 409.656 C 132.8 409.656 132.36267 409.58133 131.808 409.432 C 131.25333 409.28267 130.51734 409.208 129.6 409.208 C 127.95733 409.208 126.54934 409.66133 125.376 410.568 C 124.20266 411.47467 123.21067 412.80266 122.4 414.552 L 122.4 435 Z" fill="#424242"/>
        </g>
        <g id="Graphic_506">
          <path d="M 140.64 435 L 140.64 402.168 L 145.472 402.168 C 146.496 402.168 147.168 402.648 147.488 403.608 L 148 406.04 C 148.576 405.4 149.17866 404.81334 149.808 404.28 C 150.43734 403.74666 151.10933 403.288 151.824 402.904 C 152.53867 402.52 153.30666 402.216 154.128 401.992 C 154.94934 401.768 155.85066 401.656 156.832 401.656 C 158.90134 401.656 160.60266 402.216 161.936 403.336 C 163.26934 404.456 164.26666 405.944 164.928 407.8 C 165.44 406.712 166.08 405.77867 166.848 405 C 167.616 404.22133 168.45866 403.58667 169.376 403.096 C 170.29334 402.60533 171.26933 402.24267 172.304 402.008 C 173.33867 401.77333 174.37866 401.656 175.424 401.656 C 177.23734 401.656 178.848 401.93333 180.256 402.488 C 181.664 403.04267 182.848 403.85333 183.808 404.92 C 184.768 405.98667 185.49866 407.288 186 408.824 C 186.50134 410.36 186.752 412.12 186.752 414.104 L 186.752 435 L 178.848 435 L 178.848 414.104 C 178.848 412.0133 178.38934 410.44 177.472 409.384 C 176.55466 408.328 175.21068 407.8 173.44 407.8 C 172.62933 407.8 171.87734 407.93867 171.184 408.216 C 170.49066 408.49333 169.88267 408.89333 169.36 409.416 C 168.83733 409.93867 168.42667 410.59466 168.128 411.384 C 167.82933 412.17334 167.68 413.08 167.68 414.104 L 167.68 435 L 159.744 435 L 159.744 414.104 C 159.744 411.90666 159.30134 410.30667 158.416 409.304 C 157.53066 408.30133 156.224 407.8 154.496 407.8 C 153.36533 407.8 152.304 408.08266 151.312 408.648 C 150.32 409.21334 149.39734 409.98666 148.544 410.968 L 148.544 435 Z" fill="#424242"/>
        </g>
        <g id="Graphic_507">
          <path d="M 201.76 402.168 L 201.76 423.032 C 201.76 425.03734 202.224 426.58933 203.152 427.688 C 204.08 428.78667 205.472 429.336 207.328 429.336 C 208.69334 429.336 209.97333 429.032 211.168 428.424 C 212.36267 427.816 213.49333 426.97867 214.56 425.912 L 214.56 402.168 L 222.464 402.168 L 222.464 435 L 217.632 435 C 216.608 435 215.936 434.52 215.616 433.56 L 215.072 430.936 C 214.38933 431.61867 213.68534 432.24266 212.96 432.808 C 212.23466 433.37334 211.46134 433.85333 210.64 434.248 C 209.81866 434.64267 208.93334 434.952 207.984 435.176 C 207.03466 435.4 206.016 435.512 204.928 435.512 C 203.136 435.512 201.552 435.208 200.176 434.6 C 198.8 433.992 197.64267 433.13334 196.704 432.024 C 195.76533 430.91466 195.056 429.59734 194.576 428.072 C 194.096 426.54666 193.856 424.8667 193.856 423.032 L 193.856 402.168 Z" fill="#424242"/>
        </g>
        <g id="Graphic_508">
          <rect x="231.424" y="387.448" width="7.904" height="47.552" fill="#424242"/>
        </g>
        <g id="Graphic_509">
          <path d="M 273.984 435 L 270.432 435 C 269.68533 435 269.09867 434.888 268.672 434.664 C 268.24533 434.44 267.92533 433.98667 267.712 433.304 L 267.008 430.968 C 266.176 431.71467 265.36 432.37066 264.56 432.936 C 263.76 433.50134 262.93334 433.976 262.08 434.36 C 261.22666 434.744 260.32 435.032 259.36 435.224 C 258.4 435.416 257.33334 435.512 256.16 435.512 C 254.77333 435.512 253.49334 435.32534 252.32 434.952 C 251.14666 434.57866 250.13867 434.01867 249.296 433.272 C 248.45333 432.52533 247.79734 431.59734 247.328 430.488 C 246.85866 429.37866 246.624 428.088 246.624 426.616 C 246.624 425.37866 246.94933 424.15734 247.6 422.952 C 248.25067 421.74666 249.33333 420.65867 250.848 419.688 C 252.36267 418.71733 254.37865 417.912 256.896 417.272 C 259.41335 416.632 262.53865 416.26933 266.272 416.184 L 266.272 414.264 C 266.272 412.06666 265.808 410.44 264.88 409.384 C 263.952 408.328 262.60268 407.8 260.832 407.8 C 259.552 407.8 258.48534 407.94933 257.632 408.248 C 256.77866 408.54667 256.03734 408.88266 255.408 409.256 C 254.77866 409.62934 254.19734 409.96533 253.664 410.264 C 253.13066 410.56267 252.544 410.712 251.904 410.712 C 251.37066 410.712 250.912 410.57333 250.528 410.296 C 250.144 410.01867 249.83467 409.67734 249.6 409.272 L 248.16 406.744 C 251.93602 403.288 256.49064 401.56 261.824 401.56 C 263.744 401.56 265.456 401.87466 266.96 402.504 C 268.464 403.13334 269.73866 404.008 270.784 405.128 C 271.82934 406.248 272.624 407.58666 273.168 409.144 C 273.712 410.70134 273.984 412.408 273.984 414.264 Z M 258.624 430.072 C 259.43467 430.072 260.18133 429.99733 260.864 429.848 C 261.54667 429.69867 262.192 429.47467 262.8 429.176 C 263.408 428.87733 263.99466 428.50934 264.56 428.072 C 265.12534 427.63466 265.696 427.11734 266.272 426.52 L 266.272 420.984 C 263.968 421.09067 262.04267 421.288 260.496 421.576 C 258.94933 421.864 257.70667 422.232 256.768 422.68 C 255.82933 423.128 255.16267 423.65066 254.768 424.248 C 254.37333 424.84534 254.176 425.496 254.176 426.2 C 254.176 427.58667 254.58666 428.57866 255.408 429.176 C 256.22934 429.77334 257.30133 430.072 258.624 430.072 Z" fill="#424242"/>
        </g>
        <g id="Graphic_510">
          <path d="M 301.248 408.568 C 301.03467 408.90934 300.81067 409.14933 300.576 409.288 C 300.34133 409.42667 300.04267 409.496 299.68 409.496 C 299.296 409.496 298.88534 409.38933 298.448 409.176 C 298.01066 408.96267 297.504 408.72267 296.928 408.456 C 296.352 408.18933 295.696 407.94933 294.96 407.736 C 294.224 407.52267 293.35467 407.416 292.352 407.416 C 290.79466 407.416 289.568 407.74666 288.672 408.408 C 287.776 409.06934 287.328 409.93333 287.328 411 C 287.328 411.704 287.55733 412.296 288.016 412.776 C 288.47467 413.256 289.08266 413.67733 289.84 414.04 C 290.59734 414.40267 291.456 414.728 292.416 415.016 C 293.376 415.304 294.35733 415.61866 295.36 415.96 C 296.36267 416.30134 297.344 416.69066 298.304 417.128 C 299.264 417.56534 300.12266 418.12 300.88 418.792 C 301.63734 419.464 302.24533 420.26933 302.704 421.208 C 303.16267 422.14667 303.392 423.27733 303.392 424.6 C 303.392 426.17867 303.104 427.63466 302.528 428.968 C 301.952 430.30134 301.10934 431.45333 300 432.424 C 298.89066 433.39467 297.52 434.152 295.888 434.696 C 294.256 435.24 292.384 435.512 290.272 435.512 C 289.14133 435.512 288.03734 435.41067 286.96 435.208 C 285.88266 435.00533 284.848 434.72267 283.856 434.36 C 282.864 433.99733 281.94667 433.57067 281.104 433.08 C 280.26133 432.58933 279.52 432.056 278.88 431.48 L 280.704 428.472 C 280.93867 428.10933 281.216 427.832 281.536 427.64 C 281.856 427.448 282.26133 427.352 282.752 427.352 C 283.24267 427.352 283.70666 427.49067 284.144 427.768 C 284.58134 428.04533 285.088 428.344 285.664 428.664 C 286.24 428.984 286.91733 429.28267 287.696 429.56 C 288.47467 429.83733 289.46133 429.976 290.656 429.976 C 291.59467 429.976 292.4 429.864 293.072 429.64 C 293.744 429.416 294.29866 429.12267 294.736 428.76 C 295.17334 428.39733 295.49333 427.976 295.696 427.496 C 295.89867 427.016 296 426.52 296 426.008 C 296 425.24 295.77067 424.61067 295.312 424.12 C 294.85333 423.62933 294.24534 423.20267 293.488 422.84 C 292.73066 422.47733 291.86667 422.152 290.896 421.864 C 289.92533 421.576 288.93334 421.26134 287.92 420.92 C 286.90666 420.57866 285.91467 420.17867 284.944 419.72 C 283.97333 419.26133 283.10934 418.68 282.352 417.976 C 281.59466 417.272 280.98667 416.408 280.528 415.384 C 280.06933 414.36 279.84 413.12267 279.84 411.672 C 279.84 410.328 280.10666 409.048 280.64 407.832 C 281.17334 406.616 281.95733 405.55467 282.992 404.648 C 284.02667 403.74133 285.31733 403.016 286.864 402.472 C 288.41067 401.928 290.19732 401.656 292.224 401.656 C 294.48534 401.656 296.544 402.02933 298.4 402.776 C 300.256 403.52267 301.80266 404.504 303.04 405.72 Z" fill="#424242"/>
        </g>
      </g>
    </g>
  </g>
</svg>
