<?xml version="1.0" encoding="UTF-8" standalone="no"?>
<!DOCTYPE svg PUBLIC "-//W3C//DTD SVG 1.1//EN" "http://www.w3.org/Graphics/SVG/1.1/DTD/svg11.dtd">
<svg xmlns:xl="http://www.w3.org/1999/xlink" xmlns="http://www.w3.org/2000/svg" xmlns:dc="http://purl.org/dc/elements/1.1/" version="1.1" viewBox="0 0 480 600" width="480" height="600">
  <defs/>
  <metadata> Produced by OmniGraffle 7.18.5\n2021-05-31 13:01:48 +0000</metadata>
  <g id="Canvas_1" fill="none" fill-opacity="1" stroke-dasharray="none" stroke-opacity="1" stroke="none">
    <title>Canvas 1</title>
    <g id="Canvas_1_book-base4">
      <title>book-base4</title>
      <g id="Graphic_453">
        <path d="M 12 0 L 468 0 C 474.6274 40581225e-23 480 5.372583 480 12 L 480 588 C 480 594.6274 474.6274 600 468 600 L 12 600 C 5.372583 600 8116245e-22 594.6274 0 588 L 35527137e-21 12 C 3633876e-20 5.372583 5.372583 -40581225e-23 12 0 Z" fill="white"/>
      </g>
    </g>
    <g id="Canvas_1_1a-CAL-nofont">
      <title>1a-CAL-nofont</title>
      <g id="Graphic_237">
        <rect x="0" y="188" width="480" height="10" fill="#ff85ff"/>
      </g>
      <g id="Group_246">
        <title>CALCULUS</title>
        <g id="Graphic_238">
          <path d="M 65.277 546.329 C 65.461 546.329 65.645 546.3635 65.829 546.4325 C 66.013 546.5015 66.18933 546.6203 66.358 546.789 L 69.44 550.032 C 68.09066 551.79534 66.40018 553.1255 64.3685 554.0225 C 62.33682 554.9195 59.93335 555.368 57.158 555.368 C 54.612654 555.368 52.331843 554.93484 50.3155 554.0685 C 48.299157 553.20216 46.589507 552.0062 45.1865 550.4805 C 43.783493 548.9548 42.706337 547.1455 41.955 545.0525 C 41.203663 542.9595 40.828 540.68635 40.828 538.233 C 40.828 535.73365 41.25733 533.4375 42.116 531.3445 C 42.97467 529.2515 44.17449 527.446 45.7155 525.928 C 47.25651 524.41 49.10032 523.22934 51.247 522.386 C 53.39368 521.54266 55.762654 521.121 58.354 521.121 C 59.61134 521.121 60.79583 521.23217 61.9075 521.4545 C 63.01917 521.67683 64.057995 521.9835 65.024 522.3745 C 65.990005 522.7655 66.87933 523.23316 67.692 523.7775 C 68.50467 524.32184 69.22533 524.92366 69.854 525.583 L 67.232 529.102 C 67.06333 529.31667 66.864 529.51217 66.634 529.6885 C 66.404 529.86483 66.082 529.953 65.668 529.953 C 65.392 529.953 65.131335 529.89167 64.886 529.769 C 64.640665 529.64633 64.38 529.49683 64.104 529.3205 C 63.828 529.14417 63.52517 528.9525 63.1955 528.7455 C 62.86583 528.5385 62.474836 528.34683 62.0225 528.1705 C 61.570164 527.99417 61.04117 527.84467 60.4355 527.722 C 59.82983 527.59933 59.12067 527.538 58.308 527.538 C 56.897326 527.538 55.60934 527.78716 54.444 528.2855 C 53.27866 528.78384 52.27817 529.4968 51.4425 530.4245 C 50.60683 531.3522 49.95517 532.4753 49.4875 533.794 C 49.01983 535.1127 48.786 536.5923 48.786 538.233 C 48.786 539.95034 49.01983 541.476 49.4875 542.81 C 49.95517 544.144 50.591496 545.26716 51.3965 546.1795 C 52.201504 547.09184 53.14066 547.78566 54.214 548.261 C 55.28734 548.73634 56.43733 548.974 57.664 548.974 C 58.36934 548.974 59.01333 548.9395 59.596 548.8705 C 60.17867 548.8015 60.719164 548.6827 61.2175 548.514 C 61.715836 548.3453 62.191164 548.12683 62.6435 547.8585 C 63.095836 547.59017 63.552 547.2567 64.012 546.858 C 64.196 546.70467 64.39533 546.57817 64.61 546.4785 C 64.82467 546.37883 65.047 546.329 65.277 546.329 Z" fill="#ff85ff"/>
        </g>
        <g id="Graphic_239">
          <path d="M 107.17 555 L 101.144 555 C 100.46933 555 99.9135 554.84283 99.4765 554.5285 C 99.0395 554.21417 98.73667 553.8117 98.568 553.321 L 96.59 547.479 L 83.848 547.479 L 81.87 553.321 C 81.71667 553.75034 81.41767 554.1375 80.973 554.4825 C 80.52833 554.8275 79.984 555 79.34 555 L 73.268 555 L 86.24 521.489 L 94.198 521.489 Z M 85.642 542.189 L 94.796 542.189 L 91.714 533.012 C 91.51467 532.4293 91.28083 531.7432 91.0125 530.9535 C 90.74417 530.1638 90.47967 529.309 90.219 528.389 C 89.97367 529.32434 89.72067 530.19066 89.46 530.988 C 89.19933 531.78534 88.954 532.4753 88.724 533.058 Z" fill="#ff85ff"/>
        </g>
        <g id="Graphic_240">
          <path d="M 120.658 548.79 L 133.078 548.79 L 133.078 555 L 112.884 555 L 112.884 521.489 L 120.658 521.489 Z" fill="#ff85ff"/>
        </g>
        <g id="Graphic_241">
          <path d="M 160.435 546.329 C 160.619 546.329 160.803 546.3635 160.987 546.4325 C 161.171 546.5015 161.34733 546.6203 161.516 546.789 L 164.598 550.032 C 163.24866 551.79534 161.55818 553.1255 159.5265 554.0225 C 157.49482 554.9195 155.09135 555.368 152.316 555.368 C 149.77065 555.368 147.48984 554.93484 145.4735 554.0685 C 143.45716 553.20216 141.7475 552.0062 140.3445 550.4805 C 138.9415 548.9548 137.86434 547.1455 137.113 545.0525 C 136.36166 542.9595 135.986 540.68635 135.986 538.233 C 135.986 535.73365 136.41533 533.4375 137.274 531.3445 C 138.13267 529.2515 139.3325 527.446 140.8735 525.928 C 142.4145 524.41 144.25832 523.22934 146.405 522.386 C 148.55168 521.54266 150.92065 521.121 153.512 521.121 C 154.76934 521.121 155.95383 521.23217 157.0655 521.4545 C 158.17717 521.67683 159.216 521.9835 160.182 522.3745 C 161.148 522.7655 162.03733 523.23316 162.85 523.7775 C 163.66267 524.32184 164.38333 524.92366 165.012 525.583 L 162.39 529.102 C 162.22133 529.31667 162.022 529.51217 161.792 529.6885 C 161.562 529.86483 161.24 529.953 160.826 529.953 C 160.55 529.953 160.28933 529.89167 160.044 529.769 C 159.79867 529.64633 159.538 529.49683 159.262 529.3205 C 158.986 529.14417 158.68317 528.9525 158.3535 528.7455 C 158.02383 528.5385 157.63284 528.34683 157.1805 528.1705 C 156.72816 527.99417 156.19917 527.84467 155.5935 527.722 C 154.98783 527.59933 154.27867 527.538 153.466 527.538 C 152.05533 527.538 150.76734 527.78716 149.602 528.2855 C 148.43666 528.78384 147.43617 529.4968 146.6005 530.4245 C 145.76483 531.3522 145.11317 532.4753 144.6455 533.794 C 144.17783 535.1127 143.944 536.5923 143.944 538.233 C 143.944 539.95034 144.17783 541.476 144.6455 542.81 C 145.11317 544.144 145.7495 545.26716 146.5545 546.1795 C 147.3595 547.09184 148.29866 547.78566 149.372 548.261 C 150.44534 548.73634 151.59533 548.974 152.822 548.974 C 153.52734 548.974 154.17133 548.9395 154.754 548.8705 C 155.33667 548.8015 155.87716 548.6827 156.3755 548.514 C 156.87384 548.3453 157.34916 548.12683 157.8015 547.8585 C 158.25384 547.59017 158.71 547.2567 159.17 546.858 C 159.354 546.70467 159.55333 546.57817 159.768 546.4785 C 159.98267 546.37883 160.205 546.329 160.435 546.329 Z" fill="#ff85ff"/>
        </g>
        <g id="Graphic_242">
          <path d="M 185.078 548.859 C 186.12067 548.859 187.05216 548.6865 187.8725 548.3415 C 188.69284 547.9965 189.38666 547.502 189.954 546.858 C 190.52134 546.214 190.9545 545.4282 191.2535 544.5005 C 191.5525 543.5728 191.702 542.5187 191.702 541.338 L 191.702 521.489 L 199.476 521.489 L 199.476 541.338 C 199.476 543.3927 199.1425 545.27866 198.4755 546.996 C 197.8085 548.71334 196.854 550.193 195.612 551.435 C 194.37 552.677 192.85968 553.643 191.081 554.333 C 189.30232 555.023 187.30134 555.368 185.078 555.368 C 182.83932 555.368 180.83068 555.023 179.052 554.333 C 177.27332 553.643 175.763 552.677 174.521 551.435 C 173.279 550.193 172.32834 548.71334 171.669 546.996 C 171.00966 545.27866 170.68 543.3927 170.68 541.338 L 170.68 521.489 L 178.454 521.489 L 178.454 541.315 C 178.454 542.4957 178.6035 543.5498 178.9025 544.4775 C 179.2015 545.4052 179.63466 546.1948 180.202 546.8465 C 180.76934 547.4982 181.46316 547.9965 182.2835 548.3415 C 183.10384 548.6865 184.03533 548.859 185.078 548.859 Z" fill="#ff85ff"/>
        </g>
        <g id="Graphic_243">
          <path d="M 215.31 548.79 L 227.73 548.79 L 227.73 555 L 207.536 555 L 207.536 521.489 L 215.31 521.489 Z" fill="#ff85ff"/>
        </g>
        <g id="Graphic_244">
          <path d="M 248.348 548.859 C 249.39067 548.859 250.32216 548.6865 251.1425 548.3415 C 251.96284 547.9965 252.65666 547.502 253.224 546.858 C 253.79134 546.214 254.2245 545.4282 254.5235 544.5005 C 254.8225 543.5728 254.972 542.5187 254.972 541.338 L 254.972 521.489 L 262.746 521.489 L 262.746 541.338 C 262.746 543.3927 262.4125 545.27866 261.7455 546.996 C 261.0785 548.71334 260.124 550.193 258.882 551.435 C 257.64 552.677 256.12968 553.643 254.351 554.333 C 252.57232 555.023 250.57134 555.368 248.348 555.368 C 246.10932 555.368 244.10068 555.023 242.322 554.333 C 240.54332 553.643 239.033 552.677 237.791 551.435 C 236.549 550.193 235.59834 548.71334 234.939 546.996 C 234.27966 545.27866 233.95 543.3927 233.95 541.338 L 233.95 521.489 L 241.724 521.489 L 241.724 541.315 C 241.724 542.4957 241.8735 543.5498 242.1725 544.4775 C 242.4715 545.4052 242.90466 546.1948 243.472 546.8465 C 244.03934 547.4982 244.73316 547.9965 245.5535 548.3415 C 246.37384 548.6865 247.30533 548.859 248.348 548.859 Z" fill="#ff85ff"/>
        </g>
        <g id="Graphic_245">
          <path d="M 289.482 528.297 C 289.252 528.665 289.0105 528.941 288.7575 529.125 C 288.5045 529.309 288.17867 529.401 287.78 529.401 C 287.42733 529.401 287.04784 529.28983 286.6415 529.0675 C 286.23516 528.84517 285.77517 528.596 285.2615 528.32 C 284.74783 528.044 284.16134 527.79483 283.502 527.5725 C 282.84266 527.35017 282.09134 527.239 281.248 527.239 C 279.79133 527.239 278.7065 527.5495 277.9935 528.1705 C 277.2805 528.7915 276.924 529.631 276.924 530.689 C 276.924 531.3637 277.13866 531.9233 277.568 532.368 C 277.99734 532.8127 278.56083 533.196 279.2585 533.518 C 279.95617 533.84 280.7535 534.13517 281.6505 534.4035 C 282.5475 534.67183 283.46366 534.9708 284.399 535.3005 C 285.33434 535.6302 286.2505 536.0173 287.1475 536.462 C 288.0445 536.9067 288.84183 537.474 289.5395 538.164 C 290.23717 538.854 290.80066 539.6935 291.23 540.6825 C 291.65934 541.6715 291.874 542.86366 291.874 544.259 C 291.874 545.8077 291.60567 547.25666 291.069 548.606 C 290.53233 549.95534 289.75417 551.13216 288.7345 552.1365 C 287.71483 553.14084 286.4575 553.9305 284.9625 554.5055 C 283.4675 555.0805 281.76934 555.368 279.868 555.368 C 278.82533 555.368 277.7635 555.2607 276.6825 555.046 C 275.6015 554.8313 274.555 554.5285 273.543 554.1375 C 272.531 553.7465 271.58034 553.2827 270.691 552.746 C 269.80166 552.2093 269.02734 551.61134 268.368 550.952 L 270.668 547.318 C 270.83667 547.042 271.07433 546.8197 271.381 546.651 C 271.68767 546.4823 272.01733 546.398 272.37 546.398 C 272.83 546.398 273.29383 546.54367 273.7615 546.835 C 274.22917 547.12633 274.75816 547.4483 275.3485 547.801 C 275.93884 548.1537 276.61733 548.47567 277.384 548.767 C 278.15067 549.05833 279.05533 549.204 280.098 549.204 C 281.50867 549.204 282.605 548.8935 283.387 548.2725 C 284.169 547.6515 284.56 546.66634 284.56 545.317 C 284.56 544.535 284.34534 543.8987 283.916 543.408 C 283.48666 542.9173 282.92317 542.511 282.2255 542.189 C 281.52783 541.867 280.73434 541.58333 279.845 541.338 C 278.95566 541.09267 278.04334 540.8205 277.108 540.5215 C 276.17266 540.2225 275.26034 539.8545 274.371 539.4175 C 273.48166 538.9805 272.68817 538.4055 271.9905 537.6925 C 271.29283 536.9795 270.72934 536.0902 270.3 535.0245 C 269.87066 533.9588 269.656 532.644 269.656 531.08 C 269.656 529.82266 269.909 528.596 270.415 527.4 C 270.921 526.204 271.66466 525.13834 272.646 524.203 C 273.62734 523.26766 274.831 522.5202 276.257 521.9605 C 277.683 521.4008 279.316 521.121 281.156 521.121 C 282.18334 521.121 283.18383 521.2015 284.1575 521.3625 C 285.13117 521.5235 286.055 521.76117 286.929 522.0755 C 287.803 522.38983 288.6195 522.7655 289.3785 523.2025 C 290.1375 523.6395 290.816 524.134 291.414 524.686 Z" fill="#ff85ff"/>
        </g>
      </g>
    </g>
    <g id="Canvas_1_1a-lde1-nofont">
      <title>1a-lde1-nofont</title>
      <g id="Group_304">
        <title>Linear Differential Equations</title>
        <g id="Graphic_277">
          <path d="M 53.28 273.896 L 71.808 273.896 L 71.808 281 L 44.672 281 L 44.672 234.728 L 53.28 234.728 Z" fill="#424242"/>
        </g>
        <g id="Graphic_278">
          <path d="M 85.728 248.168 L 85.728 281 L 77.824 281 L 77.824 248.168 Z M 86.912 238.6 C 86.912 239.28267 86.77333 239.92266 86.496 240.52 C 86.21867 241.11734 85.85067 241.64 85.392 242.088 C 84.93333 242.536 84.39467 242.89333 83.776 243.16 C 83.15733 243.42667 82.496 243.56 81.792 243.56 C 81.10933 243.56 80.464 243.42667 79.856 243.16 C 79.248 242.89333 78.72 242.536 78.272 242.088 C 77.824 241.64 77.46667 241.11734 77.2 240.52 C 76.93333 239.92266 76.8 239.28267 76.8 238.6 C 76.8 237.896 76.93333 237.23467 77.2 236.616 C 77.46667 235.99733 77.824 235.464 78.272 235.016 C 78.72 234.568 79.248 234.21067 79.856 233.944 C 80.464 233.67733 81.10933 233.544 81.792 233.544 C 82.496 233.544 83.15733 233.67733 83.776 233.944 C 84.39467 234.21067 84.93333 234.568 85.392 235.016 C 85.85067 235.464 86.21867 235.99733 86.496 236.616 C 86.77333 237.23467 86.912 237.896 86.912 238.6 Z" fill="#424242"/>
        </g>
        <g id="Graphic_279">
          <path d="M 94.656 281 L 94.656 248.168 L 99.488 248.168 C 100.512 248.168 101.184 248.648 101.504 249.608 L 102.048 252.2 C 102.70934 251.51733 103.408 250.89867 104.144 250.344 C 104.88 249.78933 105.65866 249.30934 106.48 248.904 C 107.30134 248.49866 108.18133 248.18933 109.12 247.976 C 110.05867 247.76267 111.08266 247.656 112.192 247.656 C 113.98401 247.656 115.57333 247.96 116.96 248.568 C 118.34667 249.176 119.504 250.02933 120.432 251.128 C 121.36 252.22667 122.064 253.53866 122.544 255.064 C 123.024 256.58934 123.264 258.26932 123.264 260.104 L 123.264 281 L 115.36 281 L 115.36 260.104 C 115.36 258.09866 114.896 256.54667 113.968 255.448 C 113.04 254.34933 111.64801 253.8 109.792 253.8 C 108.42666 253.8 107.14667 254.10933 105.952 254.728 C 104.75733 255.34667 103.62667 256.18933 102.56 257.256 L 102.56 281 Z" fill="#424242"/>
        </g>
        <g id="Graphic_280">
          <path d="M 144.608 247.656 C 146.67734 247.656 148.58132 247.98666 150.32 248.648 C 152.05868 249.30934 153.55733 250.27466 154.816 251.544 C 156.07467 252.81334 157.056 254.37066 157.76 256.216 C 158.464 258.06134 158.816 260.168 158.816 262.536 C 158.816 263.13334 158.78933 263.62933 158.736 264.024 C 158.68267 264.41867 158.58667 264.728 158.448 264.952 C 158.30933 265.176 158.12267 265.336 157.888 265.432 C 157.65333 265.528 157.35467 265.576 156.992 265.576 L 136.704 265.576 C 136.93867 268.94668 137.84533 271.42133 139.424 273 C 141.00267 274.57867 143.09332 275.368 145.696 275.368 C 146.976 275.368 148.08 275.21867 149.008 274.92 C 149.936 274.62133 150.74666 274.29067 151.44 273.928 C 152.13334 273.56533 152.74133 273.23467 153.264 272.936 C 153.78667 272.63733 154.29333 272.488 154.784 272.488 C 155.104 272.488 155.38133 272.552 155.616 272.68 C 155.85067 272.808 156.05333 272.98933 156.224 273.224 L 158.528 276.104 C 157.65333 277.128 156.672 277.98666 155.584 278.68 C 154.496 279.37334 153.36 279.928 152.176 280.344 C 150.992 280.76 149.78667 281.05333 148.56 281.224 C 147.33333 281.39467 146.144 281.48 144.992 281.48 C 142.70932 281.48 140.58668 281.10134 138.624 280.344 C 136.66132 279.58666 134.95467 278.46667 133.504 276.984 C 132.05333 275.50133 130.912 273.66668 130.08 271.48 C 129.248 269.29332 128.832 266.76 128.832 263.88 C 128.832 261.64 129.19466 259.53334 129.92 257.56 C 130.64534 255.58666 131.68533 253.86934 133.04 252.408 C 134.39467 250.94666 136.04799 249.78934 138 248.936 C 139.95201 248.08266 142.15465 247.656 144.608 247.656 Z M 144.768 253.32 C 142.46399 253.32 140.66134 253.97066 139.36 255.272 C 138.05866 256.57334 137.22667 258.41865 136.864 260.808 L 151.712 260.808 C 151.712 259.784 151.57333 258.81867 151.296 257.912 C 151.01867 257.00533 150.592 256.21067 150.016 255.528 C 149.44 254.84533 148.71467 254.30667 147.84 253.912 C 146.96533 253.51733 145.94134 253.32 144.768 253.32 Z" fill="#424242"/>
        </g>
        <g id="Graphic_281">
          <path d="M 190.976 281 L 187.424 281 C 186.67733 281 186.09067 280.888 185.664 280.664 C 185.23733 280.44 184.91733 279.98667 184.704 279.304 L 184 276.968 C 183.168 277.71467 182.352 278.37066 181.552 278.936 C 180.752 279.50134 179.92534 279.976 179.072 280.36 C 178.21866 280.744 177.312 281.032 176.352 281.224 C 175.392 281.416 174.32534 281.512 173.152 281.512 C 171.76533 281.512 170.48534 281.32534 169.312 280.952 C 168.13866 280.57866 167.13067 280.01867 166.288 279.272 C 165.44533 278.52533 164.78934 277.59734 164.32 276.488 C 163.85066 275.37866 163.616 274.088 163.616 272.616 C 163.616 271.37866 163.94133 270.15734 164.592 268.952 C 165.24267 267.74666 166.32533 266.65867 167.84 265.688 C 169.35467 264.71733 171.37065 263.912 173.888 263.272 C 176.40535 262.632 179.53065 262.26933 183.264 262.184 L 183.264 260.264 C 183.264 258.06666 182.8 256.44 181.872 255.384 C 180.944 254.328 179.59468 253.8 177.824 253.8 C 176.544 253.8 175.47734 253.94933 174.624 254.248 C 173.77066 254.54667 173.02934 254.88266 172.4 255.256 C 171.77066 255.62934 171.18934 255.96533 170.656 256.264 C 170.12266 256.56267 169.536 256.712 168.896 256.712 C 168.36266 256.712 167.904 256.57333 167.52 256.296 C 167.136 256.01867 166.82667 255.67734 166.592 255.272 L 165.152 252.744 C 168.92802 249.28798 173.48264 247.56 178.816 247.56 C 180.736 247.56 182.448 247.87466 183.952 248.504 C 185.456 249.13334 186.73066 250.008 187.776 251.128 C 188.82134 252.248 189.616 253.58666 190.16 255.144 C 190.704 256.70134 190.976 258.408 190.976 260.264 Z M 175.616 276.072 C 176.42667 276.072 177.17333 275.99733 177.856 275.848 C 178.53867 275.69867 179.184 275.47467 179.792 275.176 C 180.4 274.87733 180.98666 274.50934 181.552 274.072 C 182.11734 273.63466 182.688 273.11734 183.264 272.52 L 183.264 266.984 C 180.95999 267.09067 179.03467 267.288 177.488 267.576 C 175.94133 267.864 174.69867 268.232 173.76 268.68 C 172.82133 269.128 172.15467 269.65066 171.76 270.248 C 171.36533 270.84534 171.168 271.496 171.168 272.2 C 171.168 273.58667 171.57866 274.57866 172.4 275.176 C 173.22134 275.77334 174.29333 276.072 175.616 276.072 Z" fill="#424242"/>
        </g>
        <g id="Graphic_282">
          <path d="M 198.752 281 L 198.752 248.168 L 203.392 248.168 C 204.20267 248.168 204.768 248.31733 205.088 248.616 C 205.408 248.91467 205.62133 249.42666 205.728 250.152 L 206.208 254.12 C 207.38134 252.09332 208.75733 250.49334 210.336 249.32 C 211.91467 248.14666 213.68532 247.56 215.648 247.56 C 217.26934 247.56 218.61333 247.93333 219.68 248.68 L 218.656 254.6 C 218.592 254.984 218.45333 255.256 218.24 255.416 C 218.02667 255.576 217.73867 255.656 217.376 255.656 C 217.056 255.656 216.61867 255.58133 216.064 255.432 C 215.50933 255.28267 214.77334 255.208 213.856 255.208 C 212.21333 255.208 210.80534 255.66133 209.632 256.568 C 208.45866 257.47467 207.46667 258.80266 206.656 260.552 L 206.656 281 Z" fill="#424242"/>
        </g>
        <g id="Graphic_283">
          <path d="M 85.76 334.864 C 85.76 338.256 85.19467 341.37065 84.064 344.208 C 82.93333 347.04535 81.34401 349.488 79.296 351.536 C 77.24799 353.584 74.78401 355.17333 71.904 356.304 C 69.023986 357.43467 65.834684 358 62.336 358 L 44.672 358 L 44.672 311.728 L 62.336 311.728 C 65.834684 311.728 69.023986 312.29866 71.904 313.44 C 74.78401 314.58134 77.24799 316.17066 79.296 318.208 C 81.34401 320.24534 82.93333 322.68265 84.064 325.52 C 85.19467 328.35735 85.76 331.472 85.76 334.864 Z M 76.96 334.864 C 76.96 332.32532 76.61867 330.048 75.936 328.032 C 75.25333 326.016 74.28267 324.30934 73.024 322.912 C 71.76533 321.51466 70.234676 320.44267 68.432 319.696 C 66.629324 318.94933 64.597345 318.576 62.336 318.576 L 53.344 318.576 L 53.344 351.152 L 62.336 351.152 C 64.597345 351.152 66.629324 350.77867 68.432 350.032 C 70.234676 349.28533 71.76533 348.21334 73.024 346.816 C 74.28267 345.41866 75.25333 343.712 75.936 341.696 C 76.61867 339.68 76.96 337.40268 76.96 334.864 Z" fill="#424242"/>
        </g>
        <g id="Graphic_284">
          <path d="M 100.48 325.168 L 100.48 358 L 92.576 358 L 92.576 325.168 Z M 101.664 315.6 C 101.664 316.28267 101.52533 316.92266 101.248 317.52 C 100.97067 318.11734 100.60267 318.64 100.144 319.088 C 99.68533 319.536 99.14667 319.89333 98.528 320.16 C 97.90933 320.42667 97.248 320.56 96.544 320.56 C 95.86133 320.56 95.216 320.42667 94.608 320.16 C 94 319.89333 93.472 319.536 93.024 319.088 C 92.576 318.64 92.21867 318.11734 91.952 317.52 C 91.68533 316.92266 91.552 316.28267 91.552 315.6 C 91.552 314.896 91.68533 314.23467 91.952 313.616 C 92.21867 312.99733 92.576 312.464 93.024 312.016 C 93.472 311.568 94 311.21067 94.608 310.944 C 95.216 310.67733 95.86133 310.544 96.544 310.544 C 97.248 310.544 97.90933 310.67733 98.528 310.944 C 99.14667 311.21067 99.68533 311.568 100.144 312.016 C 100.60267 312.464 100.97067 312.99733 101.248 313.616 C 101.52533 314.23467 101.664 314.896 101.664 315.6 Z" fill="#424242"/>
        </g>
        <g id="Graphic_285">
          <path d="M 110.816 358 L 110.816 331.12 L 107.968 330.672 C 107.34933 330.56533 106.85334 330.352 106.48 330.032 C 106.10666 329.712 105.92 329.264 105.92 328.688 L 105.92 325.456 L 110.816 325.456 L 110.816 323.024 C 110.816 321.14666 111.09866 319.46134 111.664 317.968 C 112.22934 316.47466 113.04 315.20534 114.096 314.16 C 115.152 313.11466 116.43733 312.31467 117.952 311.76 C 119.46667 311.20533 121.17332 310.928 123.072 310.928 C 124.58667 310.928 125.99466 311.13066 127.296 311.536 L 127.136 315.504 C 127.09333 316.12267 126.80534 316.50667 126.272 316.656 C 125.73866 316.80533 125.12 316.88 124.416 316.88 C 123.47733 316.88 122.64 316.98133 121.904 317.184 C 121.168 317.38667 120.544 317.73866 120.032 318.24 C 119.52 318.74134 119.13067 319.40266 118.864 320.224 C 118.59733 321.04534 118.464 322.064 118.464 323.28 L 118.464 325.456 L 127.008 325.456 L 127.008 331.088 L 118.72 331.088 L 118.72 358 Z" fill="#424242"/>
        </g>
        <g id="Graphic_286">
          <path d="M 133.248 358 L 133.248 331.12 L 130.4 330.672 C 129.78133 330.56533 129.28534 330.352 128.912 330.032 C 128.53866 329.712 128.352 329.264 128.352 328.688 L 128.352 325.456 L 133.248 325.456 L 133.248 323.024 C 133.248 321.14666 133.53066 319.46134 134.096 317.968 C 134.66134 316.47466 135.472 315.20534 136.528 314.16 C 137.584 313.11466 138.86933 312.31467 140.384 311.76 C 141.89867 311.20533 143.60532 310.928 145.504 310.928 C 147.01867 310.928 148.42666 311.13066 149.728 311.536 L 149.568 315.504 C 149.52533 316.12267 149.23734 316.50667 148.704 316.656 C 148.17066 316.80533 147.552 316.88 146.848 316.88 C 145.90933 316.88 145.072 316.98133 144.336 317.184 C 143.6 317.38667 142.976 317.73866 142.464 318.24 C 141.952 318.74134 141.56267 319.40266 141.296 320.224 C 141.02933 321.04534 140.896 322.064 140.896 323.28 L 140.896 325.456 L 149.44 325.456 L 149.44 331.088 L 141.152 331.088 L 141.152 358 Z" fill="#424242"/>
        </g>
        <g id="Graphic_287">
          <path d="M 167.84 324.656 C 169.90934 324.656 171.81332 324.98666 173.552 325.648 C 175.29068 326.30934 176.78933 327.27466 178.048 328.544 C 179.30667 329.81334 180.288 331.37066 180.992 333.216 C 181.696 335.06134 182.048 337.168 182.048 339.536 C 182.048 340.13334 182.02133 340.62933 181.968 341.024 C 181.91467 341.41867 181.81867 341.728 181.68 341.952 C 181.54133 342.176 181.35467 342.336 181.12 342.432 C 180.88533 342.528 180.58667 342.576 180.224 342.576 L 159.936 342.576 C 160.17067 345.9467 161.07733 348.42133 162.656 350 C 164.23467 351.57867 166.32532 352.368 168.928 352.368 C 170.208 352.368 171.312 352.21867 172.24 351.92 C 173.168 351.62133 173.97866 351.29067 174.672 350.928 C 175.36534 350.56533 175.97333 350.23467 176.496 349.936 C 177.01867 349.63733 177.52533 349.488 178.016 349.488 C 178.336 349.488 178.61333 349.552 178.848 349.68 C 179.08267 349.808 179.28533 349.98933 179.456 350.224 L 181.76 353.104 C 180.88533 354.128 179.904 354.98666 178.816 355.68 C 177.728 356.37334 176.592 356.928 175.408 357.344 C 174.224 357.76 173.01867 358.05333 171.792 358.224 C 170.56533 358.39467 169.376 358.48 168.224 358.48 C 165.94132 358.48 163.81868 358.10134 161.856 357.344 C 159.89332 356.58666 158.18667 355.46667 156.736 353.984 C 155.28533 352.50133 154.144 350.66668 153.312 348.48 C 152.48 346.29332 152.064 343.76 152.064 340.88 C 152.064 338.64 152.42666 336.53334 153.152 334.56 C 153.87734 332.58666 154.91733 330.86934 156.272 329.408 C 157.62667 327.94666 159.27999 326.78934 161.232 325.936 C 163.18401 325.08266 165.38665 324.656 167.84 324.656 Z M 168 330.32 C 165.69599 330.32 163.89334 330.97066 162.592 332.272 C 161.29066 333.57334 160.45867 335.41865 160.096 337.808 L 174.944 337.808 C 174.944 336.784 174.80533 335.81867 174.528 334.912 C 174.25067 334.00533 173.824 333.21067 173.248 332.528 C 172.672 331.84533 171.94667 331.30667 171.072 330.912 C 170.19733 330.51733 169.17334 330.32 168 330.32 Z" fill="#424242"/>
        </g>
        <g id="Graphic_288">
          <path d="M 188.48 358 L 188.48 325.168 L 193.12 325.168 C 193.93067 325.168 194.496 325.31733 194.816 325.616 C 195.136 325.91467 195.34933 326.42666 195.456 327.152 L 195.936 331.12 C 197.10934 329.09332 198.48533 327.49334 200.064 326.32 C 201.64267 325.14666 203.41332 324.56 205.376 324.56 C 206.99734 324.56 208.34133 324.93333 209.408 325.68 L 208.384 331.6 C 208.32 331.984 208.18133 332.256 207.968 332.416 C 207.75467 332.576 207.46667 332.656 207.104 332.656 C 206.784 332.656 206.34667 332.58133 205.792 332.432 C 205.23733 332.28267 204.50134 332.208 203.584 332.208 C 201.94133 332.208 200.53334 332.66133 199.36 333.568 C 198.18666 334.47467 197.19467 335.80266 196.384 337.552 L 196.384 358 Z" fill="#424242"/>
        </g>
        <g id="Graphic_289">
          <path d="M 228.192 324.656 C 230.26134 324.656 232.16532 324.98666 233.904 325.648 C 235.64268 326.30934 237.14133 327.27466 238.4 328.544 C 239.65867 329.81334 240.64 331.37066 241.344 333.216 C 242.048 335.06134 242.4 337.168 242.4 339.536 C 242.4 340.13334 242.37333 340.62933 242.32 341.024 C 242.26667 341.41867 242.17067 341.728 242.032 341.952 C 241.89333 342.176 241.70667 342.336 241.472 342.432 C 241.23733 342.528 240.93867 342.576 240.576 342.576 L 220.288 342.576 C 220.52267 345.9467 221.42933 348.42133 223.008 350 C 224.58667 351.57867 226.67732 352.368 229.28 352.368 C 230.56 352.368 231.664 352.21867 232.592 351.92 C 233.52 351.62133 234.33066 351.29067 235.024 350.928 C 235.71734 350.56533 236.32533 350.23467 236.848 349.936 C 237.37067 349.63733 237.87733 349.488 238.368 349.488 C 238.688 349.488 238.96533 349.552 239.2 349.68 C 239.43467 349.808 239.63733 349.98933 239.808 350.224 L 242.112 353.104 C 241.23733 354.128 240.256 354.98666 239.168 355.68 C 238.08 356.37334 236.944 356.928 235.76 357.344 C 234.576 357.76 233.37067 358.05333 232.144 358.224 C 230.91733 358.39467 229.728 358.48 228.576 358.48 C 226.29332 358.48 224.17068 358.10134 222.208 357.344 C 220.24532 356.58666 218.53867 355.46667 217.088 353.984 C 215.63733 352.50133 214.496 350.66668 213.664 348.48 C 212.832 346.29332 212.416 343.76 212.416 340.88 C 212.416 338.64 212.77866 336.53334 213.504 334.56 C 214.22934 332.58666 215.26933 330.86934 216.624 329.408 C 217.97867 327.94666 219.632 326.78934 221.584 325.936 C 223.536 325.08266 225.73865 324.656 228.192 324.656 Z M 228.352 330.32 C 226.048 330.32 224.24534 330.97066 222.944 332.272 C 221.64266 333.57334 220.81067 335.41865 220.448 337.808 L 235.296 337.808 C 235.296 336.784 235.15733 335.81867 234.88 334.912 C 234.60267 334.00533 234.176 333.21067 233.6 332.528 C 233.024 331.84533 232.29867 331.30667 231.424 330.912 C 230.54933 330.51733 229.52534 330.32 228.352 330.32 Z" fill="#424242"/>
        </g>
        <g id="Graphic_290">
          <path d="M 248.832 358 L 248.832 325.168 L 253.664 325.168 C 254.688 325.168 255.36 325.648 255.68 326.608 L 256.224 329.2 C 256.88534 328.51733 257.584 327.89867 258.32 327.344 C 259.056 326.78933 259.83466 326.30934 260.656 325.904 C 261.47734 325.49866 262.35733 325.18933 263.296 324.976 C 264.23467 324.76267 265.25866 324.656 266.368 324.656 C 268.16 324.656 269.74933 324.96 271.136 325.568 C 272.52267 326.176 273.68 327.02933 274.608 328.128 C 275.536 329.22667 276.24 330.53866 276.72 332.064 C 277.2 333.58934 277.44 335.26932 277.44 337.104 L 277.44 358 L 269.536 358 L 269.536 337.104 C 269.536 335.09866 269.072 333.54667 268.144 332.448 C 267.216 331.34933 265.824 330.8 263.968 330.8 C 262.60266 330.8 261.32267 331.10933 260.128 331.728 C 258.93333 332.34667 257.80267 333.18933 256.736 334.256 L 256.736 358 Z" fill="#424242"/>
        </g>
        <g id="Graphic_291">
          <path d="M 296 358.512 C 293.16265 358.512 290.976 357.70667 289.44 356.096 C 287.904 354.48533 287.136 352.26135 287.136 349.424 L 287.136 331.088 L 283.808 331.088 C 283.38133 331.088 283.01333 330.94933 282.704 330.672 C 282.39467 330.39467 282.24 329.97867 282.24 329.424 L 282.24 326.288 L 287.52 325.424 L 289.184 316.464 C 289.26933 316.03733 289.46667 315.70667 289.776 315.472 C 290.08533 315.23733 290.47466 315.12 290.944 315.12 L 295.04 315.12 L 295.04 325.456 L 303.68 325.456 L 303.68 331.088 L 295.04 331.088 L 295.04 348.88 C 295.04 349.904 295.296 350.704 295.808 351.28 C 296.32 351.856 297.00266 352.144 297.856 352.144 C 298.34667 352.144 298.75733 352.08533 299.088 351.968 C 299.41867 351.85067 299.70667 351.728 299.952 351.6 C 300.19733 351.472 300.416 351.34933 300.608 351.232 C 300.8 351.11467 300.992 351.056 301.184 351.056 C 301.41867 351.056 301.61067 351.11467 301.76 351.232 C 301.90933 351.34933 302.06933 351.52533 302.24 351.76 L 304.608 355.6 C 303.456 356.56 302.13334 357.28533 300.64 357.776 C 299.14666 358.26667 297.6 358.512 296 358.512 Z" fill="#424242"/>
        </g>
        <g id="Graphic_292">
          <path d="M 318.4 325.168 L 318.4 358 L 310.496 358 L 310.496 325.168 Z M 319.584 315.6 C 319.584 316.28267 319.44533 316.92266 319.168 317.52 C 318.89067 318.11734 318.52267 318.64 318.064 319.088 C 317.60533 319.536 317.06667 319.89333 316.448 320.16 C 315.82933 320.42667 315.168 320.56 314.464 320.56 C 313.78133 320.56 313.136 320.42667 312.528 320.16 C 311.92 319.89333 311.392 319.536 310.944 319.088 C 310.496 318.64 310.13867 318.11734 309.872 317.52 C 309.60533 316.92266 309.472 316.28267 309.472 315.6 C 309.472 314.896 309.60533 314.23467 309.872 313.616 C 310.13867 312.99733 310.496 312.464 310.944 312.016 C 311.392 311.568 311.92 311.21067 312.528 310.944 C 313.136 310.67733 313.78133 310.544 314.464 310.544 C 315.168 310.544 315.82933 310.67733 316.448 310.944 C 317.06667 311.21067 317.60533 311.568 318.064 312.016 C 318.52267 312.464 318.89067 312.99733 319.168 313.616 C 319.44533 314.23467 319.584 314.896 319.584 315.6 Z" fill="#424242"/>
        </g>
        <g id="Graphic_293">
          <path d="M 353.056 358 L 349.504 358 C 348.75733 358 348.17067 357.888 347.744 357.664 C 347.31733 357.44 346.99733 356.98667 346.784 356.304 L 346.08 353.968 C 345.248 354.71467 344.432 355.37066 343.632 355.936 C 342.832 356.50134 342.00534 356.976 341.152 357.36 C 340.29866 357.744 339.392 358.032 338.432 358.224 C 337.472 358.416 336.40534 358.512 335.232 358.512 C 333.84533 358.512 332.56534 358.32534 331.392 357.952 C 330.21866 357.57866 329.21067 357.01867 328.368 356.272 C 327.52533 355.52533 326.86934 354.59734 326.4 353.488 C 325.93066 352.37866 325.696 351.088 325.696 349.616 C 325.696 348.37866 326.02133 347.15734 326.672 345.952 C 327.32267 344.74666 328.40533 343.65867 329.92 342.688 C 331.43467 341.71733 333.45065 340.912 335.968 340.272 C 338.48535 339.632 341.61065 339.26933 345.344 339.184 L 345.344 337.264 C 345.344 335.06666 344.88 333.44 343.952 332.384 C 343.024 331.328 341.67468 330.8 339.904 330.8 C 338.624 330.8 337.55734 330.94933 336.704 331.248 C 335.85066 331.54667 335.10934 331.88266 334.48 332.256 C 333.85066 332.62934 333.26934 332.96533 332.736 333.264 C 332.20266 333.56267 331.616 333.712 330.976 333.712 C 330.44266 333.712 329.984 333.57333 329.6 333.296 C 329.216 333.01867 328.90667 332.67734 328.672 332.272 L 327.232 329.744 C 331.008 326.288 335.56264 324.56 340.896 324.56 C 342.816 324.56 344.528 324.87466 346.032 325.504 C 347.536 326.13334 348.81066 327.008 349.856 328.128 C 350.90134 329.248 351.696 330.58666 352.24 332.144 C 352.784 333.70134 353.056 335.408 353.056 337.264 Z M 337.696 353.072 C 338.50667 353.072 339.25333 352.99733 339.936 352.848 C 340.61867 352.69867 341.264 352.47467 341.872 352.176 C 342.48 351.87733 343.06666 351.50934 343.632 351.072 C 344.19734 350.63466 344.768 350.11734 345.344 349.52 L 345.344 343.984 C 343.04 344.09067 341.11467 344.288 339.568 344.576 C 338.02133 344.864 336.77867 345.232 335.84 345.68 C 334.90133 346.128 334.23467 346.65066 333.84 347.248 C 333.44533 347.84534 333.248 348.496 333.248 349.2 C 333.248 350.58667 333.65866 351.57866 334.48 352.176 C 335.30134 352.77334 336.37333 353.072 337.696 353.072 Z" fill="#424242"/>
        </g>
        <g id="Graphic_294">
          <rect x="361.344" y="310.448" width="7.904" height="47.552" fill="#424242"/>
        </g>
        <g id="Graphic_295">
          <path d="M 73.856 388.728 L 73.856 395.576 L 53.344 395.576 L 53.344 408.408 L 69.504 408.408 L 69.504 415.032 L 53.344 415.032 L 53.344 428.12 L 73.856 428.12 L 73.856 435 L 44.672 435 L 44.672 388.728 Z" fill="#424242"/>
        </g>
        <g id="Graphic_296">
          <path d="M 108.8 402.168 L 108.8 445.72 L 100.896 445.72 L 100.896 430.872 C 100.23466 431.576 99.536 432.21066 98.8 432.776 C 98.064 433.34134 97.28 433.82133 96.448 434.216 C 95.616 434.61067 94.73067 434.92 93.792 435.144 C 92.85333 435.368 91.84 435.48 90.752 435.48 C 88.95999 435.48 87.31734 435.10667 85.824 434.36 C 84.33066 433.61333 83.04534 432.53067 81.968 431.112 C 80.89066 429.69333 80.05867 427.9387 79.472 425.848 C 78.88533 423.7573 78.592 421.368 78.592 418.68 C 78.592 416.248 78.92266 413.9867 79.584 411.896 C 80.24534 409.8053 81.19466 407.992 82.432 406.456 C 83.66934 404.92 85.15199 403.72 86.88 402.856 C 88.60801 401.992 90.54932 401.56 92.704 401.56 C 93.728 401.56 94.66133 401.65067 95.504 401.832 C 96.34667 402.01333 97.12533 402.27466 97.84 402.616 C 98.55467 402.95734 99.21066 403.36266 99.808 403.832 C 100.40534 404.30134 100.98133 404.83466 101.536 405.432 L 101.952 403.608 C 102.05867 403.11733 102.29333 402.75467 102.656 402.52 C 103.01867 402.28533 103.456 402.168 103.968 402.168 Z M 93.44 429.208 C 95.08267 429.208 96.47999 428.86667 97.632 428.184 C 98.784 427.50133 99.872 426.53067 100.896 425.272 L 100.896 410.552 C 100 409.464 99.024 408.696 97.968 408.248 C 96.912 407.8 95.77601 407.576 94.56 407.576 C 93.36533 407.576 92.28267 407.8 91.312 408.248 C 90.34133 408.696 89.52 409.37333 88.848 410.28 C 88.176 411.18667 87.65867 412.33866 87.296 413.736 C 86.93333 415.13334 86.752 416.7813 86.752 418.68 C 86.752 420.6 86.90667 422.22666 87.216 423.56 C 87.52533 424.89334 87.968 425.98133 88.544 426.824 C 89.12 427.66667 89.824 428.27466 90.656 428.648 C 91.488 429.02134 92.416 429.208 93.44 429.208 Z" fill="#424242"/>
        </g>
        <g id="Graphic_297">
          <path d="M 124.576 402.168 L 124.576 423.032 C 124.576 425.03734 125.04 426.58933 125.968 427.688 C 126.896 428.78667 128.28799 429.336 130.144 429.336 C 131.50934 429.336 132.78933 429.032 133.984 428.424 C 135.17867 427.816 136.30933 426.97867 137.376 425.912 L 137.376 402.168 L 145.28 402.168 L 145.28 435 L 140.448 435 C 139.424 435 138.752 434.52 138.432 433.56 L 137.888 430.936 C 137.20533 431.61867 136.50134 432.24266 135.776 432.808 C 135.05066 433.37334 134.27734 433.85333 133.456 434.248 C 132.63466 434.64267 131.74934 434.952 130.8 435.176 C 129.85066 435.4 128.832 435.512 127.744 435.512 C 125.95199 435.512 124.368 435.208 122.992 434.6 C 121.616 433.992 120.45867 433.13334 119.52 432.024 C 118.58133 430.91466 117.872 429.59734 117.392 428.072 C 116.912 426.54666 116.672 424.8667 116.672 423.032 L 116.672 402.168 Z" fill="#424242"/>
        </g>
        <g id="Graphic_298">
          <path d="M 179.456 435 L 175.904 435 C 175.15733 435 174.57067 434.888 174.144 434.664 C 173.71733 434.44 173.39733 433.98667 173.184 433.304 L 172.48 430.968 C 171.648 431.71467 170.832 432.37066 170.032 432.936 C 169.232 433.50134 168.40534 433.976 167.552 434.36 C 166.69866 434.744 165.792 435.032 164.832 435.224 C 163.872 435.416 162.80534 435.512 161.632 435.512 C 160.24533 435.512 158.96534 435.32534 157.792 434.952 C 156.61866 434.57866 155.61067 434.01867 154.768 433.272 C 153.92533 432.52533 153.26934 431.59734 152.8 430.488 C 152.33066 429.37866 152.096 428.088 152.096 426.616 C 152.096 425.37866 152.42133 424.15734 153.072 422.952 C 153.72267 421.74666 154.80533 420.65867 156.32 419.688 C 157.83467 418.71733 159.85065 417.912 162.368 417.272 C 164.88535 416.632 168.01065 416.26933 171.744 416.184 L 171.744 414.264 C 171.744 412.06666 171.28 410.44 170.352 409.384 C 169.424 408.328 168.07468 407.8 166.304 407.8 C 165.024 407.8 163.95734 407.94933 163.104 408.248 C 162.25066 408.54667 161.50934 408.88266 160.88 409.256 C 160.25066 409.62934 159.66934 409.96533 159.136 410.264 C 158.60266 410.56267 158.016 410.712 157.376 410.712 C 156.84266 410.712 156.384 410.57333 156 410.296 C 155.616 410.01867 155.30667 409.67734 155.072 409.272 L 153.632 406.744 C 157.40802 403.288 161.96264 401.56 167.296 401.56 C 169.216 401.56 170.928 401.87466 172.432 402.504 C 173.936 403.13334 175.21066 404.008 176.256 405.128 C 177.30134 406.248 178.096 407.58666 178.64 409.144 C 179.184 410.70134 179.456 412.408 179.456 414.264 Z M 164.096 430.072 C 164.90667 430.072 165.65333 429.99733 166.336 429.848 C 167.01867 429.69867 167.664 429.47467 168.272 429.176 C 168.88 428.87733 169.46666 428.50934 170.032 428.072 C 170.59734 427.63466 171.168 427.11734 171.744 426.52 L 171.744 420.984 C 169.43999 421.09067 167.51467 421.288 165.968 421.576 C 164.42133 421.864 163.17867 422.232 162.24 422.68 C 161.30133 423.128 160.63467 423.65066 160.24 424.248 C 159.84533 424.84534 159.648 425.496 159.648 426.2 C 159.648 427.58667 160.05866 428.57866 160.88 429.176 C 161.70134 429.77334 162.77333 430.072 164.096 430.072 Z" fill="#424242"/>
        </g>
        <g id="Graphic_299">
          <path d="M 198.016 435.512 C 195.17865 435.512 192.992 434.7067 191.456 433.096 C 189.92 431.4853 189.152 429.26135 189.152 426.424 L 189.152 408.088 L 185.824 408.088 C 185.39733 408.088 185.02933 407.94933 184.72 407.672 C 184.41067 407.39467 184.256 406.97867 184.256 406.424 L 184.256 403.288 L 189.536 402.424 L 191.2 393.464 C 191.28533 393.03733 191.48267 392.70667 191.792 392.472 C 192.10133 392.23733 192.49066 392.12 192.96 392.12 L 197.056 392.12 L 197.056 402.456 L 205.696 402.456 L 205.696 408.088 L 197.056 408.088 L 197.056 425.88 C 197.056 426.904 197.312 427.704 197.824 428.28 C 198.336 428.856 199.01866 429.144 199.872 429.144 C 200.36267 429.144 200.77333 429.08533 201.104 428.968 C 201.43467 428.85067 201.72267 428.728 201.968 428.6 C 202.21333 428.472 202.432 428.34933 202.624 428.232 C 202.816 428.11467 203.008 428.056 203.2 428.056 C 203.43467 428.056 203.62667 428.11467 203.776 428.232 C 203.92533 428.34933 204.08533 428.52533 204.256 428.76 L 206.624 432.6 C 205.472 433.56 204.14934 434.28533 202.656 434.776 C 201.16266 435.26667 199.616 435.512 198.016 435.512 Z" fill="#424242"/>
        </g>
        <g id="Graphic_300">
          <path d="M 220.416 402.168 L 220.416 435 L 212.512 435 L 212.512 402.168 Z M 221.6 392.6 C 221.6 393.28267 221.46133 393.92266 221.184 394.52 C 220.90667 395.11734 220.53867 395.64 220.08 396.088 C 219.62133 396.536 219.08267 396.89333 218.464 397.16 C 217.84533 397.42667 217.184 397.56 216.48 397.56 C 215.79733 397.56 215.152 397.42667 214.544 397.16 C 213.936 396.89333 213.408 396.536 212.96 396.088 C 212.512 395.64 212.15467 395.11734 211.888 394.52 C 211.62133 393.92266 211.488 393.28267 211.488 392.6 C 211.488 391.896 211.62133 391.23467 211.888 390.616 C 212.15467 389.99733 212.512 389.464 212.96 389.016 C 213.408 388.568 213.936 388.21067 214.544 387.944 C 215.152 387.67733 215.79733 387.544 216.48 387.544 C 217.184 387.544 217.84533 387.67733 218.464 387.944 C 219.08267 388.21067 219.62133 388.568 220.08 389.016 C 220.53867 389.464 220.90667 389.99733 221.184 390.616 C 221.46133 391.23467 221.6 391.896 221.6 392.6 Z" fill="#424242"/>
        </g>
        <g id="Graphic_301">
          <path d="M 243.36 401.656 C 245.81335 401.656 248.03732 402.05066 250.032 402.84 C 252.02668 403.62934 253.728 404.74933 255.136 406.2 C 256.544 407.65067 257.632 409.4213 258.4 411.512 C 259.168 413.6027 259.552 415.93865 259.552 418.52 C 259.552 421.1227 259.168 423.4693 258.4 425.56 C 257.632 427.6507 256.544 429.432 255.136 430.904 C 253.728 432.376 252.02668 433.50666 250.032 434.296 C 248.03732 435.08534 245.81335 435.48 243.36 435.48 C 240.90665 435.48 238.67734 435.08534 236.672 434.296 C 234.66666 433.50666 232.95467 432.376 231.536 430.904 C 230.11733 429.432 229.01867 427.6507 228.24 425.56 C 227.46133 423.4693 227.072 421.1227 227.072 418.52 C 227.072 415.93865 227.46133 413.6027 228.24 411.512 C 229.01867 409.4213 230.11733 407.65067 231.536 406.2 C 232.95467 404.74933 234.66666 403.62934 236.672 402.84 C 238.67734 402.05066 240.90665 401.656 243.36 401.656 Z M 243.36 429.4 C 246.09068 429.4 248.112 428.4827 249.424 426.648 C 250.736 424.8133 251.392 422.12535 251.392 418.584 C 251.392 415.04265 250.736 412.344 249.424 410.488 C 248.112 408.632 246.09068 407.704 243.36 407.704 C 240.58665 407.704 238.53867 408.6373 237.216 410.504 C 235.89333 412.3707 235.232 415.064 235.232 418.584 C 235.232 422.104 235.89333 424.78666 237.216 426.632 C 238.53867 428.47734 240.58665 429.4 243.36 429.4 Z" fill="#424242"/>
        </g>
        <g id="Graphic_302">
          <path d="M 265.728 435 L 265.728 402.168 L 270.56 402.168 C 271.584 402.168 272.256 402.648 272.576 403.608 L 273.12 406.2 C 273.78134 405.51733 274.48 404.89867 275.216 404.344 C 275.952 403.78933 276.73066 403.30934 277.552 402.904 C 278.37334 402.49866 279.25333 402.18933 280.192 401.976 C 281.13067 401.76267 282.15466 401.656 283.264 401.656 C 285.056 401.656 286.64533 401.96 288.032 402.568 C 289.41867 403.176 290.576 404.02933 291.504 405.128 C 292.432 406.22667 293.136 407.53866 293.616 409.064 C 294.096 410.58934 294.336 412.2693 294.336 414.104 L 294.336 435 L 286.432 435 L 286.432 414.104 C 286.432 412.09866 285.968 410.54667 285.04 409.448 C 284.112 408.34933 282.72 407.8 280.864 407.8 C 279.49866 407.8 278.21867 408.10933 277.024 408.728 C 275.82933 409.34667 274.69867 410.18933 273.632 411.256 L 273.632 435 Z" fill="#424242"/>
        </g>
        <g id="Graphic_303">
          <path d="M 321.6 408.568 C 321.38667 408.90934 321.16267 409.14933 320.928 409.288 C 320.69333 409.42667 320.39467 409.496 320.032 409.496 C 319.648 409.496 319.23734 409.38933 318.8 409.176 C 318.36266 408.96267 317.856 408.72267 317.28 408.456 C 316.704 408.18933 316.048 407.94933 315.312 407.736 C 314.576 407.52267 313.70667 407.416 312.704 407.416 C 311.14666 407.416 309.92 407.74666 309.024 408.408 C 308.128 409.06934 307.68 409.93333 307.68 411 C 307.68 411.704 307.90933 412.296 308.368 412.776 C 308.82667 413.256 309.43466 413.67733 310.192 414.04 C 310.94934 414.40267 311.808 414.728 312.768 415.016 C 313.728 415.304 314.70933 415.61866 315.712 415.96 C 316.71467 416.30134 317.696 416.69066 318.656 417.128 C 319.616 417.56534 320.47466 418.12 321.232 418.792 C 321.98934 419.464 322.59733 420.26933 323.056 421.208 C 323.51467 422.14667 323.744 423.27733 323.744 424.6 C 323.744 426.17867 323.456 427.63466 322.88 428.968 C 322.304 430.30134 321.46134 431.45333 320.352 432.424 C 319.24266 433.39467 317.872 434.152 316.24 434.696 C 314.608 435.24 312.736 435.512 310.624 435.512 C 309.49333 435.512 308.38934 435.41067 307.312 435.208 C 306.23466 435.00533 305.2 434.72267 304.208 434.36 C 303.216 433.99733 302.29867 433.57067 301.456 433.08 C 300.61333 432.58933 299.872 432.056 299.232 431.48 L 301.056 428.472 C 301.29067 428.10933 301.568 427.832 301.888 427.64 C 302.208 427.448 302.61333 427.352 303.104 427.352 C 303.59467 427.352 304.05866 427.49067 304.496 427.768 C 304.93334 428.04533 305.44 428.344 306.016 428.664 C 306.592 428.984 307.26933 429.28267 308.048 429.56 C 308.82667 429.83733 309.81333 429.976 311.008 429.976 C 311.94667 429.976 312.752 429.864 313.424 429.64 C 314.096 429.416 314.65066 429.12267 315.088 428.76 C 315.52534 428.39733 315.84533 427.976 316.048 427.496 C 316.25067 427.016 316.352 426.52 316.352 426.008 C 316.352 425.24 316.12267 424.61067 315.664 424.12 C 315.20533 423.62933 314.59734 423.20267 313.84 422.84 C 313.08266 422.47733 312.21867 422.152 311.248 421.864 C 310.27733 421.576 309.28534 421.26134 308.272 420.92 C 307.25866 420.57866 306.26667 420.17867 305.296 419.72 C 304.32533 419.26133 303.46134 418.68 302.704 417.976 C 301.94666 417.272 301.33867 416.408 300.88 415.384 C 300.42133 414.36 300.192 413.12267 300.192 411.672 C 300.192 410.328 300.45866 409.048 300.992 407.832 C 301.52534 406.616 302.30933 405.55467 303.344 404.648 C 304.37867 403.74133 305.66933 403.016 307.216 402.472 C 308.76267 401.928 310.54932 401.656 312.576 401.656 C 314.83734 401.656 316.896 402.02933 318.752 402.776 C 320.608 403.52267 322.15466 404.504 323.392 405.72 Z" fill="#424242"/>
        </g>
      </g>
    </g>
  </g>
</svg>
