<?xml version="1.0" encoding="UTF-8" standalone="no"?>
<!DOCTYPE svg PUBLIC "-//W3C//DTD SVG 1.1//EN" "http://www.w3.org/Graphics/SVG/1.1/DTD/svg11.dtd">
<svg xmlns:xl="http://www.w3.org/1999/xlink" xmlns="http://www.w3.org/2000/svg" xmlns:dc="http://purl.org/dc/elements/1.1/" version="1.1" viewBox="0 0 480 600" width="480" height="600">
  <defs/>
  <metadata> Produced by OmniGraffle 7.18.5\n2021-05-31 10:11:19 +0000</metadata>
  <g id="Canvas_1" fill="none" fill-opacity="1" stroke-dasharray="none" stroke-opacity="1" stroke="none">
    <title>Canvas 1</title>
    <g id="Canvas_1_book-base4">
      <title>book-base4</title>
      <g id="Graphic_453">
        <path d="M 12 0 L 468 0 C 474.6274 40581225e-23 480 5.372583 480 12 L 480 588 C 480 594.6274 474.6274 600 468 600 L 12 600 C 5.372583 600 8116245e-22 594.6274 0 588 L 35527137e-21 12 C 3633876e-20 5.372583 5.372583 -40581225e-23 12 0 Z" fill="white"/>
      </g>
    </g>
    <g id="Canvas_1_1a-CAL-nofont">
      <title>1a-CAL-nofont</title>
      <g id="Graphic_237">
        <rect x="0" y="188" width="480" height="10" fill="#ff85ff"/>
      </g>
      <g id="Group_246">
        <title>CALCULUS</title>
        <g id="Graphic_238">
          <path d="M 65.277 546.329 C 65.461 546.329 65.645 546.3635 65.829 546.4325 C 66.013 546.5015 66.18933 546.6203 66.358 546.789 L 69.44 550.032 C 68.09066 551.79534 66.40018 553.1255 64.3685 554.0225 C 62.33682 554.9195 59.93335 555.368 57.158 555.368 C 54.612654 555.368 52.331843 554.93484 50.3155 554.0685 C 48.299157 553.20216 46.589507 552.0062 45.1865 550.4805 C 43.783493 548.9548 42.706337 547.1455 41.955 545.0525 C 41.203663 542.9595 40.828 540.68635 40.828 538.233 C 40.828 535.73365 41.25733 533.4375 42.116 531.3445 C 42.97467 529.2515 44.17449 527.446 45.7155 525.928 C 47.25651 524.41 49.10032 523.22934 51.247 522.386 C 53.39368 521.54266 55.762654 521.121 58.354 521.121 C 59.61134 521.121 60.79583 521.23217 61.9075 521.4545 C 63.01917 521.67683 64.057995 521.9835 65.024 522.3745 C 65.990005 522.7655 66.87933 523.23316 67.692 523.7775 C 68.50467 524.32184 69.22533 524.92366 69.854 525.583 L 67.232 529.102 C 67.06333 529.31667 66.864 529.51217 66.634 529.6885 C 66.404 529.86483 66.082 529.953 65.668 529.953 C 65.392 529.953 65.131335 529.89167 64.886 529.769 C 64.640665 529.64633 64.38 529.49683 64.104 529.3205 C 63.828 529.14417 63.52517 528.9525 63.1955 528.7455 C 62.86583 528.5385 62.474836 528.34683 62.0225 528.1705 C 61.570164 527.99417 61.04117 527.84467 60.4355 527.722 C 59.82983 527.59933 59.12067 527.538 58.308 527.538 C 56.897326 527.538 55.60934 527.78716 54.444 528.2855 C 53.27866 528.78384 52.27817 529.4968 51.4425 530.4245 C 50.60683 531.3522 49.95517 532.4753 49.4875 533.794 C 49.01983 535.1127 48.786 536.5923 48.786 538.233 C 48.786 539.95034 49.01983 541.476 49.4875 542.81 C 49.95517 544.144 50.591496 545.26716 51.3965 546.1795 C 52.201504 547.09184 53.14066 547.78566 54.214 548.261 C 55.28734 548.73634 56.43733 548.974 57.664 548.974 C 58.36934 548.974 59.01333 548.9395 59.596 548.8705 C 60.17867 548.8015 60.719164 548.6827 61.2175 548.514 C 61.715836 548.3453 62.191164 548.12683 62.6435 547.8585 C 63.095836 547.59017 63.552 547.2567 64.012 546.858 C 64.196 546.70467 64.39533 546.57817 64.61 546.4785 C 64.82467 546.37883 65.047 546.329 65.277 546.329 Z" fill="#ff85ff"/>
        </g>
        <g id="Graphic_239">
          <path d="M 107.17 555 L 101.144 555 C 100.46933 555 99.9135 554.84283 99.4765 554.5285 C 99.0395 554.21417 98.73667 553.8117 98.568 553.321 L 96.59 547.479 L 83.848 547.479 L 81.87 553.321 C 81.71667 553.75034 81.41767 554.1375 80.973 554.4825 C 80.52833 554.8275 79.984 555 79.34 555 L 73.268 555 L 86.24 521.489 L 94.198 521.489 Z M 85.642 542.189 L 94.796 542.189 L 91.714 533.012 C 91.51467 532.4293 91.28083 531.7432 91.0125 530.9535 C 90.74417 530.1638 90.47967 529.309 90.219 528.389 C 89.97367 529.32434 89.72067 530.19066 89.46 530.988 C 89.19933 531.78534 88.954 532.4753 88.724 533.058 Z" fill="#ff85ff"/>
        </g>
        <g id="Graphic_240">
          <path d="M 120.658 548.79 L 133.078 548.79 L 133.078 555 L 112.884 555 L 112.884 521.489 L 120.658 521.489 Z" fill="#ff85ff"/>
        </g>
        <g id="Graphic_241">
          <path d="M 160.435 546.329 C 160.619 546.329 160.803 546.3635 160.987 546.4325 C 161.171 546.5015 161.34733 546.6203 161.516 546.789 L 164.598 550.032 C 163.24866 551.79534 161.55818 553.1255 159.5265 554.0225 C 157.49482 554.9195 155.09135 555.368 152.316 555.368 C 149.77065 555.368 147.48984 554.93484 145.4735 554.0685 C 143.45716 553.20216 141.7475 552.0062 140.3445 550.4805 C 138.9415 548.9548 137.86434 547.1455 137.113 545.0525 C 136.36166 542.9595 135.986 540.68635 135.986 538.233 C 135.986 535.73365 136.41533 533.4375 137.274 531.3445 C 138.13267 529.2515 139.3325 527.446 140.8735 525.928 C 142.4145 524.41 144.25832 523.22934 146.405 522.386 C 148.55168 521.54266 150.92065 521.121 153.512 521.121 C 154.76934 521.121 155.95383 521.23217 157.0655 521.4545 C 158.17717 521.67683 159.216 521.9835 160.182 522.3745 C 161.148 522.7655 162.03733 523.23316 162.85 523.7775 C 163.66267 524.32184 164.38333 524.92366 165.012 525.583 L 162.39 529.102 C 162.22133 529.31667 162.022 529.51217 161.792 529.6885 C 161.562 529.86483 161.24 529.953 160.826 529.953 C 160.55 529.953 160.28933 529.89167 160.044 529.769 C 159.79867 529.64633 159.538 529.49683 159.262 529.3205 C 158.986 529.14417 158.68317 528.9525 158.3535 528.7455 C 158.02383 528.5385 157.63284 528.34683 157.1805 528.1705 C 156.72816 527.99417 156.19917 527.84467 155.5935 527.722 C 154.98783 527.59933 154.27867 527.538 153.466 527.538 C 152.05533 527.538 150.76734 527.78716 149.602 528.2855 C 148.43666 528.78384 147.43617 529.4968 146.6005 530.4245 C 145.76483 531.3522 145.11317 532.4753 144.6455 533.794 C 144.17783 535.1127 143.944 536.5923 143.944 538.233 C 143.944 539.95034 144.17783 541.476 144.6455 542.81 C 145.11317 544.144 145.7495 545.26716 146.5545 546.1795 C 147.3595 547.09184 148.29866 547.78566 149.372 548.261 C 150.44534 548.73634 151.59533 548.974 152.822 548.974 C 153.52734 548.974 154.17133 548.9395 154.754 548.8705 C 155.33667 548.8015 155.87716 548.6827 156.3755 548.514 C 156.87384 548.3453 157.34916 548.12683 157.8015 547.8585 C 158.25384 547.59017 158.71 547.2567 159.17 546.858 C 159.354 546.70467 159.55333 546.57817 159.768 546.4785 C 159.98267 546.37883 160.205 546.329 160.435 546.329 Z" fill="#ff85ff"/>
        </g>
        <g id="Graphic_242">
          <path d="M 185.078 548.859 C 186.12067 548.859 187.05216 548.6865 187.8725 548.3415 C 188.69284 547.9965 189.38666 547.502 189.954 546.858 C 190.52134 546.214 190.9545 545.4282 191.2535 544.5005 C 191.5525 543.5728 191.702 542.5187 191.702 541.338 L 191.702 521.489 L 199.476 521.489 L 199.476 541.338 C 199.476 543.3927 199.1425 545.27866 198.4755 546.996 C 197.8085 548.71334 196.854 550.193 195.612 551.435 C 194.37 552.677 192.85968 553.643 191.081 554.333 C 189.30232 555.023 187.30134 555.368 185.078 555.368 C 182.83932 555.368 180.83068 555.023 179.052 554.333 C 177.27332 553.643 175.763 552.677 174.521 551.435 C 173.279 550.193 172.32834 548.71334 171.669 546.996 C 171.00966 545.27866 170.68 543.3927 170.68 541.338 L 170.68 521.489 L 178.454 521.489 L 178.454 541.315 C 178.454 542.4957 178.6035 543.5498 178.9025 544.4775 C 179.2015 545.4052 179.63466 546.1948 180.202 546.8465 C 180.76934 547.4982 181.46316 547.9965 182.2835 548.3415 C 183.10384 548.6865 184.03533 548.859 185.078 548.859 Z" fill="#ff85ff"/>
        </g>
        <g id="Graphic_243">
          <path d="M 215.31 548.79 L 227.73 548.79 L 227.73 555 L 207.536 555 L 207.536 521.489 L 215.31 521.489 Z" fill="#ff85ff"/>
        </g>
        <g id="Graphic_244">
          <path d="M 248.348 548.859 C 249.39067 548.859 250.32216 548.6865 251.1425 548.3415 C 251.96284 547.9965 252.65666 547.502 253.224 546.858 C 253.79134 546.214 254.2245 545.4282 254.5235 544.5005 C 254.8225 543.5728 254.972 542.5187 254.972 541.338 L 254.972 521.489 L 262.746 521.489 L 262.746 541.338 C 262.746 543.3927 262.4125 545.27866 261.7455 546.996 C 261.0785 548.71334 260.124 550.193 258.882 551.435 C 257.64 552.677 256.12968 553.643 254.351 554.333 C 252.57232 555.023 250.57134 555.368 248.348 555.368 C 246.10932 555.368 244.10068 555.023 242.322 554.333 C 240.54332 553.643 239.033 552.677 237.791 551.435 C 236.549 550.193 235.59834 548.71334 234.939 546.996 C 234.27966 545.27866 233.95 543.3927 233.95 541.338 L 233.95 521.489 L 241.724 521.489 L 241.724 541.315 C 241.724 542.4957 241.8735 543.5498 242.1725 544.4775 C 242.4715 545.4052 242.90466 546.1948 243.472 546.8465 C 244.03934 547.4982 244.73316 547.9965 245.5535 548.3415 C 246.37384 548.6865 247.30533 548.859 248.348 548.859 Z" fill="#ff85ff"/>
        </g>
        <g id="Graphic_245">
          <path d="M 289.482 528.297 C 289.252 528.665 289.0105 528.941 288.7575 529.125 C 288.5045 529.309 288.17867 529.401 287.78 529.401 C 287.42733 529.401 287.04784 529.28983 286.6415 529.0675 C 286.23516 528.84517 285.77517 528.596 285.2615 528.32 C 284.74783 528.044 284.16134 527.79483 283.502 527.5725 C 282.84266 527.35017 282.09134 527.239 281.248 527.239 C 279.79133 527.239 278.7065 527.5495 277.9935 528.1705 C 277.2805 528.7915 276.924 529.631 276.924 530.689 C 276.924 531.3637 277.13866 531.9233 277.568 532.368 C 277.99734 532.8127 278.56083 533.196 279.2585 533.518 C 279.95617 533.84 280.7535 534.13517 281.6505 534.4035 C 282.5475 534.67183 283.46366 534.9708 284.399 535.3005 C 285.33434 535.6302 286.2505 536.0173 287.1475 536.462 C 288.0445 536.9067 288.84183 537.474 289.5395 538.164 C 290.23717 538.854 290.80066 539.6935 291.23 540.6825 C 291.65934 541.6715 291.874 542.86366 291.874 544.259 C 291.874 545.8077 291.60567 547.25666 291.069 548.606 C 290.53233 549.95534 289.75417 551.13216 288.7345 552.1365 C 287.71483 553.14084 286.4575 553.9305 284.9625 554.5055 C 283.4675 555.0805 281.76934 555.368 279.868 555.368 C 278.82533 555.368 277.7635 555.2607 276.6825 555.046 C 275.6015 554.8313 274.555 554.5285 273.543 554.1375 C 272.531 553.7465 271.58034 553.2827 270.691 552.746 C 269.80166 552.2093 269.02734 551.61134 268.368 550.952 L 270.668 547.318 C 270.83667 547.042 271.07433 546.8197 271.381 546.651 C 271.68767 546.4823 272.01733 546.398 272.37 546.398 C 272.83 546.398 273.29383 546.54367 273.7615 546.835 C 274.22917 547.12633 274.75816 547.4483 275.3485 547.801 C 275.93884 548.1537 276.61733 548.47567 277.384 548.767 C 278.15067 549.05833 279.05533 549.204 280.098 549.204 C 281.50867 549.204 282.605 548.8935 283.387 548.2725 C 284.169 547.6515 284.56 546.66634 284.56 545.317 C 284.56 544.535 284.34534 543.8987 283.916 543.408 C 283.48666 542.9173 282.92317 542.511 282.2255 542.189 C 281.52783 541.867 280.73434 541.58333 279.845 541.338 C 278.95566 541.09267 278.04334 540.8205 277.108 540.5215 C 276.17266 540.2225 275.26034 539.8545 274.371 539.4175 C 273.48166 538.9805 272.68817 538.4055 271.9905 537.6925 C 271.29283 536.9795 270.72934 536.0902 270.3 535.0245 C 269.87066 533.9588 269.656 532.644 269.656 531.08 C 269.656 529.82266 269.909 528.596 270.415 527.4 C 270.921 526.204 271.66466 525.13834 272.646 524.203 C 273.62734 523.26766 274.831 522.5202 276.257 521.9605 C 277.683 521.4008 279.316 521.121 281.156 521.121 C 282.18334 521.121 283.18383 521.2015 284.1575 521.3625 C 285.13117 521.5235 286.055 521.76117 286.929 522.0755 C 287.803 522.38983 288.6195 522.7655 289.3785 523.2025 C 290.1375 523.6395 290.816 524.134 291.414 524.686 Z" fill="#ff85ff"/>
        </g>
      </g>
    </g>
    <g id="Canvas_1_1a-lwl1-nofont">
      <title>1a-lwl1-nofont</title>
      <g id="Group_362">
        <title>Limits with L’Hospital</title>
        <g id="Graphic_342">
          <path d="M 53.28 273.896 L 71.808 273.896 L 71.808 281 L 44.672 281 L 44.672 234.728 L 53.28 234.728 Z" fill="#424242"/>
        </g>
        <g id="Graphic_343">
          <path d="M 85.728 248.168 L 85.728 281 L 77.824 281 L 77.824 248.168 Z M 86.912 238.6 C 86.912 239.28267 86.77333 239.92266 86.496 240.52 C 86.21867 241.11734 85.85067 241.64 85.392 242.088 C 84.93333 242.536 84.39467 242.89333 83.776 243.16 C 83.15733 243.42667 82.496 243.56 81.792 243.56 C 81.10933 243.56 80.464 243.42667 79.856 243.16 C 79.248 242.89333 78.72 242.536 78.272 242.088 C 77.824 241.64 77.46667 241.11734 77.2 240.52 C 76.93333 239.92266 76.8 239.28267 76.8 238.6 C 76.8 237.896 76.93333 237.23467 77.2 236.616 C 77.46667 235.99733 77.824 235.464 78.272 235.016 C 78.72 234.568 79.248 234.21067 79.856 233.944 C 80.464 233.67733 81.10933 233.544 81.792 233.544 C 82.496 233.544 83.15733 233.67733 83.776 233.944 C 84.39467 234.21067 84.93333 234.568 85.392 235.016 C 85.85067 235.464 86.21867 235.99733 86.496 236.616 C 86.77333 237.23467 86.912 237.896 86.912 238.6 Z" fill="#424242"/>
        </g>
        <g id="Graphic_344">
          <path d="M 94.656 281 L 94.656 248.168 L 99.488 248.168 C 100.512 248.168 101.184 248.648 101.504 249.608 L 102.016 252.04 C 102.592 251.4 103.19466 250.81334 103.824 250.28 C 104.45334 249.74666 105.12533 249.288 105.84 248.904 C 106.55467 248.52 107.32266 248.216 108.144 247.992 C 108.96534 247.768 109.86666 247.656 110.848 247.656 C 112.91734 247.656 114.61866 248.216 115.952 249.336 C 117.28534 250.456 118.28266 251.944 118.944 253.8 C 119.456 252.712 120.096 251.77867 120.864 251 C 121.632 250.22133 122.47466 249.58667 123.392 249.096 C 124.30934 248.60533 125.28533 248.24267 126.32 248.008 C 127.35467 247.77333 128.39466 247.656 129.44 247.656 C 131.25334 247.656 132.864 247.93333 134.272 248.488 C 135.68 249.04267 136.864 249.85333 137.824 250.92 C 138.784 251.98667 139.51466 253.288 140.016 254.824 C 140.51734 256.36 140.768 258.12 140.768 260.104 L 140.768 281 L 132.864 281 L 132.864 260.104 C 132.864 258.01332 132.40534 256.44 131.488 255.384 C 130.57066 254.328 129.22668 253.8 127.456 253.8 C 126.64533 253.8 125.89334 253.93867 125.2 254.216 C 124.50666 254.49333 123.89867 254.89333 123.376 255.416 C 122.85333 255.93867 122.44267 256.59466 122.144 257.384 C 121.84533 258.17334 121.696 259.08 121.696 260.104 L 121.696 281 L 113.76 281 L 113.76 260.104 C 113.76 257.90666 113.31734 256.30667 112.432 255.304 C 111.54666 254.30133 110.24001 253.8 108.512 253.8 C 107.38133 253.8 106.32 254.08266 105.328 254.648 C 104.336 255.21334 103.41334 255.98666 102.56 256.968 L 102.56 281 Z" fill="#424242"/>
        </g>
        <g id="Graphic_345">
          <path d="M 156.96 248.168 L 156.96 281 L 149.056 281 L 149.056 248.168 Z M 158.144 238.6 C 158.144 239.28267 158.00533 239.92266 157.728 240.52 C 157.45067 241.11734 157.08267 241.64 156.624 242.088 C 156.16533 242.536 155.62667 242.89333 155.008 243.16 C 154.38933 243.42667 153.728 243.56 153.024 243.56 C 152.34133 243.56 151.696 243.42667 151.088 243.16 C 150.48 242.89333 149.952 242.536 149.504 242.088 C 149.056 241.64 148.69867 241.11734 148.432 240.52 C 148.16533 239.92266 148.032 239.28267 148.032 238.6 C 148.032 237.896 148.16533 237.23467 148.432 236.616 C 148.69867 235.99733 149.056 235.464 149.504 235.016 C 149.952 234.568 150.48 234.21067 151.088 233.944 C 151.696 233.67733 152.34133 233.544 153.024 233.544 C 153.728 233.544 154.38933 233.67733 155.008 233.944 C 155.62667 234.21067 156.16533 234.568 156.624 235.016 C 157.08267 235.464 157.45067 235.99733 157.728 236.616 C 158.00533 237.23467 158.144 237.896 158.144 238.6 Z" fill="#424242"/>
        </g>
        <g id="Graphic_346">
          <path d="M 176.672 281.512 C 173.83465 281.512 171.648 280.70667 170.112 279.096 C 168.576 277.48533 167.808 275.26135 167.808 272.424 L 167.808 254.088 L 164.48 254.088 C 164.05333 254.088 163.68533 253.94933 163.376 253.672 C 163.06667 253.39467 162.912 252.97867 162.912 252.424 L 162.912 249.288 L 168.192 248.424 L 169.856 239.464 C 169.94133 239.03733 170.13867 238.70667 170.448 238.472 C 170.75733 238.23733 171.14666 238.12 171.616 238.12 L 175.712 238.12 L 175.712 248.456 L 184.352 248.456 L 184.352 254.088 L 175.712 254.088 L 175.712 271.88 C 175.712 272.904 175.968 273.704 176.48 274.28 C 176.992 274.856 177.67466 275.144 178.528 275.144 C 179.01867 275.144 179.42933 275.08533 179.76 274.968 C 180.09067 274.85067 180.37867 274.728 180.624 274.6 C 180.86933 274.472 181.088 274.34933 181.28 274.232 C 181.472 274.11467 181.664 274.056 181.856 274.056 C 182.09067 274.056 182.28267 274.11467 182.432 274.232 C 182.58133 274.34933 182.74133 274.52533 182.912 274.76 L 185.28 278.6 C 184.128 279.56 182.80534 280.28533 181.312 280.776 C 179.81866 281.26667 178.272 281.512 176.672 281.512 Z" fill="#424242"/>
        </g>
        <g id="Graphic_347">
          <path d="M 210.144 254.568 C 209.93067 254.90934 209.70667 255.14933 209.472 255.288 C 209.23733 255.42667 208.93867 255.496 208.576 255.496 C 208.192 255.496 207.78134 255.38933 207.344 255.176 C 206.90666 254.96267 206.4 254.72267 205.824 254.456 C 205.248 254.18933 204.592 253.94933 203.856 253.736 C 203.12 253.52267 202.25067 253.416 201.248 253.416 C 199.69066 253.416 198.464 253.74666 197.568 254.408 C 196.672 255.06934 196.224 255.93333 196.224 257 C 196.224 257.704 196.45333 258.296 196.912 258.776 C 197.37067 259.256 197.97866 259.67733 198.736 260.04 C 199.49334 260.40267 200.352 260.728 201.312 261.016 C 202.272 261.304 203.25333 261.61866 204.256 261.96 C 205.25867 262.30134 206.24 262.69066 207.2 263.128 C 208.16 263.56534 209.01866 264.12 209.776 264.792 C 210.53334 265.464 211.14133 266.26933 211.6 267.208 C 212.05867 268.14667 212.288 269.27733 212.288 270.6 C 212.288 272.17867 212 273.63466 211.424 274.968 C 210.848 276.30134 210.00534 277.45333 208.896 278.424 C 207.78666 279.39467 206.416 280.152 204.784 280.696 C 203.152 281.24 201.28 281.512 199.168 281.512 C 198.03733 281.512 196.93334 281.41067 195.856 281.208 C 194.77866 281.00533 193.744 280.72267 192.752 280.36 C 191.76 279.99733 190.84267 279.57067 190 279.08 C 189.15733 278.58933 188.416 278.056 187.776 277.48 L 189.6 274.472 C 189.83467 274.10933 190.112 273.832 190.432 273.64 C 190.752 273.448 191.15733 273.352 191.648 273.352 C 192.13867 273.352 192.60266 273.49067 193.04 273.768 C 193.47734 274.04533 193.984 274.344 194.56 274.664 C 195.136 274.984 195.81333 275.28267 196.592 275.56 C 197.37067 275.83733 198.35733 275.976 199.552 275.976 C 200.49067 275.976 201.296 275.864 201.968 275.64 C 202.64 275.416 203.19466 275.12267 203.632 274.76 C 204.06934 274.39733 204.38933 273.976 204.592 273.496 C 204.79467 273.016 204.896 272.52 204.896 272.008 C 204.896 271.24 204.66667 270.61067 204.208 270.12 C 203.74933 269.62933 203.14134 269.20267 202.384 268.84 C 201.62666 268.47733 200.76267 268.152 199.792 267.864 C 198.82133 267.576 197.82934 267.26134 196.816 266.92 C 195.80266 266.57866 194.81067 266.17867 193.84 265.72 C 192.86933 265.26133 192.00534 264.68 191.248 263.976 C 190.49066 263.272 189.88267 262.408 189.424 261.384 C 188.96533 260.36 188.736 259.12267 188.736 257.672 C 188.736 256.328 189.00266 255.048 189.536 253.832 C 190.06934 252.616 190.85333 251.55467 191.888 250.648 C 192.92267 249.74133 194.21333 249.016 195.76 248.472 C 197.30667 247.928 199.09332 247.656 201.12 247.656 C 203.38134 247.656 205.44 248.02933 207.296 248.776 C 209.152 249.52267 210.69866 250.504 211.936 251.72 Z" fill="#424242"/>
        </g>
        <g id="Graphic_348">
          <path d="M 226.976 248.168 L 233.248 248.168 C 233.84534 248.168 234.34666 248.30667 234.752 248.584 C 235.15734 248.86133 235.41333 249.21333 235.52 249.64 L 240.224 267.176 C 240.48 268.136 240.688 269.07466 240.848 269.992 C 241.008 270.90934 241.16267 271.82666 241.312 272.744 C 241.54667 271.82666 241.79733 270.90934 242.064 269.992 C 242.33067 269.07466 242.61333 268.136 242.912 267.176 L 248.352 249.576 C 248.48 249.14933 248.736 248.79733 249.12 248.52 C 249.504 248.24267 249.952 248.104 250.464 248.104 L 253.952 248.104 C 254.528 248.104 255.008 248.24267 255.392 248.52 C 255.776 248.79733 256.032 249.14933 256.16 249.576 L 261.536 267.496 C 261.81333 268.41334 262.064 269.304 262.288 270.168 C 262.512 271.032 262.73067 271.90133 262.944 272.776 C 263.09333 271.85866 263.25867 270.94134 263.44 270.024 C 263.62133 269.10666 263.85067 268.15734 264.128 267.176 L 268.992 249.64 C 269.09867 249.21333 269.35466 248.86133 269.76 248.584 C 270.16534 248.30667 270.63466 248.168 271.168 248.168 L 277.152 248.168 L 266.752 281 L 260.384 281 C 259.70133 281 259.21067 280.53067 258.912 279.592 L 252.992 260.616 C 252.8 259.99733 252.624 259.37334 252.464 258.744 C 252.304 258.11466 252.17067 257.49067 252.064 256.872 C 251.936 257.512 251.79733 258.14666 251.648 258.776 C 251.49867 259.40534 251.328 260.04 251.136 260.68 L 245.152 279.592 C 244.85333 280.53067 244.27734 281 243.424 281 L 237.376 281 Z" fill="#424242"/>
        </g>
        <g id="Graphic_349">
          <path d="M 290.016 248.168 L 290.016 281 L 282.112 281 L 282.112 248.168 Z M 291.2 238.6 C 291.2 239.28267 291.06133 239.92266 290.784 240.52 C 290.50667 241.11734 290.13867 241.64 289.68 242.088 C 289.22133 242.536 288.68267 242.89333 288.064 243.16 C 287.44533 243.42667 286.784 243.56 286.08 243.56 C 285.39733 243.56 284.752 243.42667 284.144 243.16 C 283.536 242.89333 283.008 242.536 282.56 242.088 C 282.112 241.64 281.75467 241.11734 281.488 240.52 C 281.22133 239.92266 281.088 239.28267 281.088 238.6 C 281.088 237.896 281.22133 237.23467 281.488 236.616 C 281.75467 235.99733 282.112 235.464 282.56 235.016 C 283.008 234.568 283.536 234.21067 284.144 233.944 C 284.752 233.67733 285.39733 233.544 286.08 233.544 C 286.784 233.544 287.44533 233.67733 288.064 233.944 C 288.68267 234.21067 289.22133 234.568 289.68 235.016 C 290.13867 235.464 290.50667 235.99733 290.784 236.616 C 291.06133 237.23467 291.2 237.896 291.2 238.6 Z" fill="#424242"/>
        </g>
        <g id="Graphic_350">
          <path d="M 309.728 281.512 C 306.89065 281.512 304.704 280.70667 303.168 279.096 C 301.632 277.48533 300.864 275.26135 300.864 272.424 L 300.864 254.088 L 297.536 254.088 C 297.10933 254.088 296.74133 253.94933 296.432 253.672 C 296.12267 253.39467 295.968 252.97867 295.968 252.424 L 295.968 249.288 L 301.248 248.424 L 302.912 239.464 C 302.99733 239.03733 303.19467 238.70667 303.504 238.472 C 303.81333 238.23733 304.20266 238.12 304.672 238.12 L 308.768 238.12 L 308.768 248.456 L 317.408 248.456 L 317.408 254.088 L 308.768 254.088 L 308.768 271.88 C 308.768 272.904 309.024 273.704 309.536 274.28 C 310.048 274.856 310.73066 275.144 311.584 275.144 C 312.07467 275.144 312.48533 275.08533 312.816 274.968 C 313.14667 274.85067 313.43467 274.728 313.68 274.6 C 313.92533 274.472 314.144 274.34933 314.336 274.232 C 314.528 274.11467 314.72 274.056 314.912 274.056 C 315.14667 274.056 315.33867 274.11467 315.488 274.232 C 315.63733 274.34933 315.79733 274.52533 315.968 274.76 L 318.336 278.6 C 317.184 279.56 315.86134 280.28533 314.368 280.776 C 312.87466 281.26667 311.328 281.512 309.728 281.512 Z" fill="#424242"/>
        </g>
        <g id="Graphic_351">
          <path d="M 323.712 281 L 323.712 233.448 L 331.616 233.448 L 331.616 251.72 C 332.896 250.504 334.304 249.52267 335.84 248.776 C 337.376 248.02933 339.17866 247.656 341.248 247.656 C 343.04 247.656 344.62933 247.96 346.016 248.568 C 347.40267 249.176 348.56 250.02933 349.488 251.128 C 350.416 252.22667 351.12 253.53866 351.6 255.064 C 352.08 256.58934 352.32 258.26932 352.32 260.104 L 352.32 281 L 344.416 281 L 344.416 260.104 C 344.416 258.09866 343.952 256.54667 343.024 255.448 C 342.096 254.34933 340.704 253.8 338.848 253.8 C 337.48266 253.8 336.20267 254.10933 335.008 254.728 C 333.81333 255.34667 332.68267 256.18933 331.616 257.256 L 331.616 281 Z" fill="#424242"/>
        </g>
        <g id="Graphic_352">
          <path d="M 53.28 350.896 L 71.808 350.896 L 71.808 358 L 44.672 358 L 44.672 311.728 L 53.28 311.728 Z" fill="#424242"/>
        </g>
        <g id="Graphic_353">
          <path d="M 73.888 308.976 C 74.63467 310.17067 75.184 311.36533 75.536 312.56 C 75.888 313.75467 76.064 314.94933 76.064 316.144 C 76.064 318.27734 75.52534 320.31466 74.448 322.256 C 73.37066 324.19734 71.81868 325.98933 69.792 327.632 L 67.328 326.128 C 67.114666 326 66.96533 325.84533 66.88 325.664 C 66.79467 325.48267 66.752 325.30667 66.752 325.136 C 66.752 324.73066 66.890665 324.38933 67.168 324.112 C 67.445335 323.792 67.738665 323.424 68.048 323.008 C 68.357335 322.592 68.64 322.13334 68.896 321.632 C 69.152 321.13066 69.36 320.58134 69.52 319.984 C 69.68 319.38666 69.76 318.74667 69.76 318.064 C 69.76 317.33866 69.64267 316.56534 69.408 315.744 C 69.17333 314.92266 68.77867 314.05334 68.224 313.136 C 68.032 312.85867 67.936 312.57067 67.936 312.272 C 67.936 311.58933 68.33066 311.10933 69.12 310.832 Z" fill="#424242"/>
        </g>
        <g id="Graphic_354">
          <path d="M 122.112 358 L 113.44 358 L 113.44 337.776 L 91.744 337.776 L 91.744 358 L 83.072 358 L 83.072 311.728 L 91.744 311.728 L 91.744 331.632 L 113.44 331.632 L 113.44 311.728 L 122.112 311.728 Z" fill="#424242"/>
        </g>
        <g id="Graphic_355">
          <path d="M 145.024 324.656 C 147.47735 324.656 149.70132 325.05066 151.696 325.84 C 153.69068 326.62934 155.392 327.74933 156.8 329.2 C 158.208 330.65067 159.296 332.42132 160.064 334.512 C 160.832 336.60268 161.216 338.93865 161.216 341.52 C 161.216 344.1227 160.832 346.46932 160.064 348.56 C 159.296 350.65068 158.208 352.432 156.8 353.904 C 155.392 355.376 153.69068 356.50666 151.696 357.296 C 149.70132 358.08534 147.47735 358.48 145.024 358.48 C 142.57065 358.48 140.34134 358.08534 138.336 357.296 C 136.33066 356.50666 134.61867 355.376 133.2 353.904 C 131.78133 352.432 130.68267 350.65068 129.904 348.56 C 129.12533 346.46932 128.736 344.1227 128.736 341.52 C 128.736 338.93865 129.12533 336.60268 129.904 334.512 C 130.68267 332.42132 131.78133 330.65067 133.2 329.2 C 134.61867 327.74933 136.33066 326.62934 138.336 325.84 C 140.34134 325.05066 142.57065 324.656 145.024 324.656 Z M 145.024 352.4 C 147.75468 352.4 149.776 351.48268 151.088 349.648 C 152.4 347.81332 153.056 345.12535 153.056 341.584 C 153.056 338.04265 152.4 335.344 151.088 333.488 C 149.776 331.632 147.75468 330.704 145.024 330.704 C 142.25065 330.704 140.20267 331.63732 138.88 333.504 C 137.55733 335.37068 136.896 338.064 136.896 341.584 C 136.896 345.104 137.55733 347.78666 138.88 349.632 C 140.20267 351.47734 142.25065 352.4 145.024 352.4 Z" fill="#424242"/>
        </g>
        <g id="Graphic_356">
          <path d="M 186.88 331.568 C 186.66667 331.90934 186.44267 332.14933 186.208 332.288 C 185.97333 332.42667 185.67467 332.496 185.312 332.496 C 184.928 332.496 184.51734 332.38933 184.08 332.176 C 183.64266 331.96267 183.136 331.72267 182.56 331.456 C 181.984 331.18933 181.328 330.94933 180.592 330.736 C 179.856 330.52267 178.98667 330.416 177.984 330.416 C 176.42666 330.416 175.2 330.74666 174.304 331.408 C 173.408 332.06934 172.96 332.93333 172.96 334 C 172.96 334.704 173.18933 335.296 173.648 335.776 C 174.10667 336.256 174.71466 336.67733 175.472 337.04 C 176.22934 337.40267 177.088 337.728 178.048 338.016 C 179.008 338.304 179.98933 338.61866 180.992 338.96 C 181.99467 339.30134 182.976 339.69066 183.936 340.128 C 184.896 340.56534 185.75466 341.12 186.512 341.792 C 187.26934 342.464 187.87733 343.26933 188.336 344.208 C 188.79467 345.14667 189.024 346.27733 189.024 347.6 C 189.024 349.17867 188.736 350.63466 188.16 351.968 C 187.584 353.30134 186.74134 354.45333 185.632 355.424 C 184.52266 356.39467 183.152 357.152 181.52 357.696 C 179.888 358.24 178.016 358.512 175.904 358.512 C 174.77333 358.512 173.66934 358.41067 172.592 358.208 C 171.51466 358.00533 170.48 357.72267 169.488 357.36 C 168.496 356.99733 167.57867 356.57067 166.736 356.08 C 165.89333 355.58933 165.152 355.056 164.512 354.48 L 166.336 351.472 C 166.57067 351.10933 166.848 350.832 167.168 350.64 C 167.488 350.448 167.89333 350.352 168.384 350.352 C 168.87467 350.352 169.33866 350.49067 169.776 350.768 C 170.21334 351.04533 170.72 351.344 171.296 351.664 C 171.872 351.984 172.54933 352.28267 173.328 352.56 C 174.10667 352.83733 175.09333 352.976 176.288 352.976 C 177.22667 352.976 178.032 352.864 178.704 352.64 C 179.376 352.416 179.93066 352.12267 180.368 351.76 C 180.80534 351.39733 181.12533 350.976 181.328 350.496 C 181.53067 350.016 181.632 349.52 181.632 349.008 C 181.632 348.24 181.40267 347.61067 180.944 347.12 C 180.48533 346.62933 179.87734 346.20267 179.12 345.84 C 178.36266 345.47733 177.49867 345.152 176.528 344.864 C 175.55733 344.576 174.56534 344.26134 173.552 343.92 C 172.53866 343.57866 171.54667 343.17867 170.576 342.72 C 169.60533 342.26133 168.74134 341.68 167.984 340.976 C 167.22666 340.272 166.61867 339.408 166.16 338.384 C 165.70133 337.36 165.472 336.12267 165.472 334.672 C 165.472 333.328 165.73866 332.048 166.272 330.832 C 166.80534 329.616 167.58933 328.55467 168.624 327.648 C 169.65867 326.74133 170.94933 326.016 172.496 325.472 C 174.04267 324.928 175.82932 324.656 177.856 324.656 C 180.11734 324.656 182.176 325.02933 184.032 325.776 C 185.888 326.52267 187.43466 327.504 188.672 328.72 Z" fill="#424242"/>
        </g>
        <g id="Graphic_357">
          <path d="M 195.36 368.72 L 195.36 325.168 L 200.192 325.168 C 200.704 325.168 201.14133 325.28533 201.504 325.52 C 201.86667 325.75467 202.10133 326.11733 202.208 326.608 L 202.848 329.648 C 204.17067 328.13333 205.69066 326.90667 207.408 325.968 C 209.12534 325.02933 211.136 324.56 213.44 324.56 C 215.232 324.56 216.86933 324.93333 218.352 325.68 C 219.83467 326.42667 221.11466 327.50933 222.192 328.928 C 223.26934 330.34667 224.10133 332.096 224.688 334.176 C 225.27467 336.256 225.568 338.64 225.568 341.328 C 225.568 343.78135 225.23734 346.05332 224.576 348.144 C 223.91466 350.23468 222.97067 352.048 221.744 353.584 C 220.51733 355.12 219.03468 356.32 217.296 357.184 C 215.55732 358.048 213.61068 358.48 211.456 358.48 C 209.6 358.48 208.02667 358.19734 206.736 357.632 C 205.44533 357.06666 204.288 356.28267 203.264 355.28 L 203.264 368.72 Z M 210.72 330.8 C 209.07733 330.8 207.67467 331.14666 206.512 331.84 C 205.34933 332.53334 204.26667 333.50933 203.264 334.768 L 203.264 349.488 C 204.16 350.59734 205.136 351.37066 206.192 351.808 C 207.248 352.24534 208.384 352.464 209.6 352.464 C 210.79467 352.464 211.87733 352.24 212.848 351.792 C 213.81867 351.344 214.64 350.66134 215.312 349.744 C 215.984 348.82666 216.50133 347.66934 216.864 346.272 C 217.22667 344.87466 217.408 343.22668 217.408 341.328 C 217.408 339.408 217.25333 337.78134 216.944 336.448 C 216.63467 335.11466 216.192 334.032 215.616 333.2 C 215.04 332.368 214.34134 331.76 213.52 331.376 C 212.69866 330.992 211.76534 330.8 210.72 330.8 Z" fill="#424242"/>
        </g>
        <g id="Graphic_358">
          <path d="M 239.968 325.168 L 239.968 358 L 232.064 358 L 232.064 325.168 Z M 241.152 315.6 C 241.152 316.28267 241.01333 316.92266 240.736 317.52 C 240.45867 318.11734 240.09067 318.64 239.632 319.088 C 239.17333 319.536 238.63467 319.89333 238.016 320.16 C 237.39733 320.42667 236.736 320.56 236.032 320.56 C 235.34933 320.56 234.704 320.42667 234.096 320.16 C 233.488 319.89333 232.96 319.536 232.512 319.088 C 232.064 318.64 231.70667 318.11734 231.44 317.52 C 231.17333 316.92266 231.04 316.28267 231.04 315.6 C 231.04 314.896 231.17333 314.23467 231.44 313.616 C 231.70667 312.99733 232.064 312.464 232.512 312.016 C 232.96 311.568 233.488 311.21067 234.096 310.944 C 234.704 310.67733 235.34933 310.544 236.032 310.544 C 236.736 310.544 237.39733 310.67733 238.016 310.944 C 238.63467 311.21067 239.17333 311.568 239.632 312.016 C 240.09067 312.464 240.45867 312.99733 240.736 313.616 C 241.01333 314.23467 241.152 314.896 241.152 315.6 Z" fill="#424242"/>
        </g>
        <g id="Graphic_359">
          <path d="M 259.68 358.512 C 256.84265 358.512 254.656 357.70667 253.12 356.096 C 251.584 354.48533 250.816 352.26135 250.816 349.424 L 250.816 331.088 L 247.488 331.088 C 247.06133 331.088 246.69333 330.94933 246.384 330.672 C 246.07467 330.39467 245.92 329.97867 245.92 329.424 L 245.92 326.288 L 251.2 325.424 L 252.864 316.464 C 252.94933 316.03733 253.14667 315.70667 253.456 315.472 C 253.76533 315.23733 254.15466 315.12 254.624 315.12 L 258.72 315.12 L 258.72 325.456 L 267.36 325.456 L 267.36 331.088 L 258.72 331.088 L 258.72 348.88 C 258.72 349.904 258.976 350.704 259.488 351.28 C 260 351.856 260.68266 352.144 261.536 352.144 C 262.02667 352.144 262.43733 352.08533 262.768 351.968 C 263.09867 351.85067 263.38667 351.728 263.632 351.6 C 263.87733 351.472 264.096 351.34933 264.288 351.232 C 264.48 351.11467 264.672 351.056 264.864 351.056 C 265.09867 351.056 265.29067 351.11467 265.44 351.232 C 265.58933 351.34933 265.74933 351.52533 265.92 351.76 L 268.288 355.6 C 267.136 356.56 265.81334 357.28533 264.32 357.776 C 262.82666 358.26667 261.28 358.512 259.68 358.512 Z" fill="#424242"/>
        </g>
        <g id="Graphic_360">
          <path d="M 299.392 358 L 295.84 358 C 295.09333 358 294.50667 357.888 294.08 357.664 C 293.65333 357.44 293.33333 356.98667 293.12 356.304 L 292.416 353.968 C 291.584 354.71467 290.768 355.37066 289.968 355.936 C 289.168 356.50134 288.34134 356.976 287.488 357.36 C 286.63466 357.744 285.728 358.032 284.768 358.224 C 283.808 358.416 282.74134 358.512 281.568 358.512 C 280.18133 358.512 278.90134 358.32534 277.728 357.952 C 276.55466 357.57866 275.54667 357.01867 274.704 356.272 C 273.86133 355.52533 273.20534 354.59734 272.736 353.488 C 272.26666 352.37866 272.032 351.088 272.032 349.616 C 272.032 348.37866 272.35733 347.15734 273.008 345.952 C 273.65867 344.74666 274.74133 343.65867 276.256 342.688 C 277.77067 341.71733 279.78665 340.912 282.304 340.272 C 284.82135 339.632 287.94665 339.26933 291.68 339.184 L 291.68 337.264 C 291.68 335.06666 291.216 333.44 290.288 332.384 C 289.36 331.328 288.01068 330.8 286.24 330.8 C 284.96 330.8 283.89334 330.94933 283.04 331.248 C 282.18666 331.54667 281.44534 331.88266 280.816 332.256 C 280.18666 332.62934 279.60534 332.96533 279.072 333.264 C 278.53866 333.56267 277.952 333.712 277.312 333.712 C 276.77866 333.712 276.32 333.57333 275.936 333.296 C 275.552 333.01867 275.24267 332.67734 275.008 332.272 L 273.568 329.744 C 277.34402 326.288 281.89864 324.56 287.232 324.56 C 289.152 324.56 290.864 324.87466 292.368 325.504 C 293.872 326.13334 295.14666 327.008 296.192 328.128 C 297.23734 329.248 298.032 330.58666 298.576 332.144 C 299.12 333.70134 299.392 335.408 299.392 337.264 Z M 284.032 353.072 C 284.84267 353.072 285.58933 352.99733 286.272 352.848 C 286.95467 352.69867 287.6 352.47467 288.208 352.176 C 288.816 351.87733 289.40266 351.50934 289.968 351.072 C 290.53334 350.63466 291.104 350.11734 291.68 349.52 L 291.68 343.984 C 289.376 344.09067 287.45067 344.288 285.904 344.576 C 284.35733 344.864 283.11467 345.232 282.176 345.68 C 281.23733 346.128 280.57067 346.65066 280.176 347.248 C 279.78133 347.84534 279.584 348.496 279.584 349.2 C 279.584 350.58667 279.99466 351.57866 280.816 352.176 C 281.63734 352.77334 282.70933 353.072 284.032 353.072 Z" fill="#424242"/>
        </g>
        <g id="Graphic_361">
          <rect x="307.68" y="310.448" width="7.904" height="47.552" fill="#424242"/>
        </g>
      </g>
    </g>
  </g>
</svg>
