<?xml version="1.0" encoding="UTF-8" standalone="no"?>
<!DOCTYPE svg PUBLIC "-//W3C//DTD SVG 1.1//EN" "http://www.w3.org/Graphics/SVG/1.1/DTD/svg11.dtd">
<svg xmlns:xl="http://www.w3.org/1999/xlink" xmlns="http://www.w3.org/2000/svg" xmlns:dc="http://purl.org/dc/elements/1.1/" version="1.1" viewBox="0 0 480 600" width="480" height="600">
  <defs/>
  <metadata> Produced by OmniGraffle 7.18.5\n2021-05-31 10:10:38 +0000</metadata>
  <g id="Canvas_1" fill="none" fill-opacity="1" stroke-dasharray="none" stroke-opacity="1" stroke="none">
    <title>Canvas 1</title>
    <g id="Canvas_1_book-base4">
      <title>book-base4</title>
      <g id="Graphic_453">
        <path d="M 12 0 L 468 0 C 474.6274 40581225e-23 480 5.372583 480 12 L 480 588 C 480 594.6274 474.6274 600 468 600 L 12 600 C 5.372583 600 8116245e-22 594.6274 0 588 L 35527137e-21 12 C 3633876e-20 5.372583 5.372583 -40581225e-23 12 0 Z" fill="white"/>
      </g>
    </g>
    <g id="Canvas_1_1a-GEO-nofont">
      <title>1a-GEO-nofont</title>
      <g id="Graphic_248">
        <rect x="0" y="188" width="480" height="10" fill="#71cdf6"/>
      </g>
      <g id="Group_257">
        <title>GEOMETRY</title>
        <g id="Graphic_249">
          <path d="M 58.538 549.388 C 59.61134 549.388 60.561996 549.296 61.39 549.112 C 62.218004 548.928 63 548.6827 63.736 548.376 L 63.736 543.293 L 60.424 543.293 C 59.93333 543.293 59.55 543.1627 59.274 542.902 C 58.998 542.6413 58.86 542.3117 58.86 541.913 L 58.86 537.635 L 70.774 537.635 L 70.774 551.78 C 69.91533 552.4087 69.02217 552.94916 68.0945 553.4015 C 67.16683 553.85384 66.17784 554.22567 65.1275 554.517 C 64.07716 554.80833 62.95784 555.023 61.7695 555.161 C 60.58116 555.299 59.30467 555.368 57.94 555.368 C 55.486654 555.368 53.217344 554.93484 51.132 554.0685 C 49.046656 553.20216 47.241174 552.0062 45.7155 550.4805 C 44.189826 548.9548 42.99384 547.1455 42.1275 545.0525 C 41.26116 542.9595 40.828 540.68635 40.828 538.233 C 40.828 535.73365 41.241996 533.4375 42.07 531.3445 C 42.898004 529.2515 44.08249 527.446 45.6235 525.928 C 47.16451 524.41 49.02749 523.22934 51.2125 522.386 C 53.39751 521.54266 55.83932 521.121 58.538 521.121 C 59.93334 521.121 61.24433 521.236 62.471 521.466 C 63.69767 521.696 64.828495 522.01033 65.8635 522.409 C 66.898505 522.80767 67.84533 523.283 68.704 523.835 C 69.56267 524.387 70.32933 524.985 71.004 525.629 L 68.75 529.056 C 68.53533 529.378 68.2785 529.631 67.9795 529.815 C 67.6805 529.999 67.35467 530.091 67.002 530.091 C 66.542 530.091 66.06667 529.93767 65.576 529.631 C 64.96266 529.263 64.383836 528.94483 63.8395 528.6765 C 63.295164 528.40817 62.739336 528.18967 62.172 528.021 C 61.604664 527.85233 61.00667 527.72967 60.378 527.653 C 59.74933 527.57633 59.044004 527.538 58.262 527.538 C 56.805326 527.538 55.49434 527.7948 54.329 528.3085 C 53.16366 528.8222 52.17084 529.54666 51.3505 530.482 C 50.53016 531.41734 49.89767 532.5405 49.453 533.8515 C 49.00833 535.1625 48.786 536.623 48.786 538.233 C 48.786 540.0117 49.03133 541.591 49.522 542.971 C 50.01267 544.351 50.69116 545.5163 51.5575 546.467 C 52.42384 547.4177 53.45116 548.14216 54.6395 548.6405 C 55.82784 549.13884 57.127326 549.388 58.538 549.388 Z" fill="#71cdf6"/>
        </g>
        <g id="Graphic_250">
          <path d="M 100.086 521.489 L 100.086 527.469 L 86.332 527.469 L 86.332 535.289 L 96.866 535.289 L 96.866 541.039 L 86.332 541.039 L 86.332 549.02 L 100.086 549.02 L 100.086 555 L 78.512 555 L 78.512 521.489 Z" fill="#71cdf6"/>
        </g>
        <g id="Graphic_251">
          <path d="M 140.576 538.233 C 140.576 540.6557 140.15817 542.90966 139.3225 544.995 C 138.48683 547.08034 137.31 548.8935 135.792 550.4345 C 134.274 551.9755 132.44551 553.183 130.3065 554.057 C 128.16749 554.931 125.79468 555.368 123.188 555.368 C 120.58132 555.368 118.20468 554.931 116.058 554.057 C 113.91132 553.183 112.07517 551.9755 110.5495 550.4345 C 109.02383 548.8935 107.84317 547.08034 107.0075 544.995 C 106.17183 542.90966 105.754 540.6557 105.754 538.233 C 105.754 535.8103 106.17183 533.55634 107.0075 531.471 C 107.84317 529.38566 109.02383 527.57634 110.5495 526.043 C 112.07517 524.50966 113.91132 523.306 116.058 522.432 C 118.20468 521.558 120.58132 521.121 123.188 521.121 C 125.79468 521.121 128.16749 521.5618 130.3065 522.4435 C 132.44551 523.3252 134.274 524.53266 135.792 526.066 C 137.31 527.59934 138.48683 529.40866 139.3225 531.494 C 140.15817 533.57934 140.576 535.82565 140.576 538.233 Z M 132.618 538.233 C 132.618 536.577 132.40334 535.08584 131.974 533.7595 C 131.54466 532.43316 130.9275 531.31 130.1225 530.39 C 129.3175 529.47 128.33234 528.7647 127.167 528.274 C 126.00166 527.7833 124.67534 527.538 123.188 527.538 C 121.68533 527.538 120.3475 527.7833 119.1745 528.274 C 118.0015 528.7647 117.0125 529.47 116.2075 530.39 C 115.4025 531.31 114.78534 532.43316 114.356 533.7595 C 113.92666 535.08584 113.712 536.577 113.712 538.233 C 113.712 539.90434 113.92666 541.40316 114.356 542.7295 C 114.78534 544.05584 115.4025 545.179 116.2075 546.099 C 117.0125 547.019 118.0015 547.7205 119.1745 548.2035 C 120.3475 548.6865 121.68533 548.928 123.188 548.928 C 124.67534 548.928 126.00166 548.6865 127.167 548.2035 C 128.33234 547.7205 129.3175 547.019 130.1225 546.099 C 130.9275 545.179 131.54466 544.05584 131.974 542.7295 C 132.40334 541.40316 132.618 539.90434 132.618 538.233 Z" fill="#71cdf6"/>
        </g>
        <g id="Graphic_252">
          <path d="M 164.437 539.682 C 164.74367 540.2647 165.03883 540.8703 165.3225 541.499 C 165.60617 542.1277 165.87833 542.77166 166.139 543.431 C 166.39967 542.7563 166.67567 542.10084 166.967 541.4645 C 167.25833 540.82816 167.55733 540.211 167.864 539.613 L 176.466 522.685 C 176.61933 522.39367 176.7765 522.1675 176.9375 522.0065 C 177.0985 521.8455 177.27867 521.72667 177.478 521.65 C 177.67733 521.57333 177.9035 521.52733 178.1565 521.512 C 178.4095 521.49667 178.70466 521.489 179.042 521.489 L 184.976 521.489 L 184.976 555 L 178.122 555 L 178.122 535.726 C 178.122 534.79066 178.168 533.7787 178.26 532.69 L 169.382 549.917 C 169.106 550.4537 168.73417 550.86 168.2665 551.136 C 167.79883 551.412 167.266 551.55 166.668 551.55 L 165.61 551.55 C 165.012 551.55 164.47917 551.412 164.0115 551.136 C 163.54383 550.86 163.172 550.4537 162.896 549.917 L 153.972 532.667 C 154.03333 533.2037 154.07933 533.7365 154.11 534.2655 C 154.14067 534.7945 154.156 535.2813 154.156 535.726 L 154.156 555 L 147.302 555 L 147.302 521.489 L 153.236 521.489 C 153.57334 521.489 153.8685 521.49667 154.1215 521.512 C 154.3745 521.52733 154.60067 521.57333 154.8 521.65 C 154.99933 521.72667 155.1795 521.8455 155.3405 522.0065 C 155.5015 522.1675 155.65867 522.39367 155.812 522.685 Z" fill="#71cdf6"/>
        </g>
        <g id="Graphic_253">
          <path d="M 215.07 521.489 L 215.07 527.469 L 201.316 527.469 L 201.316 535.289 L 211.85 535.289 L 211.85 541.039 L 201.316 541.039 L 201.316 549.02 L 215.07 549.02 L 215.07 555 L 193.496 555 L 193.496 521.489 Z" fill="#71cdf6"/>
        </g>
        <g id="Graphic_254">
          <path d="M 246.82 521.489 L 246.82 527.653 L 237.39 527.653 L 237.39 555 L 229.616 555 L 229.616 527.653 L 220.186 527.653 L 220.186 521.489 Z" fill="#71cdf6"/>
        </g>
        <g id="Graphic_255">
          <path d="M 260.814 542.603 L 260.814 555 L 253.04 555 L 253.04 521.489 L 263.942 521.489 C 266.36468 521.489 268.43082 521.73816 270.1405 522.2365 C 271.85018 522.73484 273.2455 523.42866 274.3265 524.318 C 275.4075 525.20734 276.19333 526.25766 276.684 527.469 C 277.17467 528.68034 277.42 529.999 277.42 531.425 C 277.42 532.5137 277.27433 533.541 276.983 534.507 C 276.69167 535.473 276.2585 536.36616 275.6835 537.1865 C 275.1085 538.00684 274.40317 538.739 273.5675 539.383 C 272.73183 540.027 271.76967 540.556 270.681 540.97 C 271.20234 541.2307 271.68916 541.55266 272.1415 541.936 C 272.59384 542.31934 272.98866 542.787 273.326 543.339 L 280.456 555 L 273.418 555 C 272.11466 555 271.17934 554.50934 270.612 553.528 L 265.046 543.799 C 264.80067 543.36966 264.51317 543.063 264.1835 542.879 C 263.85383 542.695 263.39 542.603 262.792 542.603 Z M 260.814 537.244 L 263.942 537.244 C 265 537.244 265.90083 537.10983 266.6445 536.8415 C 267.38817 536.57317 267.99766 536.20134 268.473 535.726 C 268.94834 535.25066 269.29333 534.69484 269.508 534.0585 C 269.72267 533.42216 269.83 532.736 269.83 532 C 269.83 530.528 269.35084 529.378 268.3925 528.55 C 267.43416 527.722 265.95068 527.308 263.942 527.308 L 260.814 527.308 Z" fill="#71cdf6"/>
        </g>
        <g id="Graphic_256">
          <path d="M 303.328 542.258 L 303.328 555 L 295.554 555 L 295.554 542.258 L 283.41 521.489 L 290.264 521.489 C 290.93867 521.489 291.47533 521.64617 291.874 521.9605 C 292.27267 522.27483 292.59467 522.6773 292.84 523.168 L 297.578 532.92 C 297.96134 533.702 298.314 534.42266 298.636 535.082 C 298.958 535.74134 299.24167 536.393 299.487 537.037 C 299.717 536.37766 299.993 535.71834 300.315 535.059 C 300.637 534.39966 300.982 533.6867 301.35 532.92 L 306.042 523.168 C 306.134 522.96867 306.2605 522.76933 306.4215 522.57 C 306.5825 522.37067 306.7665 522.1905 306.9735 522.0295 C 307.1805 521.8685 307.41817 521.73817 307.6865 521.6385 C 307.95483 521.53883 308.25 521.489 308.572 521.489 L 315.472 521.489 Z" fill="#71cdf6"/>
        </g>
      </g>
    </g>
    <g id="Canvas_1_1a-par1-nofont">
      <title>1a-par1-nofont</title>
      <g id="Group_452">
        <title>Parabola</title>
        <g id="Graphic_444">
          <path d="M 53.568 264.712 L 53.568 281 L 44.96 281 L 44.96 234.728 L 60.032 234.728 C 63.12535 234.728 65.802655 235.09066 68.064 235.816 C 70.325345 236.54134 72.19199 237.55466 73.664 238.856 C 75.13601 240.15734 76.224 241.71466 76.928 243.528 C 77.632 245.34134 77.984 247.32532 77.984 249.48 C 77.984 251.72 77.61067 253.77332 76.864 255.64 C 76.11733 257.50668 74.99734 259.112 73.504 260.456 C 72.01066 261.8 70.14401 262.84533 67.904 263.592 C 65.66399 264.33867 63.040015 264.712 60.032 264.712 Z M 53.568 257.992 L 60.032 257.992 C 61.610675 257.992 62.98666 257.79467 64.16 257.4 C 65.33334 257.00533 66.304 256.44 67.072 255.704 C 67.84 254.968 68.416 254.072 68.8 253.016 C 69.184 251.96 69.376 250.78134 69.376 249.48 C 69.376 248.24266 69.184 247.12267 68.8 246.12 C 68.416 245.11733 67.84 244.264 67.072 243.56 C 66.304 242.856 65.33334 242.31734 64.16 241.944 C 62.98666 241.57066 61.610675 241.384 60.032 241.384 L 53.568 241.384 Z" fill="#424242"/>
        </g>
        <g id="Graphic_445">
          <path d="M 108.352 281 L 104.8 281 C 104.05333 281 103.46667 280.888 103.04 280.664 C 102.61333 280.44 102.29333 279.98667 102.08 279.304 L 101.376 276.968 C 100.544 277.71467 99.728 278.37066 98.928 278.936 C 98.128 279.50134 97.30134 279.976 96.448 280.36 C 95.59466 280.744 94.688 281.032 93.728 281.224 C 92.768 281.416 91.70134 281.512 90.528 281.512 C 89.14133 281.512 87.86134 281.32534 86.688 280.952 C 85.51466 280.57866 84.50667 280.01867 83.664 279.272 C 82.82133 278.52533 82.16534 277.59734 81.696 276.488 C 81.22666 275.37866 80.992 274.088 80.992 272.616 C 80.992 271.37866 81.31733 270.15734 81.968 268.952 C 82.61867 267.74666 83.70133 266.65867 85.216 265.688 C 86.73067 264.71733 88.74665 263.912 91.264 263.272 C 93.78135 262.632 96.90665 262.26933 100.64 262.184 L 100.64 260.264 C 100.64 258.06666 100.176 256.44 99.248 255.384 C 98.32 254.328 96.97068 253.8 95.2 253.8 C 93.91999 253.8 92.85334 253.94933 92 254.248 C 91.14666 254.54667 90.40534 254.88266 89.776 255.256 C 89.14666 255.62934 88.56534 255.96533 88.032 256.264 C 87.49866 256.56267 86.912 256.712 86.272 256.712 C 85.73866 256.712 85.28 256.57333 84.896 256.296 C 84.512 256.01867 84.20267 255.67734 83.968 255.272 L 82.528 252.744 C 86.30402 249.28798 90.85864 247.56 96.192 247.56 C 98.11201 247.56 99.82399 247.87466 101.328 248.504 C 102.83201 249.13334 104.10666 250.008 105.152 251.128 C 106.19734 252.248 106.992 253.58666 107.536 255.144 C 108.08 256.70134 108.352 258.408 108.352 260.264 Z M 92.992 276.072 C 93.80267 276.072 94.54933 275.99733 95.232 275.848 C 95.91467 275.69867 96.56 275.47467 97.168 275.176 C 97.776 274.87733 98.36266 274.50934 98.928 274.072 C 99.49334 273.63466 100.064 273.11734 100.64 272.52 L 100.64 266.984 C 98.33599 267.09067 96.41067 267.288 94.864 267.576 C 93.31733 267.864 92.07467 268.232 91.136 268.68 C 90.19733 269.128 89.53067 269.65066 89.136 270.248 C 88.74133 270.84534 88.544 271.496 88.544 272.2 C 88.544 273.58667 88.95466 274.57866 89.776 275.176 C 90.59734 275.77334 91.66933 276.072 92.992 276.072 Z" fill="#424242"/>
        </g>
        <g id="Graphic_446">
          <path d="M 116.128 281 L 116.128 248.168 L 120.768 248.168 C 121.57867 248.168 122.144 248.31733 122.464 248.616 C 122.784 248.91467 122.99733 249.42666 123.104 250.152 L 123.584 254.12 C 124.75734 252.09332 126.13333 250.49334 127.712 249.32 C 129.29067 248.14666 131.06132 247.56 133.024 247.56 C 134.64534 247.56 135.98933 247.93333 137.056 248.68 L 136.032 254.6 C 135.968 254.984 135.82933 255.256 135.616 255.416 C 135.40267 255.576 135.11467 255.656 134.752 255.656 C 134.432 255.656 133.99467 255.58133 133.44 255.432 C 132.88533 255.28267 132.14934 255.208 131.232 255.208 C 129.58933 255.208 128.18134 255.66133 127.008 256.568 C 125.83466 257.47467 124.84267 258.80266 124.032 260.552 L 124.032 281 Z" fill="#424242"/>
        </g>
        <g id="Graphic_447">
          <path d="M 167.072 281 L 163.52 281 C 162.77333 281 162.18667 280.888 161.76 280.664 C 161.33333 280.44 161.01333 279.98667 160.8 279.304 L 160.096 276.968 C 159.264 277.71467 158.448 278.37066 157.648 278.936 C 156.848 279.50134 156.02134 279.976 155.168 280.36 C 154.31466 280.744 153.408 281.032 152.448 281.224 C 151.488 281.416 150.42134 281.512 149.248 281.512 C 147.86133 281.512 146.58134 281.32534 145.408 280.952 C 144.23466 280.57866 143.22667 280.01867 142.384 279.272 C 141.54133 278.52533 140.88534 277.59734 140.416 276.488 C 139.94666 275.37866 139.712 274.088 139.712 272.616 C 139.712 271.37866 140.03733 270.15734 140.688 268.952 C 141.33867 267.74666 142.42133 266.65867 143.936 265.688 C 145.45067 264.71733 147.46665 263.912 149.984 263.272 C 152.50135 262.632 155.62665 262.26933 159.36 262.184 L 159.36 260.264 C 159.36 258.06666 158.896 256.44 157.968 255.384 C 157.04 254.328 155.69068 253.8 153.92 253.8 C 152.64 253.8 151.57334 253.94933 150.72 254.248 C 149.86666 254.54667 149.12534 254.88266 148.496 255.256 C 147.86666 255.62934 147.28534 255.96533 146.752 256.264 C 146.21866 256.56267 145.632 256.712 144.992 256.712 C 144.45866 256.712 144 256.57333 143.616 256.296 C 143.232 256.01867 142.92267 255.67734 142.688 255.272 L 141.248 252.744 C 145.02402 249.28798 149.57864 247.56 154.912 247.56 C 156.83201 247.56 158.544 247.87466 160.048 248.504 C 161.552 249.13334 162.82666 250.008 163.872 251.128 C 164.91734 252.248 165.712 253.58666 166.256 255.144 C 166.8 256.70134 167.072 258.408 167.072 260.264 Z M 151.712 276.072 C 152.52267 276.072 153.26933 275.99733 153.952 275.848 C 154.63467 275.69867 155.28 275.47467 155.888 275.176 C 156.496 274.87733 157.08266 274.50934 157.648 274.072 C 158.21334 273.63466 158.784 273.11734 159.36 272.52 L 159.36 266.984 C 157.05599 267.09067 155.13067 267.288 153.584 267.576 C 152.03733 267.864 150.79467 268.232 149.856 268.68 C 148.91733 269.128 148.25067 269.65066 147.856 270.248 C 147.46133 270.84534 147.264 271.496 147.264 272.2 C 147.264 273.58667 147.67466 274.57866 148.496 275.176 C 149.31734 275.77334 150.38933 276.072 151.712 276.072 Z" fill="#424242"/>
        </g>
        <g id="Graphic_448">
          <path d="M 174.944 281 L 174.944 233.448 L 182.848 233.448 L 182.848 252.2 C 184.14934 250.81333 185.62133 249.70934 187.264 248.888 C 188.90667 248.06666 190.82666 247.656 193.024 247.656 C 194.816 247.656 196.45333 248.024 197.936 248.76 C 199.41867 249.496 200.69866 250.568 201.776 251.976 C 202.85334 253.384 203.68533 255.12266 204.272 257.192 C 204.85867 259.26134 205.152 261.64 205.152 264.328 C 205.152 266.78135 204.82134 269.05332 204.16 271.144 C 203.49866 273.23468 202.55467 275.048 201.328 276.584 C 200.10133 278.12 198.61868 279.32 196.88 280.184 C 195.14132 281.048 193.19468 281.48 191.04 281.48 C 190.03733 281.48 189.12 281.37867 188.288 281.176 C 187.456 280.97333 186.69867 280.69067 186.016 280.328 C 185.33333 279.96533 184.69867 279.52267 184.112 279 C 183.52533 278.47733 182.96534 277.896 182.432 277.256 L 182.08 279.464 C 181.952 280.01867 181.73333 280.41333 181.424 280.648 C 181.11467 280.88267 180.69334 281 180.16 281 Z M 190.304 253.8 C 188.66133 253.8 187.25867 254.14666 186.096 254.84 C 184.93333 255.53334 183.85067 256.50933 182.848 257.768 L 182.848 272.488 C 183.744 273.59734 184.72 274.37066 185.776 274.808 C 186.832 275.24534 187.97866 275.464 189.216 275.464 C 190.41067 275.464 191.488 275.24 192.448 274.792 C 193.408 274.344 194.224 273.66134 194.896 272.744 C 195.568 271.82666 196.08533 270.66934 196.448 269.272 C 196.81067 267.87466 196.992 266.22668 196.992 264.328 C 196.992 262.408 196.83733 260.78134 196.528 259.448 C 196.21867 258.11466 195.776 257.032 195.2 256.2 C 194.624 255.368 193.92534 254.76 193.104 254.376 C 192.28266 253.992 191.34934 253.8 190.304 253.8 Z" fill="#424242"/>
        </g>
        <g id="Graphic_449">
          <path d="M 225.344 247.656 C 227.79735 247.656 230.02132 248.05066 232.016 248.84 C 234.01068 249.62934 235.712 250.74933 237.12 252.2 C 238.528 253.65067 239.616 255.42132 240.384 257.512 C 241.152 259.60268 241.536 261.93865 241.536 264.52 C 241.536 267.12268 241.152 269.46932 240.384 271.56 C 239.616 273.65068 238.528 275.432 237.12 276.904 C 235.712 278.376 234.01068 279.50666 232.016 280.296 C 230.02132 281.08534 227.79735 281.48 225.344 281.48 C 222.89065 281.48 220.66134 281.08534 218.656 280.296 C 216.65066 279.50666 214.93867 278.376 213.52 276.904 C 212.10133 275.432 211.00267 273.65068 210.224 271.56 C 209.44533 269.46932 209.056 267.12268 209.056 264.52 C 209.056 261.93865 209.44533 259.60268 210.224 257.512 C 211.00267 255.42132 212.10133 253.65067 213.52 252.2 C 214.93867 250.74933 216.65066 249.62934 218.656 248.84 C 220.66134 248.05066 222.89065 247.656 225.344 247.656 Z M 225.344 275.4 C 228.07468 275.4 230.096 274.48268 231.408 272.648 C 232.72 270.81332 233.376 268.12535 233.376 264.584 C 233.376 261.04265 232.72 258.344 231.408 256.488 C 230.096 254.632 228.07468 253.704 225.344 253.704 C 222.57065 253.704 220.52267 254.63732 219.2 256.504 C 217.87733 258.37068 217.216 261.06398 217.216 264.584 C 217.216 268.10402 217.87733 270.78666 219.2 272.632 C 220.52267 274.47734 222.57065 275.4 225.344 275.4 Z" fill="#424242"/>
        </g>
        <g id="Graphic_450">
          <rect x="248.224" y="233.448" width="7.904" height="47.552" fill="#424242"/>
        </g>
        <g id="Graphic_451">
          <path d="M 290.784 281 L 287.232 281 C 286.48533 281 285.89867 280.888 285.472 280.664 C 285.04533 280.44 284.72533 279.98667 284.512 279.304 L 283.808 276.968 C 282.976 277.71467 282.16 278.37066 281.36 278.936 C 280.56 279.50134 279.73334 279.976 278.88 280.36 C 278.02666 280.744 277.12 281.032 276.16 281.224 C 275.2 281.416 274.13334 281.512 272.96 281.512 C 271.57333 281.512 270.29334 281.32534 269.12 280.952 C 267.94666 280.57866 266.93867 280.01867 266.096 279.272 C 265.25333 278.52533 264.59734 277.59734 264.128 276.488 C 263.65866 275.37866 263.424 274.088 263.424 272.616 C 263.424 271.37866 263.74933 270.15734 264.4 268.952 C 265.05067 267.74666 266.13333 266.65867 267.648 265.688 C 269.16267 264.71733 271.17865 263.912 273.696 263.272 C 276.21335 262.632 279.33865 262.26933 283.072 262.184 L 283.072 260.264 C 283.072 258.06666 282.608 256.44 281.68 255.384 C 280.752 254.328 279.40268 253.8 277.632 253.8 C 276.352 253.8 275.28534 253.94933 274.432 254.248 C 273.57866 254.54667 272.83734 254.88266 272.208 255.256 C 271.57866 255.62934 270.99734 255.96533 270.464 256.264 C 269.93066 256.56267 269.344 256.712 268.704 256.712 C 268.17066 256.712 267.712 256.57333 267.328 256.296 C 266.944 256.01867 266.63467 255.67734 266.4 255.272 L 264.96 252.744 C 268.73602 249.28798 273.29064 247.56 278.624 247.56 C 280.544 247.56 282.256 247.87466 283.76 248.504 C 285.264 249.13334 286.53866 250.008 287.584 251.128 C 288.62934 252.248 289.424 253.58666 289.968 255.144 C 290.512 256.70134 290.784 258.408 290.784 260.264 Z M 275.424 276.072 C 276.23467 276.072 276.98133 275.99733 277.664 275.848 C 278.34667 275.69867 278.992 275.47467 279.6 275.176 C 280.208 274.87733 280.79466 274.50934 281.36 274.072 C 281.92534 273.63466 282.496 273.11734 283.072 272.52 L 283.072 266.984 C 280.768 267.09067 278.84267 267.288 277.296 267.576 C 275.74933 267.864 274.50667 268.232 273.568 268.68 C 272.62933 269.128 271.96267 269.65066 271.568 270.248 C 271.17333 270.84534 270.976 271.496 270.976 272.2 C 270.976 273.58667 271.38666 274.57866 272.208 275.176 C 273.02934 275.77334 274.10133 276.072 275.424 276.072 Z" fill="#424242"/>
        </g>
      </g>
    </g>
  </g>
</svg>
