<?xml version="1.0" encoding="UTF-8" standalone="no"?>
<!DOCTYPE svg PUBLIC "-//W3C//DTD SVG 1.1//EN" "http://www.w3.org/Graphics/SVG/1.1/DTD/svg11.dtd">
<svg xmlns:xl="http://www.w3.org/1999/xlink" xmlns="http://www.w3.org/2000/svg" xmlns:dc="http://purl.org/dc/elements/1.1/" version="1.1" viewBox="0 0 480 600" width="480" height="600">
  <defs/>
  <metadata> Produced by OmniGraffle 7.18.5\n2021-05-31 10:07:01 +0000</metadata>
  <g id="Canvas_1" fill="none" fill-opacity="1" stroke-dasharray="none" stroke-opacity="1" stroke="none">
    <title>Canvas 1</title>
    <g id="Canvas_1_book-base4">
      <title>book-base4</title>
      <g id="Graphic_453">
        <path d="M 12 0 L 468 0 C 474.6274 40581225e-23 480 5.372583 480 12 L 480 588 C 480 594.6274 474.6274 600 468 600 L 12 600 C 5.372583 600 8116245e-22 594.6274 0 588 L 35527137e-21 12 C 3633876e-20 5.372583 5.372583 -40581225e-23 12 0 Z" fill="white"/>
      </g>
    </g>
    <g id="Canvas_1_1a-ALG-nofont">
      <title>1a-ALG-nofont</title>
      <g id="Graphic_259">
        <rect x="0" y="188" width="480" height="10" fill="#ffae00"/>
      </g>
      <g id="Group_267">
        <title>ALGEBRA</title>
        <g id="Graphic_260">
          <path d="M 73.948 555 L 67.922 555 C 67.24733 555 66.6915 554.84283 66.2545 554.5285 C 65.8175 554.21417 65.51467 553.8117 65.346 553.321 L 63.368 547.479 L 50.626 547.479 L 48.648 553.321 C 48.494666 553.75034 48.19567 554.1375 47.751 554.4825 C 47.30633 554.8275 46.762003 555 46.118 555 L 40.046 555 L 53.018 521.489 L 60.976 521.489 Z M 52.42 542.189 L 61.574 542.189 L 58.492 533.012 C 58.292666 532.4293 58.058835 531.7432 57.7905 530.9535 C 57.522165 530.1638 57.25767 529.309 56.997 528.389 C 56.751665 529.32434 56.49867 530.19066 56.238 530.988 C 55.97733 531.78534 55.732 532.4753 55.502 533.058 Z" fill="#ffae00"/>
        </g>
        <g id="Graphic_261">
          <path d="M 87.436 548.79 L 99.856 548.79 L 99.856 555 L 79.662 555 L 79.662 521.489 L 87.436 521.489 Z" fill="#ffae00"/>
        </g>
        <g id="Graphic_262">
          <path d="M 120.474 549.388 C 121.54734 549.388 122.498 549.296 123.326 549.112 C 124.154 548.928 124.936 548.6827 125.672 548.376 L 125.672 543.293 L 122.36 543.293 C 121.86933 543.293 121.486 543.1627 121.21 542.902 C 120.934 542.6413 120.796 542.3117 120.796 541.913 L 120.796 537.635 L 132.71 537.635 L 132.71 551.78 C 131.85133 552.4087 130.95817 552.94916 130.0305 553.4015 C 129.10283 553.85384 128.11384 554.22567 127.0635 554.517 C 126.01316 554.80833 124.89384 555.023 123.7055 555.161 C 122.51716 555.299 121.24067 555.368 119.876 555.368 C 117.42265 555.368 115.15334 554.93484 113.068 554.0685 C 110.98266 553.20216 109.17717 552.0062 107.6515 550.4805 C 106.12583 548.9548 104.92984 547.1455 104.0635 545.0525 C 103.19716 542.9595 102.764 540.68635 102.764 538.233 C 102.764 535.73365 103.178 533.4375 104.006 531.3445 C 104.834 529.2515 106.01849 527.446 107.5595 525.928 C 109.10051 524.41 110.96349 523.22934 113.1485 522.386 C 115.33351 521.54266 117.77532 521.121 120.474 521.121 C 121.86934 521.121 123.18033 521.236 124.407 521.466 C 125.63367 521.696 126.7645 522.01033 127.7995 522.409 C 128.8345 522.80767 129.78133 523.283 130.64 523.835 C 131.49867 524.387 132.26533 524.985 132.94 525.629 L 130.686 529.056 C 130.47133 529.378 130.2145 529.631 129.9155 529.815 C 129.6165 529.999 129.29067 530.091 128.938 530.091 C 128.478 530.091 128.00267 529.93767 127.512 529.631 C 126.89866 529.263 126.31984 528.94483 125.7755 528.6765 C 125.23116 528.40817 124.67534 528.18967 124.108 528.021 C 123.54066 527.85233 122.94267 527.72967 122.314 527.653 C 121.68533 527.57633 120.98 527.538 120.198 527.538 C 118.74133 527.538 117.43034 527.7948 116.265 528.3085 C 115.09966 528.8222 114.10684 529.54666 113.2865 530.482 C 112.46616 531.41734 111.83367 532.5405 111.389 533.8515 C 110.94433 535.1625 110.722 536.623 110.722 538.233 C 110.722 540.0117 110.96733 541.591 111.458 542.971 C 111.94867 544.351 112.62716 545.5163 113.4935 546.467 C 114.35984 547.4177 115.38716 548.14216 116.5755 548.6405 C 117.76384 549.13884 119.06333 549.388 120.474 549.388 Z" fill="#ffae00"/>
        </g>
        <g id="Graphic_263">
          <path d="M 162.022 521.489 L 162.022 527.469 L 148.268 527.469 L 148.268 535.289 L 158.802 535.289 L 158.802 541.039 L 148.268 541.039 L 148.268 549.02 L 162.022 549.02 L 162.022 555 L 140.448 555 L 140.448 521.489 Z" fill="#ffae00"/>
        </g>
        <g id="Graphic_264">
          <path d="M 169.438 555 L 169.438 521.489 L 181.766 521.489 C 184.08134 521.489 186.05166 521.70366 187.677 522.133 C 189.30234 522.56234 190.62866 523.168 191.656 523.95 C 192.68334 524.732 193.43083 525.68266 193.8985 526.802 C 194.36617 527.92134 194.6 529.171 194.6 530.551 C 194.6 531.30234 194.49267 532.0268 194.278 532.7245 C 194.06333 533.4222 193.726 534.07766 193.266 534.691 C 192.806 535.30434 192.21567 535.86016 191.495 536.3585 C 190.77433 536.85684 189.908 537.29 188.896 537.658 C 191.104 538.1947 192.737 539.0648 193.795 540.2685 C 194.853 541.4722 195.382 543.017 195.382 544.903 C 195.382 546.329 195.106 547.6553 194.554 548.882 C 194.002 550.1087 193.19317 551.17816 192.1275 552.0905 C 191.06183 553.00284 189.747 553.7158 188.183 554.2295 C 186.619 554.7432 184.83268 555 182.824 555 Z M 177.212 540.786 L 177.212 549.135 L 182.686 549.135 C 183.71334 549.135 184.55283 549.0047 185.2045 548.744 C 185.85617 548.4833 186.366 548.146 186.734 547.732 C 187.102 547.318 187.355 546.85034 187.493 546.329 C 187.631 545.80766 187.7 545.2787 187.7 544.742 C 187.7 544.12866 187.6195 543.5767 187.4585 543.086 C 187.2975 542.5953 187.0215 542.18134 186.6305 541.844 C 186.2395 541.50666 185.722 541.246 185.078 541.062 C 184.434 540.878 183.62134 540.786 182.64 540.786 Z M 177.212 535.588 L 181.26 535.588 C 182.11867 535.588 182.893 535.52667 183.583 535.404 C 184.273 535.28133 184.8595 535.0667 185.3425 534.76 C 185.8255 534.4533 186.1935 534.0317 186.4465 533.495 C 186.6995 532.9583 186.826 532.2837 186.826 531.471 C 186.826 530.67366 186.72633 530.0105 186.527 529.4815 C 186.32767 528.9525 186.021 528.527 185.607 528.205 C 185.193 527.883 184.66784 527.653 184.0315 527.515 C 183.39516 527.377 182.64 527.308 181.766 527.308 L 177.212 527.308 Z" fill="#ffae00"/>
        </g>
        <g id="Graphic_265">
          <path d="M 210.388 542.603 L 210.388 555 L 202.614 555 L 202.614 521.489 L 213.516 521.489 C 215.93868 521.489 218.00482 521.73816 219.7145 522.2365 C 221.42418 522.73484 222.8195 523.42866 223.9005 524.318 C 224.9815 525.20734 225.76733 526.25766 226.258 527.469 C 226.74867 528.68034 226.994 529.999 226.994 531.425 C 226.994 532.5137 226.84833 533.541 226.557 534.507 C 226.26567 535.473 225.8325 536.36616 225.2575 537.1865 C 224.6825 538.00684 223.97717 538.739 223.1415 539.383 C 222.30583 540.027 221.34367 540.556 220.255 540.97 C 220.77634 541.2307 221.26316 541.55266 221.7155 541.936 C 222.16784 542.31934 222.56266 542.787 222.9 543.339 L 230.03 555 L 222.992 555 C 221.68866 555 220.75334 554.50934 220.186 553.528 L 214.62 543.799 C 214.37467 543.36966 214.08717 543.063 213.7575 542.879 C 213.42783 542.695 212.964 542.603 212.366 542.603 Z M 210.388 537.244 L 213.516 537.244 C 214.574 537.244 215.47483 537.10983 216.2185 536.8415 C 216.96217 536.57317 217.57166 536.20134 218.047 535.726 C 218.52234 535.25066 218.86733 534.69484 219.082 534.0585 C 219.29667 533.42216 219.404 532.736 219.404 532 C 219.404 530.528 218.92484 529.378 217.9665 528.55 C 217.00816 527.722 215.52468 527.308 213.516 527.308 L 210.388 527.308 Z" fill="#ffae00"/>
        </g>
        <g id="Graphic_266">
          <path d="M 267.392 555 L 261.366 555 C 260.69133 555 260.1355 554.84283 259.6985 554.5285 C 259.2615 554.21417 258.95867 553.8117 258.79 553.321 L 256.812 547.479 L 244.07 547.479 L 242.092 553.321 C 241.93867 553.75034 241.63967 554.1375 241.195 554.4825 C 240.75033 554.8275 240.206 555 239.562 555 L 233.49 555 L 246.462 521.489 L 254.42 521.489 Z M 245.864 542.189 L 255.018 542.189 L 251.936 533.012 C 251.73667 532.4293 251.50283 531.7432 251.2345 530.9535 C 250.96617 530.1638 250.70167 529.309 250.441 528.389 C 250.19567 529.32434 249.94267 530.19066 249.682 530.988 C 249.42133 531.78534 249.176 532.4753 248.946 533.058 Z" fill="#ffae00"/>
        </g>
      </g>
    </g>
    <g id="Canvas_1_1a-cru1-nofont">
      <title>1a-cru1-nofont</title>
      <g id="Group_389">
        <title>Cube Roots of Unity</title>
        <g id="Graphic_373">
          <path d="M 76.48 270.088 C 76.94934 270.088 77.354665 270.26933 77.696 270.632 L 81.088 274.312 C 79.21066 276.63734 76.90135 278.41866 74.16 279.656 C 71.41865 280.89334 68.12802 281.512 64.288 281.512 C 60.853316 281.512 57.76535 280.92534 55.024 279.752 C 52.28265 278.57866 49.941343 276.94668 48 274.856 C 46.058657 272.76532 44.57067 270.26935 43.536 267.368 C 42.50133 264.46665 41.984 261.29868 41.984 257.864 C 41.984 254.38665 42.559994 251.20268 43.712 248.312 C 44.864006 245.42132 46.485323 242.93068 48.576 240.84 C 50.66668 238.74932 53.167985 237.12267 56.08 235.96 C 58.992015 234.79733 62.20798 234.216 65.728 234.216 C 69.16268 234.216 72.16532 234.76533 74.736 235.864 C 77.30668 236.96267 79.50932 238.41866 81.344 240.232 L 78.464 244.232 C 78.29333 244.488 78.07467 244.712 77.808 244.904 C 77.54133 245.096 77.17334 245.192 76.704 245.192 C 76.21333 245.192 75.712 245 75.2 244.616 C 74.688 244.232 74.03734 243.816 73.248 243.368 C 72.45866 242.92 71.46134 242.504 70.256 242.12 C 69.05066 241.736 67.52001 241.544 65.664 241.544 C 63.48799 241.544 61.48801 241.92266 59.664 242.68 C 57.83999 243.43734 56.272007 244.52 54.96 245.928 C 53.647993 247.336 52.624004 249.048 51.888 251.064 C 51.151996 253.08 50.784 255.34665 50.784 257.864 C 50.784 260.46668 51.151996 262.78132 51.888 264.808 C 52.624004 266.83468 53.62133 268.54133 54.88 269.928 C 56.13867 271.31467 57.621325 272.376 59.328 273.112 C 61.034675 273.848 62.86932 274.216 64.832 274.216 C 66.00534 274.216 67.06666 274.152 68.016 274.024 C 68.96534 273.896 69.84 273.69333 70.64 273.416 C 71.44 273.13867 72.19733 272.78134 72.912 272.344 C 73.62667 271.90666 74.336 271.368 75.04 270.728 C 75.25333 270.536 75.47733 270.38133 75.712 270.264 C 75.94667 270.14667 76.202665 270.088 76.48 270.088 Z" fill="#424242"/>
        </g>
        <g id="Graphic_374">
          <path d="M 94.368 248.168 L 94.368 269.032 C 94.368 271.03734 94.832 272.58933 95.76 273.688 C 96.688 274.78667 98.07999 275.336 99.936 275.336 C 101.30134 275.336 102.58133 275.032 103.776 274.424 C 104.97067 273.816 106.10133 272.97867 107.168 271.912 L 107.168 248.168 L 115.072 248.168 L 115.072 281 L 110.24 281 C 109.216 281 108.544 280.52 108.224 279.56 L 107.68 276.936 C 106.99733 277.61867 106.29334 278.24266 105.568 278.808 C 104.84266 279.37334 104.06934 279.85333 103.248 280.248 C 102.42666 280.64267 101.54134 280.952 100.592 281.176 C 99.64266 281.4 98.624 281.512 97.536 281.512 C 95.74399 281.512 94.16001 281.208 92.784 280.6 C 91.40799 279.992 90.25067 279.13334 89.312 278.024 C 88.37333 276.91466 87.664 275.59734 87.184 274.072 C 86.704 272.54666 86.464 270.86668 86.464 269.032 L 86.464 248.168 Z" fill="#424242"/>
        </g>
        <g id="Graphic_375">
          <path d="M 123.616 281 L 123.616 233.448 L 131.52 233.448 L 131.52 252.2 C 132.82134 250.81333 134.29333 249.70934 135.936 248.888 C 137.57867 248.06666 139.49866 247.656 141.696 247.656 C 143.48801 247.656 145.12533 248.024 146.608 248.76 C 148.09067 249.496 149.37066 250.568 150.448 251.976 C 151.52534 253.384 152.35733 255.12266 152.944 257.192 C 153.53067 259.26134 153.824 261.64 153.824 264.328 C 153.824 266.78135 153.49334 269.05332 152.832 271.144 C 152.17066 273.23468 151.22667 275.048 150 276.584 C 148.77333 278.12 147.29068 279.32 145.552 280.184 C 143.81332 281.048 141.86668 281.48 139.712 281.48 C 138.70933 281.48 137.792 281.37867 136.96 281.176 C 136.128 280.97333 135.37067 280.69067 134.688 280.328 C 134.00533 279.96533 133.37067 279.52267 132.784 279 C 132.19733 278.47733 131.63734 277.896 131.104 277.256 L 130.752 279.464 C 130.624 280.01867 130.40533 280.41333 130.096 280.648 C 129.78667 280.88267 129.36534 281 128.832 281 Z M 138.976 253.8 C 137.33333 253.8 135.93067 254.14666 134.768 254.84 C 133.60533 255.53334 132.52267 256.50933 131.52 257.768 L 131.52 272.488 C 132.416 273.59734 133.392 274.37066 134.448 274.808 C 135.504 275.24534 136.65066 275.464 137.888 275.464 C 139.08267 275.464 140.16 275.24 141.12 274.792 C 142.08 274.344 142.896 273.66134 143.568 272.744 C 144.24 271.82666 144.75733 270.66934 145.12 269.272 C 145.48267 267.87466 145.664 266.22668 145.664 264.328 C 145.664 262.408 145.50933 260.78134 145.2 259.448 C 144.89067 258.11466 144.448 257.032 143.872 256.2 C 143.296 255.368 142.59734 254.76 141.776 254.376 C 140.95466 253.992 140.02134 253.8 138.976 253.8 Z" fill="#424242"/>
        </g>
        <g id="Graphic_376">
          <path d="M 173.568 247.656 C 175.63734 247.656 177.54132 247.98666 179.28 248.648 C 181.01868 249.30934 182.51733 250.27466 183.776 251.544 C 185.03467 252.81334 186.016 254.37066 186.72 256.216 C 187.424 258.06134 187.776 260.168 187.776 262.536 C 187.776 263.13334 187.74933 263.62933 187.696 264.024 C 187.64267 264.41867 187.54667 264.728 187.408 264.952 C 187.26933 265.176 187.08267 265.336 186.848 265.432 C 186.61333 265.528 186.31467 265.576 185.952 265.576 L 165.664 265.576 C 165.89867 268.94668 166.80533 271.42133 168.384 273 C 169.96267 274.57867 172.05332 275.368 174.656 275.368 C 175.936 275.368 177.04 275.21867 177.968 274.92 C 178.896 274.62133 179.70666 274.29067 180.4 273.928 C 181.09334 273.56533 181.70133 273.23467 182.224 272.936 C 182.74667 272.63733 183.25333 272.488 183.744 272.488 C 184.064 272.488 184.34133 272.552 184.576 272.68 C 184.81067 272.808 185.01333 272.98933 185.184 273.224 L 187.488 276.104 C 186.61333 277.128 185.632 277.98666 184.544 278.68 C 183.456 279.37334 182.32 279.928 181.136 280.344 C 179.952 280.76 178.74667 281.05333 177.52 281.224 C 176.29333 281.39467 175.104 281.48 173.952 281.48 C 171.66932 281.48 169.54668 281.10134 167.584 280.344 C 165.62132 279.58666 163.91467 278.46667 162.464 276.984 C 161.01333 275.50133 159.872 273.66668 159.04 271.48 C 158.208 269.29332 157.792 266.76 157.792 263.88 C 157.792 261.64 158.15466 259.53334 158.88 257.56 C 159.60534 255.58666 160.64533 253.86934 162 252.408 C 163.35467 250.94666 165.008 249.78934 166.96 248.936 C 168.912 248.08266 171.11465 247.656 173.568 247.656 Z M 173.728 253.32 C 171.42399 253.32 169.62134 253.97066 168.32 255.272 C 167.01866 256.57334 166.18667 258.41865 165.824 260.808 L 180.672 260.808 C 180.672 259.784 180.53333 258.81867 180.256 257.912 C 179.97867 257.00533 179.552 256.21067 178.976 255.528 C 178.4 254.84533 177.67467 254.30667 176.8 253.912 C 175.92533 253.51733 174.90134 253.32 173.728 253.32 Z" fill="#424242"/>
        </g>
        <g id="Graphic_377">
          <path d="M 215.904 262.92 L 215.904 281 L 207.296 281 L 207.296 234.728 L 221.408 234.728 C 224.56535 234.728 227.26932 235.05333 229.52 235.704 C 231.77068 236.35467 233.616 237.26666 235.056 238.44 C 236.496 239.61334 237.552 241.016 238.224 242.648 C 238.896 244.28 239.232 246.07732 239.232 248.04 C 239.232 249.59734 239.00267 251.06933 238.544 252.456 C 238.08533 253.84267 237.424 255.10133 236.56 256.232 C 235.696 257.36267 234.62934 258.35466 233.36 259.208 C 232.09066 260.06134 230.64534 260.744 229.024 261.256 C 230.112 261.87467 231.05066 262.76 231.84 263.912 L 243.424 281 L 235.68 281 C 234.93333 281 234.29867 280.85067 233.776 280.552 C 233.25333 280.25333 232.81067 279.82667 232.448 279.272 L 222.72 264.456 C 222.35733 263.90133 221.95734 263.50667 221.52 263.272 C 221.08266 263.03733 220.43734 262.92 219.584 262.92 Z M 215.904 256.744 L 221.28 256.744 C 222.90134 256.744 224.31466 256.54134 225.52 256.136 C 226.72534 255.73066 227.71733 255.17067 228.496 254.456 C 229.27467 253.74133 229.856 252.89334 230.24 251.912 C 230.624 250.93066 230.816 249.85334 230.816 248.68 C 230.816 246.33332 230.04267 244.53067 228.496 243.272 C 226.94933 242.01333 224.58668 241.384 221.408 241.384 L 215.904 241.384 Z" fill="#424242"/>
        </g>
        <g id="Graphic_378">
          <path d="M 262.496 247.656 C 264.94935 247.656 267.17332 248.05066 269.168 248.84 C 271.16268 249.62934 272.864 250.74933 274.272 252.2 C 275.68 253.65067 276.768 255.42132 277.536 257.512 C 278.304 259.60268 278.688 261.93865 278.688 264.52 C 278.688 267.12268 278.304 269.46932 277.536 271.56 C 276.768 273.65068 275.68 275.432 274.272 276.904 C 272.864 278.376 271.16268 279.50666 269.168 280.296 C 267.17332 281.08534 264.94935 281.48 262.496 281.48 C 260.04265 281.48 257.81334 281.08534 255.808 280.296 C 253.80266 279.50666 252.09067 278.376 250.672 276.904 C 249.25333 275.432 248.15467 273.65068 247.376 271.56 C 246.59733 269.46932 246.208 267.12268 246.208 264.52 C 246.208 261.93865 246.59733 259.60268 247.376 257.512 C 248.15467 255.42132 249.25333 253.65067 250.672 252.2 C 252.09067 250.74933 253.80266 249.62934 255.808 248.84 C 257.81334 248.05066 260.04265 247.656 262.496 247.656 Z M 262.496 275.4 C 265.22668 275.4 267.248 274.48268 268.56 272.648 C 269.872 270.81332 270.528 268.12535 270.528 264.584 C 270.528 261.04265 269.872 258.344 268.56 256.488 C 267.248 254.632 265.22668 253.704 262.496 253.704 C 259.72265 253.704 257.67467 254.63732 256.352 256.504 C 255.02933 258.37068 254.368 261.06398 254.368 264.584 C 254.368 268.10402 255.02933 270.78666 256.352 272.632 C 257.67467 274.47734 259.72265 275.4 262.496 275.4 Z" fill="#424242"/>
        </g>
        <g id="Graphic_379">
          <path d="M 298.88 247.656 C 301.33335 247.656 303.55732 248.05066 305.552 248.84 C 307.54668 249.62934 309.248 250.74933 310.656 252.2 C 312.064 253.65067 313.152 255.42132 313.92 257.512 C 314.688 259.60268 315.072 261.93865 315.072 264.52 C 315.072 267.12268 314.688 269.46932 313.92 271.56 C 313.152 273.65068 312.064 275.432 310.656 276.904 C 309.248 278.376 307.54668 279.50666 305.552 280.296 C 303.55732 281.08534 301.33335 281.48 298.88 281.48 C 296.42665 281.48 294.19734 281.08534 292.192 280.296 C 290.18666 279.50666 288.47467 278.376 287.056 276.904 C 285.63733 275.432 284.53867 273.65068 283.76 271.56 C 282.98133 269.46932 282.592 267.12268 282.592 264.52 C 282.592 261.93865 282.98133 259.60268 283.76 257.512 C 284.53867 255.42132 285.63733 253.65067 287.056 252.2 C 288.47467 250.74933 290.18666 249.62934 292.192 248.84 C 294.19734 248.05066 296.42665 247.656 298.88 247.656 Z M 298.88 275.4 C 301.61068 275.4 303.632 274.48268 304.944 272.648 C 306.256 270.81332 306.912 268.12535 306.912 264.584 C 306.912 261.04265 306.256 258.344 304.944 256.488 C 303.632 254.632 301.61068 253.704 298.88 253.704 C 296.10665 253.704 294.05867 254.63732 292.736 256.504 C 291.41333 258.37068 290.752 261.06398 290.752 264.584 C 290.752 268.10402 291.41333 270.78666 292.736 272.632 C 294.05867 274.47734 296.10665 275.4 298.88 275.4 Z" fill="#424242"/>
        </g>
        <g id="Graphic_380">
          <path d="M 332.032 281.512 C 329.19465 281.512 327.008 280.70667 325.472 279.096 C 323.936 277.48533 323.168 275.26135 323.168 272.424 L 323.168 254.088 L 319.84 254.088 C 319.41333 254.088 319.04533 253.94933 318.736 253.672 C 318.42667 253.39467 318.272 252.97867 318.272 252.424 L 318.272 249.288 L 323.552 248.424 L 325.216 239.464 C 325.30133 239.03733 325.49867 238.70667 325.808 238.472 C 326.11733 238.23733 326.50666 238.12 326.976 238.12 L 331.072 238.12 L 331.072 248.456 L 339.712 248.456 L 339.712 254.088 L 331.072 254.088 L 331.072 271.88 C 331.072 272.904 331.328 273.704 331.84 274.28 C 332.352 274.856 333.03466 275.144 333.888 275.144 C 334.37867 275.144 334.78933 275.08533 335.12 274.968 C 335.45067 274.85067 335.73867 274.728 335.984 274.6 C 336.22933 274.472 336.448 274.34933 336.64 274.232 C 336.832 274.11467 337.024 274.056 337.216 274.056 C 337.45067 274.056 337.64267 274.11467 337.792 274.232 C 337.94133 274.34933 338.10133 274.52533 338.272 274.76 L 340.64 278.6 C 339.488 279.56 338.16534 280.28533 336.672 280.776 C 335.17866 281.26667 333.632 281.512 332.032 281.512 Z" fill="#424242"/>
        </g>
        <g id="Graphic_381">
          <path d="M 365.504 254.568 C 365.29067 254.90934 365.06667 255.14933 364.832 255.288 C 364.59733 255.42667 364.29867 255.496 363.936 255.496 C 363.552 255.496 363.14134 255.38933 362.704 255.176 C 362.26666 254.96267 361.76 254.72267 361.184 254.456 C 360.608 254.18933 359.952 253.94933 359.216 253.736 C 358.48 253.52267 357.61067 253.416 356.608 253.416 C 355.05066 253.416 353.824 253.74666 352.928 254.408 C 352.032 255.06934 351.584 255.93333 351.584 257 C 351.584 257.704 351.81333 258.296 352.272 258.776 C 352.73067 259.256 353.33866 259.67733 354.096 260.04 C 354.85334 260.40267 355.712 260.728 356.672 261.016 C 357.632 261.304 358.61333 261.61866 359.616 261.96 C 360.61867 262.30134 361.6 262.69066 362.56 263.128 C 363.52 263.56534 364.37866 264.12 365.136 264.792 C 365.89334 265.464 366.50133 266.26933 366.96 267.208 C 367.41867 268.14667 367.648 269.27733 367.648 270.6 C 367.648 272.17867 367.36 273.63466 366.784 274.968 C 366.208 276.30134 365.36534 277.45333 364.256 278.424 C 363.14666 279.39467 361.776 280.152 360.144 280.696 C 358.512 281.24 356.64 281.512 354.528 281.512 C 353.39733 281.512 352.29334 281.41067 351.216 281.208 C 350.13866 281.00533 349.104 280.72267 348.112 280.36 C 347.12 279.99733 346.20267 279.57067 345.36 279.08 C 344.51733 278.58933 343.776 278.056 343.136 277.48 L 344.96 274.472 C 345.19467 274.10933 345.472 273.832 345.792 273.64 C 346.112 273.448 346.51733 273.352 347.008 273.352 C 347.49867 273.352 347.96266 273.49067 348.4 273.768 C 348.83734 274.04533 349.344 274.344 349.92 274.664 C 350.496 274.984 351.17333 275.28267 351.952 275.56 C 352.73067 275.83733 353.71733 275.976 354.912 275.976 C 355.85067 275.976 356.656 275.864 357.328 275.64 C 358 275.416 358.55466 275.12267 358.992 274.76 C 359.42934 274.39733 359.74933 273.976 359.952 273.496 C 360.15467 273.016 360.256 272.52 360.256 272.008 C 360.256 271.24 360.02667 270.61067 359.568 270.12 C 359.10933 269.62933 358.50134 269.20267 357.744 268.84 C 356.98666 268.47733 356.12267 268.152 355.152 267.864 C 354.18133 267.576 353.18934 267.26134 352.176 266.92 C 351.16266 266.57866 350.17067 266.17867 349.2 265.72 C 348.22933 265.26133 347.36534 264.68 346.608 263.976 C 345.85066 263.272 345.24267 262.408 344.784 261.384 C 344.32533 260.36 344.096 259.12267 344.096 257.672 C 344.096 256.328 344.36266 255.048 344.896 253.832 C 345.42934 252.616 346.21333 251.55467 347.248 250.648 C 348.28267 249.74133 349.57333 249.016 351.12 248.472 C 352.66667 247.928 354.45332 247.656 356.48 247.656 C 358.74134 247.656 360.8 248.02933 362.656 248.776 C 364.512 249.52267 366.05866 250.504 367.296 251.72 Z" fill="#424242"/>
        </g>
        <g id="Graphic_382">
          <path d="M 400.352 247.656 C 402.80535 247.656 405.0293 248.05066 407.024 248.84 C 409.0187 249.62934 410.72 250.74933 412.128 252.2 C 413.536 253.65067 414.624 255.42132 415.392 257.512 C 416.16 259.60268 416.544 261.93865 416.544 264.52 C 416.544 267.12268 416.16 269.46932 415.392 271.56 C 414.624 273.65068 413.536 275.432 412.128 276.904 C 410.72 278.376 409.0187 279.50666 407.024 280.296 C 405.0293 281.08534 402.80535 281.48 400.352 281.48 C 397.89865 281.48 395.66934 281.08534 393.664 280.296 C 391.65866 279.50666 389.94667 278.376 388.528 276.904 C 387.10933 275.432 386.01067 273.65068 385.232 271.56 C 384.45333 269.46932 384.064 267.12268 384.064 264.52 C 384.064 261.93865 384.45333 259.60268 385.232 257.512 C 386.01067 255.42132 387.10933 253.65067 388.528 252.2 C 389.94667 250.74933 391.65866 249.62934 393.664 248.84 C 395.66934 248.05066 397.89865 247.656 400.352 247.656 Z M 400.352 275.4 C 403.0827 275.4 405.104 274.48268 406.416 272.648 C 407.728 270.81332 408.384 268.12535 408.384 264.584 C 408.384 261.04265 407.728 258.344 406.416 256.488 C 405.104 254.632 403.0827 253.704 400.352 253.704 C 397.57865 253.704 395.53067 254.63732 394.208 256.504 C 392.88533 258.37068 392.224 261.06398 392.224 264.584 C 392.224 268.10402 392.88533 270.78666 394.208 272.632 C 395.53067 274.47734 397.57865 275.4 400.352 275.4 Z" fill="#424242"/>
        </g>
        <g id="Graphic_383">
          <path d="M 424.128 281 L 424.128 254.12 L 421.28 253.672 C 420.66133 253.56533 420.16534 253.352 419.792 253.032 C 419.41866 252.712 419.232 252.264 419.232 251.688 L 419.232 248.456 L 424.128 248.456 L 424.128 246.024 C 424.128 244.14666 424.41066 242.46134 424.976 240.968 C 425.54134 239.47466 426.352 238.20534 427.408 237.16 C 428.464 236.11466 429.74933 235.31467 431.264 234.76 C 432.7787 234.20533 434.4853 233.928 436.384 233.928 C 437.8987 233.928 439.30666 234.13066 440.608 234.536 L 440.448 238.504 C 440.40533 239.12267 440.11734 239.50667 439.584 239.656 C 439.05066 239.80533 438.432 239.88 437.728 239.88 C 436.78933 239.88 435.952 239.98133 435.216 240.184 C 434.48 240.38667 433.856 240.73866 433.344 241.24 C 432.832 241.74134 432.44267 242.40266 432.176 243.224 C 431.90933 244.04534 431.776 245.064 431.776 246.28 L 431.776 248.456 L 440.32 248.456 L 440.32 254.088 L 432.032 254.088 L 432.032 281 Z" fill="#424242"/>
        </g>
        <g id="Graphic_384">
          <path d="M 63.296 351.056 C 64.96001 351.056 66.44799 350.77867 67.76 350.224 C 69.07201 349.66933 70.18133 348.89067 71.088 347.888 C 71.99467 346.88533 72.688 345.66934 73.168 344.24 C 73.648 342.81066 73.888 341.21068 73.888 339.44 L 73.888 311.728 L 82.496 311.728 L 82.496 339.44 C 82.496 342.192 82.05334 344.736 81.168 347.072 C 80.28266 349.408 79.00801 351.424 77.344 353.12 C 75.67999 354.816 73.66401 356.13866 71.296 357.088 C 68.92799 358.03734 66.26135 358.512 63.296 358.512 C 60.33065 358.512 57.66401 358.03734 55.296 357.088 C 52.92799 356.13866 50.91734 354.816 49.264 353.12 C 47.61066 351.424 46.34134 349.408 45.456 347.072 C 44.57066 344.736 44.128 342.192 44.128 339.44 L 44.128 311.728 L 52.736 311.728 L 52.736 339.408 C 52.736 341.17868 52.976 342.77866 53.456 344.208 C 53.936 345.63734 54.623996 346.85866 55.52 347.872 C 56.416004 348.88534 57.519993 349.66933 58.832 350.224 C 60.14401 350.77867 61.63199 351.056 63.296 351.056 Z" fill="#424242"/>
        </g>
        <g id="Graphic_385">
          <path d="M 90.816 358 L 90.816 325.168 L 95.648 325.168 C 96.672 325.168 97.344 325.648 97.664 326.608 L 98.208 329.2 C 98.86934 328.51733 99.568 327.89867 100.304 327.344 C 101.04 326.78933 101.81866 326.30934 102.64 325.904 C 103.46134 325.49866 104.34133 325.18933 105.28 324.976 C 106.21867 324.76267 107.24266 324.656 108.352 324.656 C 110.14401 324.656 111.73333 324.96 113.12 325.568 C 114.50667 326.176 115.664 327.02933 116.592 328.128 C 117.52 329.22667 118.224 330.53866 118.704 332.064 C 119.184 333.58934 119.424 335.26932 119.424 337.104 L 119.424 358 L 111.52 358 L 111.52 337.104 C 111.52 335.09866 111.056 333.54667 110.128 332.448 C 109.2 331.34933 107.80801 330.8 105.952 330.8 C 104.58666 330.8 103.30667 331.10933 102.112 331.728 C 100.91733 332.34667 99.78667 333.18933 98.72 334.256 L 98.72 358 Z" fill="#424242"/>
        </g>
        <g id="Graphic_386">
          <path d="M 135.616 325.168 L 135.616 358 L 127.712 358 L 127.712 325.168 Z M 136.8 315.6 C 136.8 316.28267 136.66133 316.92266 136.384 317.52 C 136.10667 318.11734 135.73867 318.64 135.28 319.088 C 134.82133 319.536 134.28267 319.89333 133.664 320.16 C 133.04533 320.42667 132.384 320.56 131.68 320.56 C 130.99733 320.56 130.352 320.42667 129.744 320.16 C 129.136 319.89333 128.608 319.536 128.16 319.088 C 127.712 318.64 127.35467 318.11734 127.088 317.52 C 126.82133 316.92266 126.688 316.28267 126.688 315.6 C 126.688 314.896 126.82133 314.23467 127.088 313.616 C 127.35467 312.99733 127.712 312.464 128.16 312.016 C 128.608 311.568 129.136 311.21067 129.744 310.944 C 130.352 310.67733 130.99733 310.544 131.68 310.544 C 132.384 310.544 133.04533 310.67733 133.664 310.944 C 134.28267 311.21067 134.82133 311.568 135.28 312.016 C 135.73867 312.464 136.10667 312.99733 136.384 313.616 C 136.66133 314.23467 136.8 314.896 136.8 315.6 Z" fill="#424242"/>
        </g>
        <g id="Graphic_387">
          <path d="M 155.328 358.512 C 152.49065 358.512 150.304 357.70667 148.768 356.096 C 147.232 354.48533 146.464 352.26135 146.464 349.424 L 146.464 331.088 L 143.136 331.088 C 142.70933 331.088 142.34133 330.94933 142.032 330.672 C 141.72267 330.39467 141.568 329.97867 141.568 329.424 L 141.568 326.288 L 146.848 325.424 L 148.512 316.464 C 148.59733 316.03733 148.79467 315.70667 149.104 315.472 C 149.41333 315.23733 149.80266 315.12 150.272 315.12 L 154.368 315.12 L 154.368 325.456 L 163.008 325.456 L 163.008 331.088 L 154.368 331.088 L 154.368 348.88 C 154.368 349.904 154.624 350.704 155.136 351.28 C 155.648 351.856 156.33066 352.144 157.184 352.144 C 157.67467 352.144 158.08533 352.08533 158.416 351.968 C 158.74667 351.85067 159.03467 351.728 159.28 351.6 C 159.52533 351.472 159.744 351.34933 159.936 351.232 C 160.128 351.11467 160.32 351.056 160.512 351.056 C 160.74667 351.056 160.93867 351.11467 161.088 351.232 C 161.23733 351.34933 161.39733 351.52533 161.568 351.76 L 163.936 355.6 C 162.784 356.56 161.46134 357.28533 159.968 357.776 C 158.47466 358.26667 156.928 358.512 155.328 358.512 Z" fill="#424242"/>
        </g>
        <g id="Graphic_388">
          <path d="M 180.96 367.024 C 180.72533 367.57867 180.42134 368 180.048 368.288 C 179.67466 368.576 179.104 368.72 178.336 368.72 L 172.448 368.72 L 178.592 355.568 L 165.312 325.168 L 172.224 325.168 C 172.864 325.168 173.35466 325.31733 173.696 325.616 C 174.03734 325.91467 174.29333 326.256 174.464 326.64 L 181.472 343.664 C 181.70667 344.21867 181.90933 344.79466 182.08 345.392 C 182.25067 345.98934 182.4 346.58666 182.528 347.184 C 182.69867 346.56533 182.88533 345.968 183.088 345.392 C 183.29067 344.816 183.50933 344.22934 183.744 343.632 L 190.336 326.64 C 190.50667 326.21333 190.78933 325.86133 191.184 325.584 C 191.57867 325.30667 192.02133 325.168 192.512 325.168 L 198.848 325.168 Z" fill="#424242"/>
        </g>
      </g>
    </g>
  </g>
</svg>
