<?xml version="1.0" encoding="UTF-8" standalone="no"?>
<!DOCTYPE svg PUBLIC "-//W3C//DTD SVG 1.1//EN" "http://www.w3.org/Graphics/SVG/1.1/DTD/svg11.dtd">
<svg width="100%" height="100%" viewBox="0 0 512 512" version="1.1" xmlns="http://www.w3.org/2000/svg" xmlns:xlink="http://www.w3.org/1999/xlink" xml:space="preserve" xmlns:serif="http://www.serif.com/" style="fill-rule:evenodd;clip-rule:evenodd;stroke-linejoin:round;stroke-miterlimit:2;">
    <g id="Canvas_1">
        <g id="Graphic_767">
            <path d="M413.494,293.953L400.588,306.862C396.536,310.921 391.12,313.166 385.354,313.166C379.581,313.166 373.675,310.921 369.623,306.862L286.181,223.917L286.181,487.439C286.181,499.323 277.507,509 265.626,509L247.364,509C235.486,509 224.618,499.323 224.618,487.439L224.618,222.978L141.343,306.862C137.284,310.921 132.178,313.166 126.406,313.166C120.64,313.166 115.374,310.921 111.319,306.862L98.483,293.953C90.084,285.551 90.12,271.882 98.519,263.48L240.724,121.291C244.773,117.242 250.205,115 256.019,115L256.08,115C261.849,115 267.269,117.242 271.318,121.291L413.494,263.477C421.9,271.876 421.9,285.551 413.494,293.953Z" style="fill:rgb(122,129,255);fill-rule:nonzero;"/>
        </g>
        <g id="Graphic_768">
            <path d="M96,9L416,9C427.046,9 436,17.954 436,29L436,49C436,60.046 427.046,69 416,69L96,69C84.954,69 76,60.046 76,49L76,29C76,17.954 84.954,9 96,9Z" style="fill:rgb(122,129,255);fill-rule:nonzero;"/>
        </g>
    </g>
</svg>
