<?xml version="1.0" encoding="UTF-8" standalone="no"?>
<!DOCTYPE svg PUBLIC "-//W3C//DTD SVG 1.1//EN" "http://www.w3.org/Graphics/SVG/1.1/DTD/svg11.dtd">
<svg width="100%" height="100%" viewBox="0 0 329 194" version="1.1" xmlns="http://www.w3.org/2000/svg" xmlns:xlink="http://www.w3.org/1999/xlink" xml:space="preserve" xmlns:serif="http://www.serif.com/" style="fill-rule:evenodd;clip-rule:evenodd;stroke-linejoin:round;stroke-miterlimit:2;">
    <g transform="matrix(1,0,0,1,-94.0856,-245.852)">
        <g id="Canvas_1_Layer_28" transform="matrix(1,0,0,1,-29.2118,35.2433)">
            <g id="Graphic_766">
                <path d="M446.496,226.823L435.737,215.989C432.351,212.606 427.847,210.742 423.032,210.742C418.22,210.742 413.71,212.606 410.324,215.989L287.595,338.723L164.725,215.853C161.344,212.47 156.834,210.609 152.022,210.609C147.21,210.609 142.697,212.47 139.314,215.853L128.553,226.62C121.546,233.622 121.546,245.027 128.553,252.028L274.844,398.846C278.225,402.227 282.73,404.609 287.584,404.609L287.641,404.609C292.455,404.609 296.96,402.224 300.341,398.846L446.496,252.426C449.882,249.046 451.741,244.404 451.746,239.593C451.746,234.778 449.882,230.201 446.496,226.823Z" style="fill:rgb(122,129,255);fill-rule:nonzero;"/>
            </g>
        </g>
    </g>
</svg>
