<?xml version="1.0" encoding="UTF-8" standalone="no"?>
<!DOCTYPE svg PUBLIC "-//W3C//DTD SVG 1.1//EN" "http://www.w3.org/Graphics/SVG/1.1/DTD/svg11.dtd">
<svg xmlns:xl="http://www.w3.org/1999/xlink" xmlns="http://www.w3.org/2000/svg" xmlns:dc="http://purl.org/dc/elements/1.1/" version="1.1" viewBox="0 0 480 600" width="480" height="600">
  <defs/>
  <metadata> Produced by OmniGraffle 7.18.5\n2021-05-31 13:02:49 +0000</metadata>
  <g id="Canvas_1" fill="none" fill-opacity="1" stroke-dasharray="none" stroke-opacity="1" stroke="none">
    <title>Canvas 1</title>
    <g id="Canvas_1_book-base4">
      <title>book-base4</title>
      <g id="Graphic_453">
        <path d="M 12 0 L 468 0 C 474.6274 40581225e-23 480 5.372583 480 12 L 480 588 C 480 594.6274 474.6274 600 468 600 L 12 600 C 5.372583 600 8116245e-22 594.6274 0 588 L 35527137e-21 12 C 3633876e-20 5.372583 5.372583 -40581225e-23 12 0 Z" fill="white"/>
      </g>
    </g>
    <g id="Canvas_1_1a-CAL-nofont">
      <title>1a-CAL-nofont</title>
      <g id="Graphic_237">
        <rect x="0" y="188" width="480" height="10" fill="#ff85ff"/>
      </g>
      <g id="Group_246">
        <title>CALCULUS</title>
        <g id="Graphic_238">
          <path d="M 65.277 546.329 C 65.461 546.329 65.645 546.3635 65.829 546.4325 C 66.013 546.5015 66.18933 546.6203 66.358 546.789 L 69.44 550.032 C 68.09066 551.79534 66.40018 553.1255 64.3685 554.0225 C 62.33682 554.9195 59.93335 555.368 57.158 555.368 C 54.612654 555.368 52.331843 554.93484 50.3155 554.0685 C 48.299157 553.20216 46.589507 552.0062 45.1865 550.4805 C 43.783493 548.9548 42.706337 547.1455 41.955 545.0525 C 41.203663 542.9595 40.828 540.68635 40.828 538.233 C 40.828 535.73365 41.25733 533.4375 42.116 531.3445 C 42.97467 529.2515 44.17449 527.446 45.7155 525.928 C 47.25651 524.41 49.10032 523.22934 51.247 522.386 C 53.39368 521.54266 55.762654 521.121 58.354 521.121 C 59.61134 521.121 60.79583 521.23217 61.9075 521.4545 C 63.01917 521.67683 64.057995 521.9835 65.024 522.3745 C 65.990005 522.7655 66.87933 523.23316 67.692 523.7775 C 68.50467 524.32184 69.22533 524.92366 69.854 525.583 L 67.232 529.102 C 67.06333 529.31667 66.864 529.51217 66.634 529.6885 C 66.404 529.86483 66.082 529.953 65.668 529.953 C 65.392 529.953 65.131335 529.89167 64.886 529.769 C 64.640665 529.64633 64.38 529.49683 64.104 529.3205 C 63.828 529.14417 63.52517 528.9525 63.1955 528.7455 C 62.86583 528.5385 62.474836 528.34683 62.0225 528.1705 C 61.570164 527.99417 61.04117 527.84467 60.4355 527.722 C 59.82983 527.59933 59.12067 527.538 58.308 527.538 C 56.897326 527.538 55.60934 527.78716 54.444 528.2855 C 53.27866 528.78384 52.27817 529.4968 51.4425 530.4245 C 50.60683 531.3522 49.95517 532.4753 49.4875 533.794 C 49.01983 535.1127 48.786 536.5923 48.786 538.233 C 48.786 539.95034 49.01983 541.476 49.4875 542.81 C 49.95517 544.144 50.591496 545.26716 51.3965 546.1795 C 52.201504 547.09184 53.14066 547.78566 54.214 548.261 C 55.28734 548.73634 56.43733 548.974 57.664 548.974 C 58.36934 548.974 59.01333 548.9395 59.596 548.8705 C 60.17867 548.8015 60.719164 548.6827 61.2175 548.514 C 61.715836 548.3453 62.191164 548.12683 62.6435 547.8585 C 63.095836 547.59017 63.552 547.2567 64.012 546.858 C 64.196 546.70467 64.39533 546.57817 64.61 546.4785 C 64.82467 546.37883 65.047 546.329 65.277 546.329 Z" fill="#ff85ff"/>
        </g>
        <g id="Graphic_239">
          <path d="M 107.17 555 L 101.144 555 C 100.46933 555 99.9135 554.84283 99.4765 554.5285 C 99.0395 554.21417 98.73667 553.8117 98.568 553.321 L 96.59 547.479 L 83.848 547.479 L 81.87 553.321 C 81.71667 553.75034 81.41767 554.1375 80.973 554.4825 C 80.52833 554.8275 79.984 555 79.34 555 L 73.268 555 L 86.24 521.489 L 94.198 521.489 Z M 85.642 542.189 L 94.796 542.189 L 91.714 533.012 C 91.51467 532.4293 91.28083 531.7432 91.0125 530.9535 C 90.74417 530.1638 90.47967 529.309 90.219 528.389 C 89.97367 529.32434 89.72067 530.19066 89.46 530.988 C 89.19933 531.78534 88.954 532.4753 88.724 533.058 Z" fill="#ff85ff"/>
        </g>
        <g id="Graphic_240">
          <path d="M 120.658 548.79 L 133.078 548.79 L 133.078 555 L 112.884 555 L 112.884 521.489 L 120.658 521.489 Z" fill="#ff85ff"/>
        </g>
        <g id="Graphic_241">
          <path d="M 160.435 546.329 C 160.619 546.329 160.803 546.3635 160.987 546.4325 C 161.171 546.5015 161.34733 546.6203 161.516 546.789 L 164.598 550.032 C 163.24866 551.79534 161.55818 553.1255 159.5265 554.0225 C 157.49482 554.9195 155.09135 555.368 152.316 555.368 C 149.77065 555.368 147.48984 554.93484 145.4735 554.0685 C 143.45716 553.20216 141.7475 552.0062 140.3445 550.4805 C 138.9415 548.9548 137.86434 547.1455 137.113 545.0525 C 136.36166 542.9595 135.986 540.68635 135.986 538.233 C 135.986 535.73365 136.41533 533.4375 137.274 531.3445 C 138.13267 529.2515 139.3325 527.446 140.8735 525.928 C 142.4145 524.41 144.25832 523.22934 146.405 522.386 C 148.55168 521.54266 150.92065 521.121 153.512 521.121 C 154.76934 521.121 155.95383 521.23217 157.0655 521.4545 C 158.17717 521.67683 159.216 521.9835 160.182 522.3745 C 161.148 522.7655 162.03733 523.23316 162.85 523.7775 C 163.66267 524.32184 164.38333 524.92366 165.012 525.583 L 162.39 529.102 C 162.22133 529.31667 162.022 529.51217 161.792 529.6885 C 161.562 529.86483 161.24 529.953 160.826 529.953 C 160.55 529.953 160.28933 529.89167 160.044 529.769 C 159.79867 529.64633 159.538 529.49683 159.262 529.3205 C 158.986 529.14417 158.68317 528.9525 158.3535 528.7455 C 158.02383 528.5385 157.63284 528.34683 157.1805 528.1705 C 156.72816 527.99417 156.19917 527.84467 155.5935 527.722 C 154.98783 527.59933 154.27867 527.538 153.466 527.538 C 152.05533 527.538 150.76734 527.78716 149.602 528.2855 C 148.43666 528.78384 147.43617 529.4968 146.6005 530.4245 C 145.76483 531.3522 145.11317 532.4753 144.6455 533.794 C 144.17783 535.1127 143.944 536.5923 143.944 538.233 C 143.944 539.95034 144.17783 541.476 144.6455 542.81 C 145.11317 544.144 145.7495 545.26716 146.5545 546.1795 C 147.3595 547.09184 148.29866 547.78566 149.372 548.261 C 150.44534 548.73634 151.59533 548.974 152.822 548.974 C 153.52734 548.974 154.17133 548.9395 154.754 548.8705 C 155.33667 548.8015 155.87716 548.6827 156.3755 548.514 C 156.87384 548.3453 157.34916 548.12683 157.8015 547.8585 C 158.25384 547.59017 158.71 547.2567 159.17 546.858 C 159.354 546.70467 159.55333 546.57817 159.768 546.4785 C 159.98267 546.37883 160.205 546.329 160.435 546.329 Z" fill="#ff85ff"/>
        </g>
        <g id="Graphic_242">
          <path d="M 185.078 548.859 C 186.12067 548.859 187.05216 548.6865 187.8725 548.3415 C 188.69284 547.9965 189.38666 547.502 189.954 546.858 C 190.52134 546.214 190.9545 545.4282 191.2535 544.5005 C 191.5525 543.5728 191.702 542.5187 191.702 541.338 L 191.702 521.489 L 199.476 521.489 L 199.476 541.338 C 199.476 543.3927 199.1425 545.27866 198.4755 546.996 C 197.8085 548.71334 196.854 550.193 195.612 551.435 C 194.37 552.677 192.85968 553.643 191.081 554.333 C 189.30232 555.023 187.30134 555.368 185.078 555.368 C 182.83932 555.368 180.83068 555.023 179.052 554.333 C 177.27332 553.643 175.763 552.677 174.521 551.435 C 173.279 550.193 172.32834 548.71334 171.669 546.996 C 171.00966 545.27866 170.68 543.3927 170.68 541.338 L 170.68 521.489 L 178.454 521.489 L 178.454 541.315 C 178.454 542.4957 178.6035 543.5498 178.9025 544.4775 C 179.2015 545.4052 179.63466 546.1948 180.202 546.8465 C 180.76934 547.4982 181.46316 547.9965 182.2835 548.3415 C 183.10384 548.6865 184.03533 548.859 185.078 548.859 Z" fill="#ff85ff"/>
        </g>
        <g id="Graphic_243">
          <path d="M 215.31 548.79 L 227.73 548.79 L 227.73 555 L 207.536 555 L 207.536 521.489 L 215.31 521.489 Z" fill="#ff85ff"/>
        </g>
        <g id="Graphic_244">
          <path d="M 248.348 548.859 C 249.39067 548.859 250.32216 548.6865 251.1425 548.3415 C 251.96284 547.9965 252.65666 547.502 253.224 546.858 C 253.79134 546.214 254.2245 545.4282 254.5235 544.5005 C 254.8225 543.5728 254.972 542.5187 254.972 541.338 L 254.972 521.489 L 262.746 521.489 L 262.746 541.338 C 262.746 543.3927 262.4125 545.27866 261.7455 546.996 C 261.0785 548.71334 260.124 550.193 258.882 551.435 C 257.64 552.677 256.12968 553.643 254.351 554.333 C 252.57232 555.023 250.57134 555.368 248.348 555.368 C 246.10932 555.368 244.10068 555.023 242.322 554.333 C 240.54332 553.643 239.033 552.677 237.791 551.435 C 236.549 550.193 235.59834 548.71334 234.939 546.996 C 234.27966 545.27866 233.95 543.3927 233.95 541.338 L 233.95 521.489 L 241.724 521.489 L 241.724 541.315 C 241.724 542.4957 241.8735 543.5498 242.1725 544.4775 C 242.4715 545.4052 242.90466 546.1948 243.472 546.8465 C 244.03934 547.4982 244.73316 547.9965 245.5535 548.3415 C 246.37384 548.6865 247.30533 548.859 248.348 548.859 Z" fill="#ff85ff"/>
        </g>
        <g id="Graphic_245">
          <path d="M 289.482 528.297 C 289.252 528.665 289.0105 528.941 288.7575 529.125 C 288.5045 529.309 288.17867 529.401 287.78 529.401 C 287.42733 529.401 287.04784 529.28983 286.6415 529.0675 C 286.23516 528.84517 285.77517 528.596 285.2615 528.32 C 284.74783 528.044 284.16134 527.79483 283.502 527.5725 C 282.84266 527.35017 282.09134 527.239 281.248 527.239 C 279.79133 527.239 278.7065 527.5495 277.9935 528.1705 C 277.2805 528.7915 276.924 529.631 276.924 530.689 C 276.924 531.3637 277.13866 531.9233 277.568 532.368 C 277.99734 532.8127 278.56083 533.196 279.2585 533.518 C 279.95617 533.84 280.7535 534.13517 281.6505 534.4035 C 282.5475 534.67183 283.46366 534.9708 284.399 535.3005 C 285.33434 535.6302 286.2505 536.0173 287.1475 536.462 C 288.0445 536.9067 288.84183 537.474 289.5395 538.164 C 290.23717 538.854 290.80066 539.6935 291.23 540.6825 C 291.65934 541.6715 291.874 542.86366 291.874 544.259 C 291.874 545.8077 291.60567 547.25666 291.069 548.606 C 290.53233 549.95534 289.75417 551.13216 288.7345 552.1365 C 287.71483 553.14084 286.4575 553.9305 284.9625 554.5055 C 283.4675 555.0805 281.76934 555.368 279.868 555.368 C 278.82533 555.368 277.7635 555.2607 276.6825 555.046 C 275.6015 554.8313 274.555 554.5285 273.543 554.1375 C 272.531 553.7465 271.58034 553.2827 270.691 552.746 C 269.80166 552.2093 269.02734 551.61134 268.368 550.952 L 270.668 547.318 C 270.83667 547.042 271.07433 546.8197 271.381 546.651 C 271.68767 546.4823 272.01733 546.398 272.37 546.398 C 272.83 546.398 273.29383 546.54367 273.7615 546.835 C 274.22917 547.12633 274.75816 547.4483 275.3485 547.801 C 275.93884 548.1537 276.61733 548.47567 277.384 548.767 C 278.15067 549.05833 279.05533 549.204 280.098 549.204 C 281.50867 549.204 282.605 548.8935 283.387 548.2725 C 284.169 547.6515 284.56 546.66634 284.56 545.317 C 284.56 544.535 284.34534 543.8987 283.916 543.408 C 283.48666 542.9173 282.92317 542.511 282.2255 542.189 C 281.52783 541.867 280.73434 541.58333 279.845 541.338 C 278.95566 541.09267 278.04334 540.8205 277.108 540.5215 C 276.17266 540.2225 275.26034 539.8545 274.371 539.4175 C 273.48166 538.9805 272.68817 538.4055 271.9905 537.6925 C 271.29283 536.9795 270.72934 536.0902 270.3 535.0245 C 269.87066 533.9588 269.656 532.644 269.656 531.08 C 269.656 529.82266 269.909 528.596 270.415 527.4 C 270.921 526.204 271.66466 525.13834 272.646 524.203 C 273.62734 523.26766 274.831 522.5202 276.257 521.9605 C 277.683 521.4008 279.316 521.121 281.156 521.121 C 282.18334 521.121 283.18383 521.2015 284.1575 521.3625 C 285.13117 521.5235 286.055 521.76117 286.929 522.0755 C 287.803 522.38983 288.6195 522.7655 289.3785 523.2025 C 290.1375 523.6395 290.816 524.134 291.414 524.686 Z" fill="#ff85ff"/>
        </g>
      </g>
    </g>
    <g id="Canvas_1_1a-hde1-nofont">
      <title>1a-hde1-nofont</title>
      <g id="Group_422">
        <title>Homogeneous Differential Equations</title>
        <g id="Graphic_390">
          <path d="M 82.346 279 L 73.945 279 L 73.945 259.408 L 52.927 259.408 L 52.927 279 L 44.526 279 L 44.526 234.174 L 52.927 234.174 L 52.927 253.456 L 73.945 253.456 L 73.945 234.174 L 82.346 234.174 Z" fill="#424242"/>
        </g>
        <g id="Graphic_391">
          <path d="M 104.542 246.698 C 106.91868 246.698 109.07316 247.08033 111.0055 247.845 C 112.93784 248.60967 114.586 249.69466 115.95 251.1 C 117.314 252.50534 118.368 254.22066 119.112 256.246 C 119.856 258.27134 120.228 260.53432 120.228 263.035 C 120.228 265.55635 119.856 267.82966 119.112 269.855 C 118.368 271.88034 117.314 273.606 115.95 275.032 C 114.586 276.458 112.93784 277.55333 111.0055 278.318 C 109.07316 279.08267 106.91868 279.465 104.542 279.465 C 102.16532 279.465 100.00568 279.08267 98.063 278.318 C 96.12032 277.55333 94.46184 276.458 93.0875 275.032 C 91.71316 273.606 90.64884 271.88034 89.8945 269.855 C 89.14016 267.82966 88.763 265.55635 88.763 263.035 C 88.763 260.53432 89.14016 258.27134 89.8945 256.246 C 90.64884 254.22066 91.71316 252.50534 93.0875 251.1 C 94.46184 249.69466 96.12032 248.60967 98.063 247.845 C 100.00568 247.08033 102.16532 246.698 104.542 246.698 Z M 104.542 273.575 C 107.18735 273.575 109.1455 272.68634 110.4165 270.909 C 111.6875 269.13166 112.323 266.52768 112.323 263.097 C 112.323 259.66632 111.6875 257.052 110.4165 255.254 C 109.1455 253.456 107.18735 252.557 104.542 252.557 C 101.85532 252.557 99.87134 253.46116 98.59 255.2695 C 97.30866 257.07784 96.668 259.68698 96.668 263.097 C 96.668 266.50702 97.30866 269.10582 98.59 270.8935 C 99.87134 272.68118 101.85532 273.575 104.542 273.575 Z" fill="#424242"/>
        </g>
        <g id="Graphic_392">
          <path d="M 126.211 279 L 126.211 247.194 L 130.892 247.194 C 131.884 247.194 132.535 247.659 132.845 248.589 L 133.341 250.945 C 133.899 250.325 134.48283 249.75667 135.0925 249.24 C 135.70217 248.72333 136.35316 248.279 137.0455 247.907 C 137.73784 247.535 138.48183 247.2405 139.2775 247.0235 C 140.07317 246.8065 140.94633 246.698 141.897 246.698 C 143.90168 246.698 145.54983 247.2405 146.8415 248.3255 C 148.13317 249.4105 149.09933 250.852 149.74 252.65 C 150.236 251.596 150.856 250.69184 151.6 249.9375 C 152.344 249.18316 153.16033 248.56834 154.049 248.093 C 154.93767 247.61766 155.88316 247.26633 156.8855 247.039 C 157.88784 246.81167 158.89533 246.698 159.908 246.698 C 161.66468 246.698 163.225 246.96666 164.589 247.504 C 165.953 248.04134 167.1 248.82666 168.03 249.86 C 168.96 250.89334 169.66783 252.154 170.1535 253.642 C 170.63917 255.13 170.882 256.835 170.882 258.757 L 170.882 279 L 163.225 279 L 163.225 258.757 C 163.225 256.73166 162.78067 255.2075 161.892 254.1845 C 161.00333 253.1615 159.70134 252.65 157.986 252.65 C 157.20066 252.65 156.47217 252.78433 155.8005 253.053 C 155.12883 253.32167 154.53984 253.70916 154.0335 254.2155 C 153.52716 254.72184 153.12933 255.35733 152.84 256.122 C 152.55067 256.88667 152.406 257.765 152.406 258.757 L 152.406 279 L 144.718 279 L 144.718 258.757 C 144.718 256.62832 144.28917 255.07834 143.4315 254.107 C 142.57383 253.13566 141.308 252.65 139.634 252.65 C 138.53866 252.65 137.5105 252.92383 136.5495 253.4715 C 135.5885 254.01917 134.69467 254.76833 133.868 255.719 L 133.868 279 Z" fill="#424242"/>
        </g>
        <g id="Graphic_393">
          <path d="M 191.993 246.698 C 194.36968 246.698 196.52416 247.08033 198.4565 247.845 C 200.38884 248.60967 202.037 249.69466 203.401 251.1 C 204.765 252.50534 205.819 254.22066 206.563 256.246 C 207.307 258.27134 207.679 260.53432 207.679 263.035 C 207.679 265.55635 207.307 267.82966 206.563 269.855 C 205.819 271.88034 204.765 273.606 203.401 275.032 C 202.037 276.458 200.38884 277.55333 198.4565 278.318 C 196.52416 279.08267 194.36968 279.465 191.993 279.465 C 189.61632 279.465 187.45668 279.08267 185.514 278.318 C 183.57132 277.55333 181.91284 276.458 180.5385 275.032 C 179.16416 273.606 178.09984 271.88034 177.3455 269.855 C 176.59116 267.82966 176.214 265.55635 176.214 263.035 C 176.214 260.53432 176.59116 258.27134 177.3455 256.246 C 178.09984 254.22066 179.16416 252.50534 180.5385 251.1 C 181.91284 249.69466 183.57132 248.60967 185.514 247.845 C 187.45668 247.08033 189.61632 246.698 191.993 246.698 Z M 191.993 273.575 C 194.63835 273.575 196.5965 272.68634 197.8675 270.909 C 199.1385 269.13166 199.774 266.52768 199.774 263.097 C 199.774 259.66632 199.1385 257.052 197.8675 255.254 C 196.5965 253.456 194.63835 252.557 191.993 252.557 C 189.30632 252.557 187.32234 253.46116 186.041 255.2695 C 184.75966 257.07784 184.119 259.68698 184.119 263.097 C 184.119 266.50702 184.75966 269.10582 186.041 270.8935 C 187.32234 272.68118 189.30632 273.575 191.993 273.575 Z" fill="#424242"/>
        </g>
        <g id="Graphic_394">
          <path d="M 224.667 246.636 C 226.031 246.636 227.31233 246.7755 228.511 247.0545 C 229.70967 247.3335 230.805 247.74166 231.797 248.279 L 240.942 248.279 L 240.942 251.131 C 240.942 251.60634 240.818 251.97833 240.57 252.247 C 240.322 252.51567 239.89834 252.70167 239.299 252.805 L 236.447 253.332 C 236.65367 253.86934 236.81383 254.43766 236.9275 255.037 C 237.04117 255.63634 237.098 256.26666 237.098 256.928 C 237.098 258.49867 236.78284 259.9195 236.1525 261.1905 C 235.52216 262.4615 234.65417 263.54133 233.5485 264.43 C 232.44283 265.31867 231.1305 266.00583 229.6115 266.4915 C 228.0925 266.97717 226.44434 267.22 224.667 267.22 C 223.46833 267.22 222.30067 267.10633 221.164 266.879 C 220.172 267.47834 219.676 268.15 219.676 268.894 C 219.676 269.53467 219.9705 270.00483 220.5595 270.3045 C 221.1485 270.60417 221.9235 270.816 222.8845 270.94 C 223.8455 271.064 224.93566 271.1415 226.155 271.1725 C 227.37434 271.2035 228.62466 271.27067 229.906 271.374 C 231.18734 271.47733 232.43766 271.65817 233.657 271.9165 C 234.87634 272.17483 235.9665 272.583 236.9275 273.141 C 237.8885 273.699 238.6635 274.4585 239.2525 275.4195 C 239.8415 276.3805 240.136 277.61533 240.136 279.124 C 240.136 280.52934 239.78984 281.89333 239.0975 283.216 C 238.40516 284.53867 237.40284 285.71666 236.0905 286.75 C 234.77816 287.78334 233.17134 288.61516 231.27 289.2455 C 229.36866 289.87584 227.19868 290.191 224.76 290.191 C 222.342 290.191 220.24434 289.9585 218.467 289.4935 C 216.68966 289.0285 215.21717 288.4085 214.0495 287.6335 C 212.88183 286.8585 212.00867 285.96467 211.43 284.952 C 210.85133 283.93933 210.562 282.88534 210.562 281.79 C 210.562 280.302 211.01666 279.05167 211.926 278.039 C 212.83534 277.02633 214.096 276.22034 215.708 275.621 C 214.92266 275.187 214.29234 274.60834 213.817 273.885 C 213.34166 273.16166 213.104 272.22134 213.104 271.064 C 213.104 270.58866 213.18667 270.09784 213.352 269.5915 C 213.51733 269.08516 213.7705 268.584 214.1115 268.088 C 214.4525 267.592 214.88133 267.12184 215.398 266.6775 C 215.91467 266.23316 216.52433 265.83534 217.227 265.484 C 215.615 264.616 214.34917 263.45867 213.4295 262.012 C 212.50983 260.56533 212.05 258.87068 212.05 256.928 C 212.05 255.35733 212.36516 253.9365 212.9955 252.6655 C 213.62584 251.3945 214.50416 250.3095 215.6305 249.4105 C 216.75684 248.5115 218.08983 247.82434 219.6295 247.349 C 221.16917 246.87366 222.84832 246.636 224.667 246.636 Z M 233.068 280.426 C 233.068 279.806 232.882 279.29967 232.51 278.907 C 232.138 278.51433 231.63167 278.2095 230.991 277.9925 C 230.35033 277.7755 229.60117 277.61533 228.7435 277.512 C 227.88583 277.40867 226.9765 277.33117 226.0155 277.2795 C 225.0545 277.22783 224.0625 277.17617 223.0395 277.1245 C 222.0165 277.07283 221.02967 276.985 220.079 276.861 C 219.211 277.33634 218.5135 277.8995 217.9865 278.5505 C 217.4595 279.2015 217.196 279.95066 217.196 280.798 C 217.196 281.356 217.3355 281.87783 217.6145 282.3635 C 217.8935 282.84917 218.33783 283.26766 218.9475 283.619 C 219.55717 283.97034 220.34766 284.24417 221.319 284.4405 C 222.29034 284.63683 223.47866 284.735 224.884 284.735 C 226.31 284.735 227.53966 284.6265 228.573 284.4095 C 229.60634 284.1925 230.45883 283.89284 231.1305 283.5105 C 231.80217 283.12816 232.293 282.6735 232.603 282.1465 C 232.913 281.6195 233.068 281.046 233.068 280.426 Z M 224.667 262.322 C 225.61767 262.322 226.44433 262.19283 227.147 261.9345 C 227.84967 261.67617 228.4335 261.31967 228.8985 260.865 C 229.3635 260.41033 229.71483 259.86267 229.9525 259.222 C 230.19017 258.58133 230.309 257.87867 230.309 257.114 C 230.309 255.54333 229.83884 254.29817 228.8985 253.3785 C 227.95816 252.45883 226.54768 251.999 224.667 251.999 C 222.78632 251.999 221.37584 252.45883 220.4355 253.3785 C 219.49516 254.29817 219.025 255.54333 219.025 257.114 C 219.025 257.858 219.14383 258.55033 219.3815 259.191 C 219.61917 259.83167 219.9705 260.3845 220.4355 260.8495 C 220.9005 261.3145 221.4895 261.67617 222.2025 261.9345 C 222.9155 262.19283 223.737 262.322 224.667 262.322 Z" fill="#424242"/>
        </g>
        <g id="Graphic_395">
          <path d="M 258.891 246.698 C 260.89568 246.698 262.74016 247.01833 264.4245 247.659 C 266.10884 248.29967 267.56066 249.23483 268.78 250.4645 C 269.99934 251.69417 270.95 253.20282 271.632 254.9905 C 272.314 256.77818 272.655 258.819 272.655 261.113 C 272.655 261.69167 272.62917 262.17216 272.5775 262.5545 C 272.52583 262.93684 272.43283 263.2365 272.2985 263.4535 C 272.16417 263.6705 271.98333 263.8255 271.756 263.9185 C 271.52867 264.0115 271.23934 264.058 270.888 264.058 L 251.234 264.058 C 251.46133 267.32335 252.33966 269.72066 253.869 271.25 C 255.39834 272.77934 257.42365 273.544 259.945 273.544 C 261.185 273.544 262.2545 273.39933 263.1535 273.11 C 264.0525 272.82067 264.83783 272.50034 265.5095 272.149 C 266.18117 271.79766 266.77016 271.47733 267.2765 271.188 C 267.78284 270.89867 268.27366 270.754 268.749 270.754 C 269.059 270.754 269.32767 270.816 269.555 270.94 C 269.78233 271.064 269.97867 271.23967 270.144 271.467 L 272.376 274.257 C 271.52866 275.249 270.578 276.08083 269.524 276.7525 C 268.47 277.42417 267.3695 277.9615 266.2225 278.3645 C 265.0755 278.7675 263.90784 279.05167 262.7195 279.217 C 261.53116 279.38233 260.379 279.465 259.263 279.465 C 257.05166 279.465 254.99534 279.09817 253.094 278.3645 C 251.19266 277.63083 249.53934 276.54584 248.134 275.1095 C 246.72866 273.67316 245.623 271.89584 244.817 269.7775 C 244.011 267.65916 243.608 265.205 243.608 262.415 C 243.608 260.245 243.95933 258.20418 244.662 256.2925 C 245.36467 254.38082 246.37216 252.71717 247.6845 251.3015 C 248.99684 249.88583 250.5985 248.76467 252.4895 247.938 C 254.3805 247.11133 256.51432 246.698 258.891 246.698 Z M 259.046 252.185 C 256.814 252.185 255.06767 252.81533 253.807 254.076 C 252.54633 255.33667 251.74034 257.12432 251.389 259.439 L 265.773 259.439 C 265.773 258.447 265.63867 257.51184 265.37 256.6335 C 265.10133 255.75516 264.688 254.98534 264.13 254.324 C 263.572 253.66266 262.86934 253.14084 262.022 252.7585 C 261.17466 252.37616 260.18267 252.185 259.046 252.185 Z" fill="#424242"/>
        </g>
        <g id="Graphic_396">
          <path d="M 278.886 279 L 278.886 247.194 L 283.567 247.194 C 284.559 247.194 285.21 247.659 285.52 248.589 L 286.047 251.1 C 286.68767 250.43866 287.3645 249.83934 288.0775 249.302 C 288.7905 248.76466 289.54483 248.29967 290.3405 247.907 C 291.13617 247.51433 291.98866 247.21467 292.898 247.008 C 293.80734 246.80133 294.79933 246.698 295.874 246.698 C 297.61 246.698 299.14966 246.9925 300.493 247.5815 C 301.83634 248.1705 302.9575 248.99716 303.8565 250.0615 C 304.7555 251.12584 305.4375 252.39683 305.9025 253.8745 C 306.3675 255.35217 306.6 256.97966 306.6 258.757 L 306.6 279 L 298.943 279 L 298.943 258.757 C 298.943 256.81432 298.4935 255.31084 297.5945 254.2465 C 296.6955 253.18216 295.347 252.65 293.549 252.65 C 292.22633 252.65 290.98634 252.94966 289.829 253.549 C 288.67166 254.14834 287.57634 254.96466 286.543 255.998 L 286.543 279 Z" fill="#424242"/>
        </g>
        <g id="Graphic_397">
          <path d="M 327.277 246.698 C 329.28168 246.698 331.12616 247.01833 332.8105 247.659 C 334.49484 248.29967 335.94666 249.23483 337.166 250.4645 C 338.38534 251.69417 339.336 253.20282 340.018 254.9905 C 340.7 256.77818 341.041 258.819 341.041 261.113 C 341.041 261.69167 341.01517 262.17216 340.9635 262.5545 C 340.91183 262.93684 340.81883 263.2365 340.6845 263.4535 C 340.55017 263.6705 340.36933 263.8255 340.142 263.9185 C 339.91467 264.0115 339.62534 264.058 339.274 264.058 L 319.62 264.058 C 319.84733 267.32335 320.72566 269.72066 322.255 271.25 C 323.78434 272.77934 325.80965 273.544 328.331 273.544 C 329.571 273.544 330.6405 273.39933 331.5395 273.11 C 332.4385 272.82067 333.22383 272.50034 333.8955 272.149 C 334.56717 271.79766 335.15616 271.47733 335.6625 271.188 C 336.16884 270.89867 336.65966 270.754 337.135 270.754 C 337.445 270.754 337.71367 270.816 337.941 270.94 C 338.16833 271.064 338.36467 271.23967 338.53 271.467 L 340.762 274.257 C 339.91466 275.249 338.964 276.08083 337.91 276.7525 C 336.856 277.42417 335.7555 277.9615 334.6085 278.3645 C 333.4615 278.7675 332.29384 279.05167 331.1055 279.217 C 329.91716 279.38233 328.765 279.465 327.649 279.465 C 325.43766 279.465 323.38134 279.09817 321.48 278.3645 C 319.57866 277.63083 317.92534 276.54584 316.52 275.1095 C 315.11466 273.67316 314.009 271.89584 313.203 269.7775 C 312.397 267.65916 311.994 265.205 311.994 262.415 C 311.994 260.245 312.34533 258.20418 313.048 256.2925 C 313.75067 254.38082 314.75816 252.71717 316.0705 251.3015 C 317.38284 249.88583 318.9845 248.76467 320.8755 247.938 C 322.7665 247.11133 324.90032 246.698 327.277 246.698 Z M 327.432 252.185 C 325.2 252.185 323.45367 252.81533 322.193 254.076 C 320.93233 255.33667 320.12634 257.12432 319.775 259.439 L 334.159 259.439 C 334.159 258.447 334.02467 257.51184 333.756 256.6335 C 333.48733 255.75516 333.074 254.98534 332.516 254.324 C 331.958 253.66266 331.25534 253.14084 330.408 252.7585 C 329.56066 252.37616 328.56867 252.185 327.432 252.185 Z" fill="#424242"/>
        </g>
        <g id="Graphic_398">
          <path d="M 360.85 246.698 C 363.2267 246.698 365.38116 247.08033 367.3135 247.845 C 369.24584 248.60967 370.894 249.69466 372.258 251.1 C 373.622 252.50534 374.676 254.22066 375.42 256.246 C 376.164 258.27134 376.536 260.53432 376.536 263.035 C 376.536 265.55635 376.164 267.82966 375.42 269.855 C 374.676 271.88034 373.622 273.606 372.258 275.032 C 370.894 276.458 369.24584 277.55333 367.3135 278.318 C 365.38116 279.08267 363.2267 279.465 360.85 279.465 C 358.47332 279.465 356.31368 279.08267 354.371 278.318 C 352.42832 277.55333 350.76984 276.458 349.3955 275.032 C 348.02116 273.606 346.95684 271.88034 346.2025 269.855 C 345.44816 267.82966 345.071 265.55635 345.071 263.035 C 345.071 260.53432 345.44816 258.27134 346.2025 256.246 C 346.95684 254.22066 348.02116 252.50534 349.3955 251.1 C 350.76984 249.69466 352.42832 248.60967 354.371 247.845 C 356.31368 247.08033 358.47332 246.698 360.85 246.698 Z M 360.85 273.575 C 363.49535 273.575 365.4535 272.68634 366.7245 270.909 C 367.9955 269.13166 368.631 266.52768 368.631 263.097 C 368.631 259.66632 367.9955 257.052 366.7245 255.254 C 365.4535 253.456 363.49535 252.557 360.85 252.557 C 358.1633 252.557 356.17934 253.46116 354.898 255.2695 C 353.61666 257.07784 352.976 259.68698 352.976 263.097 C 352.976 266.50702 353.61666 269.10582 354.898 270.8935 C 356.17934 272.68118 358.1633 273.575 360.85 273.575 Z" fill="#424242"/>
        </g>
        <g id="Graphic_399">
          <path d="M 389.525 247.194 L 389.525 267.406 C 389.525 269.34868 389.9745 270.85216 390.8735 271.9165 C 391.7725 272.98084 393.121 273.513 394.919 273.513 C 396.24167 273.513 397.48166 273.2185 398.639 272.6295 C 399.79634 272.0405 400.89166 271.22934 401.925 270.196 L 401.925 247.194 L 409.582 247.194 L 409.582 279 L 404.901 279 C 403.909 279 403.258 278.535 402.948 277.605 L 402.421 275.063 C 401.75966 275.72434 401.07767 276.32883 400.375 276.8765 C 399.67233 277.42417 398.92317 277.88916 398.1275 278.2715 C 397.33183 278.65384 396.47417 278.9535 395.5545 279.1705 C 394.63483 279.3875 393.648 279.496 392.594 279.496 C 390.858 279.496 389.3235 279.2015 387.9905 278.6125 C 386.6575 278.0235 385.53634 277.19167 384.627 276.117 C 383.71766 275.04233 383.0305 273.76617 382.5655 272.2885 C 382.1005 270.81083 381.868 269.18334 381.868 267.406 L 381.868 247.194 Z" fill="#424242"/>
        </g>
        <g id="Graphic_400">
          <path d="M 436.645 253.394 C 436.43833 253.72467 436.22133 253.95717 435.994 254.0915 C 435.76667 254.22583 435.47734 254.293 435.126 254.293 C 434.754 254.293 434.35617 254.18967 433.9325 253.983 C 433.50883 253.77633 433.018 253.54383 432.46 253.2855 C 431.902 253.02717 431.2665 252.79467 430.5535 252.588 C 429.8405 252.38133 428.99834 252.278 428.027 252.278 C 426.51833 252.278 425.33 252.59833 424.462 253.239 C 423.594 253.87967 423.16 254.71666 423.16 255.75 C 423.16 256.432 423.38216 257.0055 423.8265 257.4705 C 424.27084 257.9355 424.85983 258.34366 425.5935 258.695 C 426.32717 259.04634 427.159 259.3615 428.089 259.6405 C 429.019 259.9195 429.96966 260.22433 430.941 260.555 C 431.91234 260.88567 432.863 261.26283 433.793 261.6865 C 434.723 262.11017 435.55483 262.6475 436.2885 263.2985 C 437.02217 263.9495 437.61116 264.72966 438.0555 265.639 C 438.49984 266.54834 438.722 267.64366 438.722 268.925 C 438.722 270.45434 438.443 271.86483 437.885 273.1565 C 437.327 274.44817 436.51067 275.56416 435.436 276.5045 C 434.36133 277.44484 433.0335 278.1785 431.4525 278.7055 C 429.8715 279.2325 428.058 279.496 426.012 279.496 C 424.91666 279.496 423.84717 279.39783 422.8035 279.2015 C 421.75983 279.00517 420.7575 278.73134 419.7965 278.38 C 418.8355 278.02866 417.94684 277.61534 417.1305 277.14 C 416.31416 276.66466 415.596 276.148 414.976 275.59 L 416.743 272.676 C 416.97033 272.32466 417.239 272.056 417.549 271.87 C 417.859 271.684 418.25166 271.591 418.727 271.591 C 419.20234 271.591 419.65183 271.72533 420.0755 271.994 C 420.49917 272.26267 420.99 272.552 421.548 272.862 C 422.106 273.172 422.76216 273.46133 423.5165 273.73 C 424.27084 273.99867 425.22666 274.133 426.384 274.133 C 427.29334 274.133 428.0735 274.0245 428.7245 273.8075 C 429.3755 273.5905 429.91283 273.30634 430.3365 272.955 C 430.76017 272.60366 431.07017 272.1955 431.2665 271.7305 C 431.46283 271.2655 431.561 270.785 431.561 270.289 C 431.561 269.545 431.33884 268.93534 430.8945 268.46 C 430.45016 267.98466 429.86117 267.57134 429.1275 267.22 C 428.39383 266.86866 427.55684 266.5535 426.6165 266.2745 C 425.67616 265.9955 424.71517 265.69067 423.7335 265.36 C 422.75183 265.02933 421.79084 264.64184 420.8505 264.1975 C 419.91016 263.75316 419.07317 263.19 418.3395 262.508 C 417.60583 261.826 417.01684 260.989 416.5725 259.997 C 416.12816 259.005 415.906 257.80634 415.906 256.401 C 415.906 255.099 416.16433 253.859 416.681 252.681 C 417.19767 251.503 417.95716 250.47484 418.9595 249.5965 C 419.96184 248.71816 421.21216 248.0155 422.7105 247.4885 C 424.20884 246.9615 425.93966 246.698 427.903 246.698 C 430.0937 246.698 432.088 247.05966 433.886 247.783 C 435.684 248.50634 437.18233 249.457 438.381 250.635 Z" fill="#424242"/>
        </g>
        <g id="Graphic_401">
          <path d="M 84.33 330.587 C 84.33 333.873 83.78234 336.8903 82.687 339.639 C 81.59166 342.3877 80.05201 344.754 78.068 346.738 C 76.08399 348.722 73.69701 350.26166 70.907 351.357 C 68.11699 352.45234 65.02735 353 61.638 353 L 44.526 353 L 44.526 308.174 L 61.638 308.174 C 65.02735 308.174 68.11699 308.72683 70.907 309.8325 C 73.69701 310.93817 76.08399 312.47782 78.068 314.4515 C 80.05201 316.42518 81.59166 318.78632 82.687 321.535 C 83.78234 324.28368 84.33 327.301 84.33 330.587 Z M 75.805 330.587 C 75.805 328.12765 75.47434 325.9215 74.813 323.9685 C 74.15166 322.0155 73.21134 320.36217 71.992 319.0085 C 70.77266 317.65483 69.28984 316.61634 67.5435 315.893 C 65.79716 315.16966 63.82868 314.808 61.638 314.808 L 52.927 314.808 L 52.927 346.366 L 61.638 346.366 C 63.82868 346.366 65.79716 346.00434 67.5435 345.281 C 69.28984 344.55766 70.77266 343.51917 71.992 342.1655 C 73.21134 340.81183 74.15166 339.1585 74.813 337.2055 C 75.47434 335.2525 75.805 333.04635 75.805 330.587 Z" fill="#424242"/>
        </g>
        <g id="Graphic_402">
          <path d="M 98.59 321.194 L 98.59 353 L 90.933 353 L 90.933 321.194 Z M 99.737 311.925 C 99.737 312.58634 99.60267 313.20633 99.334 313.785 C 99.06533 314.36367 98.70884 314.87 98.2645 315.304 C 97.82016 315.738 97.29834 316.08417 96.699 316.3425 C 96.09966 316.60083 95.459 316.73 94.777 316.73 C 94.11566 316.73 93.4905 316.60083 92.9015 316.3425 C 92.3125 316.08417 91.801 315.738 91.367 315.304 C 90.933 314.87 90.58683 314.36367 90.3285 313.785 C 90.07017 313.20633 89.941 312.58634 89.941 311.925 C 89.941 311.243 90.07017 310.60234 90.3285 310.003 C 90.58683 309.40366 90.933 308.887 91.367 308.453 C 91.801 308.019 92.3125 307.67283 92.9015 307.4145 C 93.4905 307.15617 94.11566 307.027 94.777 307.027 C 95.459 307.027 96.09966 307.15617 96.699 307.4145 C 97.29834 307.67283 97.82016 308.019 98.2645 308.453 C 98.70884 308.887 99.06533 309.40366 99.334 310.003 C 99.60267 310.60234 99.737 311.243 99.737 311.925 Z" fill="#424242"/>
        </g>
        <g id="Graphic_403">
          <path d="M 108.603 353 L 108.603 326.96 L 105.844 326.526 C 105.24466 326.42267 104.76417 326.216 104.4025 325.906 C 104.04083 325.596 103.86 325.162 103.86 324.604 L 103.86 321.473 L 108.603 321.473 L 108.603 319.117 C 108.603 317.29832 108.87683 315.66567 109.4245 314.219 C 109.97217 312.77233 110.7575 311.54267 111.7805 310.53 C 112.8035 309.51733 114.04866 308.74234 115.516 308.205 C 116.98334 307.66766 118.63666 307.399 120.476 307.399 C 121.94334 307.399 123.30733 307.59533 124.568 307.988 L 124.413 311.832 C 124.37167 312.43134 124.09267 312.80333 123.576 312.948 C 123.05933 313.09267 122.46 313.165 121.778 313.165 C 120.86866 313.165 120.0575 313.26317 119.3445 313.4595 C 118.6315 313.65583 118.027 313.99683 117.531 314.4825 C 117.035 314.96817 116.65783 315.60883 116.3995 316.4045 C 116.14117 317.20017 116.012 318.187 116.012 319.365 L 116.012 321.473 L 124.289 321.473 L 124.289 326.929 L 116.26 326.929 L 116.26 353 Z" fill="#424242"/>
        </g>
        <g id="Graphic_404">
          <path d="M 130.334 353 L 130.334 326.96 L 127.575 326.526 C 126.97566 326.42267 126.49517 326.216 126.1335 325.906 C 125.77183 325.596 125.591 325.162 125.591 324.604 L 125.591 321.473 L 130.334 321.473 L 130.334 319.117 C 130.334 317.29832 130.60783 315.66567 131.1555 314.219 C 131.70317 312.77233 132.4885 311.54267 133.5115 310.53 C 134.5345 309.51733 135.77966 308.74234 137.247 308.205 C 138.71434 307.66766 140.36766 307.399 142.207 307.399 C 143.67434 307.399 145.03833 307.59533 146.299 307.988 L 146.144 311.832 C 146.10267 312.43134 145.82367 312.80333 145.307 312.948 C 144.79033 313.09267 144.191 313.165 143.509 313.165 C 142.59966 313.165 141.7885 313.26317 141.0755 313.4595 C 140.3625 313.65583 139.758 313.99683 139.262 314.4825 C 138.766 314.96817 138.38883 315.60883 138.1305 316.4045 C 137.87217 317.20017 137.743 318.187 137.743 319.365 L 137.743 321.473 L 146.02 321.473 L 146.02 326.929 L 137.991 326.929 L 137.991 353 Z" fill="#424242"/>
        </g>
        <g id="Graphic_405">
          <path d="M 163.845 320.698 C 165.84968 320.698 167.69416 321.01833 169.3785 321.659 C 171.06284 322.29967 172.51466 323.23483 173.734 324.4645 C 174.95334 325.69417 175.904 327.20282 176.586 328.9905 C 177.268 330.77818 177.609 332.819 177.609 335.113 C 177.609 335.69167 177.58317 336.17216 177.5315 336.5545 C 177.47983 336.93684 177.38683 337.2365 177.2525 337.4535 C 177.11817 337.6705 176.93733 337.8255 176.71 337.9185 C 176.48267 338.0115 176.19334 338.058 175.842 338.058 L 156.188 338.058 C 156.41533 341.32335 157.29366 343.72066 158.823 345.25 C 160.35234 346.77934 162.37765 347.544 164.899 347.544 C 166.139 347.544 167.2085 347.39933 168.1075 347.11 C 169.0065 346.82067 169.79183 346.50034 170.4635 346.149 C 171.13517 345.79766 171.72416 345.47733 172.2305 345.188 C 172.73684 344.89867 173.22766 344.754 173.703 344.754 C 174.013 344.754 174.28167 344.816 174.509 344.94 C 174.73633 345.064 174.93267 345.23967 175.098 345.467 L 177.33 348.257 C 176.48266 349.249 175.532 350.08083 174.478 350.7525 C 173.424 351.42417 172.3235 351.9615 171.1765 352.3645 C 170.0295 352.7675 168.86184 353.05167 167.6735 353.217 C 166.48516 353.38233 165.333 353.465 164.217 353.465 C 162.00566 353.465 159.94934 353.09817 158.048 352.3645 C 156.14666 351.63083 154.49334 350.54584 153.088 349.1095 C 151.68266 347.67316 150.577 345.89584 149.771 343.7775 C 148.965 341.65916 148.562 339.205 148.562 336.415 C 148.562 334.245 148.91333 332.20418 149.616 330.2925 C 150.31867 328.38082 151.32616 326.71717 152.6385 325.3015 C 153.95084 323.88583 155.55249 322.76467 157.4435 321.938 C 159.3345 321.11133 161.46832 320.698 163.845 320.698 Z M 164 326.185 C 161.76799 326.185 160.02167 326.81533 158.761 328.076 C 157.50033 329.33667 156.69434 331.12432 156.343 333.439 L 170.727 333.439 C 170.727 332.447 170.59267 331.51184 170.324 330.6335 C 170.05533 329.75516 169.642 328.98534 169.084 328.324 C 168.526 327.66266 167.82334 327.14084 166.976 326.7585 C 166.12866 326.37616 165.13667 326.185 164 326.185 Z" fill="#424242"/>
        </g>
        <g id="Graphic_406">
          <path d="M 183.84 353 L 183.84 321.194 L 188.335 321.194 C 189.12034 321.194 189.668 321.33867 189.978 321.628 C 190.288 321.91733 190.49467 322.41333 190.598 323.116 L 191.063 326.96 C 192.19967 324.99666 193.53266 323.44667 195.062 322.31 C 196.59134 321.17333 198.30666 320.605 200.208 320.605 C 201.77867 320.605 203.08066 320.96666 204.114 321.69 L 203.122 327.425 C 203.06 327.797 202.92567 328.0605 202.719 328.2155 C 202.51233 328.3705 202.23334 328.448 201.882 328.448 C 201.572 328.448 201.14834 328.37567 200.611 328.231 C 200.07366 328.08633 199.36067 328.014 198.472 328.014 C 196.88066 328.014 195.51667 328.45316 194.38 329.3315 C 193.24333 330.20984 192.28234 331.49632 191.497 333.191 L 191.497 353 Z" fill="#424242"/>
        </g>
        <g id="Graphic_407">
          <path d="M 222.311 320.698 C 224.31568 320.698 226.16016 321.01833 227.8445 321.659 C 229.52884 322.29967 230.98066 323.23483 232.2 324.4645 C 233.41934 325.69417 234.37 327.20282 235.052 328.9905 C 235.734 330.77818 236.075 332.819 236.075 335.113 C 236.075 335.69167 236.04917 336.17216 235.9975 336.5545 C 235.94583 336.93684 235.85283 337.2365 235.7185 337.4535 C 235.58417 337.6705 235.40333 337.8255 235.176 337.9185 C 234.94867 338.0115 234.65934 338.058 234.308 338.058 L 214.654 338.058 C 214.88133 341.32335 215.75966 343.72066 217.289 345.25 C 218.81834 346.77934 220.84365 347.544 223.365 347.544 C 224.605 347.544 225.6745 347.39933 226.5735 347.11 C 227.4725 346.82067 228.25783 346.50034 228.9295 346.149 C 229.60117 345.79766 230.19016 345.47733 230.6965 345.188 C 231.20284 344.89867 231.69366 344.754 232.169 344.754 C 232.479 344.754 232.74767 344.816 232.975 344.94 C 233.20233 345.064 233.39867 345.23967 233.564 345.467 L 235.796 348.257 C 234.94866 349.249 233.998 350.08083 232.944 350.7525 C 231.89 351.42417 230.7895 351.9615 229.6425 352.3645 C 228.4955 352.7675 227.32784 353.05167 226.1395 353.217 C 224.95116 353.38233 223.799 353.465 222.683 353.465 C 220.47166 353.465 218.41534 353.09817 216.514 352.3645 C 214.61266 351.63083 212.95934 350.54584 211.554 349.1095 C 210.14866 347.67316 209.043 345.89584 208.237 343.7775 C 207.431 341.65916 207.028 339.205 207.028 336.415 C 207.028 334.245 207.37933 332.20418 208.082 330.2925 C 208.78467 328.38082 209.79216 326.71717 211.1045 325.3015 C 212.41684 323.88583 214.0185 322.76467 215.9095 321.938 C 217.8005 321.11133 219.93432 320.698 222.311 320.698 Z M 222.466 326.185 C 220.234 326.185 218.48767 326.81533 217.227 328.076 C 215.96633 329.33667 215.16034 331.12432 214.809 333.439 L 229.193 333.439 C 229.193 332.447 229.05867 331.51184 228.79 330.6335 C 228.52133 329.75516 228.108 328.98534 227.55 328.324 C 226.992 327.66266 226.28934 327.14084 225.442 326.7585 C 224.59466 326.37616 223.60267 326.185 222.466 326.185 Z" fill="#424242"/>
        </g>
        <g id="Graphic_408">
          <path d="M 242.306 353 L 242.306 321.194 L 246.987 321.194 C 247.979 321.194 248.63 321.659 248.94 322.589 L 249.467 325.1 C 250.10767 324.43866 250.7845 323.83934 251.4975 323.302 C 252.2105 322.76466 252.96483 322.29967 253.7605 321.907 C 254.55617 321.51433 255.40866 321.21467 256.318 321.008 C 257.22734 320.80133 258.21933 320.698 259.294 320.698 C 261.03 320.698 262.56966 320.9925 263.913 321.5815 C 265.25634 322.1705 266.3775 322.99716 267.2765 324.0615 C 268.1755 325.12584 268.8575 326.39683 269.3225 327.8745 C 269.7875 329.35217 270.02 330.97966 270.02 332.757 L 270.02 353 L 262.363 353 L 262.363 332.757 C 262.363 330.81432 261.9135 329.31084 261.0145 328.2465 C 260.1155 327.18216 258.767 326.65 256.969 326.65 C 255.64633 326.65 254.40634 326.94966 253.249 327.549 C 252.09166 328.14834 250.99634 328.96466 249.963 329.998 L 249.963 353 Z" fill="#424242"/>
        </g>
        <g id="Graphic_409">
          <path d="M 288 353.496 C 285.25132 353.496 283.133 352.71584 281.645 351.1555 C 280.157 349.59516 279.413 347.4407 279.413 344.692 L 279.413 326.929 L 276.189 326.929 C 275.77566 326.929 275.41917 326.79467 275.1195 326.526 C 274.81983 326.25733 274.67 325.85434 274.67 325.317 L 274.67 322.279 L 279.785 321.442 L 281.397 312.762 C 281.47967 312.34866 281.67083 312.02833 281.9705 311.801 C 282.27017 311.57367 282.64733 311.46 283.102 311.46 L 287.07 311.46 L 287.07 321.473 L 295.44 321.473 L 295.44 326.929 L 287.07 326.929 L 287.07 344.165 C 287.07 345.157 287.318 345.932 287.814 346.49 C 288.31 347.048 288.97133 347.327 289.798 347.327 C 290.27334 347.327 290.67117 347.27017 290.9915 347.1565 C 291.31183 347.04283 291.59083 346.924 291.8285 346.8 C 292.06617 346.676 292.278 346.55717 292.464 346.4435 C 292.65 346.32983 292.836 346.273 293.022 346.273 C 293.24933 346.273 293.43533 346.32983 293.58 346.4435 C 293.72467 346.55717 293.87967 346.72767 294.045 346.955 L 296.339 350.675 C 295.223 351.605 293.94167 352.30766 292.495 352.783 C 291.04833 353.25834 289.55 353.496 288 353.496 Z" fill="#424242"/>
        </g>
        <g id="Graphic_410">
          <path d="M 309.7 321.194 L 309.7 353 L 302.043 353 L 302.043 321.194 Z M 310.847 311.925 C 310.847 312.58634 310.71267 313.20633 310.444 313.785 C 310.17533 314.36367 309.81884 314.87 309.3745 315.304 C 308.93016 315.738 308.40834 316.08417 307.809 316.3425 C 307.20966 316.60083 306.569 316.73 305.887 316.73 C 305.22566 316.73 304.6005 316.60083 304.0115 316.3425 C 303.4225 316.08417 302.911 315.738 302.477 315.304 C 302.043 314.87 301.69683 314.36367 301.4385 313.785 C 301.18017 313.20633 301.051 312.58634 301.051 311.925 C 301.051 311.243 301.18017 310.60234 301.4385 310.003 C 301.69683 309.40366 302.043 308.887 302.477 308.453 C 302.911 308.019 303.4225 307.67283 304.0115 307.4145 C 304.6005 307.15617 305.22566 307.027 305.887 307.027 C 306.569 307.027 307.20966 307.15617 307.809 307.4145 C 308.40834 307.67283 308.93016 308.019 309.3745 308.453 C 309.81884 308.887 310.17533 309.40366 310.444 310.003 C 310.71267 310.60234 310.847 311.243 310.847 311.925 Z" fill="#424242"/>
        </g>
        <g id="Graphic_411">
          <path d="M 343.273 353 L 339.832 353 C 339.10866 353 338.54034 352.8915 338.127 352.6745 C 337.71366 352.4575 337.40367 352.01834 337.197 351.357 L 336.515 349.094 C 335.709 349.81734 334.9185 350.45283 334.1435 351.0005 C 333.3685 351.54817 332.56767 352.008 331.741 352.38 C 330.91433 352.752 330.036 353.031 329.106 353.217 C 328.176 353.403 327.14267 353.496 326.006 353.496 C 324.66266 353.496 323.42267 353.31517 322.286 352.9535 C 321.14933 352.59183 320.17284 352.04934 319.3565 351.326 C 318.54016 350.60266 317.90467 349.70367 317.45 348.629 C 316.99533 347.55433 316.768 346.304 316.768 344.878 C 316.768 343.67933 317.08316 342.49617 317.7135 341.3285 C 318.34384 340.16083 319.39266 339.10684 320.86 338.1665 C 322.32734 337.22616 324.28032 336.446 326.719 335.826 C 329.15768 335.206 332.1853 334.85467 335.802 334.772 L 335.802 332.912 C 335.802 330.78332 335.3525 329.2075 334.4535 328.1845 C 333.5545 327.1615 332.24734 326.65 330.532 326.65 C 329.292 326.65 328.25867 326.79467 327.432 327.084 C 326.60533 327.37333 325.88717 327.69883 325.2775 328.0605 C 324.66783 328.42217 324.10467 328.74767 323.588 329.037 C 323.07133 329.32633 322.503 329.471 321.883 329.471 C 321.36633 329.471 320.922 329.33667 320.55 329.068 C 320.178 328.79933 319.87833 328.46867 319.651 328.076 L 318.256 325.627 C 321.914 322.279 326.3263 320.605 331.493 320.605 C 333.353 320.605 335.0115 320.90983 336.4685 321.5195 C 337.9255 322.12917 339.16033 322.9765 340.173 324.0615 C 341.18567 325.1465 341.9555 326.44333 342.4825 327.952 C 343.0095 329.46067 343.273 331.114 343.273 332.912 Z M 328.393 348.226 C 329.17834 348.226 329.90166 348.15367 330.563 348.009 C 331.22434 347.86433 331.8495 347.64733 332.4385 347.358 C 333.0275 347.06867 333.59583 346.71217 334.1435 346.2885 C 334.69117 345.86483 335.244 345.36367 335.802 344.785 L 335.802 339.422 C 333.57 339.52533 331.70484 339.7165 330.2065 339.9955 C 328.70816 340.2745 327.50434 340.631 326.595 341.065 C 325.68566 341.499 325.03984 342.00533 324.6575 342.584 C 324.27516 343.16267 324.084 343.793 324.084 344.475 C 324.084 345.81834 324.48183 346.77933 325.2775 347.358 C 326.07317 347.93667 327.11166 348.226 328.393 348.226 Z" fill="#424242"/>
        </g>
        <g id="Graphic_412">
          <rect x="351.302" y="306.934" width="7.657" height="46.066" fill="#424242"/>
        </g>
        <g id="Graphic_413">
          <path d="M 72.798 382.174 L 72.798 388.808 L 52.927 388.808 L 52.927 401.239 L 68.582 401.239 L 68.582 407.656 L 52.927 407.656 L 52.927 420.335 L 72.798 420.335 L 72.798 427 L 44.526 427 L 44.526 382.174 Z" fill="#424242"/>
        </g>
        <g id="Graphic_414">
          <path d="M 106.65 395.194 L 106.65 437.385 L 98.993 437.385 L 98.993 423.001 C 98.35233 423.683 97.6755 424.29783 96.9625 424.8455 C 96.2495 425.39317 95.49 425.85816 94.684 426.2405 C 93.878 426.62284 93.02034 426.9225 92.111 427.1395 C 91.20166 427.3565 90.22 427.465 89.166 427.465 C 87.42999 427.465 85.83867 427.10334 84.392 426.38 C 82.94533 425.65666 81.70017 424.60784 80.6565 423.2335 C 79.61283 421.85916 78.80684 420.15934 78.2385 418.134 C 77.67016 416.10866 77.386 413.794 77.386 411.19 C 77.386 408.834 77.70633 406.64334 78.347 404.618 C 78.98767 402.59266 79.90733 400.836 81.106 399.348 C 82.30467 397.86 83.74099 396.6975 85.415 395.8605 C 87.08901 395.0235 88.96966 394.605 91.057 394.605 C 92.049 394.605 92.95316 394.69283 93.7695 394.8685 C 94.58584 395.04417 95.34016 395.29733 96.0325 395.628 C 96.72484 395.95867 97.36033 396.35133 97.939 396.806 C 98.51767 397.26067 99.07566 397.77733 99.613 398.356 L 100.016 396.589 C 100.11933 396.11366 100.34666 395.76233 100.698 395.535 C 101.04934 395.30767 101.473 395.194 101.969 395.194 Z M 91.77 421.389 C 93.36134 421.389 94.715 421.05834 95.831 420.397 C 96.947 419.73566 98.001 418.79534 98.993 417.576 L 98.993 403.316 C 98.125 402.262 97.1795 401.518 96.1565 401.084 C 95.1335 400.65 94.03301 400.433 92.855 400.433 C 91.69766 400.433 90.64884 400.65 89.7085 401.084 C 88.76816 401.518 87.9725 402.17416 87.3215 403.0525 C 86.6705 403.93084 86.16934 405.04683 85.818 406.4005 C 85.46666 407.75417 85.291 409.35066 85.291 411.19 C 85.291 413.05 85.44083 414.62583 85.7405 415.9175 C 86.04017 417.20917 86.469 418.26316 87.027 419.0795 C 87.585 419.89584 88.267 420.48483 89.073 420.8465 C 89.879 421.20817 90.778 421.389 91.77 421.389 Z" fill="#424242"/>
        </g>
        <g id="Graphic_415">
          <path d="M 121.933 395.194 L 121.933 415.406 C 121.933 417.3487 122.3825 418.85216 123.2815 419.9165 C 124.1805 420.98084 125.52899 421.513 127.327 421.513 C 128.64967 421.513 129.88966 421.2185 131.047 420.6295 C 132.20434 420.0405 133.29966 419.22934 134.333 418.196 L 134.333 395.194 L 141.99 395.194 L 141.99 427 L 137.309 427 C 136.317 427 135.666 426.535 135.356 425.605 L 134.829 423.063 C 134.16766 423.72434 133.48567 424.32883 132.783 424.8765 C 132.08033 425.42417 131.33117 425.88916 130.5355 426.2715 C 129.73983 426.65384 128.88217 426.9535 127.9625 427.1705 C 127.04283 427.3875 126.056 427.496 125.002 427.496 C 123.26599 427.496 121.7315 427.2015 120.3985 426.6125 C 119.0655 426.0235 117.94434 425.19167 117.035 424.117 C 116.12566 423.04233 115.4385 421.76617 114.9735 420.2885 C 114.5085 418.81083 114.276 417.18334 114.276 415.406 L 114.276 395.194 Z" fill="#424242"/>
        </g>
        <g id="Graphic_416">
          <path d="M 175.098 427 L 171.657 427 C 170.93366 427 170.36534 426.8915 169.952 426.6745 C 169.53866 426.4575 169.22867 426.01834 169.022 425.357 L 168.34 423.094 C 167.534 423.81734 166.7435 424.45283 165.9685 425.0005 C 165.1935 425.54817 164.39267 426.008 163.566 426.38 C 162.73933 426.752 161.861 427.031 160.931 427.217 C 160.001 427.403 158.96767 427.496 157.831 427.496 C 156.48766 427.496 155.24767 427.31517 154.111 426.9535 C 152.97433 426.59183 151.99784 426.04934 151.1815 425.326 C 150.36516 424.60266 149.72967 423.70367 149.275 422.629 C 148.82033 421.55433 148.593 420.304 148.593 418.878 C 148.593 417.67933 148.90816 416.49617 149.5385 415.3285 C 150.16884 414.16083 151.21766 413.10684 152.685 412.1665 C 154.15234 411.22616 156.10532 410.446 158.544 409.826 C 160.98268 409.206 164.01032 408.85467 167.627 408.772 L 167.627 406.912 C 167.627 404.7833 167.1775 403.2075 166.2785 402.1845 C 165.3795 401.1615 164.07234 400.65 162.357 400.65 C 161.117 400.65 160.08367 400.79467 159.257 401.084 C 158.43033 401.37333 157.71217 401.69883 157.1025 402.0605 C 156.49283 402.42217 155.92967 402.74767 155.413 403.037 C 154.89633 403.32633 154.328 403.471 153.708 403.471 C 153.19133 403.471 152.747 403.33667 152.375 403.068 C 152.003 402.79933 151.70333 402.46867 151.476 402.076 L 150.081 399.627 C 153.73902 396.279 158.1513 394.605 163.318 394.605 C 165.178 394.605 166.8365 394.90983 168.2935 395.5195 C 169.7505 396.12917 170.98533 396.9765 171.998 398.0615 C 173.01067 399.1465 173.7805 400.44333 174.3075 401.952 C 174.8345 403.46067 175.098 405.114 175.098 406.912 Z M 160.218 422.226 C 161.00334 422.226 161.72666 422.15367 162.388 422.009 C 163.04934 421.86433 163.6745 421.64733 164.2635 421.358 C 164.8525 421.06867 165.42083 420.71217 165.9685 420.2885 C 166.51617 419.86483 167.069 419.36367 167.627 418.785 L 167.627 413.422 C 165.39499 413.52533 163.52984 413.7165 162.0315 413.9955 C 160.53316 414.2745 159.32934 414.631 158.42 415.065 C 157.51066 415.499 156.86484 416.00533 156.4825 416.584 C 156.10016 417.16267 155.909 417.793 155.909 418.475 C 155.909 419.81834 156.30683 420.77933 157.1025 421.358 C 157.89817 421.93667 158.93666 422.226 160.218 422.226 Z" fill="#424242"/>
        </g>
        <g id="Graphic_417">
          <path d="M 193.078 427.496 C 190.32932 427.496 188.211 426.71584 186.723 425.1555 C 185.235 423.59516 184.491 421.4407 184.491 418.692 L 184.491 400.929 L 181.267 400.929 C 180.85366 400.929 180.49717 400.79467 180.1975 400.526 C 179.89783 400.25733 179.748 399.85434 179.748 399.317 L 179.748 396.279 L 184.863 395.442 L 186.475 386.762 C 186.55767 386.34866 186.74883 386.02833 187.0485 385.801 C 187.34817 385.57367 187.72533 385.46 188.18 385.46 L 192.148 385.46 L 192.148 395.473 L 200.518 395.473 L 200.518 400.929 L 192.148 400.929 L 192.148 418.165 C 192.148 419.157 192.396 419.932 192.892 420.49 C 193.388 421.048 194.04933 421.327 194.876 421.327 C 195.35134 421.327 195.74917 421.27017 196.0695 421.1565 C 196.38983 421.04283 196.66883 420.924 196.9065 420.8 C 197.14417 420.676 197.356 420.55717 197.542 420.4435 C 197.728 420.32983 197.914 420.273 198.1 420.273 C 198.32733 420.273 198.51333 420.32983 198.658 420.4435 C 198.80267 420.55717 198.95767 420.72767 199.123 420.955 L 201.417 424.675 C 200.301 425.605 199.01967 426.30766 197.573 426.783 C 196.12633 427.25834 194.628 427.496 193.078 427.496 Z" fill="#424242"/>
        </g>
        <g id="Graphic_418">
          <path d="M 214.778 395.194 L 214.778 427 L 207.121 427 L 207.121 395.194 Z M 215.925 385.925 C 215.925 386.58634 215.79067 387.20633 215.522 387.785 C 215.25333 388.36367 214.89684 388.87 214.4525 389.304 C 214.00816 389.738 213.48634 390.08417 212.887 390.3425 C 212.28766 390.60083 211.647 390.73 210.965 390.73 C 210.30366 390.73 209.6785 390.60083 209.0895 390.3425 C 208.5005 390.08417 207.989 389.738 207.555 389.304 C 207.121 388.87 206.77483 388.36367 206.5165 387.785 C 206.25817 387.20633 206.129 386.58634 206.129 385.925 C 206.129 385.243 206.25817 384.60234 206.5165 384.003 C 206.77483 383.40366 207.121 382.887 207.555 382.453 C 207.989 382.019 208.5005 381.67283 209.0895 381.4145 C 209.6785 381.15617 210.30366 381.027 210.965 381.027 C 211.647 381.027 212.28766 381.15617 212.887 381.4145 C 213.48634 381.67283 214.00816 382.019 214.4525 382.453 C 214.89684 382.887 215.25333 383.40366 215.522 384.003 C 215.79067 384.60234 215.925 385.243 215.925 385.925 Z" fill="#424242"/>
        </g>
        <g id="Graphic_419">
          <path d="M 237.005 394.698 C 239.38168 394.698 241.53616 395.08033 243.4685 395.845 C 245.40084 396.60967 247.049 397.69466 248.413 399.1 C 249.777 400.50534 250.831 402.22066 251.575 404.246 C 252.319 406.27134 252.691 408.5343 252.691 411.035 C 252.691 413.55635 252.319 415.82966 251.575 417.855 C 250.831 419.88034 249.777 421.606 248.413 423.032 C 247.049 424.458 245.40084 425.55333 243.4685 426.318 C 241.53616 427.08267 239.38168 427.465 237.005 427.465 C 234.62832 427.465 232.46868 427.08267 230.526 426.318 C 228.58332 425.55333 226.92484 424.458 225.5505 423.032 C 224.17616 421.606 223.11184 419.88034 222.3575 417.855 C 221.60316 415.82966 221.226 413.55635 221.226 411.035 C 221.226 408.5343 221.60316 406.27134 222.3575 404.246 C 223.11184 402.22066 224.17616 400.50534 225.5505 399.1 C 226.92484 397.69466 228.58332 396.60967 230.526 395.845 C 232.46868 395.08033 234.62832 394.698 237.005 394.698 Z M 237.005 421.575 C 239.65035 421.575 241.6085 420.68634 242.8795 418.909 C 244.1505 417.13166 244.786 414.5277 244.786 411.097 C 244.786 407.6663 244.1505 405.052 242.8795 403.254 C 241.6085 401.456 239.65035 400.557 237.005 400.557 C 234.31832 400.557 232.33434 401.46116 231.053 403.2695 C 229.77166 405.07784 229.131 407.687 229.131 411.097 C 229.131 414.507 229.77166 417.1058 231.053 418.8935 C 232.33434 420.6812 234.31832 421.575 237.005 421.575 Z" fill="#424242"/>
        </g>
        <g id="Graphic_420">
          <path d="M 258.674 427 L 258.674 395.194 L 263.355 395.194 C 264.347 395.194 264.998 395.659 265.308 396.589 L 265.835 399.1 C 266.47567 398.43866 267.1525 397.83934 267.8655 397.302 C 268.5785 396.76466 269.33283 396.29967 270.1285 395.907 C 270.92417 395.51433 271.77666 395.21467 272.686 395.008 C 273.59534 394.80133 274.58733 394.698 275.662 394.698 C 277.398 394.698 278.93766 394.9925 280.281 395.5815 C 281.62434 396.1705 282.7455 396.99716 283.6445 398.0615 C 284.5435 399.12584 285.2255 400.39683 285.6905 401.8745 C 286.1555 403.35217 286.388 404.97966 286.388 406.757 L 286.388 427 L 278.731 427 L 278.731 406.757 C 278.731 404.8143 278.2815 403.31084 277.3825 402.2465 C 276.4835 401.18216 275.135 400.65 273.337 400.65 C 272.01433 400.65 270.77434 400.94966 269.617 401.549 C 268.45966 402.14834 267.36434 402.96466 266.331 403.998 L 266.331 427 Z" fill="#424242"/>
        </g>
        <g id="Graphic_421">
          <path d="M 312.8 401.394 C 312.59333 401.72467 312.37633 401.95717 312.149 402.0915 C 311.92167 402.22583 311.63234 402.293 311.281 402.293 C 310.909 402.293 310.51117 402.18967 310.0875 401.983 C 309.66383 401.77633 309.173 401.54383 308.615 401.2855 C 308.057 401.02717 307.4215 400.79467 306.7085 400.588 C 305.9955 400.38133 305.15334 400.278 304.182 400.278 C 302.67333 400.278 301.485 400.59833 300.617 401.239 C 299.749 401.87967 299.315 402.71666 299.315 403.75 C 299.315 404.432 299.53716 405.0055 299.9815 405.4705 C 300.42584 405.9355 301.01483 406.34366 301.7485 406.695 C 302.48217 407.04634 303.314 407.3615 304.244 407.6405 C 305.174 407.9195 306.12466 408.22433 307.096 408.555 C 308.06734 408.88567 309.018 409.26283 309.948 409.6865 C 310.878 410.11017 311.70983 410.6475 312.4435 411.2985 C 313.17717 411.9495 313.76616 412.72966 314.2105 413.639 C 314.65484 414.54834 314.877 415.64366 314.877 416.925 C 314.877 418.45434 314.598 419.86483 314.04 421.1565 C 313.482 422.44817 312.66567 423.56416 311.591 424.5045 C 310.51633 425.44484 309.1885 426.1785 307.6075 426.7055 C 306.0265 427.2325 304.213 427.496 302.167 427.496 C 301.07166 427.496 300.00217 427.39783 298.9585 427.2015 C 297.91483 427.00517 296.9125 426.73134 295.9515 426.38 C 294.9905 426.02866 294.10184 425.61534 293.2855 425.14 C 292.46916 424.66466 291.751 424.148 291.131 423.59 L 292.898 420.676 C 293.12533 420.32466 293.394 420.056 293.704 419.87 C 294.014 419.684 294.40666 419.591 294.882 419.591 C 295.35734 419.591 295.80683 419.72533 296.2305 419.994 C 296.65417 420.26267 297.145 420.552 297.703 420.862 C 298.261 421.172 298.91716 421.46133 299.6715 421.73 C 300.42584 421.99867 301.38166 422.133 302.539 422.133 C 303.44834 422.133 304.2285 422.0245 304.8795 421.8075 C 305.5305 421.5905 306.06783 421.30634 306.4915 420.955 C 306.91517 420.60366 307.22517 420.1955 307.4215 419.7305 C 307.61783 419.2655 307.716 418.785 307.716 418.289 C 307.716 417.545 307.49384 416.93534 307.0495 416.46 C 306.60516 415.98466 306.01617 415.57134 305.2825 415.22 C 304.54883 414.86866 303.71184 414.5535 302.7715 414.2745 C 301.83116 413.9955 300.87017 413.69067 299.8885 413.36 C 298.90683 413.02933 297.94584 412.64184 297.0055 412.1975 C 296.06516 411.75316 295.22817 411.19 294.4945 410.508 C 293.76083 409.826 293.17184 408.989 292.7275 407.997 C 292.28316 407.005 292.061 405.80634 292.061 404.401 C 292.061 403.099 292.31933 401.859 292.836 400.681 C 293.35267 399.503 294.11216 398.47484 295.1145 397.5965 C 296.11684 396.71816 297.36716 396.0155 298.8655 395.4885 C 300.36384 394.9615 302.09466 394.698 304.058 394.698 C 306.24868 394.698 308.243 395.05966 310.041 395.783 C 311.839 396.50634 313.33733 397.457 314.536 398.635 Z" fill="#424242"/>
        </g>
      </g>
    </g>
  </g>
</svg>
